<?xml version="1.0" encoding="UTF-8" standalone="no"?>
<svg
   xmlns:dc="http://purl.org/dc/elements/1.1/"
   xmlns:cc="http://creativecommons.org/ns#"
   xmlns:rdf="http://www.w3.org/1999/02/22-rdf-syntax-ns#"
   xmlns:svg="http://www.w3.org/2000/svg"
   xmlns="http://www.w3.org/2000/svg"
   xmlns:sodipodi="http://sodipodi.sourceforge.net/DTD/sodipodi-0.dtd"
   xmlns:inkscape="http://www.inkscape.org/namespaces/inkscape"
   height="43.4px"
   width="26.2px"
   version="1.1"
   id="svg8"
   sodipodi:docname="LLowerArm.svg"
   inkscape:version="0.92.4 (5da689c313, 2019-01-14)">
  <metadata
     id="metadata14">
    <rdf:RDF>
      <cc:Work
         rdf:about="">
        <dc:format>image/svg+xml</dc:format>
        <dc:type
           rdf:resource="http://purl.org/dc/dcmitype/StillImage" />
      </cc:Work>
    </rdf:RDF>
  </metadata>
  <defs
     id="defs12" />
  <sodipodi:namedview
     pagecolor="#ffffff"
     bordercolor="#666666"
     borderopacity="1"
     objecttolerance="10"
     gridtolerance="10"
     guidetolerance="10"
     inkscape:pageopacity="0"
     inkscape:pageshadow="2"
     inkscape:window-width="1920"
     inkscape:window-height="1007"
     id="namedview10"
     showgrid="false"
     inkscape:zoom="15.380387"
     inkscape:cx="6.8294115"
     inkscape:cy="22.769268"
     inkscape:window-x="0"
     inkscape:window-y="0"
     inkscape:window-maximized="1"
     inkscape:current-layer="g6" />
  <g
     transform="matrix(4.0, 0.0, 0.0, 4.0, 13.0, 21.6)"
     id="g6">
    <path
       d="M-1.4 5.15 Q0.6 5.25 1.45 3.6 2.1 2.3 1.9 -0.9 L1.9 -4.7 1.95 -4.7 Q2.75 -3.95 2.95 -2.55 3.4 -0.25 3.25 2.8 3.2 3.65 2.55 4.35 1.7 5.35 0.3 5.45 L-1.4 5.15"
       fill="#de6dc8"
       fill-rule="evenodd"
       stroke="none"
       id="path2"
       style="fill:#919191;fill-opacity:1" />
    <path
       d="M1.9 -4.7 L1.9 -0.9 Q2.1 2.3 1.45 3.6 0.6 5.25 -1.4 5.15 -3.35 4.45 -3.25 2.55 L-3.0 -3.4 -2.45 -4.4 Q-1.65 -5.3 -0.35 -5.4 0.9 -5.5 1.9 -4.7"
       fill="#eba5dd"
       fill-rule="evenodd"
       stroke="none"
       id="path4"
       style="fill:#bfbfbf;fill-opacity:1" />
  </g>
</svg>
