<?xml version="1.0" encoding="UTF-8" standalone="no"?>
<svg
   xmlns:dc="http://purl.org/dc/elements/1.1/"
   xmlns:cc="http://creativecommons.org/ns#"
   xmlns:rdf="http://www.w3.org/1999/02/22-rdf-syntax-ns#"
   xmlns:svg="http://www.w3.org/2000/svg"
   xmlns="http://www.w3.org/2000/svg"
   xmlns:sodipodi="http://sodipodi.sourceforge.net/DTD/sodipodi-0.dtd"
   xmlns:inkscape="http://www.inkscape.org/namespaces/inkscape"
   height="55.8px"
   width="24.6px"
   version="1.1"
   id="svg8"
   sodipodi:docname="LUpperArm.svg"
   inkscape:version="0.92.4 (5da689c313, 2019-01-14)">
  <metadata
     id="metadata14">
    <rdf:RDF>
      <cc:Work
         rdf:about="">
        <dc:format>image/svg+xml</dc:format>
        <dc:type
           rdf:resource="http://purl.org/dc/dcmitype/StillImage" />
      </cc:Work>
    </rdf:RDF>
  </metadata>
  <defs
     id="defs12" />
  <sodipodi:namedview
     pagecolor="#ffffff"
     bordercolor="#666666"
     borderopacity="1"
     objecttolerance="10"
     gridtolerance="10"
     guidetolerance="10"
     inkscape:pageopacity="0"
     inkscape:pageshadow="2"
     inkscape:window-width="1920"
     inkscape:window-height="1007"
     id="namedview10"
     showgrid="false"
     inkscape:zoom="11.962523"
     inkscape:cx="23.17027"
     inkscape:cy="30.484888"
     inkscape:window-x="0"
     inkscape:window-y="0"
     inkscape:window-maximized="1"
     inkscape:current-layer="g6" />
  <g
     transform="matrix(4.0, 0.0, 0.0, 4.0, 12.4, 27.8)"
     id="g6">
    <path
       d="M-1.65 -6.3 Q0.7 -6.85 1.25 -4.15 L1.65 1.3 1.8 6.45 Q0.7 7.0 -0.05 7.0 -1.7 6.95 -2.5 5.8 -3.1 4.95 -3.1 3.95 L-2.3 -4.9 Q-2.2 -5.7 -1.65 -6.3"
       fill="#eba5dd"
       fill-rule="evenodd"
       stroke="none"
       id="path2"
       style="fill:#bfbfbf;fill-opacity:1" />
    <path
       d="M-1.65 -6.3 Q-0.9 -6.95 0.0 -6.95 2.05 -6.9 2.25 -4.95 L3.05 4.1 Q2.9 5.65 1.8 6.45 L1.65 1.3 1.25 -4.15 Q0.7 -6.85 -1.65 -6.3"
       fill="#de6dc8"
       fill-rule="evenodd"
       stroke="none"
       id="path4"
       style="fill:#919191;fill-opacity:1" />
  </g>
</svg>
