<?xml version="1.0" encoding="UTF-8" standalone="no"?>
<svg
   xmlns:dc="http://purl.org/dc/elements/1.1/"
   xmlns:cc="http://creativecommons.org/ns#"
   xmlns:rdf="http://www.w3.org/1999/02/22-rdf-syntax-ns#"
   xmlns:svg="http://www.w3.org/2000/svg"
   xmlns="http://www.w3.org/2000/svg"
   xmlns:sodipodi="http://sodipodi.sourceforge.net/DTD/sodipodi-0.dtd"
   xmlns:inkscape="http://www.inkscape.org/namespaces/inkscape"
   height="43.4px"
   width="26.2px"
   version="1.1"
   id="svg8"
   sodipodi:docname="RLowerArm.svg"
   inkscape:version="0.92.4 (5da689c313, 2019-01-14)">
  <metadata
     id="metadata14">
    <rdf:RDF>
      <cc:Work
         rdf:about="">
        <dc:format>image/svg+xml</dc:format>
        <dc:type
           rdf:resource="http://purl.org/dc/dcmitype/StillImage" />
      </cc:Work>
    </rdf:RDF>
  </metadata>
  <defs
     id="defs12" />
  <sodipodi:namedview
     pagecolor="#ffffff"
     bordercolor="#666666"
     borderopacity="1"
     objecttolerance="10"
     gridtolerance="10"
     guidetolerance="10"
     inkscape:pageopacity="0"
     inkscape:pageshadow="2"
     inkscape:window-width="1600"
     inkscape:window-height="835"
     id="namedview10"
     showgrid="false"
     inkscape:zoom="5.4377878"
     inkscape:cx="13.1"
     inkscape:cy="21.700001"
     inkscape:window-x="0"
     inkscape:window-y="0"
     inkscape:window-maximized="1"
     inkscape:current-layer="g6" />
  <g
     transform="matrix(4.0, 0.0, 0.0, 4.0, 13.0, 21.6)"
     id="g6">
    <path
       d="M-1.9 -4.7 Q-0.9 -5.5 0.4 -5.4 1.7 -5.3 2.5 -4.4 L3.05 -3.4 3.3 2.55 Q3.4 4.45 1.45 5.15 -0.55 5.25 -1.4 3.6 -2.1 2.3 -1.85 -0.9 L-1.9 -4.7"
       fill="#eba5dd"
       fill-rule="evenodd"
       stroke="none"
       id="path2"
       style="fill:#e6e6e6;fill-opacity:1" />
    <path
       d="M-1.9 -4.7 L-1.85 -0.9 Q-2.1 2.3 -1.4 3.6 -0.55 5.25 1.45 5.15 L-0.25 5.45 Q-1.65 5.35 -2.5 4.35 -3.15 3.65 -3.2 2.8 -3.35 -0.25 -2.9 -2.55 -2.7 -3.95 -1.9 -4.7"
       fill="#de6dc8"
       fill-rule="evenodd"
       stroke="none"
       id="path4"
       style="fill:#cccccc;fill-opacity:1" />
  </g>
</svg>
