<?xml version="1.0" encoding="UTF-8" standalone="no"?>
<svg
   xmlns:dc="http://purl.org/dc/elements/1.1/"
   xmlns:cc="http://creativecommons.org/ns#"
   xmlns:rdf="http://www.w3.org/1999/02/22-rdf-syntax-ns#"
   xmlns:svg="http://www.w3.org/2000/svg"
   xmlns="http://www.w3.org/2000/svg"
   xmlns:xlink="http://www.w3.org/1999/xlink"
   xmlns:sodipodi="http://sodipodi.sourceforge.net/DTD/sodipodi-0.dtd"
   xmlns:inkscape="http://www.inkscape.org/namespaces/inkscape"
   height="41.367023"
   width="34.076542"
   version="1.1"
   id="svg186"
   sodipodi:docname="BodyDiagUp.svg"
   inkscape:version="0.92.4 (5da689c313, 2019-01-14)">
  <metadata
     id="metadata190">
    <rdf:RDF>
      <cc:Work
         rdf:about="">
        <dc:format>image/svg+xml</dc:format>
        <dc:type
           rdf:resource="http://purl.org/dc/dcmitype/StillImage" />
        <dc:title />
      </cc:Work>
    </rdf:RDF>
  </metadata>
  <sodipodi:namedview
     pagecolor="#ffffff"
     bordercolor="#666666"
     borderopacity="1"
     objecttolerance="10"
     gridtolerance="10"
     guidetolerance="10"
     inkscape:pageopacity="0"
     inkscape:pageshadow="2"
     inkscape:window-width="1920"
     inkscape:window-height="1007"
     id="namedview188"
     showgrid="false"
     inkscape:zoom="9.788926"
     inkscape:cx="-16.220261"
     inkscape:cy="18.206713"
     inkscape:window-x="0"
     inkscape:window-y="0"
     inkscape:window-maximized="1"
     inkscape:current-layer="layer1" />
  <g
     id="layer1"
     inkscape:label="Main"
     transform="translate(-20.963243,-5.5779557)"
     inkscape:groupmode="layer">
    <g
       transform="matrix(-1.998407,0,0,1.998407,38.053324,37.352627)"
       id="Body_B"
       inkscape:label="Body_B"
       style="display:inline">
      <g
         id="BodyFL"
         inkscape:label="BodyFL">
        <path
           id="path1061"
           d="m -7,-8.45 q 1.1,1.8 4.5,2.7 l 10.55,0.45 0.5,3.35 Q 8.6,0.45 7.3,1.9 L 6.65,2.6 Q 5.25,3.8 3.15,4.35 L 1.4,4.7 Q -2.25,4.3 -5.05,2.5 -7.8,0.75 -8.5,-1.5 v -0.4 q 0.2,-2.85 1.5,-6.55"
           inkscape:connector-curvature="0"
           style="fill:#bfbfbf;fill-opacity:1;fill-rule:evenodd;stroke:none" />
        <path
           id="path1063"
           d="m -7,-8.45 0.3,-0.9 q 1.6,-4.35 3,-5.75 0.4,-0.35 1.6,-0.6 l 2.2,-0.2 q 2.75,0 3.65,0.8 1.4,1.4 3,5.75 L 8.05,-5.3 -2.5,-5.75 Q -5.9,-6.65 -7,-8.45 M 1.4,4.7 0.05,4.8 -3.2,4.4 Q -5.05,3.9 -6.5,2.7 L -7.3,1.9 q -1.2,-1.35 -1.2,-3.4 0.7,2.25 3.45,4 2.8,1.8 6.45,2.2"
           inkscape:connector-curvature="0"
           style="fill:#919191;fill-opacity:1;fill-rule:evenodd;stroke:none" />
      </g>
    </g>
  </g>
  <defs
     id="defs184">
    <g
       id="sprite0"
       transform="translate(4.45,3.3)">
      <use
         height="9.5"
         transform="matrix(0.999,-0.0403,0.0403,0.999,-3.7995,-2.9972)"
         width="7.4000001"
         xlink:href="#sprite1"
         id="use24"
         x="0"
         y="0" />
      <use
         height="4.5500002"
         transform="translate(-4.45,3.15)"
         width="8.3500004"
         xlink:href="#sprite2"
         id="use26"
         x="0"
         y="0" />
    </g>
    <g
       id="sprite1"
       transform="translate(3.7,3.8)">
      <use
         height="9.25"
         transform="matrix(1,0,0,1.027,-3.7,-3.7959)"
         width="7.4000001"
         xlink:href="#shape0"
         id="use29"
         x="0"
         y="0" />
    </g>
    <g
       id="shape0"
       transform="translate(3.7,3.55)">
      <path
         d="M -2.5,4.7 -2.55,4.65 q -1,-1 -1.05,-2.15 L -3.7,0 q 0.15,-1.65 1.2,-2.55 V 4.7"
         id="path32"
         inkscape:connector-curvature="0"
         style="fill:#686187;fill-rule:evenodd;stroke:none" />
      <path
         d="m -2.5,-2.55 q 1,-1 2.45,-1 1.55,0 2.6,1.05 0.95,1 1.1,2.5 L 3.7,2.5 Q 3.5,3.75 2.6,4.65 1.5,5.7 0,5.7 q -1.4,0 -2.5,-1 v -7.25"
         id="path34"
         inkscape:connector-curvature="0"
         style="fill:#8881a4;fill-rule:evenodd;stroke:none" />
    </g>
    <g
       id="sprite2"
       transform="translate(5.1,2.3)">
      <use
         height="4.5500002"
         transform="translate(-5.1,-2.3)"
         width="8.3500004"
         xlink:href="#sprite3"
         id="use37"
         x="0"
         y="0" />
    </g>
    <g
       id="sprite3"
       transform="translate(3.95,2.45)">
      <use
         height="4.5500002"
         transform="translate(-3.95,-2.45)"
         width="8.3500004"
         xlink:href="#shape1"
         id="use40"
         x="0"
         y="0" />
    </g>
    <g
       id="shape1"
       transform="translate(3.95,2.45)">
      <path
         d="M 4.3,-2.1 Q 4.5,-1.55 4.2,0.15 3.35,1.45 2.55,1.8 1.65,2.2 0.3,1.8 -1.9,2.55 -2.5,0.8 -3.2,1 -3.65,0.4 q -0.4,-0.55 -0.15,-1.25 -0.1,-1.5 0.9,-1.6 0.35,2.35 3.15,2.35 2.8,0 4.05,-2"
         id="path43"
         inkscape:connector-curvature="0"
         style="fill:#f1daa4;fill-rule:evenodd;stroke:none" />
      <path
         d="m -3.35,-1.8 -0.3,1.1 q -0.15,0.2 -0.25,0 l -0.05,-0.2 q 0,-0.9 0.45,-1 l 0.1,0.05 0.05,0.05 m 1.2,1.55 q 0,0.45 -0.3,1.35 -0.15,0.2 -0.3,0 L -2.8,0.9 q -0.1,-1.05 0.45,-1.3 l 0.15,0.05 0.05,0.1 M 0.65,0.5 0.35,1.8 Q 0.2,2 0.05,1.8 L 0,1.6 Q -0.1,0.55 0.45,0.3 L 0.6,0.35 0.65,0.5"
         id="path45"
         inkscape:connector-curvature="0"
         style="fill:#333333;fill-rule:evenodd;stroke:none" />
    </g>
    <g
       id="sprite4"
       transform="translate(3.1,2.85)">
      <use
         height="10.85"
         transform="translate(-2.9999,-2.8499)"
         width="6.5500002"
         xlink:href="#sprite5"
         id="use48"
         x="0"
         y="0" />
      <use
         height="4.5999999"
         transform="translate(-3.0999,4.5)"
         width="6.8499999"
         xlink:href="#sprite6"
         id="use50"
         x="0"
         y="0" />
    </g>
    <g
       id="sprite5"
       transform="translate(3.3,5.4)">
      <use
         height="10.85"
         transform="translate(-3.3,-5.4)"
         width="6.5500002"
         xlink:href="#shape2"
         id="use53"
         x="0"
         y="0" />
    </g>
    <g
       id="shape2"
       transform="translate(3.3,5.4)">
      <path
         d="M -1.45,5.15 Q -3.4,4.45 -3.3,2.55 l 0.25,-5.95 0.55,-1 q 0.8,-0.9 2.1,-1 1.3,-0.1 2.3,0.7 L 1.85,-0.9 Q 2.1,2.3 1.4,3.6 0.55,5.25 -1.45,5.15"
         id="path56"
         inkscape:connector-curvature="0"
         style="fill:#8881a4;fill-rule:evenodd;stroke:none" />
      <path
         d="m 1.9,-4.7 q 0.8,0.75 1,2.15 0.45,2.3 0.3,5.35 -0.05,0.85 -0.7,1.55 -0.85,1 -2.25,1.1 l -1.7,-0.3 Q 0.55,5.25 1.4,3.6 2.1,2.3 1.85,-0.9 L 1.9,-4.7"
         id="path58"
         inkscape:connector-curvature="0"
         style="fill:#686187;fill-rule:evenodd;stroke:none" />
    </g>
    <g
       id="sprite6"
       transform="translate(3.25,2.4)">
      <use
         height="4.5999999"
         transform="translate(-3.25,-2.4)"
         width="6.8499999"
         xlink:href="#sprite7"
         id="use61"
         x="0"
         y="0" />
    </g>
    <g
       id="sprite7"
       transform="translate(3.25,2.35)">
      <use
         height="4.5999999"
         transform="translate(-3.25,-2.35)"
         width="6.8499999"
         xlink:href="#shape3"
         id="use64"
         x="0"
         y="0" />
    </g>
    <g
       id="shape3"
       transform="translate(3.25,2.35)">
      <path
         d="m -0.05,-1.25 q 2.1,0 3.5,-1.1 Q 3.9,-0.85 2.9,1 2.15,2.25 0.15,2.25 -1.8,2.3 -2.7,1.3 -3.5,0.55 -3.15,-2.3 q 1,1 3.1,1.05"
         id="path67"
         inkscape:connector-curvature="0"
         style="fill:#f1daa4;fill-rule:evenodd;stroke:none" />
      <path
         d="M 0.7,2.25 Q 0.2,1.45 0.8,0.9 0.75,1.85 1.35,2.15 L 0.7,2.25 m -2.2,-0.2 q -0.15,-0.7 0.4,-1.2 -0.25,1.05 0.25,1.4 L -1.5,2.05"
         id="path69"
         inkscape:connector-curvature="0"
         style="fill:#000000;fill-rule:evenodd;stroke:none" />
    </g>
    <g
       id="sprite8"
       transform="translate(3.05,1.7)">
      <use
         height="13.95"
         transform="matrix(1,0,0,0.8825,-3.05,-1.6835)"
         width="6.0999999"
         xlink:href="#sprite9"
         id="use72"
         x="0"
         y="0" />
    </g>
    <g
       id="sprite9"
       transform="translate(3.1,6.95)">
      <use
         height="13.95"
         transform="translate(-3.1,-6.95)"
         width="6.0999999"
         xlink:href="#shape4"
         id="use75"
         x="0"
         y="0" />
    </g>
    <g
       id="shape4"
       transform="translate(3.1,6.95)">
      <path
         d="m -1.45,-6.55 1.35,-0.4 q 1,0 1.65,0.65 0.55,0.6 0.65,1.4 L 3,3.95 q 0,1.2 -1.2,2.4 L 1.9,4.15 Q 1.75,-1.55 1.2,-5.15 0.95,-6.25 -0.35,-6.5 l -1.1,-0.05"
         id="path78"
         inkscape:connector-curvature="0"
         style="fill:#686187;fill-rule:evenodd;stroke:none" />
      <path
         d="M 1.8,6.35 Q 1.05,7 -0.05,7 -1.35,7 -2.3,6.1 L -3.05,4.75 -3.1,4.1 -2.3,-4.95 q 0,-0.8 0.55,-1.35 l 0.3,-0.25 1.1,0.05 q 1.3,0.25 1.55,1.35 0.55,3.6 0.7,9.3 l -0.1,2.2"
         id="path80"
         inkscape:connector-curvature="0"
         style="fill:#8881a4;fill-rule:evenodd;stroke:none" />
    </g>
    <g
       id="sprite10"
       transform="translate(3.45,3.85)">
      <use
         height="11.55"
         transform="translate(-3.45,-3.85)"
         width="7.4499998"
         xlink:href="#sprite11"
         id="use83"
         x="0"
         y="0" />
    </g>
    <g
       id="sprite11"
       transform="translate(3.7,5.45)">
      <use
         height="11.55"
         transform="translate(-3.7,-5.45)"
         width="7.4499998"
         xlink:href="#shape5"
         id="use86"
         x="0"
         y="0" />
    </g>
    <g
       id="shape5"
       transform="translate(3.7,5.45)">
      <path
         d="m -2.65,-4.35 v 9.4 q -1,-1.05 -1,-2.15 0.1,-2.75 -0.05,-4.8 -0.15,-1.25 1.05,-2.45"
         id="path89"
         inkscape:connector-curvature="0"
         style="fill:#686187;fill-rule:evenodd;stroke:none" />
      <path
         d="m -2.65,-4.35 q 1.1,-1.1 2.55,-1.1 1.55,0 2.6,1.1 1,0.95 1.1,2.45 0.3,3.15 0.05,4.8 -0.15,1.3 -1.1,2.2 -1.05,1 -2.6,1 -1.45,0 -2.55,-1 L -2.65,5.05 v -9.4"
         id="path91"
         inkscape:connector-curvature="0"
         style="fill:#8881a4;fill-rule:evenodd;stroke:none" />
    </g>
    <g
       id="sprite12"
       transform="translate(4.55,3.3)">
      <use
         height="9.6499996"
         transform="matrix(0.9991,0.0395,-0.0395,0.9991,-3.2908,-3.2844)"
         width="7.3499999"
         xlink:href="#sprite13"
         id="use94"
         x="0"
         y="0" />
      <use
         height="5.4000001"
         transform="translate(-4.55,3.05)"
         width="8.1499996"
         xlink:href="#sprite14"
         id="use96"
         x="0"
         y="0" />
    </g>
    <g
       id="sprite13"
       transform="translate(3.5,3.95)">
      <use
         height="9.6499996"
         transform="translate(-3.5,-3.95)"
         width="7.3499999"
         xlink:href="#shape6"
         id="use99"
         x="0"
         y="0" />
    </g>
    <g
       id="shape6"
       transform="translate(3.5,3.95)">
      <path
         d="m 2.7,-2.9 h 0.05 q 1.05,1.05 1.1,2.5 L 3.75,2.5 Q 3.7,3.65 2.7,4.65 V -2.9"
         id="path102"
         inkscape:connector-curvature="0"
         style="fill:#686187;fill-rule:evenodd;stroke:none" />
      <path
         d="M 2.7,-2.9 V 4.65 4.7 q -1.15,1 -2.55,1 -1.5,0 -2.6,-1.05 -0.9,-0.9 -1.05,-2.15 v -2.9 q 0.15,-1.5 1.1,-2.5 1.1,-1.05 2.6,-1.05 1.45,0 2.5,1.05"
         id="path104"
         inkscape:connector-curvature="0"
         style="fill:#8881a4;fill-rule:evenodd;stroke:none" />
    </g>
    <g
       id="sprite14"
       transform="translate(3.65,2.6)">
      <use
         height="5.4000001"
         transform="translate(-3.65,-2.6)"
         width="8.1499996"
         xlink:href="#sprite15"
         id="use107"
         x="0"
         y="0" />
    </g>
    <g
       id="sprite15"
       transform="translate(3.85,2.75)">
      <use
         height="5.4000001"
         transform="translate(-3.85,-2.75)"
         width="8.1499996"
         xlink:href="#shape7"
         id="use110"
         x="0"
         y="0" />
    </g>
    <g
       id="shape7"
       transform="translate(3.85,2.75)">
      <path
         d="M 4.3,-1.9 4.2,-0.15 3.9,0.9 q -1.6,1.85 -2.15,0.75 -0.4,0.95 -1.65,1 -1.3,0 -1.35,-1 L -3.35,1.5 Q -4.15,0.9 -3.4,-0.55 -3.95,-0.8 -3.5,-1.75 l 0.75,-1 Q -3,-0.75 0,-0.2 3,0.35 4.3,-1.9"
         id="path113"
         inkscape:connector-curvature="0"
         style="fill:#f1daa4;fill-rule:evenodd;stroke:none" />
      <path
         d="m -3.05,-1.7 q -0.45,0.35 -0.3,1.1 -0.15,0.15 -0.25,0 l -0.05,-0.2 q 0,-0.9 0.45,-1 l 0.1,0.05 0.05,0.05 m -0.25,1.45 0.05,0.05 -0.3,1.15 H -3.8 l -0.05,-0.2 q 0,-0.95 0.45,-1 h 0.1 M -0.95,0.7 -1.25,2 Q -1.4,2.2 -1.55,2 L -1.6,1.8 Q -1.7,0.75 -1.15,0.55 H -1 l 0.05,0.15 m 3.1,1 L 2.1,1.9 Q 1.9,2.1 1.8,1.9 1.55,0.95 1.65,0.55 V 0.4 L 1.8,0.35 Q 2.35,0.7 2.15,1.7"
         id="path115"
         inkscape:connector-curvature="0"
         style="fill:#333333;fill-rule:evenodd;stroke:none" />
    </g>
    <g
       id="sprite16"
       transform="translate(3.65,3.85)">
      <use
         height="11.55"
         transform="translate(-3.65,-3.85)"
         width="7.5"
         xlink:href="#sprite17"
         id="use118"
         x="0"
         y="0" />
    </g>
    <g
       id="sprite17"
       transform="translate(3.85,5.45)">
      <use
         height="11.55"
         transform="translate(-3.85,-5.45)"
         width="7.5"
         xlink:href="#shape8"
         id="use121"
         x="0"
         y="0" />
    </g>
    <g
       id="shape8"
       transform="translate(3.85,5.45)">
      <path
         d="M 2.55,-4.35 2.6,-4.3 H 2.55 v -0.05"
         id="path124"
         inkscape:connector-curvature="0"
         style="fill:#9c7416;fill-rule:evenodd;stroke:none" />
      <path
         d="m 2.6,-4.4 0.05,0.05 H 2.6 V -4.4"
         id="path126"
         inkscape:connector-curvature="0"
         style="fill:#ca00ca;fill-rule:evenodd;stroke:none" />
      <path
         d="m 2.5,5.1 q -1.1,1 -2.55,1 -1.5,0 -2.6,-1 -0.9,-0.9 -1.05,-2.2 -0.3,-1.65 0,-4.8 0.15,-1.5 1.1,-2.45 1.1,-1.1 2.6,-1.1 1.45,0 2.55,1.1 V -4.3 L 2.5,5.1"
         id="path128"
         inkscape:connector-curvature="0"
         style="fill:#8881a4;fill-rule:evenodd;stroke:none" />
      <path
         d="m 2.6,-4.3 q 1.15,1.15 1.05,2.4 l -0.1,4.8 q 0,1.15 -1.05,2.2 L 2.55,-4.3 H 2.6"
         id="path130"
         inkscape:connector-curvature="0"
         style="fill:#686187;fill-rule:evenodd;stroke:none" />
    </g>
    <g
       id="sprite18"
       transform="translate(1,2.75)">
      <use
         height="10.65"
         transform="translate(-1,-2.75)"
         width="18.299999"
         xlink:href="#shape9"
         id="use133"
         x="0"
         y="0" />
    </g>
    <g
       id="shape9"
       transform="translate(1,2.75)">
      <path
         d="M 15.85,1.85 Q 16,-0.25 14.65,-1.05 13.3,-1.8 12.7,-0.15 L 12.2,0.7 q -1.75,1.55 -1.5,-0.85 l 0.1,-0.25 q 0.4,-1 1,-1.6 1.35,-1.35 3.2,-0.2 1.15,0.75 1.8,2.5 0.7,1.75 0.4,3.4 -0.25,1.4 -0.95,2.55 -1.3,1.25 -3.55,1 Q 11.1,7.45 9.55,6.15 7.9,4.85 7,2.6 5.85,0.1 -1,1.2 L -0.8,0.15 5.35,0.3 Q 7,0.95 8.2,2.95 q 1.55,3.1 4.1,3.45 2.6,0.25 3.3,-2.6 l 0.25,-1.95"
         id="path136"
         inkscape:connector-curvature="0"
         style="fill:#8780a3;fill-rule:evenodd;stroke:none" />
      <path
         d="m 15.85,1.85 q -0.1,-1.25 -1,-2.15 -1.3,-1.25 -2.15,0.15 0.6,-1.65 1.95,-0.9 1.35,0.8 1.2,2.9 M 12.2,0.7 Q 11.4,2 10.85,1.65 10.35,1.3 10.7,-0.15 10.45,2.25 12.2,0.7 m 4.05,5.55 Q 15,8.2 12.2,7.85 10.6,8.05 9,6.75 7.4,5.45 6.45,3.2 5.4,0.85 -0.8,1.65 L -1,1.2 q 6.85,-1.1 8,1.4 0.9,2.25 2.55,3.55 1.55,1.3 3.15,1.1 2.25,0.25 3.55,-1"
         id="path138"
         inkscape:connector-curvature="0"
         style="fill:#676086;fill-rule:evenodd;stroke:none" />
    </g>
    <g
       id="sprite19"
       transform="translate(8.5,15.9)">
      <use
         height="20.700001"
         transform="translate(-8.5,-15.9)"
         width="17.049999"
         xlink:href="#shape10"
         id="use141"
         x="0"
         y="0" />
    </g>
    <g
       id="shape10"
       transform="translate(8.5,15.9)">
      <path
         d="m -7,-8.45 q 1.1,1.8 4.5,2.7 l 10.55,0.45 0.5,3.35 Q 8.6,0.45 7.3,1.9 L 6.65,2.6 Q 5.25,3.8 3.15,4.35 L 1.4,4.7 Q -2.25,4.3 -5.05,2.5 -7.8,0.75 -8.5,-1.5 v -0.4 q 0.2,-2.85 1.5,-6.55"
         id="path144"
         inkscape:connector-curvature="0"
         style="fill:#f1daa4;fill-rule:evenodd;stroke:none" />
      <path
         d="m -7,-8.45 0.3,-0.9 q 1.6,-4.35 3,-5.75 0.4,-0.35 1.6,-0.6 l 2.2,-0.2 q 2.75,0 3.65,0.8 1.4,1.4 3,5.75 L 8.05,-5.3 -2.5,-5.75 Q -5.9,-6.65 -7,-8.45 M 1.4,4.7 0.05,4.8 -3.2,4.4 Q -5.05,3.9 -6.5,2.7 L -7.3,1.9 q -1.2,-1.35 -1.2,-3.4 0.7,2.25 3.45,4 2.8,1.8 6.45,2.2"
         id="path146"
         inkscape:connector-curvature="0"
         style="fill:#ddb768;fill-rule:evenodd;stroke:none" />
    </g>
    <g
       id="sprite20"
       transform="translate(3.5,2.95)">
      <use
         height="10.85"
         transform="translate(-3.35,-2.95)"
         width="6.5500002"
         xlink:href="#sprite21"
         id="use149"
         x="0"
         y="0" />
      <use
         height="4.5999999"
         transform="translate(-3.5,4.3)"
         width="6.8499999"
         xlink:href="#sprite22"
         id="use151"
         x="0"
         y="0" />
    </g>
    <g
       id="sprite21"
       transform="translate(3.25,5.4)">
      <use
         height="10.85"
         transform="translate(-3.25,-5.4)"
         width="6.5500002"
         xlink:href="#shape11"
         id="use154"
         x="0"
         y="0" />
    </g>
    <g
       id="shape11"
       transform="translate(3.25,5.4)">
      <path
         d="m -1.9,-4.7 q 1,-0.8 2.3,-0.7 1.3,0.1 2.1,1 l 0.55,1 0.25,5.95 q 0.1,1.9 -1.85,2.6 -2,0.1 -2.85,-1.55 -0.7,-1.3 -0.45,-4.5 L -1.9,-4.7"
         id="path157"
         inkscape:connector-curvature="0"
         style="fill:#8881a4;fill-rule:evenodd;stroke:none" />
      <path
         d="m -1.9,-4.7 0.05,3.8 q -0.25,3.2 0.45,4.5 0.85,1.65 2.85,1.55 l -1.7,0.3 q -1.4,-0.1 -2.25,-1.1 -0.65,-0.7 -0.7,-1.55 -0.15,-3.05 0.3,-5.35 0.2,-1.4 1,-2.15"
         id="path159"
         inkscape:connector-curvature="0"
         style="fill:#686187;fill-rule:evenodd;stroke:none" />
    </g>
    <g
       id="sprite22"
       transform="translate(3.65,2.45)">
      <use
         height="4.5999999"
         transform="translate(-3.65,-2.45)"
         width="6.8499999"
         xlink:href="#sprite23"
         id="use162"
         x="0"
         y="0" />
    </g>
    <g
       id="sprite23"
       transform="translate(3.65,2.45)">
      <use
         height="4.5999999"
         transform="translate(-3.65,-2.45)"
         width="6.8499999"
         xlink:href="#shape12"
         id="use165"
         x="0"
         y="0" />
    </g>
    <g
       id="shape12"
       transform="translate(3.65,2.45)">
      <path
         d="m -0.4,-1.35 q 2.1,0 3.5,-1.1 Q 3.5,-0.95 2.55,0.9 1.8,2.15 -0.2,2.15 -2.15,2.2 -3.05,1.2 -3.9,0.45 -3.5,-2.4 q 1,1 3.1,1.05"
         id="path168"
         inkscape:connector-curvature="0"
         style="fill:#f1daa4;fill-rule:evenodd;stroke:none" />
      <path
         d="m -1.4,0.5 q 0.15,0.9 1.05,1.45 L -0.2,2.1 -0.45,2.15 -0.6,2.1 -1,2.15 Q -1.65,1.5 -1.4,0.5 M -2.8,0.4 -2.4,1.8 -2.75,1.65 Q -3.1,1.1 -2.8,0.4"
         id="path170"
         inkscape:connector-curvature="0"
         style="fill:#000000;fill-rule:evenodd;stroke:none" />
    </g>
    <g
       id="sprite24"
       transform="translate(3.2,1.75)">
      <use
         height="13.95"
         transform="translate(-3.2,-1.75)"
         width="6.1500001"
         xlink:href="#sprite25"
         id="use173"
         x="0"
         y="0" />
    </g>
    <g
       id="sprite25"
       transform="translate(3.05,6.95)">
      <use
         height="13.95"
         transform="translate(-3.05,-6.95)"
         width="6.1500001"
         xlink:href="#shape13"
         id="use176"
         x="0"
         y="0" />
    </g>
    <g
       id="shape13"
       transform="translate(3.05,6.95)">
      <path
         d="M -1.8,6.45 Q -2.9,5.65 -3.05,4.1 l 0.8,-9.05 q 0.05,-0.8 0.55,-1.35 0.75,-0.65 1.7,-0.65 0.95,0 1.65,0.65 H 0.4 q -1.3,0.35 -1.65,2.15 -0.35,1.75 -0.5,5.65 L -1.8,6.45"
         id="path179"
         inkscape:connector-curvature="0"
         style="fill:#686187;fill-rule:evenodd;stroke:none" />
      <path
         d="M -1.8,6.45 -1.75,1.5 q 0.15,-3.9 0.5,-5.65 0.35,-1.8 1.65,-2.15 H 1.65 Q 2.2,-5.7 2.3,-4.9 L 3.1,3.95 Q 3.1,5.25 2.2,6.1 1.3,7 0.05,7 L -1.8,6.45"
         id="path181"
         inkscape:connector-curvature="0"
         style="fill:#8881a4;fill-rule:evenodd;stroke:none" />
    </g>
  </defs>
</svg>
