<?xml version="1.0" encoding="UTF-8" standalone="no"?>
<svg
   xmlns:dc="http://purl.org/dc/elements/1.1/"
   xmlns:cc="http://creativecommons.org/ns#"
   xmlns:rdf="http://www.w3.org/1999/02/22-rdf-syntax-ns#"
   xmlns:svg="http://www.w3.org/2000/svg"
   xmlns="http://www.w3.org/2000/svg"
   xmlns:sodipodi="http://sodipodi.sourceforge.net/DTD/sodipodi-0.dtd"
   xmlns:inkscape="http://www.inkscape.org/namespaces/inkscape"
   height="82.8px"
   width="68.0px"
   version="1.1"
   id="svg8"
   sodipodi:docname="BodyDiagDown.svg"
   inkscape:version="0.92.4 (5da689c313, 2019-01-14)">
  <metadata
     id="metadata14">
    <rdf:RDF>
      <cc:Work
         rdf:about="">
        <dc:format>image/svg+xml</dc:format>
        <dc:type
           rdf:resource="http://purl.org/dc/dcmitype/StillImage" />
        <dc:title />
      </cc:Work>
    </rdf:RDF>
  </metadata>
  <defs
     id="defs12" />
  <sodipodi:namedview
     pagecolor="#ffffff"
     bordercolor="#666666"
     borderopacity="1"
     objecttolerance="10"
     gridtolerance="10"
     guidetolerance="10"
     inkscape:pageopacity="0"
     inkscape:pageshadow="2"
     inkscape:window-width="1920"
     inkscape:window-height="1007"
     id="namedview10"
     showgrid="false"
     inkscape:zoom="6.57"
     inkscape:cx="-3.3387762"
     inkscape:cy="40.862404"
     inkscape:window-x="0"
     inkscape:window-y="0"
     inkscape:window-maximized="1"
     inkscape:current-layer="g6" />
  <g
     transform="matrix(4.0, 0.0, 0.0, 4.0, 34.0, 63.6)"
     id="g6">
    <path
       style="fill:#919191;fill-opacity:1;stroke-width:0.00154397;stroke-miterlimit:4;stroke-dasharray:none"
       d="m 1.8287283,-4.1292629 c -2.70736401,-0.2038485 -4.6493515,-0.5582745 -5.555713,-1.0139558 -0.9721883,-0.488776 -2.3713325,-1.6158775 -3.7731266,-3.0394977 l -0.7297396,-0.741102 0.029378,-0.274607 c 0.3722131,-1.7388286 1.4744049,-3.3000696 3.2369096,-4.4906576 1.6706718,-1.128554 3.4955455,-1.825215 4.8719988,-1.859675 2.4686766,0.177098 4.4926815,1.232019 6.0959965,2.653244 1.2755298,1.636913 1.5118065,2.48177 2.0282387,4.4251578 0.036019,0.260272 0.088153,1.0776355 0.1422703,2.2305255 l 0.013705,0.2919418 -0.5250678,0.4813585 c -0.9005057,0.8255422 -1.0415045,0.906518 -1.8723185,1.0752735 -1.1031232,0.2240667 -2.8938027,0.3424627 -3.9625314,0.261994 z"
       id="path1472"
       inkscape:connector-curvature="0"
       sodipodi:nodetypes="sssccscccccsss" />
    <path
       style="fill:#919191;fill-opacity:1;stroke-width:0.00154397;stroke-miterlimit:4;stroke-dasharray:none"
       d="M -1.6732002,4.6786788 C -2.2174815,4.6616166 -2.8674662,4.6176423 -3.1176105,4.5809586 -4.8979755,4.3198668 -7.0821559,3.1097463 -7.8528607,1.9574468 -8.0872786,1.6069631 -8.167768,1.3687996 -8.199655,0.93130205 -8.2122494,0.7585038 -8.2314946,0.49763455 -8.242422,0.3515928 L -8.26229,0.0860623 -8.058457,0.4677628 c 0.5178967,0.9698203 1.1694214,1.6384548 2.3849263,2.4475573 0.956133,0.6364515 1.7213545,0.9681812 2.949199,1.2785027 0.7709737,0.194853 2.12277174,0.421701 2.98030304,0.50013 0.2871167,0.02626 -0.9054668,0.016818 -1.92917154,-0.015275 z"
       id="path1474"
       inkscape:connector-curvature="0" />
    <path
       style="fill:#bfbfbf;fill-opacity:1;stroke-width:0.00088638;stroke-miterlimit:4;stroke-dasharray:none"
       d="m 0.27471804,4.7034768 c -0.006626,-0.00663 -0.1534957,-0.028154 -0.326376,-0.04784 C -1.26074,4.5179616 -2.664966,4.2354613 -3.5339362,3.9550773 -4.3535737,3.6906111 -4.936878,3.3992346 -5.7717082,2.8372478 -6.9484114,2.0451211 -7.5619784,1.3932301 -8.1168778,0.34559655 l -0.1469974,-0.27752675 -0.021687,-1.188233 c -0.011928,-0.6535282 -0.015631,-1.948083 -0.00823,-2.8767885 0.016313,-2.0466332 0.060504,-4.8736345 0.076436,-4.889775 0.00637,-0.00645 0.2188913,0.1999 0.4722786,0.4585538 1.6056782,1.639052 2.9801002,2.7658187 3.9891347,3.2703377 0.868308,0.4341558 2.3499482,0.731861 4.8674417,0.9780128 0.5886988,0.057561 0.750108,0.064184 1.5595685,0.063996 1.151401,-2.75e-4 2.0307833,-0.070912 2.9315198,-0.2355002 0.9786342,-0.1788228 1.133387,-0.2637238 2.1178462,-1.1619045 0.2554583,-0.2330695 0.4680815,-0.4199458 0.472496,-0.4152803 0.00441,0.00467 0.020665,0.5044958 0.036111,1.110734 0.030573,1.1999188 0.02494,5.3623735 -0.00723,5.34250125 -0.01053,-0.006505 -0.015807,0.0990645 -0.011725,0.234597 0.00408,0.13553275 9.25e-4,0.24237455 -0.00703,0.237426 -0.021168,-0.0131825 -0.050778,0.57000175 -0.0306,0.60264975 0.00992,0.01606 0.00708,0.021487 -0.00678,0.012922 -0.02801,-0.01731 -0.064818,0.3223563 -0.03939,0.3634988 0.00901,0.014578 0.00624,0.020233 -0.00616,0.01257 -0.026727,-0.016517 -0.086305,0.3034315 -0.063404,0.3404877 0.00869,0.014055 0.00471,0.018503 -0.00898,0.01004 -0.02282,-0.014105 -0.066398,0.0887 -0.056296,0.1328075 0.00243,0.010632 -0.00818,0.01154 -0.02359,0.00202 -0.019065,-0.011782 -0.023267,-0.00494 -0.01315,0.021428 0.00917,0.023887 0.00395,0.036604 -0.013602,0.033162 -0.01566,-0.00307 -0.027025,0.012773 -0.025256,0.035208 0.00178,0.022435 -0.00562,0.03533 -0.016412,0.028658 -0.022495,-0.013902 -0.079799,0.077321 -0.081598,0.129896 -6.5e-4,0.019348 -0.013587,0.032645 -0.028724,0.029549 -0.024757,-0.00507 -0.057045,0.035386 -0.079375,0.099438 -0.0045,0.012898 -0.015775,0.020918 -0.025065,0.017823 -0.01619,-0.0054 -0.05806,0.056913 -0.062881,0.093575 -0.00127,0.00968 -0.010228,0.018343 -0.019903,0.01926 -0.037992,0.00361 -0.1006805,0.079134 -0.089617,0.1079655 0.00644,0.016783 -6.25e-4,0.028002 -0.015695,0.024933 -0.015073,-0.00307 -0.027885,0.00673 -0.028471,0.02178 -5.75e-4,0.015047 -0.010673,0.036155 -0.022415,0.046904 -0.012647,0.011578 -0.013658,0.00521 -0.00248,-0.015635 0.01038,-0.019347 -0.02959,0.01133 -0.088822,0.068173 -0.059233,0.056843 -0.1056095,0.1134853 -0.1030598,0.1258718 0.00255,0.012387 -0.014357,0.025704 -0.03757,0.029595 -0.057179,0.00958 -0.112735,0.058216 -0.096504,0.084477 0.00727,0.011757 -2.75e-4,0.018475 -0.016782,0.014933 -0.016495,-0.00354 -0.030952,0.00938 -0.032124,0.028733 -0.00117,0.019348 -0.015955,0.03217 -0.032849,0.028492 -0.037476,-0.00816 -0.099941,0.040189 -0.084405,0.065326 0.00617,0.00998 -0.00714,0.0167 -0.029574,0.014933 -0.025011,-0.00197 -0.037765,0.010393 -0.032972,0.031963 0.0043,0.019348 2.75e-4,0.027634 -0.00895,0.018415 -0.022035,-0.022035 -0.109311,0.025032 -0.093589,0.050471 0.00667,0.010795 -0.00622,0.01818 -0.028658,0.016412 -0.02256,-0.00177 -0.037909,0.010665 -0.034345,0.027843 0.00354,0.017082 -0.00407,0.024557 -0.016928,0.016615 -0.030098,-0.018603 -0.1456332,0.056392 -0.128811,0.083611 0.00701,0.01134 -0.00537,0.01367 -0.027501,0.00518 -0.025325,-0.00972 -0.034564,-0.00625 -0.024922,0.00935 0.00871,0.014098 -0.00228,0.023402 -0.025468,0.021575 -0.022435,-0.00178 -0.038277,0.0096 -0.035208,0.025256 0.00344,0.017555 -0.00927,0.02277 -0.033162,0.013605 -0.025818,-0.00991 -0.033142,-0.0058 -0.021952,0.012303 0.011315,0.01831 0.00367,0.022133 -0.023453,0.011725 -0.02712,-0.010408 -0.034768,-0.00658 -0.023453,0.011725 0.011315,0.01831 0.00367,0.022133 -0.023452,0.011725 -0.02712,-0.010408 -0.034768,-0.00658 -0.023453,0.011725 0.011315,0.01831 0.00367,0.022133 -0.023453,0.011728 -0.02712,-0.010407 -0.034768,-0.00658 -0.023452,0.011725 0.011315,0.01831 0.00367,0.022133 -0.023453,0.011725 -0.02712,-0.010407 -0.034768,-0.00658 -0.023453,0.011725 0.011315,0.01831 0.00367,0.022132 -0.023452,0.011725 -0.02712,-0.010407 -0.034768,-0.00658 -0.023453,0.011725 0.011315,0.01831 0.00367,0.022132 -0.023452,0.011725 -0.02712,-0.010407 -0.034768,-0.00658 -0.023453,0.011725 0.011315,0.01831 0.00367,0.022132 -0.023453,0.011725 -0.02712,-0.010407 -0.034768,-0.00658 -0.023452,0.011725 0.011315,0.01831 0.00367,0.022132 -0.023453,0.011727 -0.029465,-0.011307 -0.035102,-0.00712 -0.021047,0.015617 0.012825,0.020753 0.01014,0.025464 -0.00809,0.014198 -0.035612,-0.02201 -0.1252995,0.00661 -0.1080707,0.034488 0.00732,0.011848 -0.00478,0.014565 -0.026959,0.00605 -0.029465,-0.011308 -0.035102,-0.00712 -0.021047,0.015618 0.012887,0.020853 0.010147,0.025468 -0.00834,0.014045 -0.034134,-0.021095 -0.1957113,0.029726 -0.1792398,0.056377 0.00658,0.010658 -0.010798,0.01342 -0.03863,0.00614 -0.0377,-0.00986 -0.045754,-0.00539 -0.031587,0.017538 0.012315,0.019927 0.00986,0.025108 -0.00698,0.014702 -0.037729,-0.023318 -0.1479162,0.00925 -0.1299035,0.038398 0.00897,0.014515 0.00387,0.017577 -0.01246,0.00749 -0.040219,-0.024857 -0.1708215,0.00849 -0.1520717,0.038825 0.00929,0.015027 0.0045,0.018337 -0.011875,0.00821 -0.038781,-0.023968 -0.2864168,0.034851 -0.2685355,0.063784 0.008,0.012938 0.00302,0.016408 -0.011052,0.00771 -0.038886,-0.024033 -0.3581653,0.034437 -0.3408685,0.062423 0.00849,0.01373 0.00298,0.016517 -0.013063,0.00661 -0.042144,-0.026046 -0.333628,0.010592 -0.3156533,0.039675 0.00854,0.013823 0.00375,0.017383 -0.011067,0.00822 -0.03125,-0.019312 -0.5228595,0.00948 -0.5104537,0.0299 0.00474,0.0078 -0.1090353,0.015045 -0.2528325,0.016103 -0.1437973,0.00105 -0.6272093,0.014247 -1.074249,0.029315 -0.825322,0.027818 -2.20650346,0.037329 -2.22848526,0.015347 z"
       id="path1488"
       inkscape:connector-curvature="0" />
  </g>
</svg>
