<?xml version="1.0" encoding="UTF-8" standalone="no"?>
<svg
   xmlns:dc="http://purl.org/dc/elements/1.1/"
   xmlns:cc="http://creativecommons.org/ns#"
   xmlns:rdf="http://www.w3.org/1999/02/22-rdf-syntax-ns#"
   xmlns:svg="http://www.w3.org/2000/svg"
   xmlns="http://www.w3.org/2000/svg"
   xmlns:sodipodi="http://sodipodi.sourceforge.net/DTD/sodipodi-0.dtd"
   xmlns:inkscape="http://www.inkscape.org/namespaces/inkscape"
   height="82.8px"
   width="68.0px"
   version="1.1"
   id="svg8"
   sodipodi:docname="BodyFront.svg"
   inkscape:version="0.92.4 (5da689c313, 2019-01-14)">
  <metadata
     id="metadata14">
    <rdf:RDF>
      <cc:Work
         rdf:about="">
        <dc:format>image/svg+xml</dc:format>
        <dc:type
           rdf:resource="http://purl.org/dc/dcmitype/StillImage" />
      </cc:Work>
    </rdf:RDF>
  </metadata>
  <defs
     id="defs12" />
  <sodipodi:namedview
     pagecolor="#ffffff"
     bordercolor="#666666"
     borderopacity="1"
     objecttolerance="10"
     gridtolerance="10"
     guidetolerance="10"
     inkscape:pageopacity="0"
     inkscape:pageshadow="2"
     inkscape:window-width="1920"
     inkscape:window-height="1007"
     id="namedview10"
     showgrid="false"
     inkscape:zoom="11.400966"
     inkscape:cx="28.102015"
     inkscape:cy="26.59682"
     inkscape:window-x="0"
     inkscape:window-y="0"
     inkscape:window-maximized="1"
     inkscape:current-layer="g6" />
  <g
     transform="matrix(4.0, 0.0, 0.0, 4.0, 34.0, 63.6)"
     id="g6">
    <path
       d="M7.8 -6.25 L8.5 -2.4 Q8.65 0.4 7.3 1.9 4.1 3.5 0.05 3.5 -4.35 3.5 -7.3 1.9 -8.7 0.35 -8.45 -2.5 L-7.7 -6.25 Q0.35 -4.95 7.8 -6.25"
       fill="#eba5dd"
       fill-rule="evenodd"
       stroke="none"
       id="path2"
       style="fill:#bfbfbf;fill-opacity:1" />
    <path
       d="M7.3 1.9 Q6.05 3.3 3.9 4.1 2.0 4.8 0.05 4.8 L-3.45 4.35 Q-6.05 3.6 -7.3 1.9 -4.35 3.5 0.05 3.5 4.1 3.5 7.3 1.9 M-7.7 -6.25 L-6.7 -9.35 Q-5.1 -13.7 -3.7 -15.1 -3.3 -15.45 -2.1 -15.7 L0.1 -15.9 Q2.85 -15.9 3.75 -15.1 5.15 -13.7 6.75 -9.35 L7.8 -6.25 Q0.35 -4.95 -7.7 -6.25"
       fill="#de6dc8"
       fill-rule="evenodd"
       stroke="none"
       id="path4"
       style="fill:#919191;fill-opacity:1" />
  </g>
</svg>
