<?xml version="1.0" encoding="UTF-8" standalone="no"?>
<svg
   xmlns:dc="http://purl.org/dc/elements/1.1/"
   xmlns:cc="http://creativecommons.org/ns#"
   xmlns:rdf="http://www.w3.org/1999/02/22-rdf-syntax-ns#"
   xmlns:svg="http://www.w3.org/2000/svg"
   xmlns="http://www.w3.org/2000/svg"
   xmlns:sodipodi="http://sodipodi.sourceforge.net/DTD/sodipodi-0.dtd"
   xmlns:inkscape="http://www.inkscape.org/namespaces/inkscape"
   height="82.8px"
   width="68.0px"
   version="1.1"
   id="svg8"
   sodipodi:docname="BodySide.svg"
   inkscape:version="0.92.4 (5da689c313, 2019-01-14)">
  <metadata
     id="metadata14">
    <rdf:RDF>
      <cc:Work
         rdf:about="">
        <dc:format>image/svg+xml</dc:format>
        <dc:type
           rdf:resource="http://purl.org/dc/dcmitype/StillImage" />
        <dc:title></dc:title>
      </cc:Work>
    </rdf:RDF>
  </metadata>
  <defs
     id="defs12" />
  <sodipodi:namedview
     pagecolor="#ffffff"
     bordercolor="#666666"
     borderopacity="1"
     objecttolerance="10"
     gridtolerance="10"
     guidetolerance="10"
     inkscape:pageopacity="0"
     inkscape:pageshadow="2"
     inkscape:window-width="1600"
     inkscape:window-height="835"
     id="namedview10"
     showgrid="false"
     inkscape:zoom="9.28"
     inkscape:cx="34.507752"
     inkscape:cy="23.308484"
     inkscape:window-x="0"
     inkscape:window-y="0"
     inkscape:window-maximized="1"
     inkscape:current-layer="g6" />
  <g
     transform="matrix(4.0, 0.0, 0.0, 4.0, 34.0, 63.6)"
     id="g6">
    <path
       style="fill:#cccccc;fill-opacity:1;stroke-width:0.00143818;stroke-miterlimit:4;stroke-dasharray:none"
       d="M -1.7697028,-5.8750432 C -4.0465024,-6.01513 -6.1521289,-6.3779447 -7.776286,-6.9100212 l -0.4890794,-0.1602233 0.025274,-0.2663622 c 0.041104,-0.4332055 0.1158941,-0.6930793 0.395112,-1.3729073 0.7687497,-1.871719 1.4081928,-3.056685 2.1230026,-3.914133 0.297597,-0.356982 1.1885916,-1.158451 1.6912296,-1.559474 1.3873425,-1.106873 2.7380254,-1.476257 4.15242712,-1.474082 1.28122828,0.002 2.58338598,0.321442 3.81710418,1.268304 0.467781,0.359016 1.117861,1.012226 1.9040604,1.955228 0.6940725,0.8325 1.5286836,2.387551 1.9689269,3.4525829 0.3806414,0.920844 0.4330555,1.0934231 0.450932,1.7358621 0.011805,0.4241938 0.1086593,0.355929 -0.8429082,0.5940938 -1.6608858,0.4156975 -3.326864,0.6517057 -5.498478,0.7789345 -0.7451623,0.043657 -2.9630127,0.041947 -3.6910197,-0.00285 z"
       id="path6082"
       inkscape:connector-curvature="0"
       sodipodi:nodetypes="csccssscssscsscc" />
    <path
       style="fill:#cccccc;fill-opacity:1;stroke-width:0.00143818;stroke-miterlimit:4;stroke-dasharray:none"
       d="M -1.9219098,4.4228883 C -3.7196314,3.9616258 -5.3575806,3.0516403 -6.4881198,1.886067 -7.1750294,1.177871 -7.6829042,0.49258856 -8.021451,-0.18287769 c -0.2107,-0.420387 -0.274127,-0.66114528 -0.274127,-1.04053981 V -1.546187 l 0.271924,0.3962665 c 0.7757854,1.13052856 1.9604148,2.5815725 2.6247839,3.215079 0.7229502,0.6893663 2.6404172,1.87445 3.819426,2.3605828 0.3854133,0.158915 0.2847395,0.1580762 -0.3424657,-0.00285 z"
       id="path6084"
       inkscape:connector-curvature="0" />
    <path
       style="fill:#e6e6e6;fill-opacity:1;stroke-width:0.00101819;stroke-miterlimit:4;stroke-dasharray:none"
       d="M -0.09935508,4.7113025 C -0.78575034,4.6523075 -1.3128571,4.5775688 -1.3399863,4.535393 -1.3481683,4.5226723 -1.4636586,4.4650775 -1.5966308,4.4074043 -2.2384694,4.1290238 -3.1136414,3.6529023 -3.8843766,3.1627983 -5.0002509,2.453223 -5.4309009,2.0812668 -6.2668823,1.1050073 -6.8966548,0.36955806 -7.8399318,-0.86962097 -8.2159387,-1.4554607 l -0.069162,-0.1077588 -0.029028,-1.3469827 c -0.015965,-0.7408405 -0.028968,-1.686593 -0.028894,-2.1016723 1.27e-4,-0.7190677 0.044071,-2.0056635 0.069368,-2.0309605 0.00656,-0.00656 0.2270255,0.056553 0.4899313,0.1402425 1.5923543,0.506888 3.3030938,0.8198345 5.4887865,1.0040665 0.6903931,0.058193 3.28059082,0.083844 4.0969533,0.040573 1.78507,-0.094618 3.3282467,-0.2837977 4.7393465,-0.581002 0.6441692,-0.135674 1.5222147,-0.3600337 1.6337422,-0.4174565 l 0.098275,-0.050599 0.02002,0.4224343 c 0.025269,0.533211 -0.00358,3.8404242 -0.040231,4.6115507 -0.036034,0.7582108 -0.077922,1.26350556 -0.123449,1.48918031 -0.065029,0.322342 -0.3071467,0.7417935 -0.7463985,1.29307925 C 7.0936654,1.2727685 6.0530844,2.3103358 5.6792019,2.608418 4.2675519,3.733873 2.7330226,4.4436973 1.2423364,4.6607705 0.96964692,4.7004798 0.13880062,4.7317718 -0.09935408,4.7113025 Z"
       id="path6088"
       inkscape:connector-curvature="0" />
  </g>
</svg>
