<?xml version="1.0" encoding="UTF-8" standalone="no"?>
<svg xmlns:xlink="http://www.w3.org/1999/xlink" height="63.3px" width="124.8px" xmlns="http://www.w3.org/2000/svg">
  <g transform="matrix(3.0, 0.0, 0.0, 3.0, 62.4, 31.65)">
    <path d="M12.85 -6.55 Q7.55 -9.3 0.0 -9.3 -7.6 -9.3 -12.95 -6.55 -18.25 -3.85 -18.25 0.0 -18.25 3.85 -12.95 6.55 -7.6 9.25 0.0 9.25 7.55 9.25 12.85 6.55 18.25 3.85 18.25 0.0 18.25 -3.85 12.85 -6.55 M14.65 -7.45 Q20.8 -4.35 20.8 0.0 20.8 4.4 14.65 7.45 8.65 10.55 0.0 10.55 -8.6 10.55 -14.65 7.45 -20.8 4.4 -20.8 0.0 -20.8 -4.35 -14.65 -7.45 -8.6 -10.55 0.0 -10.55 8.65 -10.55 14.65 -7.45" fill="#304866" fill-opacity="0.101960786" fill-rule="evenodd" stroke="none"/>
    <path d="M9.8 -5.0 Q5.75 -7.05 0.0 -7.05 -5.7 -7.05 -9.75 -5.0 -13.75 -2.95 -13.75 -0.05 -13.75 2.9 -9.75 4.95 -5.7 7.0 0.0 7.0 5.75 7.0 9.8 4.95 13.85 2.9 13.85 -0.05 13.85 -2.95 9.8 -5.0 M12.85 -6.55 Q18.25 -3.85 18.25 0.0 18.25 3.85 12.85 6.55 7.55 9.25 0.0 9.25 -7.6 9.25 -12.95 6.55 -18.25 3.85 -18.25 0.0 -18.25 -3.85 -12.95 -6.55 -7.6 -9.3 0.0 -9.3 7.55 -9.3 12.85 -6.55" fill="#304866" fill-opacity="0.2" fill-rule="evenodd" stroke="none"/>
    <path d="M4.85 -2.45 Q2.9 -3.5 0.0 -3.5 -2.9 -3.5 -4.85 -2.45 -6.95 -1.5 -6.95 0.0 -6.95 1.45 -4.85 2.45 -2.9 3.5 0.0 3.5 2.9 3.5 4.85 2.45 6.95 1.45 6.95 0.0 6.95 -1.5 4.85 -2.45 M9.8 -5.0 Q13.85 -2.95 13.85 -0.05 13.85 2.9 9.8 4.95 5.75 7.0 0.0 7.0 -5.7 7.0 -9.75 4.95 -13.75 2.9 -13.75 -0.05 -13.75 -2.95 -9.75 -5.0 -5.7 -7.05 0.0 -7.05 5.75 -7.05 9.8 -5.0" fill="#304866" fill-opacity="0.3019608" fill-rule="evenodd" stroke="none"/>
    <path d="M4.85 -2.45 Q6.95 -1.5 6.95 0.0 6.95 1.45 4.85 2.45 2.9 3.5 0.0 3.5 -2.9 3.5 -4.85 2.45 -6.95 1.45 -6.95 0.0 -6.95 -1.5 -4.85 -2.45 -2.9 -3.5 0.0 -3.5 2.9 -3.5 4.85 -2.45" fill="#304866" fill-opacity="0.5019608" fill-rule="evenodd" stroke="none"/>
  </g>
</svg>
