<svg id="Layer_3" data-name="Layer 3" xmlns="http://www.w3.org/2000/svg" xmlns:xlink="http://www.w3.org/1999/xlink" viewBox="0 0 485.33 389.66"><defs><style>.cls-1{fill:#fed979;}.cls-2{fill:#f1c763;}.cls-3{fill:#fff1c5;}.cls-4{fill:#ffe29c;}.cls-5{fill:#a66b3c;}.cls-6{fill:url(#radial-gradient);}.cls-7{fill:url(#radial-gradient-2);}.cls-8{fill:url(#radial-gradient-3);}.cls-9{fill:url(#radial-gradient-4);}.cls-10{fill:url(#radial-gradient-5);}.cls-11{fill:url(#radial-gradient-6);}.cls-12{fill:url(#radial-gradient-7);}.cls-13{fill:url(#radial-gradient-8);}</style><radialGradient id="radial-gradient" cx="407.97" cy="220.33" r="24.36" gradientTransform="translate(-73.56 -109.54) scale(1.19 1.24)" gradientUnits="userSpaceOnUse"><stop offset="0.05" stop-color="#9b2b23"/><stop offset="0.42" stop-color="#8d281c"/><stop offset="1" stop-color="#7a2514"/></radialGradient><radialGradient id="radial-gradient-2" cx="334.91" cy="204.82" r="25.31" xlink:href="#radial-gradient"/><radialGradient id="radial-gradient-3" cx="238.87" cy="239.5" r="35.78" xlink:href="#radial-gradient"/><radialGradient id="radial-gradient-4" cx="232.05" cy="196.23" r="26.26" gradientTransform="translate(-121.08 -144.4) scale(1.37 1.39)" xlink:href="#radial-gradient"/><radialGradient id="radial-gradient-5" cx="134.39" cy="235.78" r="25.03" gradientTransform="translate(-121.08 -144.4) scale(1.37 1.39)" xlink:href="#radial-gradient"/><radialGradient id="radial-gradient-6" cx="132.97" cy="193" r="25.03" gradientTransform="translate(-104.95 -144.4) scale(1.29 1.39)" xlink:href="#radial-gradient"/><radialGradient id="radial-gradient-7" cx="223.12" cy="124.07" r="25.03" gradientTransform="translate(-104.95 -144.4) scale(1.29 1.39)" xlink:href="#radial-gradient"/><radialGradient id="radial-gradient-8" cx="250.58" cy="107.57" r="25.03" gradientTransform="translate(-104.95 -144.4) scale(1.29 1.39)" xlink:href="#radial-gradient"/></defs><path class="cls-1" d="M224.92,321.49c-23.57,44.62-52,40.84-56.48,39.72-4.72-1.18-11.8-40.7,0-55.44s5.31-28.31,0-40.11-12.39-3-30.08,2.95-15.93,31.85-34.8,33S97.07,271,85.28,263.3s-13.56,7-13.57,7.08h0c0,.09,13.52,40.69-24.77,39.52-8.72-.27-14.75-4-18.87-9.73v20.28a10.24,10.24,0,0,0,5.18,8.9L228.6,440.24v-122Z" transform="translate(-8 -50.58)"/><path class="cls-2" d="M433.4,286.57a10.61,10.61,0,0,0-12.62,5.68c-16.2,35.26-50,44.78-57.71,38.88-2.72-2.1-5.88-9.15-8-14.68a43.94,43.94,0,0,0-4.87-8.73c-2.17-3.17-4.05-10.44-5.24-15.88-.66-3.06-3.41-4.22-6.15-2.71-4.54,2.5-11.22,2.76-15.21-12.85-4.72-18.44-20-16.62-28.05-14.25l-6.88,5.74c-13.82,26.37-39.86,39-52.61,43.81l-7.42,6.62v122L447.76,326.65a10.75,10.75,0,0,0,5.79-10.1l-1-19.12C447.45,291.66,439.61,288.37,433.4,286.57Z" transform="translate(-8 -50.58)"/><path class="cls-3" d="M423.63,263.89c-16.07-24.9-3.94-32.63,3.16-47.09s5.88-36.66-5.13-42.85c-6.34-3.57-8.77-6.84-9.69-9a1.6,1.6,0,0,1,1.63-2.23c17.56,2,27.77-6.94,33.47-15.65h-.9a16.69,16.69,0,0,1-14.48-7.62c-2.52-3.87-6.35-8-11.86-9.81A18,18,0,0,1,409.76,122c-3.48-5.84-10.93-13.52-26.31-15A19.09,19.09,0,0,1,370,99.13c-4.53-6.14-14.46-13.34-35.84-11.59-21.76,1.78-27.12,9.4-28,15.13-1,6.67-6.51,12-13.25,11.91-6.56-.1-12.16-5.62-8.33-27.31,7.67-43.37-48.36-38.07-80.8-22.73C174.61,78.35,143,88.81,142.18,120.92a9.13,9.13,0,0,1-13.44,7.92c-6.05-3.31-13.36-9.55-20.61-21.25a5.27,5.27,0,0,0-8.23-1c-8.57,8.59-26,25.8-31.73,29.31-7.13,4.39-27.54-11.13-24.65,24.69-.72,1.79-1.4,3.47-2.06,5.13C58.74,176.86,53,184,73.28,185.25c25,1.56,39.47,4.28,57.35-12.93a3.2,3.2,0,0,0,.72-1c1.59-3.63,9.79-23.41,4.45-34.81-5.89-12.58,14.94-6.68,22,9.83s50.33-4.32,52.3-25.95,55.44,6.29,62.52,16.52,23.2,24.38,43.25,19.26,48.76,8.26,55.44,7.87c0,0,16.51,3.14,22.81.78,5.5-2.06-.74,16.65-16.34,26.63a3.14,3.14,0,0,0,.68,5.67c5.62,1.78,12.7,4.8,15.93,9.37a3.12,3.12,0,0,1-2,4.79c-5.91,1.2-16,5.53-7.32,21.17,11.8,21.24,31.85,35.39-24.38,35,0,0-19.27.68-19.89,21.05a3.86,3.86,0,0,1,4.1,3.36c1.19,5.44,3.07,12.71,5.24,15.88a43.94,43.94,0,0,1,4.87,8.73c2.16,5.53,5.32,12.58,8,14.68,7.67,5.9,41.51-3.62,57.71-38.88a10.47,10.47,0,0,1,5.12-5.11C428.05,278.78,428,270.6,423.63,263.89Z" transform="translate(-8 -50.58)"/><path class="cls-3" d="M20.75,249.6c-1.47,13.41-2.37,37.22,7.32,50.57,4.12,5.68,10.15,9.46,18.87,9.73,38.29,1.17,24.8-39.43,24.77-39.52h0c0-.05,1.26-10.34,8.59-9.19a35.37,35.37,0,0,0-7.8-11.45C60.29,238.36,36,249.79,20.75,249.6Z" transform="translate(-8 -50.58)"/><path class="cls-3" d="M228.6,271.36c-15.17-11.21-43-18.26-58.38-1.7,4.74,10.83,8.7,23-1.78,36.11-11.8,14.74-4.72,54.26,0,55.44,4.48,1.12,32.91,4.9,56.48-39.72l3.68-3.29,2.22-2C235.92,300.94,241.59,281,228.6,271.36Z" transform="translate(-8 -50.58)"/><path class="cls-4" d="M433.4,286.57c6.21,1.8,14.05,5.09,19.18,10.86a21,21,0,0,1,4.27,7.16c5.35,15.5,24.27-1.47,17.65-31.14a14.64,14.64,0,0,1,5.21-14.78c7.79-6,17.6-17,11.94-31.35h0S486.29,218.1,466,212a8.63,8.63,0,0,1-6.1-9.57c1.27-8.24,5-21,16-28,9.31-6,7.51-20.23-2.84-24.13-5.61-2.12-13.9-3.41-25.93-3.17-5.7,8.71-15.91,17.64-33.47,15.65A1.6,1.6,0,0,0,412,165c.92,2.14,3.35,5.41,9.69,9,11,6.19,12.23,28.39,5.13,42.85s-19.23,22.19-3.16,47.09c4.32,6.71,4.42,14.89,2.27,23.25A10.67,10.67,0,0,1,433.4,286.57Z" transform="translate(-8 -50.58)"/><path class="cls-4" d="M360.71,267.43c56.23.39,36.18-13.76,24.38-35-8.69-15.64,1.41-20,7.32-21.17a3.12,3.12,0,0,0,2-4.79c-3.23-4.57-10.31-7.59-15.93-9.37a3.14,3.14,0,0,1-.68-5.67c15.6-10,21.84-28.69,16.34-26.63-6.3,2.36-22.81-.78-22.81-.78-6.68.39-35.39-13-55.44-7.87s-36.18-9-43.25-19.26-60.56-38.14-62.52-16.52-45.22,42.47-52.3,25.95-27.91-22.41-22-9.83c5.34,11.4-2.86,31.18-4.45,34.81a3.2,3.2,0,0,1-.72,1c-17.88,17.21-32.39,14.49-57.35,12.93C53,184,58.74,176.86,41.46,165.72l-3.84,9.54C23.09,188-7.14,218.67,17.11,236.58a10.29,10.29,0,0,1,4.05,9.6c-.14,1-.28,2.2-.41,3.42,15.21.19,39.54-11.24,51.75.14a35.37,35.37,0,0,1,7.8,11.45,13.06,13.06,0,0,1,5,2.11c11.79,7.67-.59,39.52,18.28,38.34s17.1-27.13,34.8-33,24.77-14.75,30.08-2.95c.59,1.31,1.19,2.64,1.78,4,15.34-16.56,43.21-9.51,58.38,1.7,13,9.6,7.32,29.58,2.22,44.86l5.2-4.64c12.75-4.82,38.79-17.44,52.61-43.81l6.88-5.74c8-2.37,23.33-4.19,28.05,14.25,4,15.61,10.67,15.35,15.21,12.85a5.09,5.09,0,0,1,2.05-.65C341.44,268.11,360.71,267.43,360.71,267.43Z" transform="translate(-8 -50.58)"/><path class="cls-5" d="M269.12,334.81c-8.94,8.86-16.34,30.53,23.18,16.37,0,0,41.87-21.23,27.72-44.82-9.36-15.59-28.55-.31-36.09,10.65A122.51,122.51,0,0,1,269.12,334.81Z" transform="translate(-8 -50.58)"/><path class="cls-5" d="M177.88,189s-61.48-14.57-64.29,18.28c-3.54,41.29,46.59,33,57.21,29.49S219.75,202,177.88,189Z" transform="translate(-8 -50.58)"/><path class="cls-5" d="M308.93,149.68c0,4.47,2.6,11.58,14,21,0,0-12.68,23.81-7,28.9,11.17,10,64.25-8.84,47.14-38.33-13.86-23.9-39.72-20.3-49-18.08A6.64,6.64,0,0,0,308.93,149.68Z" transform="translate(-8 -50.58)"/><ellipse class="cls-6" cx="403.44" cy="175.71" rx="18.87" ry="16.37"/><ellipse class="cls-7" cx="316.59" cy="156.89" rx="19.61" ry="17.01"/><ellipse class="cls-8" cx="199.96" cy="204.91" rx="27.72" ry="24.04"/><ellipse class="cls-9" cx="189.63" cy="143.17" rx="23.59" ry="19.81"/><ellipse class="cls-10" cx="55.82" cy="197.68" rx="22.48" ry="18.87"/><ellipse class="cls-11" cx="59.14" cy="138.01" rx="21.09" ry="18.87"/><ellipse class="cls-12" cx="175.33" cy="41.88" rx="21.09" ry="18.87"/><ellipse class="cls-13" cx="210.72" cy="18.87" rx="21.09" ry="18.87"/></svg>