<svg id="Layer_4" data-name="Layer 4" xmlns="http://www.w3.org/2000/svg" viewBox="0 0 482 344.03"><defs><style>.cls-1{fill:#e3c070;}.cls-2{fill:#537012;}.cls-3{fill:#71ac2b;}.cls-4{fill:#b1d283;}.cls-5{fill:#f9c34f;}.cls-6{fill:#d7972e;}</style></defs><path class="cls-1" d="M414.68,291c-49,3.77-71.15-42.27-71.15-42.27l-40.35,2.79a165.59,165.59,0,0,1,3.2,35.5c-.07,3.13-.22,6.27-.51,9.42,0,0-150.59,72.38-296.57,2.61A42.48,42.48,0,0,0,8,309.48v53.31a31.35,31.35,0,0,0,19,28.86c38.54,16.43,133.08,42.52,258.89-20.72a35.81,35.81,0,0,0,19.68-32V308.36a8,8,0,0,1,7.22-7.92l29-1.88c4.93-.46,8.34,1.79,9.34,6.63,3.68,17.72,12,55.29,68.43,47.71,68-9.15,71.18-45.37,70.43-109.14C472.57,266.42,445.54,288.59,414.68,291Z" transform="translate(-8 -67.17)"/><path class="cls-2" d="M275.37,216.5c2.45,11.2,8.68,23.06,19.62,35.54l8.19-.56a220.11,220.11,0,0,0-10.11-35.28Z" transform="translate(-8 -67.17)"/><path class="cls-2" d="M487.66,172.7h0s-14.81,96.08-71.94,93.57-63.4-35.15-76-50.85l-46.7.78a220.11,220.11,0,0,1,10.11,35.28l40.35-2.79s22.18,46,71.15,42.27c30.86-2.37,57.89-24.54,75.24-47.2-.07-6.25-.18-12.77-.28-19.55C489.33,201,488.7,184.48,487.66,172.7Z" transform="translate(-8 -67.17)"/><path class="cls-3" d="M470.15,145.27c-1.67.28-2.48-2.25-1.59-3.7,6.76-11,6.8-48.56-54.52-38-8.43,1.46-16.74-3.42-22.23-10-12.49-14.94-38.29-38.24-66.48-19.45-36.4,24.26-31.11,40.5-23.46,83.4,1.25,7-2.45,10.13-8.79,13.42l-11.79,6.09c-3.29,1.71-5.36,1.35-7.15-.14h0a229.53,229.53,0,0,1,18.93,39.24l46.7-.78c12.55,15.7,18.83,48.34,76,50.85s71.94-93.57,71.94-93.57h0C485,142.87,479.73,143.69,470.15,145.27Z" transform="translate(-8 -67.17)"/><path class="cls-4" d="M464.06,209.56C462.34,231.8,445.51,252,419.28,252s-59.43-24.57-59.43-46.87,20.09-38.08,55.66-38.08C441.75,167.09,466.15,182.57,464.06,209.56Z" transform="translate(-8 -67.17)"/><path class="cls-5" d="M268.08,169.29,248.81,145.2a16.36,16.36,0,0,0-16.51-5.73c-38.93,9.1-178.35,48.17-218.95,148,40.49,18.52,82.59,21.53,97.72,22A6.73,6.73,0,0,0,118,303c.27-9.15-1.22-10.22-6.93-17.93-2-2.72-7.5-14-4.38-12.73,20.36,8.6,31.62,27.37,35.7,34.67a8.85,8.85,0,0,0,6.08,4.36c21.93,4.19,32.89.83,38-2.19a7.66,7.66,0,0,0,3.6-7.93c-2.86-17.07-23.5-40.19-34.52-53.53-2.14-2.59-3.34-14-.31-12.55,23.16,11.24,48.21,48.77,56,61.05a9.91,9.91,0,0,0,7.3,4.58c27.73,2.95,41.1-9.13,45.51-14.36a8.23,8.23,0,0,0,2-5.42c-.37-19-31.71-55.15-41.39-67.07-.76-.94-7.92-15.6,1-10.17,34.28,21,81.61,85,82.08,85.64C309,231.7,274.14,177,274.14,177h0C272.2,175.34,270.58,172.42,268.08,169.29Z" transform="translate(-8 -67.17)"/><path class="cls-6" d="M306.42,304.75c.29-3.16,3.53-13.57,0-17.77-.47-.62-46.58-62.2-80.86-83.17-8.88-5.43-1.72,9.23-1,10.17,9.68,11.92,41,48.07,41.39,67.07a8.23,8.23,0,0,1-2,5.42c-4.41,5.23-17.78,17.31-45.51,14.36a9.91,9.91,0,0,1-7.3-4.58c-7.75-12.28-32.8-49.81-56-61.05-3-1.47-1.83,10,.31,12.55,11,13.34,31.66,36.46,34.52,53.53a7.66,7.66,0,0,1-3.6,7.93c-5.08,3-16,6.38-38,2.19a8.85,8.85,0,0,1-6.08-4.36c-4.08-7.3-15.34-26.07-35.7-34.67-3.12-1.31,2.37,10,4.38,12.73,5.71,7.71,7.2,8.78,6.93,17.93a6.73,6.73,0,0,1-6.93,6.48c-15.13-.46-57.23-3.47-97.72-22-1.14,2.82-2.23,5.67-3.21,8.59-.32,1-.59,1.93-.84,2.9C155.28,368.78,306.42,304.75,306.42,304.75Z" transform="translate(-8 -67.17)"/></svg>