<svg id="Layer_2" data-name="Layer 2" xmlns="http://www.w3.org/2000/svg" viewBox="0 0 398.21 470.88"><defs><style>.cls-1{fill:#ffd678;}.cls-2{fill:#a67d53;}.cls-3{fill:#f3aa4d;}.cls-4{fill:#e6b355;}</style></defs><path class="cls-1" d="M189.17,59.73s67.28,12.84,35.48,66.67c-15.42,26.08-41.24,29-64.17,22.22l146,117.18c47.62-31.85,79.59-7.91,85.1,14.72s-33.18,27-33.18,27l-2.23-1.79,92.69,74.37.21-6.56C440.66,313.08,425,241,409.72,177.68,270,155.57,383.55,75.33,383.55,75.33h0c-5.66-21-10.25-37.47-13-47.16A15,15,0,0,0,357.5,17.3C199.39,2.18,80.68,54.17,61.67,62.73A4.89,4.89,0,0,0,58.79,67l54.38,43.64S88.87,62.79,189.17,59.73Z" transform="translate(-50.89 -14.56)"/><path class="cls-2" d="M117.24,192.52l-2.57,144.73C242.14,416.52,389.85,470.07,433,484.91a9.7,9.7,0,0,0,12.84-8.86l2-62L134.13,185.11S121.89,180.83,117.24,192.52Z" transform="translate(-50.89 -14.56)"/><path class="cls-3" d="M224.65,126.4c31.8-53.83-35.48-66.67-35.48-66.67-100.3,3.06-76,50.93-76,50.93l47.31,38C183.41,155.37,209.23,152.48,224.65,126.4Z" transform="translate(-50.89 -14.56)"/><path class="cls-4" d="M356.21,305.68,306.52,265.8l-146-117.18-47.31-38L58.79,67,50.91,277.88A29.31,29.31,0,0,0,63,302.72c16.61,12,33.95,23.5,51.68,34.53l2.57-144.73c4.65-11.69,16.89-7.41,16.89-7.41L447.82,414l1.08-34Z" transform="translate(-50.89 -14.56)"/><path class="cls-3" d="M409.72,177.68C400.3,138.7,391,103,383.55,75.33h0S270,155.57,409.72,177.68Z" transform="translate(-50.89 -14.56)"/><path class="cls-3" d="M391.62,280.52c-5.51-22.63-37.48-46.57-85.1-14.72l49.69,39.88,2.23,1.79S397.12,303.15,391.62,280.52Z" transform="translate(-50.89 -14.56)"/><polygon class="cls-3" points="255.62 251.24 305.32 291.12 255.62 251.24 255.62 251.24"/></svg>