<svg id="Layer_5" data-name="Layer 5" xmlns="http://www.w3.org/2000/svg" viewBox="0 0 482.33 377.23"><defs><style>.cls-1{fill:#f4bf5c;}.cls-2{fill:#c98a2d;}.cls-3{fill:#89d9e9;}.cls-4{fill:#ccf5fc;}</style></defs><path class="cls-1" d="M347,251.41c.93,19-4.42,67.6-73.23,112.37A312.71,312.71,0,0,1,241.63,382q-5.25,2.58-10.36,4.81a210.61,210.61,0,0,1-30.81,10.83c-82,21.59-130.58-25.34-143.47-40.16a29.78,29.78,0,0,1-5.4-9.17c-17.74-47.31-5.29-83.53,20.07-111,27.27-29.5,69.47-48.83,105.17-60.84,15.36-5.16,29.5-9,40.74-11.65,3.7-.88,7.1-1.65,10.11-2.29a35.7,35.7,0,0,0,22.82-16c11.54-18.5,24.07-31.67,36.58-41,37.3-27.73,74.45-21.07,84.72-18.47a5.18,5.18,0,0,1,3.85,4c2.58,13.19-5,49.43-7,58.72a1.24,1.24,0,0,0,1.64,1.42c12.87-4.53,27.22-6.34,41-6.7a253,253,0,0,1,47.78,3.7A19.11,19.11,0,0,1,474.4,163c.13.61.24,1.21.35,1.81a126.5,126.5,0,0,1,15.09-.68c-.49-4-1.12-8-1.91-12.29a16.5,16.5,0,0,0-9.52-12c-13.65-6.06-43.81-15.36-81.15-1.82a1.19,1.19,0,0,1-1.61-1.22c.78-7.61,3.46-36.43,1.73-54.48a16.42,16.42,0,0,0-14.09-14.76c-26.42-3.64-95.2-3.56-154.5,78.71A24.05,24.05,0,0,1,213.58,156c-46.35,8.39-242.94,53.3-198.16,205.47a84.16,84.16,0,0,0,24.25,38.69c30.79,27.83,103.22,72.42,214.83,17.38,125.22-61.75,129.26-119.28,126.71-137.85a5,5,0,0,1,.92-3.62l-33.82-29.38A8,8,0,0,0,347,251.41Z" transform="translate(-8.83 -66.43)"/><path class="cls-2" d="M489.84,164.17a126.5,126.5,0,0,0-15.09.68c6.31,32.86-13.81,52-39.93,63a170.59,170.59,0,0,1-31.2,9.45A291.79,291.79,0,0,1,354.69,243a7.87,7.87,0,0,0-6.38,3.64L382.13,276a5.15,5.15,0,0,1,4.39-2.2C412.35,274.66,503.15,270.17,489.84,164.17Z" transform="translate(-8.83 -66.43)"/><path class="cls-3" d="M176.83,176.48c-35.7,12-77.9,31.34-105.17,60.84,54.59,13.13,126.43,51.19,128.8,160.3a210.61,210.61,0,0,0,30.81-10.83c2.27-4.46,4.71-9.18,7.34-14.2C305.38,245,226.85,194.75,176.83,176.48Z" transform="translate(-8.83 -66.43)"/><path class="cls-3" d="M287.08,105.57c-12.51,9.3-25,22.47-36.58,41a35.7,35.7,0,0,1-22.82,16c-3,.64-6.41,1.41-10.11,2.29,83.31,38.08,85.8,109,75.79,156.25-2.11,10-9.69,25.68-19.55,42.7C342.62,319,348,270.43,347,251.41a8,8,0,0,1,1.27-4.77,7.87,7.87,0,0,1,6.38-3.64,291.79,291.79,0,0,0,48.93-5.68C329.59,186.79,299.19,135,287.08,105.57Z" transform="translate(-8.83 -66.43)"/><path class="cls-3" d="M459,148.23a253,253,0,0,0-47.78-3.7c-9.74,27.23,5,57.84,23.59,83.34,26.12-11.07,46.24-30.16,39.93-63-.11-.6-.22-1.2-.35-1.81A19.11,19.11,0,0,0,459,148.23Z" transform="translate(-8.83 -66.43)"/><path class="cls-4" d="M71.66,237.32C46.3,264.76,33.85,301,51.59,348.29a29.78,29.78,0,0,0,5.4,9.17c12.89,14.82,61.43,61.75,143.47,40.16C198.09,288.51,126.25,250.45,71.66,237.32Z" transform="translate(-8.83 -66.43)"/><path class="cls-4" d="M217.57,164.83c-11.24,2.68-25.38,6.49-40.74,11.65,50,18.27,128.55,68.54,61.78,196.11-2.63,5-5.07,9.74-7.34,14.2q5.11-2.24,10.36-4.81a312.71,312.71,0,0,0,32.18-18.2c9.86-17,17.44-32.71,19.55-42.7C303.37,273.8,300.88,202.91,217.57,164.83Z" transform="translate(-8.83 -66.43)"/><path class="cls-4" d="M411.23,144.53c-13.74.36-28.09,2.17-41,6.7a1.24,1.24,0,0,1-1.64-1.42c2-9.29,9.6-45.53,7-58.72a5.18,5.18,0,0,0-3.85-4c-10.27-2.6-47.42-9.26-84.72,18.47,12.11,29.42,42.51,81.22,116.54,131.75a170.59,170.59,0,0,0,31.2-9.45C416.27,202.37,401.49,171.76,411.23,144.53Z" transform="translate(-8.83 -66.43)"/></svg>