<?xml version="1.0" encoding="UTF-8" standalone="no"?>
<svg
   xmlns:dc="http://purl.org/dc/elements/1.1/"
   xmlns:cc="http://creativecommons.org/ns#"
   xmlns:rdf="http://www.w3.org/1999/02/22-rdf-syntax-ns#"
   xmlns:svg="http://www.w3.org/2000/svg"
   xmlns="http://www.w3.org/2000/svg"
   xmlns:sodipodi="http://sodipodi.sourceforge.net/DTD/sodipodi-0.dtd"
   xmlns:inkscape="http://www.inkscape.org/namespaces/inkscape"
   width="210mm"
   height="297mm"
   viewBox="0 0 210 297"
   version="1.1"
   id="svg3156"
   inkscape:version="1.0.2 (e86c8708, 2021-01-15)"
   sodipodi:docname="minigame banana.svg">
  <defs
     id="defs3150" />
  <sodipodi:namedview
     id="base"
     pagecolor="#ffffff"
     bordercolor="#666666"
     borderopacity="1.0"
     inkscape:pageopacity="0.0"
     inkscape:pageshadow="2"
     inkscape:zoom="0.33623596"
     inkscape:cx="400"
     inkscape:cy="560"
     inkscape:document-units="mm"
     inkscape:current-layer="layer1"
     inkscape:document-rotation="0"
     showgrid="false"
     inkscape:window-width="1440"
     inkscape:window-height="872"
     inkscape:window-x="0"
     inkscape:window-y="28"
     inkscape:window-maximized="0" />
  <metadata
     id="metadata3153">
    <rdf:RDF>
      <cc:Work
         rdf:about="">
        <dc:format>image/svg+xml</dc:format>
        <dc:type
           rdf:resource="http://purl.org/dc/dcmitype/StillImage" />
        <dc:title></dc:title>
      </cc:Work>
    </rdf:RDF>
  </metadata>
  <g
     inkscape:label="Layer 1"
     inkscape:groupmode="layer"
     id="layer1">
    <path
       style="display:inline;fill:#fad064;fill-opacity:1;stroke:none;stroke-width:0;stroke-linecap:round;stroke-miterlimit:4;stroke-dasharray:none;paint-order:fill markers stroke"
       d="m 114.16753,104.78487 c -15.30273,0.13925 -31.179374,1.90607 -44.721558,9.58019 -9.854471,5.1937 -18.052625,13.50536 -22.729675,23.65042 -6.30441,13.59145 -9.376773,28.56346 -10.069023,43.48351 -0.267104,8.49763 0.270364,17.50436 4.863677,24.92626 3.234859,5.46918 6.775708,10.99413 11.733674,15.06606 2.301516,1.77644 5.678242,1.08954 8.040121,-0.1964 3.650306,-2.70279 5.211081,-7.25033 7.383927,-11.07185 7.189218,-14.33835 14.069977,-29.16419 25.068139,-41.04114 8.815738,-8.82313 20.016858,-15.21778 31.905468,-18.64413 10.93439,-3.00612 22.33297,-3.49707 33.59051,-2.77842 6.60172,0.67382 13.05781,4.11225 19.79076,2.58886 4.716,-1.72967 6.56189,-7.07703 6.83904,-11.69153 0.54136,-5.06895 -2.53515,-9.5698 -6.06358,-12.878 -10.03863,-9.89268 -23.26545,-16.28249 -37.12237,-18.62454 -9.39058,-1.74369 -18.96541,-2.42314 -28.50911,-2.36917 z"
       id="path1137" />
    <path
       style="display:inline;fill:#d8a629;fill-opacity:1;stroke:none;stroke-width:0;stroke-linecap:round;stroke-miterlimit:4;stroke-dasharray:none;paint-order:fill markers stroke"
       d="m 130.76891,119.29536 c -10.89349,-0.095 -21.2198,4.46471 -30.41566,9.93276 -15.976732,9.60332 -28.335809,24.59529 -35.767462,41.60533 -4.859837,11.08609 -9.424508,22.83373 -8.842178,35.16078 0.101014,5.27801 0.540663,10.6766 2.285667,15.67733 1.232994,1.39839 3.036204,-0.36623 4.180635,-1.05904 3.449863,-3.52837 5.199901,-8.31537 7.56207,-12.56867 6.805723,-13.49285 13.466335,-27.42679 23.770331,-38.65644 8.280887,-8.4491 18.817887,-14.54782 30.049037,-18.23126 11.40885,-3.54387 23.5365,-4.17125 35.38747,-3.407 6.79848,0.69273 13.49207,4.30932 20.39892,2.44648 4.48867,-1.68191 6.08745,-6.92053 6.45644,-11.27702 -0.0121,-2.24385 0.13087,-4.90414 -1.33152,-6.74977 -9.94292,-4.36333 -20.4187,-7.49485 -30.99881,-9.92 -7.4685,-1.66799 -15.03999,-3.19769 -22.73494,-2.95348 z"
       id="path1139" />
    <path
       style="display:inline;fill:#6d4b36;fill-opacity:1;stroke:none;stroke-width:0;stroke-linecap:round;stroke-miterlimit:4;stroke-dasharray:none;paint-order:fill markers stroke"
       d="m 44.971467,174.81265 c -2.823144,0.20001 -5.831937,0.0414 -8.497487,1.07876 -1.819863,1.33882 -1.359266,4.03473 -1.685908,6.01027 0.03984,2.20851 -0.419185,4.69603 0.654081,6.71076 1.794453,0.84156 3.951313,-0.0588 5.857102,-0.0414 5.116583,-0.4616 10.263212,-1.13756 15.385747,-0.45891 2.168874,0.36261 3.31914,2.45972 3.141094,4.51643 0.337331,3.89722 -0.572711,8.02938 0.812307,11.76961 0.645816,1.65551 3.103984,1.55337 3.598636,-0.14649 0.441413,-3.31255 -0.73538,-6.65628 -0.740225,-9.96947 -0.574956,-5.06701 0.368803,-11.032 -3.442728,-15.10449 -3.923696,-3.79685 -9.899943,-4.35673 -15.082619,-4.36494 z"
       id="path1141" />
    <path
       style="display:inline;fill:#6d4b36;fill-opacity:1;stroke:none;stroke-width:0;stroke-linecap:round;stroke-miterlimit:4;stroke-dasharray:none;paint-order:fill markers stroke"
       d="m 47.484951,144.67582 c -2.793974,-0.17627 -5.354312,1.38257 -6.755561,3.76091 -3.448523,5.35263 -5.617183,11.79899 -5.219992,18.21175 0.48703,2.08753 3.18484,1.49159 4.754513,1.47119 7.593687,-0.5021 15.290979,-1.34482 22.847974,-0.49968 2.356945,0.18432 3.635999,2.42651 3.921688,4.54685 1.368845,6.32768 0.897068,12.9289 2.395057,19.21992 0.48243,1.92607 3.163659,2.91476 4.474526,1.18371 1.782102,-1.94941 2.069739,-5.21265 0.02656,-7.10045 -2.942059,-3.07921 -3.05493,-7.62111 -3.035419,-11.63122 -0.207743,-5.02528 0.502359,-10.15129 -0.491336,-15.11222 -2.022495,-7.2554 -9.236114,-11.50697 -16.139374,-13.19576 -2.214394,-0.54632 -4.492938,-0.89935 -6.778742,-0.855 z"
       id="path1143" />
    <path
       style="display:inline;fill:#6d4b36;fill-opacity:1;stroke:none;stroke-width:0;stroke-linecap:round;stroke-miterlimit:4;stroke-dasharray:none;paint-order:fill markers stroke"
       d="m 73.025523,109.46912 c -6.303963,-0.14085 -12.142725,3.18602 -16.31965,7.72188 -1.719384,1.9825 -4.645152,4.19479 -3.789351,7.17117 1.301204,2.89911 4.327431,4.5753 6.921929,6.17761 4.944271,2.65559 10.763679,1.73418 16.143177,2.08025 3.639681,0.06 7.279367,0.11912 10.919048,0.17868 3.772039,3.14654 3.388563,8.59089 3.780949,13.01052 0.49008,8.40077 0.134538,16.84737 0.971826,25.22556 0.418392,3.32394 4.611619,4.22751 7.339291,3.3117 2.825788,-0.59457 3.948388,-3.87726 2.991138,-6.39151 -0.90805,-3.24807 -3.106963,-6.18368 -2.791102,-9.68723 -0.662996,-10.34792 0.01891,-20.8159 -1.704879,-31.08149 -1.144335,-6.65374 -5.527184,-12.78812 -11.892444,-15.3159 -3.919616,-1.78654 -8.299466,-2.34614 -12.569932,-2.40132 z"
       id="path1145" />
    <path
       style="display:inline;fill:#6d4b36;fill-opacity:1;stroke:none;stroke-width:0;stroke-linecap:round;stroke-miterlimit:4;stroke-dasharray:none;paint-order:fill markers stroke"
       d="m 114.72924,96.93127 c -5.11091,0.112685 -11.07581,0.880957 -14.39744,5.2397 -2.616784,3.79979 -0.814186,8.72161 1.1466,12.38714 3.30048,6.0285 9.77839,9.55164 16.35559,10.80921 2.13196,0.4637 5.03693,1.3453 5.10696,4.01429 0.52757,4.13282 -0.98815,8.30406 -0.18086,12.39929 0.9347,2.26183 4.40443,2.73036 5.80256,0.60922 2.65458,-3.31198 2.23678,-7.91723 2.59772,-11.90725 0.0893,-7.02254 0.47773,-14.08771 -0.19169,-21.08852 -0.98173,-5.84226 -6.30627,-9.807129 -11.52901,-11.788337 -1.51186,-0.547449 -3.10722,-0.751208 -4.71045,-0.674743 z"
       id="path1147" />
  </g>
</svg>
