<?xml version="1.0" encoding="UTF-8" standalone="no"?>
<svg
   xmlns:dc="http://purl.org/dc/elements/1.1/"
   xmlns:cc="http://creativecommons.org/ns#"
   xmlns:rdf="http://www.w3.org/1999/02/22-rdf-syntax-ns#"
   xmlns:svg="http://www.w3.org/2000/svg"
   xmlns="http://www.w3.org/2000/svg"
   xmlns:sodipodi="http://sodipodi.sourceforge.net/DTD/sodipodi-0.dtd"
   xmlns:inkscape="http://www.inkscape.org/namespaces/inkscape"
   width="210mm"
   height="297mm"
   viewBox="0 0 210 297"
   version="1.1"
   id="svg4410"
   inkscape:version="1.0.2 (e86c8708, 2021-01-15)"
   sodipodi:docname="minigame cake.svg">
  <defs
     id="defs4404" />
  <sodipodi:namedview
     id="base"
     pagecolor="#ffffff"
     bordercolor="#666666"
     borderopacity="1.0"
     inkscape:pageopacity="0.0"
     inkscape:pageshadow="2"
     inkscape:zoom="0.33623596"
     inkscape:cx="400"
     inkscape:cy="560"
     inkscape:document-units="mm"
     inkscape:current-layer="layer1"
     inkscape:document-rotation="0"
     showgrid="false"
     inkscape:window-width="1440"
     inkscape:window-height="872"
     inkscape:window-x="0"
     inkscape:window-y="28"
     inkscape:window-maximized="0" />
  <metadata
     id="metadata4407">
    <rdf:RDF>
      <cc:Work
         rdf:about="">
        <dc:format>image/svg+xml</dc:format>
        <dc:type
           rdf:resource="http://purl.org/dc/dcmitype/StillImage" />
        <dc:title></dc:title>
      </cc:Work>
    </rdf:RDF>
  </metadata>
  <g
     inkscape:label="Layer 1"
     inkscape:groupmode="layer"
     id="layer1">
    <path
       style="display:inline;fill:#ffd973;fill-opacity:1;stroke:none;stroke-width:0;stroke-linecap:round;stroke-miterlimit:4;stroke-dasharray:none;paint-order:fill markers stroke"
       d="m 116.39267,82.643165 c -22.687385,0.05205 -44.805375,6.01817 -66.586601,11.760068 -6.604398,2.064481 -13.578064,3.43303 -19.704005,6.732647 -3.794058,2.92794 -2.805624,8.46281 -3.395299,12.65074 -0.689873,13.74682 -0.696404,27.51564 -0.672884,41.27624 3.976798,3.48132 9.212602,5.62628 13.756368,8.4576 19.418026,10.78402 38.714456,21.82982 58.485136,31.9501 6.855655,3.02767 13.705095,-1.60393 19.635255,-4.59 21.67261,-11.49377 43.42505,-22.87075 64.72221,-35.04575 3.18768,-1.96589 6.5222,-5.00008 6.00955,-9.13858 0.23402,-14.2708 0.16578,-28.59497 -1.06249,-42.81958 -1.30167,-5.217341 -7.39337,-6.618916 -11.60413,-8.697788 C 157.74331,87.49776 138.16357,81.7937 118.19334,82.633761 c -0.60027,0.0035 -1.20045,0.0044 -1.80067,0.0087 z"
       id="path1203" />
    <path
       style="display:inline;fill:#ffe399;fill-opacity:1;stroke:none;stroke-width:0;stroke-linecap:round;stroke-miterlimit:4;stroke-dasharray:none;paint-order:fill markers stroke"
       d="m 107.0779,54.332867 c -3.94311,-0.314941 -7.03241,3.141185 -11.030115,2.499056 -5.13003,-0.14916 -10.06594,2.328419 -13.1696,6.385295 -3.28558,3.645134 -8.28487,5.317645 -11.31141,9.178821 -1.46045,3.029906 -0.33375,6.800623 -2.04576,9.680976 -2.95655,1.870749 -7.18026,1.01201 -8.99051,-2.05897 -1.5118,-2.150827 -3.62597,-5.967254 -6.904465,-4.662612 -3.848928,2.715447 -6.895325,6.396099 -10.283826,9.63601 -3.202468,-0.276448 -7.182839,0.07742 -8.790613,3.349178 -1.893262,2.71982 -0.0888,5.870673 -0.402861,8.768916 -1.74228,2.976193 -5.661675,3.437973 -7.936646,5.976093 -4.857832,4.45326 -4.665543,11.9335 -2.752085,17.73974 2.293037,7.46581 0.6271,15.62899 2.349135,23.22365 2.173696,5.16407 8.952899,5.8541 13.7082,4.4464 2.759495,-0.65486 3.618715,-3.5835 3.711797,-6.08457 0.442755,-2.03386 0.03499,-4.54971 1.131382,-6.314 2.41739,-0.19858 3.55577,2.93683 5.254657,4.16514 4.62705,5.16494 13.814665,4.00837 17.297475,-1.90495 2.26223,-2.5858 3.81065,-7.14549 7.90112,-7.07008 4.18276,-0.18896 6.15233,4.50436 6.04354,8.06218 0.0175,6.61962 -5.27806,12.17623 -4.6092,18.92489 0.49183,3.34445 1.25421,7.09365 3.62584,9.60814 3.17837,0.97138 6.20823,-1.54369 8.87018,-2.95077 5.92456,-4.4156 10.88891,-10.01044 15.785145,-15.49676 2.49687,-1.75496 6.02845,-1.38902 8.22726,-3.78699 4.92209,-4.35633 8.24533,-10.3703 14.05534,-13.70355 2.4285,-1.38395 5.55197,-3.5556 8.35896,-2.14108 3.08656,3.02011 3.06499,8.8313 7.69025,10.24433 2.15765,0.46725 4.43498,1.61184 4.72459,4.05898 1.13514,4.50991 1.01004,10.67688 6.00636,12.88523 3.79088,1.41798 7.1555,-2.01523 9.81968,-4.22016 4.12365,-3.43916 6.7716,-8.23308 10.5938,-11.92279 2.8402,-1.90543 6.01581,0.80752 8.55926,2.06466 2.92913,1.38631 5.39673,4.76099 8.89953,4.40274 3.53989,-1.19183 3.02483,-5.81551 3.01749,-8.76655 -0.3775,-4.34234 -0.42255,-9.01589 2.54791,-12.56829 1.69622,-2.39368 3.97587,-6.08033 1.49326,-8.73405 -2.41586,-2.99006 -7.75013,-3.27088 -8.58678,-7.4655 -0.49861,-3.69325 1.00864,-7.42758 3.73739,-10.010308 2.25524,-2.585839 4.88136,-6.951751 2.14881,-10.082351 -3.11218,-3.358888 -8.08969,-1.459882 -12.03725,-1.786502 -2.22821,-0.173655 -6.02968,0.66785 -6.66057,-2.289533 -0.26638,-2.210578 -2.07401,-4.184164 -4.44259,-3.795518 -2.28258,0.246266 -4.98039,-0.748247 -5.15007,-3.375511 -0.0481,-1.783352 -1.01411,-3.856276 -3.09575,-3.704098 -3.08205,-0.111541 -6.83877,0.458195 -8.90246,-2.439173 -2.59735,-3.547416 -7.07808,-4.585233 -11.2437,-4.635755 -3.70257,-0.04374 -8.62676,-0.77423 -11.07192,2.704467 -0.64865,2.09322 -1.38163,4.617952 -3.88309,5.141541 -3.27486,0.901125 -8.33111,0.351684 -9.28577,-3.52585 -0.83814,-4.464287 2.29566,-8.476372 2.22475,-12.89766 -0.1566,-3.116822 -3.82601,-3.598375 -6.28762,-3.498731 -2.95073,-0.631107 -5.82159,-1.522564 -8.90836,-1.253771 z"
       id="path1209" />
    <path
       style="display:inline;fill:#efc960;fill-opacity:1;stroke:none;stroke-width:0;stroke-linecap:round;stroke-miterlimit:4;stroke-dasharray:none;paint-order:fill markers stroke"
       d="m 133.38224,128.87543 c -7.45889,0.79173 -12.24669,7.39709 -17.2193,12.26336 -2.48178,2.57683 -4.77044,5.76998 -8.55113,6.4136 -2.27672,0.83315 -4.9629,2.28437 -5.73713,4.62228 0.1824,14.61383 0.36437,29.22761 0.54599,43.84144 1.26282,1.5747 3.88965,0.26157 5.55949,-0.30138 15.15233,-7.01352 29.63222,-15.39173 44.41021,-23.1482 10.67964,-5.95357 21.76925,-11.24204 32.02889,-17.91275 2.50264,-1.77224 5.33855,-5.29393 3.69036,-8.45607 -3.26843,-2.71939 -6.99921,-5.26091 -11.14943,-6.38604 -3.5688,-0.54533 -5.52892,3.36807 -7.64178,5.51908 -3.61882,4.29854 -7.39509,9.09606 -12.7818,11.18875 -3.58232,1.00584 -6.26203,-2.70604 -6.86961,-5.80808 -1.14192,-3.09534 -0.93353,-6.89593 -3.08178,-9.5057 -2.30134,-1.54601 -5.55442,-1.93177 -6.86576,-4.71379 -1.68174,-2.32781 -2.1845,-5.76407 -4.69515,-7.36629 -0.52057,-0.20428 -1.08655,-0.26289 -1.64207,-0.25021 z"
       id="path1211" />
    <ellipse
       style="display:inline;fill:#a02c2c;fill-opacity:1;stroke:none;stroke-width:0;stroke-linecap:round;stroke-miterlimit:4;stroke-dasharray:none;paint-order:fill markers stroke"
       id="path1213"
       cx="170.1544"
       cy="117.76155"
       rx="6.1446095"
       ry="6.4859767" />
    <ellipse
       style="display:inline;fill:#a02c2c;fill-opacity:1;stroke:none;stroke-width:0;stroke-linecap:round;stroke-miterlimit:4;stroke-dasharray:none;paint-order:fill markers stroke"
       id="path1215"
       cx="137.38318"
       cy="109.56872"
       rx="6.4859767"
       ry="6.8273435" />
    <path
       style="display:inline;fill:#fef2c8;fill-opacity:1;stroke:none;stroke-width:0;stroke-linecap:round;stroke-miterlimit:4;stroke-dasharray:none;paint-order:fill markers stroke"
       d="m 24.335352,125.46082 c -0.813269,1.35096 -0.03762,3.18147 -0.188352,4.72901 0.41336,4.92261 -0.137393,10.07588 1.533701,14.80507 2.298977,4.28975 7.891653,5.3368 12.316704,4.43301 2.439785,-0.6441 4.011034,-3.00178 5.186988,-5.08516 0.89522,-2.20266 1.178492,-4.76597 0.656215,-7.08626 -2.004337,-5.47345 -7.789188,-8.04333 -12.867995,-9.91136 -2.172698,-0.66313 -4.392025,-1.72815 -6.637256,-1.88431 z"
       id="path1281" />
    <ellipse
       style="display:inline;fill:#a02c2c;fill-opacity:1;stroke:none;stroke-width:0;stroke-linecap:round;stroke-miterlimit:4;stroke-dasharray:none;paint-order:fill markers stroke"
       id="path1223"
       cx="40.09354"
       cy="125.44234"
       rx="8.192812"
       ry="7.3393941" />
    <path
       style="display:inline;fill:#fef2c8;fill-opacity:1;stroke:none;stroke-width:0;stroke-linecap:round;stroke-miterlimit:4;stroke-dasharray:none;paint-order:fill markers stroke"
       d="m 54.908505,74.403087 c -0.840848,-0.0175 -1.640011,0.321065 -2.285465,0.846622 -3.113015,2.332181 -5.731136,5.232393 -8.48442,7.960568 -0.376179,0.336812 -0.703586,0.798463 -1.109772,1.058814 -2.453302,-0.143036 -5.10318,0.06036 -7.176847,1.508829 -1.235356,0.914641 -2.086571,2.27453 -2.593932,3.708473 -0.472678,1.493651 -0.183278,3.08489 0.0087,4.600936 0.129913,0.941892 0.246266,1.911691 0.188089,2.839324 -0.27951,0.447653 -0.860191,0.91066 -0.552004,1.495663 0.384578,0.534962 1.070301,0.731668 1.6078,1.076576 3.496456,1.934958 7.322856,3.373098 11.324005,3.742758 1.860076,0.13385 3.731044,0.0612 5.591863,-0.0306 3.234224,-0.36612 6.512053,-1.03431 9.392503,-2.61064 2.03814,-1.093498 3.70226,-2.84728 4.67053,-4.948854 1.2518,-2.670743 1.6771,-5.65297 1.75229,-8.578115 -0.004,-1.375417 -0.009,-2.768637 -0.23664,-4.124413 -0.18153,-0.667631 -0.99596,-0.52652 -1.52987,-0.620128 -1.68708,-0.144348 -3.29559,-1.054877 -4.22848,-2.477447 -1.25158,-1.790439 -2.41078,-3.81201 -4.36551,-4.9262 -0.60259,-0.331126 -1.28339,-0.530894 -1.973983,-0.523896 z"
       id="path1283" />
    <ellipse
       style="display:inline;fill:#a02c2c;fill-opacity:1;stroke:none;stroke-width:0;stroke-linecap:round;stroke-miterlimit:4;stroke-dasharray:none;paint-order:fill markers stroke"
       id="path1221"
       cx="41.288303"
       cy="103.42413"
       rx="7.6807618"
       ry="7.510078" />
    <path
       style="display:inline;fill:#a46b3b;fill-opacity:1;stroke:none;stroke-width:0;stroke-linecap:round;stroke-miterlimit:4;stroke-dasharray:none;paint-order:fill markers stroke"
       d="m 82.556555,102.04217 c -2.65417,0.11285 -5.28939,0.62087 -7.95558,0.4574 -2.58436,-0.12466 -5.19657,-0.43129 -7.77349,-0.0669 -2.86762,0.56488 -5.71832,2.22641 -7.04684,4.91356 -1.28999,2.91434 -0.81391,6.28162 0.20908,9.19828 0.71299,1.98107 2.09851,3.81604 4.12284,4.57972 3.62151,1.47126 7.62393,1.25885 11.44736,1.06713 3.37774,-0.37706 6.75264,-1.34672 9.64598,-3.16664 2.1842,-1.33185 3.80033,-3.5091 4.45064,-5.98156 0.66619,-2.49062 0.70302,-5.24661 -0.29876,-7.6525 -0.78241,-1.85771 -2.72485,-2.90117 -4.64498,-3.16839 -0.71212,-0.11854 -1.43394,-0.19115 -2.15647,-0.18022 z"
       id="path1285" />
    <ellipse
       style="display:inline;fill:#a02c2c;fill-opacity:1;stroke:none;stroke-width:0;stroke-linecap:round;stroke-miterlimit:4;stroke-dasharray:none;paint-order:fill markers stroke"
       id="path1225"
       cx="90.615852"
       cy="105.13093"
       rx="7.510078"
       ry="6.8273435" />
    <path
       style="display:inline;fill:#fef2c8;fill-opacity:1;stroke:none;stroke-width:0;stroke-linecap:round;stroke-miterlimit:4;stroke-dasharray:none;paint-order:fill markers stroke"
       d="m 90.333755,121.73008 c -1.70641,-0.0464 -3.59404,0.54472 -4.48406,2.1091 -1.18002,2.0095 -1.22044,4.42107 -1.62391,6.65877 -0.4868,3.60966 -1.2193,7.22439 -2.71055,10.55306 -1.02273,2.46738 -2.38953,4.76562 -3.64233,7.11648 -1.27674,2.82165 -2.30507,5.85204 -2.35777,8.97651 0.10716,2.38218 0.63088,4.74494 1.39864,6.99873 0.58526,1.52279 1.31098,3.08712 2.54013,4.19615 1.04722,0.64856 2.3789,0.38974 3.52729,0.20996 2.27313,-0.69217 4.32633,-1.95827 6.33403,-3.20106 3.19569,-2.38446 6.07941,-5.1635 8.87604,-7.9978 1.53919,-1.47532 2.104735,-3.60161 2.781155,-5.55236 1.1421,-3.83633 1.78777,-7.81185 2.15424,-11.79239 0.1356,-2.84882 0.2139,-5.795 -0.82322,-8.50511 -1.23689,-3.45884 -3.665355,-6.5219 -6.816115,-8.42345 -1.55738,-0.90392 -3.35176,-1.38005 -5.15357,-1.34663 z"
       id="path1287" />
    <ellipse
       style="display:inline;fill:#a02c2c;fill-opacity:1;stroke:none;stroke-width:0;stroke-linecap:round;stroke-miterlimit:4;stroke-dasharray:none;paint-order:fill markers stroke"
       id="path1227"
       cx="94.029549"
       cy="128.85599"
       rx="9.2169142"
       ry="8.7048635" />
    <path
       style="display:inline;fill:#a46b3b;fill-opacity:1;stroke:none;stroke-width:0;stroke-linecap:round;stroke-miterlimit:4;stroke-dasharray:none;paint-order:fill markers stroke"
       d="m 131.51197,145.82131 c -2.98074,0.30007 -5.56671,2.20437 -7.61286,4.27646 -1.80317,1.999 -2.51813,4.85398 -4.8476,6.39833 -1.71852,1.49501 -4.20647,2.75595 -4.64244,5.20335 -0.21784,3.09066 3.09075,5.30474 5.93444,5.16122 4.24226,0.10542 7.62599,-2.92164 10.46641,-5.69977 2.62796,-2.46035 5.18121,-5.54095 5.29805,-9.3205 0.26289,-2.16242 -0.52092,-4.6257 -2.62954,-5.58333 -0.60692,-0.30182 -1.28723,-0.46498 -1.96646,-0.43567 z"
       id="path1289" />
    <path
       style="display:inline;fill:#fef2c8;fill-opacity:1;stroke:none;stroke-width:0;stroke-linecap:round;stroke-miterlimit:4;stroke-dasharray:none;paint-order:fill markers stroke"
       d="m 170.28213,123.54401 c -2.39779,-0.13035 -4.00746,2.00526 -5.67831,3.38557 -2.4827,2.13018 -4.60404,4.8906 -7.68434,6.18907 -2.64874,0.67069 -5.48058,1.1882 -7.59642,3.06354 -1.451,1.22289 -2.8786,2.64879 -3.66412,4.37571 0.21259,0.98196 1.42463,1.55004 1.61591,2.64039 1.04486,3.5716 1.19827,7.49446 3.0642,10.79766 1.1687,2.03461 3.44812,3.75506 5.90436,3.17215 3.16047,-0.8177 5.70178,-3.11214 8.02976,-5.29091 3.15087,-3.19053 6.00253,-6.66039 8.77174,-10.17736 0.62699,-0.93691 1.83973,-1.09552 2.54472,-1.89573 0.36962,-1.37913 -0.14304,-2.88311 -0.16316,-4.30283 -0.42998,-3.7751 -0.80646,-7.78722 -2.86543,-11.08146 -0.47185,-0.83048 -1.41733,-0.93087 -2.27882,-0.8758 z"
       id="path1301" />
    <path
       style="display:inline;fill:#fef2c8;fill-opacity:1;stroke:none;stroke-width:0;stroke-linecap:round;stroke-miterlimit:4;stroke-dasharray:none;paint-order:fill markers stroke"
       d="m 192.25324,113.55225 c -0.91744,0.88511 -1.15268,2.31923 -1.41916,3.53801 -0.52871,4.45899 0.31188,9.15354 2.60482,13.02945 0.69047,0.85673 1.67825,-0.0914 1.71035,-0.92172 1.43132,-3.05738 4.63528,-5.43706 4.53362,-9.09156 0.20602,-2.09024 -1.27044,-3.85334 -3.05886,-4.72656 -1.33207,-0.68583 -2.65482,-1.50196 -4.11077,-1.87639 l -0.18065,0.035 z"
       id="path1303" />
    <path
       style="display:inline;fill:#fef2c8;fill-opacity:1;stroke:none;stroke-width:0;stroke-linecap:round;stroke-miterlimit:4;stroke-dasharray:none;paint-order:fill markers stroke"
       d="m 166.19716,96.051248 c -2.76899,-0.185902 -5.06893,1.822152 -6.31212,4.125422 -1.6009,2.94141 -2.57272,6.39824 -2.1479,9.75437 0.75424,1.78777 3.06661,1.7792 4.7047,2.04834 4.39934,0.3355 8.83327,0.57682 13.2414,0.30663 1.35875,-0.0919 3.26047,-0.69331 3.14389,-2.38209 -0.16403,-2.96945 -1.77394,-5.63727 -3.18182,-8.18015 -1.33613,-2.195358 -2.95782,-4.623288 -5.66626,-5.171022 -1.22832,-0.343811 -2.50628,-0.514622 -3.78189,-0.501369 z"
       id="path1305" />
    <path
       style="display:inline;fill:#fef2c8;fill-opacity:1;stroke:none;stroke-width:0;stroke-linecap:round;stroke-miterlimit:4;stroke-dasharray:none;paint-order:fill markers stroke"
       d="m 140.05326,67.065052 c -2.80521,-0.205587 -6.06222,0.706911 -7.44577,3.366237 -0.67822,1.715334 -1.33264,4.015277 -3.42324,4.422076 -1.76016,0.590645 -3.64609,0.156595 -5.42087,0.360432 -2.55255,1.84984 -5.61859,3.411991 -7.18542,6.274454 -0.83407,1.503974 0.12904,3.272979 1.57623,3.934311 4.1647,2.138886 8.75615,3.269261 13.17582,4.755607 8.06983,2.42417 16.27518,4.810854 24.73121,5.288164 5.97084,0.195963 12.14563,-0.154846 17.63946,-2.728919 2.61379,-1.235881 5.25182,-2.512003 7.62188,-4.171348 0.71531,-0.866438 -0.49756,-1.608954 -1.30079,-1.410542 -1.2012,-0.03499 -2.38621,-0.917396 -2.36705,-2.179478 -0.592,-2.121302 -2.49708,-4.079316 -4.84418,-3.804836 -1.56303,0.168406 -3.61456,-0.231394 -4.37365,-1.759863 -0.41905,-1.817734 -0.64463,-4.1626 -2.59011,-5.024182 -2.80831,-0.640992 -5.97679,0.22527 -8.5579,-1.307617 -1.78904,-1.474273 -3.13554,-3.531975 -5.35456,-4.449327 -3.68179,-1.856052 -7.89164,-1.527901 -11.88106,-1.565125 z"
       id="path1309" />
    <path
       style="display:inline;fill:#a46b3b;fill-opacity:1;stroke:none;stroke-width:0;stroke-linecap:round;stroke-miterlimit:4;stroke-dasharray:none;paint-order:fill markers stroke"
       d="m 133.71927,85.53406 c -1.14406,-0.139099 -2.68465,0.490258 -2.53164,1.856664 0.48645,2.95069 2.04935,5.598643 3.11446,8.365923 0.87899,1.827532 1.31571,3.966685 3.0446,5.222463 1.75908,1.58494 3.2452,3.63787 5.43116,4.65395 2.49665,0.75909 4.70373,-1.18313 6.58865,-2.53081 2.55697,-2.06803 5.34599,-4.775641 5.39502,-8.295849 -0.18109,-3.224951 -3.26261,-5.221108 -5.96983,-6.323182 -4.69713,-1.832781 -9.75079,-2.680847 -14.77047,-2.949159 -0.1006,0.0035 -0.20121,-0.0023 -0.30182,0 z"
       id="path1307" />
    <path
       style="display:inline;fill:#fef2c8;fill-opacity:1;stroke:none;stroke-width:0;stroke-linecap:round;stroke-miterlimit:4;stroke-dasharray:none;paint-order:fill markers stroke"
       d="m 107.6989,54.149151 c -2.52753,-0.0175 -5.18205,0.431732 -7.19885,2.062295 -1.738175,0.750302 -3.720115,0.202087 -5.552585,0.479672 -3.39725,0.313191 -7.0381,1.148178 -9.48405,3.705498 -2.75665,2.568955 -5.13594,5.562381 -8.49807,7.38029 -2.25572,1.475323 -5.18883,2.71654 -5.97661,5.563824 -0.78176,2.43493 -0.3845,5.023176 -0.73959,7.493625 0.41205,1.624832 1.6111,2.944828 2.61366,4.253014 1.83064,2.267662 4.52146,3.68752 7.37968,4.145847 2.34945,0.398925 4.98949,0.25239 7.04264,-1.070187 2.8556,-2.161238 3.87771,-5.820764 6.16388,-8.475059 1.54776,-2.170337 4.17935,-3.549165 6.870875,-3.247084 6.25901,0.485796 12.61413,0.380991 18.91198,0.42167 1.18772,-0.08836 2.44797,0.136037 3.59282,-0.220458 0.91416,-0.735475 -0.16797,-1.690139 -0.89006,-1.998038 -1.43639,-0.901168 -2.05057,-2.623195 -1.86436,-4.259488 -0.1391,-1.660044 0.18415,-3.303773 0.87728,-4.830536 0.78307,-2.434581 2.33284,-5.140929 1.15369,-7.703498 -0.72134,-1.887283 -2.94548,-2.121171 -4.6829,-2.271642 -1.98208,-0.08049 -3.85436,-0.582116 -5.75275,-1.174293 -1.30324,-0.257201 -2.64415,-0.23708 -3.96668,-0.255889 z"
       id="path1321" />
    <ellipse
       style="display:inline;fill:#a02c2c;fill-opacity:1;stroke:none;stroke-width:0;stroke-linecap:round;stroke-miterlimit:4;stroke-dasharray:none;paint-order:fill markers stroke"
       id="path1317"
       cx="85.181145"
       cy="67.140068"
       rx="7.8310695"
       ry="7.1961179" />
    <ellipse
       style="display:inline;fill:#a02c2c;fill-opacity:1;stroke:none;stroke-width:0;stroke-linecap:round;stroke-miterlimit:4;stroke-dasharray:none;paint-order:fill markers stroke"
       id="path1319"
       cx="97.88018"
       cy="58.674038"
       rx="7.6194191"
       ry="6.7728171" />
  </g>
</svg>
