<svg id="Layer_2" data-name="Layer 2" xmlns="http://www.w3.org/2000/svg" viewBox="0 0 436.51 272.59"><defs><style>.cls-1{fill:#e56a9d;}.cls-2{fill:#b25986;}.cls-3{fill:#fc86bc;}.cls-4{fill:#ffa9cc;}.cls-5{fill:#ffc9e5;}.cls-6{fill:none;}.cls-7{fill:#80253e;}.cls-8{fill:#a54261;}.cls-9{fill:#bd5c76;}</style></defs><polygon class="cls-1" points="4.24 236.4 4.24 236.4 4.24 236.4 4.24 236.4"/><path class="cls-1" d="M454,297.33c-33.34,9-84,11.34-144-10-43.79-15.57-112.78,4.93-146.87,17.14a220.18,220.18,0,0,1-49.8,11.58c-27.65,3.09-65.74,6.29-72,1.28a7.84,7.84,0,0,1-1.68-2c5.8,12.46,21.09,33.3,56.85,26.15,47.64-9.53,160.4-56.21,258-29.12,76.82,21.33,101.31-2.29,108.11-23.33C460.49,293.32,457.69,296.34,454,297.33Z" transform="translate(-32.28 -70.37)"/><path class="cls-2" d="M41.33,317.33c6.26,5,44.35,1.81,72-1.28a220.18,220.18,0,0,0,49.8-11.58c34.09-12.21,103.08-32.71,146.87-17.14,60,21.34,110.66,19,144,10,3.69-1,6.49-4,8.61-8.28,9.2-18.55,5.42-60.59,5.38-61-.64,24.18-4.48,51.32-18,56.66-25.33,10-72.67,16.66-114.67,0a112,112,0,0,0-26.41-6.42c-19.11-2.55-42.26-2.2-67.05.9-7.35.92-14.85,2.08-22.42,3.48A412,412,0,0,0,151,301.5a139.46,139.46,0,0,1-17.57,5.21,192.55,192.55,0,0,1-24.5,3.92c-27.36,2.66-66.57,4.06-69.59-9.3-2.53-11.19-4.47-32.17-5.71-49,0,0-1.43,35.59,2.9,54.49h0a28.61,28.61,0,0,0,3.13,8.58A7.84,7.84,0,0,0,41.33,317.33Z" transform="translate(-32.28 -70.37)"/><path class="cls-3" d="M39.33,301.33c3,13.36,42.23,12,69.59,9.3a192.55,192.55,0,0,0,24.5-3.92A239.71,239.71,0,0,0,111.5,284.5C90.13,258.68,94,238,104.85,223c-36.53,4.76-58.42,4.53-67.67,4A4.64,4.64,0,0,0,32.29,232c.26,4.67.71,12,1.33,20.3C34.86,269.16,36.8,290.14,39.33,301.33Z" transform="translate(-32.28 -70.37)"/><path class="cls-3" d="M295,247.5c7.71,11.44,12.1,21.68,13.92,30.75a112,112,0,0,1,26.41,6.42c42,16.66,89.34,10,114.67,0,13.51-5.34,17.35-32.48,18-56.66.33-12.38-.18-24-.66-31.47a4.65,4.65,0,0,0-6.72-3.86c-5.57,2.78-13.72,4.73-22.26,6.1a183,183,0,0,1-54.05.36c-35.92-5-95.54-3.24-131.46-1.53C265.73,209.17,280,225.22,295,247.5Z" transform="translate(-32.28 -70.37)"/><path class="cls-4" d="M111.5,284.5a239.71,239.71,0,0,1,21.92,22.21A139.46,139.46,0,0,0,151,301.5a412,412,0,0,1,68.46-18.87C200.13,260.2,155.5,250,155.5,250c-13.84-9.39-14.92-21.44-10.15-33.38-15.1,2.78-28.58,4.86-40.5,6.41C94,238,90.13,258.68,111.5,284.5Z" transform="translate(-32.28 -70.37)"/><path class="cls-5" d="M241.87,279.15c24.79-3.1,47.94-3.45,67.05-.9-1.82-9.07-6.21-19.31-13.92-30.75-15-22.28-29.27-38.33-42.16-49.89-5,.24-9.47.48-13.4.69A169.59,169.59,0,0,0,208.31,203q-5.34,1.32-10.5,2.54C214.06,219.18,226,243.85,241.87,279.15Z" transform="translate(-32.28 -70.37)"/><path class="cls-5" d="M155.5,250s44.63,10.2,63.95,32.63c7.57-1.4,15.07-2.56,22.42-3.48-15.92-35.3-27.81-60-44.06-73.65-19.3,4.58-36.76,8.23-52.46,11.12C140.58,228.56,141.66,240.61,155.5,250Z" transform="translate(-32.28 -70.37)"/><path class="cls-6" d="M236.67,218a2.6,2.6,0,0,1,.31-.25c-26.79-35.62-54.11-52.84-75.91-61C171.74,186.38,229.22,214.49,236.67,218Z" transform="translate(-32.28 -70.37)"/><path class="cls-6" d="M247.7,212.67c.49-.11,1-.2,1.46-.27C292.51,145.77,301.7,107.49,302.4,88h0C242.06,72.71,245,177,247.7,212.67Z" transform="translate(-32.28 -70.37)"/><path class="cls-6" d="M257.83,213.78a10.2,10.2,0,0,1,3,5.08c30.73-6.22,128.53-29.19,94.41-64.16C319.22,151.24,278.16,191,257.83,213.78Z" transform="translate(-32.28 -70.37)"/><path class="cls-7" d="M237,217.77a2.6,2.6,0,0,0-.31.25c-7.45-3.53-64.93-31.64-75.6-61.29C135.11,147,117,150,117,150s-21.38,53.27,116.66,76.5c-.72,1.36-5.15,10.75,11.61,10,.58,0,1.14-.09,1.69-.14-1.17-3.94-1.87-7.07-1.91-7.27Q241,223.14,237,217.77Z" transform="translate(-32.28 -70.37)"/><path class="cls-7" d="M249.16,212.4c-.48.07-1,.16-1.46.27C245,177,242.06,72.71,302.4,88h0c.42-12.07-2.4-17-2.4-17s-104.35-13.39-75.44,83.39h0c11.83,23,17.77,48.95,20.47,64.27Q247.15,215.49,249.16,212.4Z" transform="translate(-32.28 -70.37)"/><path class="cls-7" d="M387.68,164.5c-5.33-5-25.18-8.5-25.18-8.5a42.68,42.68,0,0,0-7.23-1.3c34.12,35-63.68,57.94-94.41,64.16a10.2,10.2,0,0,0-3-5.08c-2.29,2.57-4.33,4.93-6.06,7,1.15.54,2.14,2.15,3,4.19a29.79,29.79,0,0,1,8.87-1.26C416.28,208.08,387.68,164.5,387.68,164.5Z" transform="translate(-32.28 -70.37)"/><path class="cls-8" d="M290,253c-8.5-4-28,1.5-34,0-3.71-.93-7-9.83-9-16.51,0,.06-6.09,21.85,4.61,24.18s29.06-7.34,36.06-2.67,7.21,18.44,16.33,23C302,279,298.5,257,290,253Z" transform="translate(-32.28 -70.37)"/><path class="cls-8" d="M330.5,238.5c-25-9-72.5,0-72.5,0l3.49.87h0s63.18-4.7,75.18,6.63c0,0,4.22,22.2,13.1,28.95C344.19,266.86,348.55,245,330.5,238.5Z" transform="translate(-32.28 -70.37)"/><path class="cls-9" d="M251.77,220.75c1.73-2,3.77-4.4,6.06-7,20.33-22.76,61.39-62.54,97.44-59.08a42.68,42.68,0,0,1,7.23,1.3s19.85,3.5,25.18,8.5c0,0-12.18-41.5-79.18-16.5,0,0,19.5-59-8.5-77,0,0,2.82,4.9,2.4,17-.7,19.52-9.89,57.8-53.24,124.43q-2,3.09-4.12,6.27c-2.7-15.32-8.64-41.31-20.47-64.27-15.9-30.83-42.43-56.2-86.07-42.9,0,0-21.5,20-21.5,38.5,0,0,18.11-3,44.07,6.73,21.8,8.2,49.12,25.42,75.91,61q4,5.37,8.07,11.31c0,.2.74,3.33,1.91,7.27a1,1,0,0,0,0,.14c2,6.68,5.29,15.58,9,16.51,6,1.5,25.5-4,34,0s12,26,14,28,5.5-6,0-19.5c-5.32-13.05-9.7-13.95-42.51-22.13L258,238.5s47.5-9,72.5,0c18.05,6.5,13.69,28.36,19.27,36.45,2.15,3.12,5.78,4.19,12.73,1.55,0,0,17-7-6-14.5,0,0-.95-36-43.23-36.5-20.09-.24-38.31-2.17-49.65-1.82a29.79,29.79,0,0,0-8.87,1.26C253.91,222.9,252.92,221.29,251.77,220.75Z" transform="translate(-32.28 -70.37)"/></svg>