<svg id="Layer_2" data-name="Layer 2" xmlns="http://www.w3.org/2000/svg" viewBox="0 0 436.51 444.34"><defs><style>.cls-1{fill:#6b50ca;}.cls-2{fill:#8f57db;}.cls-3{fill:#ca89ff;}.cls-4{fill:#6b51cd;}.cls-5{fill:#e56a9d;}.cls-6{fill:#9764e8;}.cls-7{fill:#8c59de;}.cls-8{fill:#bf75f9;}.cls-9{fill:#dca2ff;}.cls-10{fill:#fecefd;}.cls-11{fill:none;}.cls-12{fill:#80253e;}.cls-13{fill:#a54261;}.cls-14{fill:#bd5c76;}</style></defs><path class="cls-1" d="M126,275.92c54-19.33,94-31.33,134.66-28s0-4.08,108.67,17.63a288.77,288.77,0,0,0,30.15-.56c16.77-43.68,37.34-83,44.89-97a1.88,1.88,0,0,0-2.2-.08c-12.91,8.42-32.65,10.26-48,10.18a106.28,106.28,0,0,1-33.26-5.5c-41.67-14-138.88-27.71-199.08,1-55.06,26.28-101.66,19.5-115.6,16.53a3.56,3.56,0,0,0-2.78.55l48.74,92.67A131.43,131.43,0,0,0,126,275.92Z" transform="translate(-22.03 -26.44)"/><path class="cls-2" d="M41.78,193.59l-3.14,83,.3.33a2.35,2.35,0,0,1,3-1.05c9,3.81,26.65,9.36,50.2,7.47L43.41,190.67A3.66,3.66,0,0,0,41.78,193.59Z" transform="translate(-22.03 -26.44)"/><path class="cls-2" d="M438.29,257.21a1.83,1.83,0,0,1,2.44.9.42.42,0,0,1,0,.1l4.32-88.62a1.86,1.86,0,0,0-.76-1.62c-7.55,14-28.12,53.32-44.89,97C412.74,264,427.7,261.87,438.29,257.21Z" transform="translate(-22.03 -26.44)"/><path class="cls-3" d="M440.75,258.25a1.83,1.83,0,0,0-2.38-1l-.1,0c-10.57,4.66-25.53,6.82-38.83,7.78a288.77,288.77,0,0,1-30.15.56c-108.67-21.71-68-14.29-108.67-17.63S180,256.63,126,276a131.43,131.43,0,0,1-33.81,7.42c-23.55,1.89-41.21-3.66-50.2-7.47a2.38,2.38,0,0,0-3,3.33c3.85,7.16,7.56,14.6,11.11,22.21q2.22,4.76,4.36,9.61c8.41-9.81,21.19-20.85,33.5-16.43,20.88,7.5,10.88,30,8.88,37-1.77,6.21-.4-3.33-36.42-6.6,4.52,11,8.73,22,12.59,32.84a41.76,41.76,0,0,1,4.32-.28c26.23,0,47.5,25,47.5,55.75,0,18.27-7.48,34.48-19,44.65a22.68,22.68,0,0,0,12.1,6.64c2.94.58,6.14,1.1,9.54,1.58,2.56-2.92,5.25-6.16,8.09-9.79a80.49,80.49,0,0,1,12.34,12c9.44.76,19.74,1.31,30.57,1.69C225.7,462.37,343.1,431.53,415.64,312c11-24,20.64-43.4,25.09-52.21A1.73,1.73,0,0,0,440.75,258.25ZM105,335.06s52.65-16.77,66.07,8-15.26,38-23.13,43S153,380.34,105,335.06ZM190.8,439.35c-8,21.74-41.78,16.95-51,15.74A10.82,10.82,0,0,0,138,455c-.32.06-.35,0,0,0,2.05-.38,16.29-5.65,10.29-56.88,0,0,60.83-8.5,42.51,41.26Z" transform="translate(-22.03 -26.44)"/><path class="cls-4" d="M124.79,413.34c0-30.75-21.27-55.75-47.5-55.75a39.27,39.27,0,0,0-4.33.24c13.45,37.65,22.8,72.34,27.29,90.18a22.5,22.5,0,0,0,5.49,10C117.29,447.82,124.79,431.59,124.79,413.34Z" transform="translate(-22.03 -26.44)"/><path class="cls-4" d="M96.79,331.59c2-7,12-29.5-8.88-37-12.31-4.42-25.09,6.62-33.5,16.43q3,6.93,6,14C96.39,328.26,95,337.8,96.79,331.59Z" transform="translate(-22.03 -26.44)"/><path class="cls-4" d="M147.91,386.1c7.87-5,36.55-18.2,23.13-43s-66.07-8-66.07-8C153,380.34,140,391.13,147.91,386.1Z" transform="translate(-22.03 -26.44)"/><path class="cls-4" d="M138,455C137.61,455,137.64,455,138,455Z" transform="translate(-22.03 -26.44)"/><path class="cls-4" d="M148.29,398.09c6,51.23-8.24,56.47-10.33,56.88a10.82,10.82,0,0,1,1.8.12c9.26,1.21,43,6,51-15.74C209.12,389.59,148.29,398.09,148.29,398.09Z" transform="translate(-22.03 -26.44)"/><path class="cls-4" d="M88.11,489.59C87.85,489.35,87.84,489.41,88.11,489.59Z" transform="translate(-22.03 -26.44)"/><path class="cls-4" d="M135.47,456.42c-2.84,3.63-5.53,6.87-8.09,9.79,6.16.87,13,1.59,20.43,2.18A80.3,80.3,0,0,0,135.47,456.42Z" transform="translate(-22.03 -26.44)"/><path class="cls-4" d="M178.38,470.08c64.51,2.26,147.61-1.48,176.12-2.94A11.26,11.26,0,0,0,365.11,457c3.17-30.65,21.15-78.2,39.07-119.52,3.85-8.9,7.71-17.5,11.41-25.59C343.05,431.5,225.65,462.34,178.38,470.08Z" transform="translate(-22.03 -26.44)"/><polygon class="cls-5" points="4.24 236.4 4.24 236.4 4.24 236.4 4.24 236.4"/><path class="cls-6" d="M443.75,253.4c-33.34,9-84,11.34-144-10C256,227.84,187,248.33,152.88,260.54a220.06,220.06,0,0,1-49.8,11.58c-27.64,3.09-65.74,6.29-72,1.28a7.67,7.67,0,0,1-1.69-2c5.81,12.46,21.09,33.3,56.85,26.15,47.64-9.53,160.4-56.21,258-29.12,76.82,21.33,101.31-2.29,108.11-23.33C450.25,249.39,447.45,252.41,443.75,253.4Z" transform="translate(-22.03 -26.44)"/><path class="cls-7" d="M31.09,273.4c6.25,5,44.35,1.81,72-1.28a220.06,220.06,0,0,0,49.8-11.58C187,248.33,256,227.84,299.75,243.4c60,21.34,110.66,19,144,10,3.7-1,6.5-4,8.61-8.28,9.21-18.55,5.43-60.59,5.39-61-.65,24.18-4.48,51.32-18,56.66-25.33,10-72.66,16.66-114.66,0a112.26,112.26,0,0,0-26.42-6.42c-19.1-2.54-42.26-2.2-67.05.9-7.35.92-14.84,2.08-22.42,3.48a412.13,412.13,0,0,0-68.45,18.87,140.45,140.45,0,0,1-17.57,5.21,192.84,192.84,0,0,1-24.5,3.92c-27.37,2.66-66.58,4.06-69.59-9.3-2.53-11.19-4.47-32.17-5.72-49,0,0-1.42,35.59,2.91,54.49h0a28.63,28.63,0,0,0,3.12,8.58A7.67,7.67,0,0,0,31.09,273.4Z" transform="translate(-22.03 -26.44)"/><path class="cls-8" d="M29.09,257.4c3,13.36,42.22,12,69.59,9.3a192.84,192.84,0,0,0,24.5-3.92,240.48,240.48,0,0,0-21.93-22.21c-21.36-25.82-17.5-46.48-6.65-61.46-36.52,4.75-58.42,4.52-67.67,4A4.65,4.65,0,0,0,22,188.06c.27,4.66.72,12,1.33,20.29C24.62,225.23,26.56,246.21,29.09,257.4Z" transform="translate(-22.03 -26.44)"/><path class="cls-8" d="M284.75,203.57c7.72,11.44,12.1,21.68,13.92,30.75a112.26,112.26,0,0,1,26.42,6.42c42,16.66,89.33,10,114.66,0,13.52-5.34,17.35-32.48,18-56.66.32-12.38-.19-24-.67-31.47a4.64,4.64,0,0,0-6.71-3.86c-5.58,2.78-13.72,4.73-22.27,6.1a183,183,0,0,1-54,.36c-35.93-5-95.55-3.24-131.47-1.53C255.49,165.24,269.73,181.29,284.75,203.57Z" transform="translate(-22.03 -26.44)"/><path class="cls-9" d="M101.25,240.57a240.48,240.48,0,0,1,21.93,22.21,140.45,140.45,0,0,0,17.57-5.21A412.13,412.13,0,0,1,209.2,238.7c-19.32-22.43-63.95-32.63-63.95-32.63-13.84-9.39-14.91-21.44-10.14-33.38-15.11,2.78-28.59,4.86-40.51,6.42C83.75,194.09,79.89,214.75,101.25,240.57Z" transform="translate(-22.03 -26.44)"/><path class="cls-10" d="M231.62,235.22c24.79-3.1,47.95-3.44,67.05-.9-1.82-9.07-6.2-19.31-13.92-30.75-15-22.28-29.26-38.33-42.16-49.89-5,.24-9.47.48-13.4.69A169.59,169.59,0,0,0,198.06,159c-3.56.88-7.05,1.72-10.5,2.54C203.82,175.25,215.71,199.92,231.62,235.22Z" transform="translate(-22.03 -26.44)"/><path class="cls-10" d="M145.25,206.07s44.63,10.2,63.95,32.63c7.58-1.4,15.07-2.56,22.42-3.48-15.91-35.3-27.8-60-44.06-73.65-19.29,4.58-36.75,8.23-52.45,11.12C130.34,184.63,131.41,196.68,145.25,206.07Z" transform="translate(-22.03 -26.44)"/><path class="cls-11" d="M226.42,174.09l.31-.25c-26.78-35.62-54.11-52.84-75.9-61C161.5,142.45,219,170.56,226.42,174.09Z" transform="translate(-22.03 -26.44)"/><path class="cls-11" d="M237.45,168.74c.49-.11,1-.2,1.46-.27C282.26,101.84,291.46,63.56,292.15,44h0C231.81,28.79,234.74,133.06,237.45,168.74Z" transform="translate(-22.03 -26.44)"/><path class="cls-11" d="M247.59,169.85a10.11,10.11,0,0,1,3,5.08c30.74-6.21,128.53-29.19,94.41-64.16C309,107.31,267.91,147.09,247.59,169.85Z" transform="translate(-22.03 -26.44)"/><path class="cls-12" d="M226.73,173.84l-.31.25c-7.44-3.53-64.92-31.64-75.59-61.29-26-9.76-44.08-6.73-44.08-6.73s-21.38,53.27,116.67,76.5c-.73,1.37-5.16,10.75,11.6,10,.59,0,1.14-.09,1.69-.14-1.17-3.94-1.87-7.07-1.91-7.26Q230.78,179.21,226.73,173.84Z" transform="translate(-22.03 -26.44)"/><path class="cls-12" d="M238.91,168.47c-.48.07-1,.16-1.46.27-2.71-35.68-5.64-140,54.7-124.7h0c.43-12.07-2.4-17-2.4-17S185.4,13.68,214.32,110.46h0c11.84,23,17.78,48.95,20.47,64.27Q236.9,171.56,238.91,168.47Z" transform="translate(-22.03 -26.44)"/><path class="cls-12" d="M377.43,120.57c-5.32-5-25.18-8.5-25.18-8.5a42.5,42.5,0,0,0-7.23-1.3c34.12,35-63.67,58-94.41,64.16a10.11,10.11,0,0,0-3-5.08c-2.3,2.57-4.33,4.93-6.06,7,1.15.54,2.14,2.15,3,4.19a29.86,29.86,0,0,1,8.88-1.26C406,164.15,377.43,120.57,377.43,120.57Z" transform="translate(-22.03 -26.44)"/><path class="cls-13" d="M279.75,209.07c-8.5-4-28,1.5-34,0-3.7-.93-7-9.83-9-16.51,0,.06-6.09,21.85,4.62,24.18s29.05-7.34,36.05-2.67,7.21,18.44,16.33,23C291.75,235.07,288.25,213.07,279.75,209.07Z" transform="translate(-22.03 -26.44)"/><path class="cls-13" d="M320.25,194.57c-25-9-72.5,0-72.5,0l3.49.87h0s63.18-4.7,75.18,6.63c0,0,4.22,22.2,13.1,29C333.94,222.93,338.3,201.07,320.25,194.57Z" transform="translate(-22.03 -26.44)"/><path class="cls-14" d="M241.53,176.82c1.73-2,3.76-4.4,6.06-7C267.91,147.09,309,107.31,345,110.77a42.5,42.5,0,0,1,7.23,1.3s19.86,3.5,25.18,8.5c0,0-12.18-41.5-79.18-16.5,0,0,19.5-59-8.5-77,0,0,2.83,4.9,2.4,17-.69,19.52-9.89,57.8-53.24,124.43q-2,3.09-4.12,6.27c-2.69-15.32-8.63-41.31-20.47-64.27-15.89-30.83-42.43-56.2-86.07-42.9,0,0-21.5,20-21.5,38.5,0,0,18.12-3,44.08,6.73,21.79,8.2,49.12,25.42,75.9,61q4.05,5.37,8.07,11.32c0,.19.74,3.32,1.91,7.26,0,0,0,.09,0,.14,2,6.68,5.3,15.58,9,16.51,6,1.5,25.5-4,34,0s12,26,14,28,5.5-6,0-19.5c-5.31-13-9.7-13.95-42.51-22.13l-3.49-.87s47.5-9,72.5,0c18.05,6.5,13.69,28.36,19.27,36.45,2.15,3.12,5.78,4.19,12.73,1.55,0,0,17-7-6-14.5,0,0-.95-36-43.22-36.5-20.1-.24-38.32-2.17-49.65-1.82A29.86,29.86,0,0,0,244.5,181C243.67,179,242.68,177.36,241.53,176.82Z" transform="translate(-22.03 -26.44)"/></svg>