<svg id="Layer_2" data-name="Layer 2" xmlns="http://www.w3.org/2000/svg" viewBox="0 0 422.03 323.4"><defs><style>.cls-1{fill:#6b50ca;}.cls-2{fill:#8f57db;}.cls-3{fill:#ad8cdd;}.cls-4{fill:#d7aeff;}.cls-5{fill:#ca89ff;}.cls-6{fill:#6b51cd;}</style></defs><path class="cls-1" d="M130.92,245.05c55.29-19.79,96.25-32.08,137.89-28.67s0-4.18,111.28,18.05a294.57,294.57,0,0,0,30.88-.57c17.17-44.73,38.24-85,46-99.33a2,2,0,0,0-2.26-.09c-13.22,8.63-33.43,10.51-49.15,10.43a109,109,0,0,1-34.06-5.63c-42.67-14.34-142.22-28.38-203.86,1-56.39,26.91-104.11,20-118.38,16.93a3.68,3.68,0,0,0-2.85.56l49.91,94.9A134.35,134.35,0,0,0,130.92,245.05Z" transform="translate(-36.79 -121.2)"/><path class="cls-2" d="M44.71,160.74l-3.21,85,.3.33A2.42,2.42,0,0,1,44.88,245c9.21,3.9,27.29,9.58,51.4,7.65l-49.9-94.9A3.76,3.76,0,0,0,44.71,160.74Z" transform="translate(-36.79 -121.2)"/><path class="cls-2" d="M450.75,225.89a1.88,1.88,0,0,1,2.5.93.36.36,0,0,1,0,.09l4.43-90.75a1.94,1.94,0,0,0-.78-1.65c-7.73,14.33-28.8,54.6-46,99.33C424.59,232.87,439.91,230.66,450.75,225.89Z" transform="translate(-36.79 -121.2)"/><path class="cls-3" d="M453.43,129.5S432.72,149.05,326.09,126a206.44,206.44,0,0,0-36.82-4.6c-33.49-1.11-96.91,1.06-149.94,27.58,0,0-40.82,19.26-97.28,4.75A1.5,1.5,0,0,0,40.17,155c-1.27,10.93-7.75,71.23,1.54,91.35L44.89,245s-.85-39.82.44-86.82c0,0,22.08,18.11,87,.45,60.1-16.35,36.93-24.7,137.35-28.37A220.2,220.2,0,0,1,318.81,134c37.69,7.14,112.36,18.66,134.36,2.66C453.17,136.7,458.2,136.67,453.43,129.5Z" transform="translate(-36.79 -121.2)"/><path class="cls-4" d="M41.71,246.37s-3-7.2,0-7.7c0,0,40.79,27.83,134.79-13.17,0,0,83.5-32,203.5,4.5,0,0,37.49,3.08,70.06-7.92l3.37-92.58h2.39a3,3,0,0,1,3,3.17l-5.56,94.15s-6.25,21.7-48.75,22.44S107.41,314.73,41.71,246.37Z" transform="translate(-36.79 -121.2)"/><path class="cls-5" d="M453.27,227a1.88,1.88,0,0,0-2.44-1.07l-.1,0c-10.82,4.77-26.14,7-39.76,8a294.57,294.57,0,0,1-30.88.57c-111.28-22.23-69.63-14.63-111.28-18.05s-82.6,8.88-137.89,28.67a134.35,134.35,0,0,1-34.63,7.6c-24.11,1.93-42.2-3.75-51.4-7.65a2.44,2.44,0,0,0-3.08,3.41c3.95,7.33,7.75,14.95,11.38,22.74q2.28,4.88,4.47,9.84c8.61-10,21.7-21.35,34.3-16.82,21.38,7.68,11.14,30.72,9.09,37.89-1.81,6.36-.4-3.41-37.29-6.76C68.39,306.6,72.7,317.87,76.65,329a43.73,43.73,0,0,1,4.43-.29c26.86,0,48.64,25.6,48.64,57.09,0,18.71-7.66,35.31-19.46,45.73a23.23,23.23,0,0,0,12.39,6.8c3,.59,6.29,1.12,9.77,1.61,2.62-3,5.38-6.3,8.29-10a82.47,82.47,0,0,1,12.63,12.29c9.67.77,20.22,1.34,31.31,1.73,48.4-7.93,168.62-39.51,242.91-162,11.26-24.58,21.13-44.45,25.69-53.47A1.8,1.8,0,0,0,453.27,227ZM109.42,305.61s53.92-17.17,67.66,8.19-15.63,38.92-23.69,44S158.64,352,109.42,305.61Zm87.89,106.8c-8.19,22.26-42.78,17.36-52.22,16.12a12.69,12.69,0,0,0-1.85-.13c-.32.06-.35,0,0,0,2.1-.39,16.69-5.78,10.54-58.24,0,0,62.29-8.71,43.53,42.25Z" transform="translate(-36.79 -121.2)"/><path class="cls-6" d="M129.72,385.77c0-31.49-21.78-57.09-48.64-57.09a43.72,43.72,0,0,0-4.44.25c13.78,38.55,23.35,74.08,28,92.35a23.06,23.06,0,0,0,5.62,10.24C122,421.08,129.72,404.46,129.72,385.77Z" transform="translate(-36.79 -121.2)"/><path class="cls-6" d="M101,302.06c2-7.17,12.29-30.21-9.09-37.89C79.35,259.64,66.26,271,57.65,281q3.06,7.1,6.14,14.34C100.63,298.65,99.23,308.42,101,302.06Z" transform="translate(-36.79 -121.2)"/><path class="cls-6" d="M153.39,357.88c8.06-5.12,37.43-18.64,23.69-44s-67.66-8.19-67.66-8.19C158.64,352,145.33,363,153.39,357.88Z" transform="translate(-36.79 -121.2)"/><path class="cls-6" d="M143.2,428.4C142.85,428.4,142.88,428.46,143.2,428.4Z" transform="translate(-36.79 -121.2)"/><path class="cls-6" d="M153.78,370.16c6.15,52.46-8.44,57.82-10.58,58.24a12.69,12.69,0,0,1,1.85.13c9.48,1.24,44,6.14,52.22-16.12C216.07,361.45,153.78,370.16,153.78,370.16Z" transform="translate(-36.79 -121.2)"/><path class="cls-6" d="M92.16,463.86C91.89,463.61,91.88,463.67,92.16,463.86Z" transform="translate(-36.79 -121.2)"/><path class="cls-6" d="M140.65,429.89c-2.9,3.72-5.66,7-8.28,10,6.31.89,13.31,1.63,20.92,2.24A81.89,81.89,0,0,0,140.65,429.89Z" transform="translate(-36.79 -121.2)"/><path class="cls-6" d="M184.6,443.88c66.06,2.31,151.15-1.52,180.35-3a11.53,11.53,0,0,0,10.86-10.36c3.25-31.38,21.66-80.08,40-122.39,3.94-9.11,7.9-17.92,11.69-26.21C353.22,404.37,233,436,184.6,443.88Z" transform="translate(-36.79 -121.2)"/></svg>