<?xml version="1.0" encoding="UTF-8" standalone="no"?>
<!-- Created with Inkscape (http://www.inkscape.org/) -->

<svg
   xmlns:dc="http://purl.org/dc/elements/1.1/"
   xmlns:cc="http://creativecommons.org/ns#"
   xmlns:rdf="http://www.w3.org/1999/02/22-rdf-syntax-ns#"
   xmlns:svg="http://www.w3.org/2000/svg"
   xmlns="http://www.w3.org/2000/svg"
   xmlns:sodipodi="http://sodipodi.sourceforge.net/DTD/sodipodi-0.dtd"
   xmlns:inkscape="http://www.inkscape.org/namespaces/inkscape"
   width="20.452168mm"
   height="14.703393mm"
   viewBox="0 0 20.452167 14.703393"
   version="1.1"
   id="svg1956"
   sodipodi:docname="B.svg"
   inkscape:version="0.92.4 (5da689c313, 2019-01-14)">
  <defs
     id="defs1950" />
  <sodipodi:namedview
     id="base"
     pagecolor="#ffffff"
     bordercolor="#666666"
     borderopacity="1.0"
     inkscape:pageopacity="0.0"
     inkscape:pageshadow="2"
     inkscape:zoom="2.8"
     inkscape:cx="78.808593"
     inkscape:cy="87.916904"
     inkscape:document-units="mm"
     inkscape:current-layer="layer1"
     showgrid="false"
     inkscape:window-width="1920"
     inkscape:window-height="1007"
     inkscape:window-x="0"
     inkscape:window-y="0"
     inkscape:window-maximized="1" />
  <metadata
     id="metadata1953">
    <rdf:RDF>
      <cc:Work
         rdf:about="">
        <dc:format>image/svg+xml</dc:format>
        <dc:type
           rdf:resource="http://purl.org/dc/dcmitype/StillImage" />
        <dc:title></dc:title>
      </cc:Work>
    </rdf:RDF>
  </metadata>
  <g
     inkscape:label="Layer 1"
     inkscape:groupmode="layer"
     id="layer1"
     transform="translate(-104.12264,-150.7407)">
    <path
       style="display:inline;fill:#c80d0d;fill-opacity:1;stroke-width:0.14681424;image-rendering:auto"
       d="m 105.62818,163.91138 c -0.23381,-0.0741 -0.61517,-0.31683 -0.84745,-0.53936 -1.19563,-1.14549 -0.71516,-3.38059 1.06062,-4.93399 l 0.74431,-0.6511 -0.78958,-1.10053 c -1.77617,-2.47561 -1.68623,-4.74374 0.22752,-5.73688 0.51182,-0.26561 0.602,-0.26897 1.62465,-0.0604 0.59551,0.12144 1.46165,0.40005 1.92475,0.61913 1.03311,0.48874 2.60667,1.78782 3.62689,2.99422 0.70054,0.82837 0.8007,0.89531 1.21294,0.81065 0.29165,-0.0598 0.75854,-0.41859 1.33023,-1.02189 1.72701,-1.82252 3.32629,-2.79684 5.31815,-3.23999 1.29387,-0.28784 1.63586,-0.21824 2.30313,0.46883 1.16853,1.20321 0.94193,3.25151 -0.5932,5.36203 -0.27218,0.37419 -0.49486,0.75696 -0.49486,0.8506 1e-5,0.0936 0.36546,0.52703 0.81211,0.96312 0.92197,0.90013 1.34264,1.72396 1.46872,2.87627 0.17133,1.56594 -0.91547,2.56792 -2.64786,2.44124 -1.69171,-0.1237 -4.25323,-1.47372 -6.16619,-3.24982 -1.26582,-1.17525 -1.56135,-1.15052 -3.2187,0.26938 -1.31108,1.12325 -2.69929,2.01234 -3.97605,2.54646 -0.85877,0.35929 -2.31264,0.52461 -2.92013,0.33206 z"
       id="path1894"
       inkscape:connector-curvature="0" />
    <path
       id="path838"
       style="display:inline;fill:#a60404;stroke-width:0.14681424;image-rendering:auto"
       d="m 118.12627,152.53009 c 1.30955,-0.8464 3.51453,-1.60564 3.51453,-1.21014 0,0.25704 -1.47345,1.48835 -2.4839,2.07572 -1.23096,0.71553 -3.94856,1.89389 -4.14441,1.89389 0.90285,-1.01745 1.96251,-1.99603 3.11378,-2.75947 z m -7.16302,1.61331 c -1.84233,-0.93274 -3.89304,-2.33831 -4.19262,-2.87364 -0.0922,-0.16467 -0.0255,-0.21268 0.29156,-0.2099 1.51925,0.0133 3.24567,0.85395 4.90208,2.48459 1.1008,1.08368 1.4058,1.36993 1.57543,1.73368 -0.079,0 -1.4644,-0.57172 -2.57645,-1.13473 z m -1.19322,11.10597 c -0.0889,-0.10709 -0.32736,-0.56955 -0.52997,-1.02771 -0.43443,-0.98231 -0.63907,-1.0331 -1.53825,-0.38174 -0.34261,0.24819 -0.65337,0.42083 -0.69056,0.38363 -0.38277,-0.38277 0.4845,-2.10343 1.64107,-3.2559 0.75916,-0.75646 1.87524,-1.50636 3.8704,-2.60055 0.40617,-0.22275 0.45603,-0.32277 0.45604,-0.91462 -10e-6,-0.73603 0.56775,-2.15912 0.8287,-2.18129 0.45092,-0.0383 1.10996,-0.0729 1.20503,0.0184 0.0589,0.0566 0.25318,1.02514 0.36364,1.60933 0.11048,0.58417 0.22737,1.08621 0.25977,1.11564 0.0324,0.0294 0.42229,0.23515 0.8664,0.45718 1.34635,0.67308 2.78597,1.66387 3.53506,2.43293 0.83435,0.8566 1.8881,2.84534 1.6394,3.09404 -0.11566,0.11567 -0.28032,0.0746 -0.59273,-0.14786 -0.23792,-0.16942 -0.60558,-0.3738 -0.81702,-0.4542 -0.46211,-0.17569 -0.54944,-0.0961 -1.10953,1.01161 -0.2223,0.43964 -0.4647,0.81915 -0.53869,0.84334 -0.074,0.0242 -0.3374,-0.40157 -0.5854,-0.94616 -0.55984,-1.22936 -1.94635,-3.46729 -2.55737,-4.1278 -0.28362,-0.30659 -0.40444,-0.42195 -0.65082,-0.43916 -0.13564,-0.01 -0.24267,0.18848 -0.50251,0.22295 -0.16087,0.0214 -0.32909,-0.23119 -0.48401,-0.18696 -0.24873,0.071 -0.52986,0.2737 -0.62478,0.35744 -0.42825,0.37779 -1.75221,2.48047 -2.50254,3.97449 -0.36951,0.73573 -0.69612,1.33769 -0.72579,1.33769 -0.0297,0 -0.12667,-0.0876 -0.21554,-0.19469 z"
       inkscape:connector-curvature="0"
       sodipodi:nodetypes="csscccccscccccsccccccccccccccccsssccsc" />
  </g>
</svg>
