<?xml version="1.0" encoding="UTF-8" standalone="no"?>
<!-- Created with Inkscape (http://www.inkscape.org/) -->

<svg
   xmlns:dc="http://purl.org/dc/elements/1.1/"
   xmlns:cc="http://creativecommons.org/ns#"
   xmlns:rdf="http://www.w3.org/1999/02/22-rdf-syntax-ns#"
   xmlns:svg="http://www.w3.org/2000/svg"
   xmlns="http://www.w3.org/2000/svg"
   xmlns:sodipodi="http://sodipodi.sourceforge.net/DTD/sodipodi-0.dtd"
   xmlns:inkscape="http://www.inkscape.org/namespaces/inkscape"
   width="21.541517mm"
   height="21.2756mm"
   viewBox="0 0 21.541517 21.2756"
   version="1.1"
   id="svg1956"
   sodipodi:docname="BL.svg"
   inkscape:version="0.92.4 (5da689c313, 2019-01-14)">
  <defs
     id="defs1950" />
  <sodipodi:namedview
     id="base"
     pagecolor="#ffffff"
     bordercolor="#666666"
     borderopacity="1.0"
     inkscape:pageopacity="0.0"
     inkscape:pageshadow="2"
     inkscape:zoom="2.8"
     inkscape:cx="29.522878"
     inkscape:cy="106.62478"
     inkscape:document-units="mm"
     inkscape:current-layer="layer1"
     showgrid="false"
     inkscape:window-width="1920"
     inkscape:window-height="1007"
     inkscape:window-x="0"
     inkscape:window-y="0"
     inkscape:window-maximized="1" />
  <metadata
     id="metadata1953">
    <rdf:RDF>
      <cc:Work
         rdf:about="">
        <dc:format>image/svg+xml</dc:format>
        <dc:type
           rdf:resource="http://purl.org/dc/dcmitype/StillImage" />
        <dc:title></dc:title>
      </cc:Work>
    </rdf:RDF>
  </metadata>
  <g
     inkscape:label="Layer 1"
     inkscape:groupmode="layer"
     id="layer1"
     transform="translate(-129.12192,-145.24403)">
    <path
       sodipodi:nodetypes="ccccsccccccc"
       inkscape:connector-curvature="0"
       id="path1896"
       d="m 141.53691,153.67947 c -0.41166,-3.62121 0.25007,-8.64783 4.80439,-8.4285 2.23041,1.06029 2.18756,5.19336 1.0531,7.51089 1.40128,-0.57494 2.24813,-0.64884 3.03044,0.40171 0.78863,1.90252 -0.56478,3.41172 -1.34775,3.93597 -1.98208,1.32712 -5.17282,0.49562 -7.21706,-0.31437 -0.86611,3.08125 -3.71124,7.00909 -7.20395,7.56058 -1.55023,-0.33496 -2.54041,-2.19442 -2.36552,-3.6277 0.39914,-0.67627 0.37212,-0.79924 1.37266,-1.25658 -3.08746,0.13281 -6.27799,-3.61402 -3.44032,-6.85818 3.03991,-1.17782 7.84554,2.06407 9.35635,2.59065 0.27883,0.047 1.32676,-0.3932 1.95766,-1.51447 z"
       style="display:inline;fill:#c80d0d;fill-opacity:1;stroke:none;stroke-width:0.15714392px;stroke-linecap:butt;stroke-linejoin:miter;stroke-opacity:1" />
    <path
       style="display:inline;fill:#a60404;fill-opacity:1;stroke:none;stroke-width:0.14681424px;stroke-linecap:butt;stroke-linejoin:miter;stroke-opacity:1"
       d="m 139.57925,155.19394 c 0.094,-0.0496 -3.43322,-2.6596 -5.61101,-2.81935 -2.10746,-0.15461 -2.72714,0.009 -3.74534,0.2287 0.88445,0.40745 3.94853,1.17685 4.69318,1.35613 0.92381,0.3585 3.9278,1.70925 4.66317,1.23452 z"
       id="path1898"
       inkscape:connector-curvature="0"
       sodipodi:nodetypes="csccc" />
    <path
       style="display:inline;fill:#a60404;fill-opacity:1;stroke:none;stroke-width:0.14681424px;stroke-linecap:butt;stroke-linejoin:miter;stroke-opacity:1"
       d="m 139.57925,155.19394 c 0.27337,-0.58813 1.24612,-0.89131 1.34683,-0.78145 -0.31763,-1.37305 -0.76011,-3.75233 0.19675,-5.75645 0.93855,-1.96576 3.48719,-3.80512 4.6028,-3.06331 1.13818,0.75682 0.26786,1.68805 -0.87998,3.39764 -0.97124,1.44657 -3.24123,4.53017 -3.54641,5.59747 0.40936,0.63696 0.2354,1.02784 0.17699,1.32684 -0.93428,0.21254 -1.56377,-0.38755 -1.89698,-0.72074 z"
       id="path1906"
       inkscape:connector-curvature="0"
       sodipodi:nodetypes="ccssscccc" />
    <path
       style="display:inline;fill:#a60404;fill-opacity:1;stroke:none;stroke-width:0.14681424px;stroke-linecap:butt;stroke-linejoin:miter;stroke-opacity:1"
       d="m 140.61958,156.2686 c 0.30167,-0.2079 0.43589,-0.41252 1.03447,-0.29383 0.62749,0.12442 0.74036,0.64811 0.64576,0.63764 1.19543,-0.65103 1.79326,-0.12936 2.15832,-0.17212 0.0459,0.0363 -1.77837,0.0504 -1.71726,0.44626 0.93517,0.25531 1.97133,0.88583 2.70389,1.22913 2.75828,1.29254 3.63599,4.42396 3.60894,4.40773 0,0 -3.2289,-1.78061 -3.18447,-1.00318 0.0444,0.77744 -0.19187,2.55415 -0.32557,2.79005 -0.11406,0.20122 -1.00711,-3.72374 -2.75008,-4.87915 0.52913,1.54746 0.79954,3.35824 1.05844,4.74033 0.17312,0.92411 -0.0716,1.45004 -0.28035,1.94749 -0.2507,-0.77194 -0.92322,-1.67894 -1.59661,-2.22197 -0.0283,1.22543 -1.10815,2.56517 -1.83378,2.62265 0.47247,-1.38951 0.25121,-6.94679 -0.1428,-8.68244 -0.18983,0.0139 -1.0511,0.46509 -1.92325,1.22759 0.5731,-0.88411 1.06254,-1.60469 1.86896,-1.75954 z"
       id="path1908"
       inkscape:connector-curvature="0"
       sodipodi:nodetypes="cscccscsscsccccccc" />
  </g>
</svg>
