<?xml version="1.0" encoding="UTF-8" standalone="no"?>
<!-- Created with Inkscape (http://www.inkscape.org/) -->

<svg
   xmlns:dc="http://purl.org/dc/elements/1.1/"
   xmlns:cc="http://creativecommons.org/ns#"
   xmlns:rdf="http://www.w3.org/1999/02/22-rdf-syntax-ns#"
   xmlns:svg="http://www.w3.org/2000/svg"
   xmlns="http://www.w3.org/2000/svg"
   xmlns:sodipodi="http://sodipodi.sourceforge.net/DTD/sodipodi-0.dtd"
   xmlns:inkscape="http://www.inkscape.org/namespaces/inkscape"
   width="20.452171mm"
   height="13.283415mm"
   viewBox="0 0 20.452171 13.283415"
   version="1.1"
   id="svg1956"
   sodipodi:docname="F.svg"
   inkscape:version="0.92.4 (5da689c313, 2019-01-14)">
  <defs
     id="defs1950" />
  <sodipodi:namedview
     id="base"
     pagecolor="#ffffff"
     bordercolor="#666666"
     borderopacity="1.0"
     inkscape:pageopacity="0.0"
     inkscape:pageshadow="2"
     inkscape:zoom="2.8"
     inkscape:cx="136.24327"
     inkscape:cy="-13.439605"
     inkscape:document-units="mm"
     inkscape:current-layer="layer1"
     showgrid="false"
     inkscape:window-width="1920"
     inkscape:window-height="1007"
     inkscape:window-x="0"
     inkscape:window-y="0"
     inkscape:window-maximized="1" />
  <metadata
     id="metadata1953">
    <rdf:RDF>
      <cc:Work
         rdf:about="">
        <dc:format>image/svg+xml</dc:format>
        <dc:type
           rdf:resource="http://purl.org/dc/dcmitype/StillImage" />
        <dc:title></dc:title>
      </cc:Work>
    </rdf:RDF>
  </metadata>
  <g
     inkscape:label="Layer 1"
     inkscape:groupmode="layer"
     id="layer1"
     transform="translate(-105.12786,-124.28329)">
    <path
       inkscape:connector-curvature="0"
       id="path806"
       d="m 106.63341,137.45399 c -0.23382,-0.0741 -0.61518,-0.31683 -0.84746,-0.53937 -1.19562,-1.14549 -0.71516,-3.38059 1.06062,-4.934 l 0.74431,-0.6511 -0.78958,-1.10052 c -1.77617,-2.47561 -1.68622,-4.74375 0.22752,-5.73689 0.51182,-0.26561 0.60201,-0.26896 1.62465,-0.0604 0.59551,0.12144 1.46165,0.40005 1.92476,0.61913 1.0331,0.48874 2.60667,1.78781 3.62689,2.99422 0.70054,0.82837 0.8007,0.89531 1.21293,0.81065 0.29165,-0.0598 0.75855,-0.4186 1.33023,-1.02189 1.72702,-1.82251 3.3263,-2.79684 5.31815,-3.23999 1.29387,-0.28784 1.63586,-0.21823 2.30314,0.46884 1.16854,1.2032 0.94192,3.2515 -0.59321,5.36202 -0.27217,0.37419 -0.49484,0.75695 -0.49485,0.8506 1e-5,0.0936 0.36545,0.52704 0.81212,0.96312 0.92196,0.90013 1.34263,1.72396 1.46871,2.87627 0.17132,1.56594 -0.91548,2.56794 -2.64786,2.44126 -1.69172,-0.12372 -4.25324,-1.47374 -6.1662,-3.24984 -1.26581,-1.17526 -1.56134,-1.15052 -3.21869,0.26938 -1.31109,1.12325 -2.6993,2.01234 -3.97605,2.54648 -0.85878,0.35928 -2.31264,0.52459 -2.92013,0.33204 z"
       style="display:inline;fill:#c80d0d;fill-opacity:1;stroke-width:0.14681424;image-rendering:auto" />
    <path
       id="path822"
       style="display:inline;fill:#a60404;fill-opacity:1;stroke-width:0.14681424;image-rendering:auto"
       d="m 112.25546,127.82228 c -0.92036,-0.45153 -2.10281,-1.10721 -2.62768,-1.45706 -1.03938,-0.69283 -2.01841,-1.62508 -1.86633,-1.77716 0.17533,-0.17533 1.92844,0.26118 2.81551,0.70103 0.99444,0.4931 1.81563,1.13229 2.95831,2.30266 0.64048,0.65601 1.48099,1.52456 1.3368,1.4225 -0.15158,-0.10728 -1.42398,-0.61269 -2.61661,-1.19198 z m 3.77039,1.03617 c 0.0611,-0.20232 0.30288,-0.51932 0.75748,-0.94576 0.9045,-0.84848 2.40961,-1.97637 3.32473,-2.4241 0.96924,-0.4742 2.31741,-0.84322 2.48142,-0.6792 0.3133,0.31329 -2.68465,2.39062 -4.73379,3.34827 -1.2191,0.56974 -1.40673,0.56255 -1.82984,0.70079 z m -1.87273,3.1505 c -0.0756,-0.40417 -0.20479,-0.72523 -0.20076,-0.99334 -0.27329,-0.22289 -2.72534,0.11912 -2.88572,0.0965 -0.25165,-0.0986 1.03204,-0.37249 1.24949,-0.45592 0.13441,-0.0516 0.57406,-0.13752 0.977,-0.19097 0.65445,-0.0868 0.76035,-0.15315 0.99278,-0.62202 0.22648,-0.45686 0.4119,-0.92569 1.11479,-1.08633 0.44411,-0.10149 0.79988,0.18962 0.84817,0.18621 0.0825,-0.006 0.44869,0.78097 0.62921,1.35181 0.0477,0.15101 0.22689,0.20195 0.43453,0.25693 0.56751,0 2.22922,0.35356 2.2761,0.48475 0.0127,0.0353 -2.00068,-0.2341 -2.4297,-0.005 -0.0464,0.40542 -0.0732,0.52708 -0.22188,1.08759 -0.16476,0.85036 -0.9674,1.33854 -1.50619,1.37378 -0.65259,-0.17037 -0.97143,-0.87417 -1.27782,-1.48395 z"
       inkscape:connector-curvature="0"
       sodipodi:nodetypes="cccsssccccscscccccccccccsccccc" />
  </g>
</svg>
