<?xml version="1.0" encoding="UTF-8" standalone="no"?>
<!-- Created with Inkscape (http://www.inkscape.org/) -->

<svg
   xmlns:dc="http://purl.org/dc/elements/1.1/"
   xmlns:cc="http://creativecommons.org/ns#"
   xmlns:rdf="http://www.w3.org/1999/02/22-rdf-syntax-ns#"
   xmlns:svg="http://www.w3.org/2000/svg"
   xmlns="http://www.w3.org/2000/svg"
   xmlns:sodipodi="http://sodipodi.sourceforge.net/DTD/sodipodi-0.dtd"
   xmlns:inkscape="http://www.inkscape.org/namespaces/inkscape"
   width="19.038431mm"
   height="19.15983mm"
   viewBox="0 0 19.038431 19.15983"
   version="1.1"
   id="svg1956"
   sodipodi:docname="FL.svg"
   inkscape:version="0.92.4 (5da689c313, 2019-01-14)">
  <defs
     id="defs1950" />
  <sodipodi:namedview
     id="base"
     pagecolor="#ffffff"
     bordercolor="#666666"
     borderopacity="1.0"
     inkscape:pageopacity="0.0"
     inkscape:pageshadow="2"
     inkscape:zoom="1.979899"
     inkscape:cx="61.488783"
     inkscape:cy="32.57516"
     inkscape:document-units="mm"
     inkscape:current-layer="layer1"
     showgrid="false"
     inkscape:window-width="1920"
     inkscape:window-height="1007"
     inkscape:window-x="0"
     inkscape:window-y="0"
     inkscape:window-maximized="1" />
  <metadata
     id="metadata1953">
    <rdf:RDF>
      <cc:Work
         rdf:about="">
        <dc:format>image/svg+xml</dc:format>
        <dc:type
           rdf:resource="http://purl.org/dc/dcmitype/StillImage" />
        <dc:title></dc:title>
      </cc:Work>
    </rdf:RDF>
  </metadata>
  <g
     inkscape:label="Layer 1"
     inkscape:groupmode="layer"
     id="layer1"
     transform="translate(-131.43652,-122.6535)">
    <path
       style="display:inline;fill:#c80d0d;fill-opacity:1;stroke:none;stroke-width:0.15714392px;stroke-linecap:butt;stroke-linejoin:miter;stroke-opacity:1"
       d="m 139.40267,131.04092 c 0.24448,-2.76113 -0.0262,-4.76765 -0.90804,-6.31695 -0.49291,-0.86597 -1.509,-1.95879 -2.26178,-2.07047 -1.42154,0.16087 -3.34455,3.87125 -1.82858,6.13093 -1.40127,-0.57493 -1.71409,-0.052 -2.49641,0.99856 -0.87036,1.79014 -0.507,2.75308 0.85591,3.89916 1.9173,1.41914 3.68563,1.3806 5.72987,0.57061 0.8661,3.08125 3.71123,7.00909 7.20393,7.56057 1.55025,-0.33495 2.54042,-2.19441 2.36553,-3.62768 -0.39914,-0.67628 -0.37211,-0.79925 -1.37264,-1.25659 2.89185,0.13281 5.075,-3.33131 2.90628,-6.57546 -2.71202,-1.5713 -8.11544,0.3714 -9.67569,0.95727 -0.27881,0.047 -0.3095,-0.15935 -0.51838,-0.26995 z"
       id="path1888"
       inkscape:connector-curvature="0"
       sodipodi:nodetypes="csccccccccccc" />
    <path
       style="display:inline;fill:#a60404;fill-opacity:1;stroke:none;stroke-width:0.15714392px;stroke-linecap:butt;stroke-linejoin:miter;stroke-opacity:1"
       d="m 136.40373,123.1004 c -0.0364,0.003 0.0342,-0.01 0,0 -1.07993,0.31591 -0.14109,3.31639 2.17914,6.56352 0.29286,0.40985 0.5327,0.81532 0.72557,1.42412 0.38206,-4.72535 -1.6978,-8.06261 -2.82696,-7.97653 z m 9.79173,6.94319 c -1.38587,-0.009 -3.55642,0.30876 -5.96227,1.43946 0.68598,-0.16111 1.84924,-0.43058 2.53825,-0.39808 3.20236,0.1511 4.9065,-0.25396 4.95218,-0.77682 -0.14776,-0.13592 -0.69665,-0.25911 -1.52816,-0.26456 z m -6.94933,1.06011 c -0.56109,-0.009 -1.04517,0.39442 -1.37163,0.9401 -0.86467,-0.46634 -1.30421,-0.33414 -1.57236,-0.30478 0.4776,0.0242 1.21103,0.4565 1.31056,0.86307 -0.29594,0.83337 -0.24758,1.77392 0.35755,2.13832 1.12314,0.20446 1.69794,-0.82851 1.91367,-1.14451 0.91088,0 1.12534,0.59508 1.38637,0.8026 -0.0564,-0.37144 -0.82714,-1.32566 -1.1522,-1.40693 0.18823,-0.65322 0.16846,-1.31449 -0.19704,-1.6807 -0.23306,-0.13972 -0.4596,-0.20375 -0.67492,-0.20717 z"
       id="path1069"
       inkscape:connector-curvature="0"
       sodipodi:nodetypes="ccccccccccccccccccccc" />
  </g>
</svg>
