<?xml version="1.0" encoding="UTF-8" standalone="no"?>
<!-- Created with Inkscape (http://www.inkscape.org/) -->

<svg
   xmlns:dc="http://purl.org/dc/elements/1.1/"
   xmlns:cc="http://creativecommons.org/ns#"
   xmlns:rdf="http://www.w3.org/1999/02/22-rdf-syntax-ns#"
   xmlns:svg="http://www.w3.org/2000/svg"
   xmlns="http://www.w3.org/2000/svg"
   xmlns:sodipodi="http://sodipodi.sourceforge.net/DTD/sodipodi-0.dtd"
   xmlns:inkscape="http://www.inkscape.org/namespaces/inkscape"
   width="10.1202mm"
   height="19.315008mm"
   viewBox="0 0 10.1202 19.315008"
   version="1.1"
   id="svg1956"
   sodipodi:docname="L.svg"
   inkscape:version="0.92.4 (5da689c313, 2019-01-14)">
  <defs
     id="defs1950" />
  <sodipodi:namedview
     id="base"
     pagecolor="#ffffff"
     bordercolor="#666666"
     borderopacity="1.0"
     inkscape:pageopacity="0.0"
     inkscape:pageshadow="2"
     inkscape:zoom="1.979899"
     inkscape:cx="-63.824132"
     inkscape:cy="-34.116368"
     inkscape:document-units="mm"
     inkscape:current-layer="layer1"
     showgrid="false"
     inkscape:window-width="1920"
     inkscape:window-height="1007"
     inkscape:window-x="0"
     inkscape:window-y="0"
     inkscape:window-maximized="1" />
  <metadata
     id="metadata1953">
    <rdf:RDF>
      <cc:Work
         rdf:about="">
        <dc:format>image/svg+xml</dc:format>
        <dc:type
           rdf:resource="http://purl.org/dc/dcmitype/StillImage" />
        <dc:title></dc:title>
      </cc:Work>
    </rdf:RDF>
  </metadata>
  <g
     inkscape:label="Layer 1"
     inkscape:groupmode="layer"
     id="layer1"
     transform="translate(-156.38812,-122.0756)">
    <path
       inkscape:connector-curvature="0"
       id="path814"
       d="m 158.5789,141.24989 c -0.91685,-0.20634 -1.49279,-0.89834 -1.83075,-2.19965 -0.32212,-1.24038 -0.36076,-2.13108 -0.11827,-2.7264 0.0926,-0.22732 0.18066,-1.17306 0.19569,-2.10166 0.0202,-1.2481 0.0912,-1.81089 0.27209,-2.15822 0.34374,-0.65986 0.3106,-0.94179 -0.23239,-1.97766 l -0.47715,-0.91026 v -2.57873 c 0,-2.35579 0.0272,-2.62949 0.31472,-3.16598 0.42478,-0.79267 0.7396,-1.05045 1.54634,-1.26622 0.81905,-0.21906 1.6276,-0.0316 2.21616,0.51389 0.55192,0.5115 0.8877,2.08409 1.17832,4.25112 l 0.25002,1.86422 c 1.14343,2.79094 0.138,5.25114 0.66065,7.77687 0.461,1.71754 0.16872,3.02271 -0.88387,3.9469 -0.98355,0.86357 -1.72553,1.0392 -3.09155,0.73178 z"
       style="display:inline;fill:#c80d0d;fill-opacity:1;stroke-width:0.14681424;image-rendering:auto"
       sodipodi:nodetypes="ccccsscscsssccscc" />
    <path
       id="path826"
       style="display:inline;fill:#a60404;stroke-width:0.14681424;image-rendering:auto"
       d="m 158.41709,128.97357 c -0.30506,-0.54505 -0.77184,-1.53758 -1.0373,-2.20563 l -0.48265,-1.21463 0.22286,-0.96094 c 0.30289,-1.30604 0.42702,-1.49279 1.11551,-1.67817 0.50588,-0.13622 0.65851,-0.11953 1.02429,0.11207 0.23641,0.14969 0.5954,0.49657 0.79778,0.77087 0.31879,0.4321 0.36793,0.652 0.36793,1.64626 0,1.07754 -0.41549,3.45536 -0.73229,4.19083 -0.26626,0.61812 -0.68041,0.40371 -1.27613,-0.66066 z m -0.1682,4.32156 c -0.49144,-0.52312 -0.41852,-1.1644 0.21171,-1.862 0.65644,-0.7266 1.04075,-0.74725 1.73424,-0.0932 0.67931,0.64067 0.71041,1.25058 0.0952,1.86584 -0.56588,0.56588 -1.55285,0.60908 -2.04111,0.0894 z m 4.10986,0.63288 c -0.21005,-1.24173 -0.46868,-2.45334 -0.46454,-3.62934 -0.029,-0.67571 -0.0261,-1.02836 -5.3e-4,-1.50433 0.61723,-0.31918 2.58133,-0.62639 3.42101,-0.62894 0.40982,0.0264 0.8132,0.0721 1.19363,0.18665 -0.29163,0.78918 -0.48376,0.95731 -1.17373,1.76907 0.42992,0.84271 0.68274,1.58425 0.48786,1.95398 -0.54366,-0.065 -0.78673,-0.0159 -1.26915,0.0989 0.50043,0.60173 1.26816,1.56697 1.61247,2.35478 -0.27913,0.11479 -0.58831,0.39225 -0.81324,0.53413 -0.18463,0.14717 -0.66952,0.691 -0.79172,0.84759 -0.27455,-0.32454 -0.6495,-0.66067 -0.96073,-1.01404 -0.57265,-0.65021 -1.19664,-1.08109 -1.24133,-0.96849 z"
       inkscape:connector-curvature="0"
       sodipodi:nodetypes="cscsccccccccssccccccccccccsc" />
  </g>
</svg>
