<?xml version="1.0" encoding="UTF-8" standalone="no"?>
<svg
   xmlns:dc="http://purl.org/dc/elements/1.1/"
   xmlns:cc="http://creativecommons.org/ns#"
   xmlns:rdf="http://www.w3.org/1999/02/22-rdf-syntax-ns#"
   xmlns:svg="http://www.w3.org/2000/svg"
   xmlns="http://www.w3.org/2000/svg"
   xmlns:sodipodi="http://sodipodi.sourceforge.net/DTD/sodipodi-0.dtd"
   xmlns:inkscape="http://www.inkscape.org/namespaces/inkscape"
   height="20.8px"
   width="34.2px"
   version="1.1"
   id="svg10"
   sodipodi:docname="LFoot.svg"
   inkscape:version="0.92.4 (5da689c313, 2019-01-14)">
  <metadata
     id="metadata16">
    <rdf:RDF>
      <cc:Work
         rdf:about="">
        <dc:format>image/svg+xml</dc:format>
        <dc:type
           rdf:resource="http://purl.org/dc/dcmitype/StillImage" />
      </cc:Work>
    </rdf:RDF>
  </metadata>
  <defs
     id="defs14" />
  <sodipodi:namedview
     pagecolor="#ffffff"
     bordercolor="#666666"
     borderopacity="1"
     objecttolerance="10"
     gridtolerance="10"
     guidetolerance="10"
     inkscape:pageopacity="0"
     inkscape:pageshadow="2"
     inkscape:window-width="1600"
     inkscape:window-height="835"
     id="namedview12"
     showgrid="false"
     inkscape:zoom="32.3"
     inkscape:cx="8.753208"
     inkscape:cy="9.02047"
     inkscape:window-x="0"
     inkscape:window-y="0"
     inkscape:window-maximized="1"
     inkscape:current-layer="g8" />
  <g
     transform="matrix(4.0, 0.0, 0.0, 4.0, 17.2, 10.4)"
     id="g8">
    <path
       d="m 4.2677778,-1.85 q -1.3,1.1 -3.95000002,0.8 -2.59999998,-0.3 -3.29999998,-1.55 -1.75,1.75 -1.1,3.6 0.8,1.95 4.24999998,1.55 Q 3.5677778,2.15 4.0177778,0.5 l 0.25,-2.35"
       id="path2"
       style="fill:#e6e6e6;fill-opacity:1;fill-rule:evenodd;stroke:none"
       inkscape:connector-curvature="0" />
    <path
       d="m -3.5322222,-1.95 c -0.4333333,0.5 -0.6833333,1.11666667 -0.75,1.85 -0.1440128,1.1839807 0.3462131,2.0044848 1.7416409,2.4809598 0.5528002,0.2185648 1.3143103,0.2544019 2.35356032,0.2232198 C 0.83313347,2.534514 1.6797267,2.2720026 2.5177778,2 c -2.16666668,-2.4 -4.1833333,-3.7166667 -6.05,-3.95"
       id="path4"
       style="fill:#4d4d4d;fill-opacity:1;fill-rule:evenodd;stroke:none"
       inkscape:connector-curvature="0"
       sodipodi:nodetypes="cccccc" />
    <path
       d="m -1.7822222,2.55 0.35,0.05 0.25,-2 -0.6,1.95 m -1.95,-0.85 0.25,0.2 0.4,-2 -0.65,1.8"
       id="path6"
       inkscape:connector-curvature="0"
       style="fill:#000000;fill-rule:evenodd;stroke:none;fill-opacity:1" />
  </g>
</svg>
