<?xml version="1.0" encoding="UTF-8" standalone="no"?>
<svg
   xmlns:dc="http://purl.org/dc/elements/1.1/"
   xmlns:cc="http://creativecommons.org/ns#"
   xmlns:rdf="http://www.w3.org/1999/02/22-rdf-syntax-ns#"
   xmlns:svg="http://www.w3.org/2000/svg"
   xmlns="http://www.w3.org/2000/svg"
   xmlns:sodipodi="http://sodipodi.sourceforge.net/DTD/sodipodi-0.dtd"
   xmlns:inkscape="http://www.inkscape.org/namespaces/inkscape"
   height="21.0px"
   width="34.2px"
   version="1.1"
   id="svg10"
   sodipodi:docname="LFoot.svg"
   inkscape:version="0.92.4 (5da689c313, 2019-01-14)">
  <metadata
     id="metadata16">
    <rdf:RDF>
      <cc:Work
         rdf:about="">
        <dc:format>image/svg+xml</dc:format>
        <dc:type
           rdf:resource="http://purl.org/dc/dcmitype/StillImage" />
      </cc:Work>
    </rdf:RDF>
  </metadata>
  <defs
     id="defs14" />
  <sodipodi:namedview
     pagecolor="#ffffff"
     bordercolor="#666666"
     borderopacity="1"
     objecttolerance="10"
     gridtolerance="10"
     guidetolerance="10"
     inkscape:pageopacity="0"
     inkscape:pageshadow="2"
     inkscape:window-width="953"
     inkscape:window-height="789"
     id="namedview12"
     showgrid="false"
     inkscape:zoom="17.368421"
     inkscape:cx="14.163637"
     inkscape:cy="17.581818"
     inkscape:window-x="43"
     inkscape:window-y="27"
     inkscape:window-maximized="0"
     inkscape:current-layer="g8" />
  <g
     transform="matrix(4.0, 0.0, 0.0, 4.0, 16.8, 10.4)"
     id="g8">
    <path
       d="M1.2 -1.0 Q3.5 -1.0 4.35 -1.85 L4.1 0.5 Q3.45 2.4 0.05 2.6 -3.35 2.8 -4.0 1.0 -4.65 -0.85 -2.9 -2.6 -1.45 -1.0 1.2 -1.0"
       fill="#eba5dd"
       fill-rule="evenodd"
       stroke="none"
       id="path2"
       style="fill:#e6e6e6;fill-opacity:1" />
    <path
       d="m -4.2,0 c 0.033333,-0.7 0.3265152,-1.4219697 0.7931818,-2.0219697 1.780303,1.0537879 1.6666666,3.2916667 2.82575752,4.669697 C -2.3674243,2.5598484 -2.4439394,2.3628788 -3.2,2.1 -3.9,1.5666667 -4.2333333,0.86666667 -4.2,0"
       id="path4"
       style="fill:#4d4d4d;fill-opacity:1;fill-rule:evenodd;stroke:none"
       inkscape:connector-curvature="0"
       sodipodi:nodetypes="ccccc" />
    <path
       d="m -2.6,0.15 c -0.037339,0.27732523 -0.089621,1.1776891 -0.1636363,2.1151515 L -3.2,2.1 -2.6,0.15"
       id="path6"
       inkscape:connector-curvature="0"
       style="fill:#000000;fill-rule:evenodd;stroke:none;fill-opacity:1"
       sodipodi:nodetypes="cccc" />
  </g>
</svg>
