<?xml version="1.0" encoding="UTF-8" standalone="no"?>
<svg
   xmlns:dc="http://purl.org/dc/elements/1.1/"
   xmlns:cc="http://creativecommons.org/ns#"
   xmlns:rdf="http://www.w3.org/1999/02/22-rdf-syntax-ns#"
   xmlns:svg="http://www.w3.org/2000/svg"
   xmlns="http://www.w3.org/2000/svg"
   xmlns:sodipodi="http://sodipodi.sourceforge.net/DTD/sodipodi-0.dtd"
   xmlns:inkscape="http://www.inkscape.org/namespaces/inkscape"
   height="21.0px"
   width="34.2px"
   version="1.1"
   id="svg10"
   sodipodi:docname="RFootSide.svg"
   inkscape:version="0.92.4 (5da689c313, 2019-01-14)">
  <metadata
     id="metadata16">
    <rdf:RDF>
      <cc:Work
         rdf:about="">
        <dc:format>image/svg+xml</dc:format>
        <dc:type
           rdf:resource="http://purl.org/dc/dcmitype/StillImage" />
        <dc:title></dc:title>
      </cc:Work>
    </rdf:RDF>
  </metadata>
  <defs
     id="defs14" />
  <sodipodi:namedview
     pagecolor="#ffffff"
     bordercolor="#666666"
     borderopacity="1"
     objecttolerance="10"
     gridtolerance="10"
     guidetolerance="10"
     inkscape:pageopacity="0"
     inkscape:pageshadow="2"
     inkscape:window-width="1600"
     inkscape:window-height="835"
     id="namedview12"
     showgrid="false"
     inkscape:zoom="17.368421"
     inkscape:cx="5.7863642"
     inkscape:cy="17.581818"
     inkscape:window-x="0"
     inkscape:window-y="0"
     inkscape:window-maximized="1"
     inkscape:current-layer="g8" />
  <g
     transform="matrix(4.0, 0.0, 0.0, 4.0, 16.8, 10.4)"
     id="g8">
    <path
       d="m -1.0522727,-1 q -2.3,0 -3.15,-0.85 l 0.25,2.35 q 0.65,1.9 4.04999998,2.1 Q 3.4977273,2.8 4.1477273,1 q 0.65,-1.85 -1.1,-3.6 -1.45,1.6 -4.1,1.6"
       id="path2"
       style="fill:#e6e6e6;fill-opacity:1;fill-rule:evenodd;stroke:none"
       inkscape:connector-curvature="0" />
    <path
       d="M 4.3477273,0 C 4.3143943,-0.7 4.0212121,-1.4219697 3.5545455,-2.0219697 1.7742425,-0.9681818 1.8878789,1.269697 0.72878796,2.6477273 2.5151516,2.5598484 2.5916667,2.3628788 3.3477273,2.1 c 0.7,-0.5333333 1.0333333,-1.23333333 1,-2.1"
       id="path4"
       style="fill:#4d4d4d;fill-opacity:1;fill-rule:evenodd;stroke:none"
       inkscape:connector-curvature="0"
       sodipodi:nodetypes="ccccc" />
    <path
       d="m 2.7477273,0.15 c 0.037339,0.27732523 0.089621,1.1776891 0.1636363,2.1151515 L 3.3477273,2.1 l -0.6,-1.95"
       id="path6"
       inkscape:connector-curvature="0"
       style="fill:#000000;fill-opacity:1;fill-rule:evenodd;stroke:none"
       sodipodi:nodetypes="cccc" />
  </g>
</svg>
