<?xml version="1.0" encoding="UTF-8" standalone="no"?>
<svg
   xmlns:dc="http://purl.org/dc/elements/1.1/"
   xmlns:cc="http://creativecommons.org/ns#"
   xmlns:rdf="http://www.w3.org/1999/02/22-rdf-syntax-ns#"
   xmlns:svg="http://www.w3.org/2000/svg"
   xmlns="http://www.w3.org/2000/svg"
   xmlns:sodipodi="http://sodipodi.sourceforge.net/DTD/sodipodi-0.dtd"
   xmlns:inkscape="http://www.inkscape.org/namespaces/inkscape"
   height="20.8px"
   width="34.2px"
   version="1.1"
   id="svg10"
   sodipodi:docname="RFootBack.svg"
   inkscape:version="0.92.4 (5da689c313, 2019-01-14)">
  <metadata
     id="metadata16">
    <rdf:RDF>
      <cc:Work
         rdf:about="">
        <dc:format>image/svg+xml</dc:format>
        <dc:type
           rdf:resource="http://purl.org/dc/dcmitype/StillImage" />
        <dc:title></dc:title>
      </cc:Work>
    </rdf:RDF>
  </metadata>
  <defs
     id="defs14" />
  <sodipodi:namedview
     pagecolor="#ffffff"
     bordercolor="#666666"
     borderopacity="1"
     objecttolerance="10"
     gridtolerance="10"
     guidetolerance="10"
     inkscape:pageopacity="0"
     inkscape:pageshadow="2"
     inkscape:window-width="1600"
     inkscape:window-height="835"
     id="namedview12"
     showgrid="false"
     inkscape:zoom="22.84"
     inkscape:cx="17.794621"
     inkscape:cy="9.1890136"
     inkscape:window-x="0"
     inkscape:window-y="0"
     inkscape:window-maximized="1"
     inkscape:current-layer="g8" />
  <g
     transform="matrix(4.0, 0.0, 0.0, 4.0, 17.2, 10.4)"
     id="g8">
    <path
       d="m -3.2366881,-1.87338 c -0.4333333,0.5 -0.9788674,1.04004667 -1.0455341,1.77338 -0.1440128,1.1839807 0.3462131,2.0044848 1.7416409,2.4809598 0.5528002,0.2185648 1.3143103,0.2544019 2.35356032,0.2232198 C 0.83313347,2.534514 1.6797267,2.2720026 2.5177778,2 0.35111112,-0.4 -0.28639613,-1.180327 -2.1530628,-1.4136603"
       id="path4"
       style="fill:#4d4d4d;fill-opacity:1;fill-rule:evenodd;stroke:none"
       inkscape:connector-curvature="0"
       sodipodi:nodetypes="cccccc" />
    <path
       d="m 4.2677778,-1.85 c -0.8666667,0.7333333 -2.1833333,1 -3.95000002,0.8 C -1.4155555,-1.25 -2.5155555,-1.7666667 -2.9822222,-2.6 -3.7986999,-1.4223474 -3.9364831,0.93146482 -3.4802082,1.9632225 -2.7826893,2.3 -2.1322222,2.8166667 0.16777778,2.55 2.4563359,2.3161704 3.7177778,1.6 4.0177778,0.5 l 0.25,-2.35"
       id="path2"
       style="fill:#e6e6e6;fill-opacity:1;fill-rule:evenodd;stroke:none"
       inkscape:connector-curvature="0"
       sodipodi:nodetypes="ccccccc" />
  </g>
</svg>
