<?xml version="1.0" encoding="UTF-8" standalone="no"?>
<svg
   xmlns:dc="http://purl.org/dc/elements/1.1/"
   xmlns:cc="http://creativecommons.org/ns#"
   xmlns:rdf="http://www.w3.org/1999/02/22-rdf-syntax-ns#"
   xmlns:svg="http://www.w3.org/2000/svg"
   xmlns="http://www.w3.org/2000/svg"
   xmlns:sodipodi="http://sodipodi.sourceforge.net/DTD/sodipodi-0.dtd"
   xmlns:inkscape="http://www.inkscape.org/namespaces/inkscape"
   height="20.8px"
   width="34.2px"
   version="1.1"
   id="svg10"
   sodipodi:docname="RFoot.svg"
   inkscape:version="0.92.4 (5da689c313, 2019-01-14)">
  <metadata
     id="metadata16">
    <rdf:RDF>
      <cc:Work
         rdf:about="">
        <dc:format>image/svg+xml</dc:format>
        <dc:type
           rdf:resource="http://purl.org/dc/dcmitype/StillImage" />
      </cc:Work>
    </rdf:RDF>
  </metadata>
  <defs
     id="defs14" />
  <sodipodi:namedview
     pagecolor="#ffffff"
     bordercolor="#666666"
     borderopacity="1"
     objecttolerance="10"
     gridtolerance="10"
     guidetolerance="10"
     inkscape:pageopacity="0"
     inkscape:pageshadow="2"
     inkscape:window-width="1600"
     inkscape:window-height="835"
     id="namedview12"
     showgrid="false"
     inkscape:zoom="4.97"
     inkscape:cx="-41.451308"
     inkscape:cy="6.5998865"
     inkscape:window-x="0"
     inkscape:window-y="0"
     inkscape:window-maximized="1"
     inkscape:current-layer="g8" />
  <g
     transform="matrix(4.0, 0.0, 0.0, 4.0, 17.2, 10.4)"
     id="g8">
    <path
       d="M-4.3 -1.85 Q-3.0 -0.75 -0.35 -1.05 2.25 -1.35 2.95 -2.6 4.7 -0.85 4.05 1.0 3.25 2.95 -0.2 2.55 -3.6 2.15 -4.05 0.5 L-4.3 -1.85"
       id="path2"
       stroke="none"
       fill-rule="evenodd"
       fill="#eba5dd"
       style="fill:#e6e6e6;fill-opacity:1" />
    <path
       d="M3.5 -1.95 Q4.15 -1.2 4.25 -0.1 4.45 1.7 2.4 2.35 L0.0 2.55 -2.55 2.0 Q0.7 -1.6 3.5 -1.95"
       id="path4"
       stroke="none"
       fill-rule="evenodd"
       fill="#997033"
       style="fill:#4d4d4d;fill-opacity:1" />
    <path
       d="M1.75 2.55 L1.4 2.6 1.15 0.6 1.75 2.55 M3.7 1.7 L3.45 1.9 3.05 -0.1 3.7 1.7"
       id="path6"
       stroke="none"
       fill-rule="evenodd"
       fill="#333333"
       style="fill:#000000;fill-opacity:1" />
  </g>
</svg>
