<?xml version="1.0" encoding="UTF-8" standalone="no"?>
<!-- Created with Inkscape (http://www.inkscape.org/) -->

<svg
   xmlns:dc="http://purl.org/dc/elements/1.1/"
   xmlns:cc="http://creativecommons.org/ns#"
   xmlns:rdf="http://www.w3.org/1999/02/22-rdf-syntax-ns#"
   xmlns:svg="http://www.w3.org/2000/svg"
   xmlns="http://www.w3.org/2000/svg"
   xmlns:sodipodi="http://sodipodi.sourceforge.net/DTD/sodipodi-0.dtd"
   xmlns:inkscape="http://www.inkscape.org/namespaces/inkscape"
   inkscape:version="0.92.4 (5da689c313, 2019-01-14)"
   sodipodi:docname="LashFront.svg"
   id="svg8"
   version="1.1"
   viewBox="0 0 29.426203 24.174809"
   height="24.174809mm"
   width="29.426203mm">
  <defs
     id="defs2">
    <inkscape:path-effect
       effect="powerstroke"
       id="path-effect2126"
       is_visible="true"
       offset_points="1,0.13229166"
       sort_points="true"
       interpolator_type="CubicBezierJohan"
       interpolator_beta="0.2"
       start_linecap_type="zerowidth"
       linejoin_type="extrp_arc"
       miter_limit="4"
       end_linecap_type="zerowidth" />
    <marker
       inkscape:stockid="Arrow1Lstart"
       orient="auto"
       refY="0"
       refX="0"
       id="Arrow1Lstart"
       style="overflow:visible"
       inkscape:isstock="true">
      <path
         id="path5352"
         d="M 0,0 5,-5 -12.5,0 5,5 Z"
         style="fill:#000000;fill-opacity:1;fill-rule:evenodd;stroke:#000000;stroke-width:1.00000003pt;stroke-opacity:1"
         transform="matrix(0.8,0,0,0.8,10,0)"
         inkscape:connector-curvature="0" />
    </marker>
  </defs>
  <sodipodi:namedview
     id="base"
     pagecolor="#ffffff"
     bordercolor="#666666"
     borderopacity="1.0"
     inkscape:pageopacity="0.0"
     inkscape:pageshadow="2"
     inkscape:zoom="2.8284271"
     inkscape:cx="107.56723"
     inkscape:cy="25.535537"
     inkscape:document-units="mm"
     inkscape:current-layer="layer1"
     showgrid="false"
     inkscape:window-width="1920"
     inkscape:window-height="1007"
     inkscape:window-x="0"
     inkscape:window-y="0"
     inkscape:window-maximized="1"
     showguides="false"
     inkscape:snap-others="false" />
  <metadata
     id="metadata5">
    <rdf:RDF>
      <cc:Work
         rdf:about="">
        <dc:format>image/svg+xml</dc:format>
        <dc:type
           rdf:resource="http://purl.org/dc/dcmitype/StillImage" />
        <dc:title></dc:title>
      </cc:Work>
    </rdf:RDF>
  </metadata>
  <g
     inkscape:label="Layer 1"
     inkscape:groupmode="layer"
     id="layer1"
     transform="translate(65.868397,-73.605275)">
    <path
       style="fill:#3a3a3a;fill-opacity:1;stroke:none;stroke-width:0.268895px;stroke-linecap:butt;stroke-linejoin:miter;stroke-opacity:1"
       d="m -55.686625,73.605275 c -0.348714,1.391747 -0.101121,2.133358 0.780951,3.055525 -4.853471,-0.721672 -9.519153,1.675446 -10.962723,4.699363 1.989298,-0.242271 4.441056,-0.996067 4.526724,1.270797 0.04619,1.189544 0.111189,3.966939 0.402667,5.344437 0.08381,-1.590381 -2.185398,-2.886687 -3.563909,-1.234708 1.376199,-0.153999 2.567434,-0.0081 3.472042,2.645866 0.481364,3.023908 1.974972,6.204406 3.340665,8.393528 -2.434965,-4.502293 -3.909994,-13.455577 -1.818942,-17.641731 6.786371,-1.882831 13.737272,-0.02073 17.585013,3.639763 1.894105,1.801954 2.592282,2.959119 3.454267,4.950734 0.855379,1.97635 1.513736,6.262782 1.31348,7.62531 -0.04881,0.332105 0.562154,-0.727719 0.653326,-0.594655 0.284958,-4.268708 -0.441636,-7.646023 -1.947779,-10.648436 -2.05768,-4.101862 -6.968586,-5.897749 -13.893501,-8.206062 -1.813705,-0.369231 -2.758487,-1.760642 -3.342281,-3.299731 z"
       id="path4988-2-2"
       inkscape:connector-curvature="0"
       sodipodi:nodetypes="ccccccccccsscscc" />
  </g>
</svg>
