<?xml version="1.0" encoding="UTF-8" standalone="no"?>
<!-- Created with Inkscape (http://www.inkscape.org/) -->

<svg
   xmlns:dc="http://purl.org/dc/elements/1.1/"
   xmlns:cc="http://creativecommons.org/ns#"
   xmlns:rdf="http://www.w3.org/1999/02/22-rdf-syntax-ns#"
   xmlns:svg="http://www.w3.org/2000/svg"
   xmlns="http://www.w3.org/2000/svg"
   xmlns:sodipodi="http://sodipodi.sourceforge.net/DTD/sodipodi-0.dtd"
   xmlns:inkscape="http://www.inkscape.org/namespaces/inkscape"
   inkscape:version="0.92.4 (5da689c313, 2019-01-14)"
   sodipodi:docname="EyeFront.svg"
   id="svg8"
   version="1.1"
   viewBox="0 0 23.539057 24.965855"
   height="24.965855mm"
   width="23.539057mm">
  <defs
     id="defs2">
    <inkscape:path-effect
       effect="powerstroke"
       id="path-effect2126"
       is_visible="true"
       offset_points="1,0.13229166"
       sort_points="true"
       interpolator_type="CubicBezierJohan"
       interpolator_beta="0.2"
       start_linecap_type="zerowidth"
       linejoin_type="extrp_arc"
       miter_limit="4"
       end_linecap_type="zerowidth" />
    <marker
       inkscape:stockid="Arrow1Lstart"
       orient="auto"
       refY="0"
       refX="0"
       id="Arrow1Lstart"
       style="overflow:visible"
       inkscape:isstock="true">
      <path
         id="path5352"
         d="M 0,0 5,-5 -12.5,0 5,5 Z"
         style="fill:#000000;fill-opacity:1;fill-rule:evenodd;stroke:#000000;stroke-width:1.00000003pt;stroke-opacity:1"
         transform="matrix(0.8,0,0,0.8,10,0)"
         inkscape:connector-curvature="0" />
    </marker>
  </defs>
  <sodipodi:namedview
     id="base"
     pagecolor="#ffffff"
     bordercolor="#666666"
     borderopacity="1.0"
     inkscape:pageopacity="0.0"
     inkscape:pageshadow="2"
     inkscape:zoom="2.8284271"
     inkscape:cx="87.393209"
     inkscape:cy="49.290997"
     inkscape:document-units="mm"
     inkscape:current-layer="layer1"
     showgrid="false"
     inkscape:window-width="1920"
     inkscape:window-height="1007"
     inkscape:window-x="0"
     inkscape:window-y="0"
     inkscape:window-maximized="1"
     showguides="false"
     inkscape:snap-others="false" />
  <metadata
     id="metadata5">
    <rdf:RDF>
      <cc:Work
         rdf:about="">
        <dc:format>image/svg+xml</dc:format>
        <dc:type
           rdf:resource="http://purl.org/dc/dcmitype/StillImage" />
        <dc:title></dc:title>
      </cc:Work>
    </rdf:RDF>
  </metadata>
  <g
     inkscape:label="Layer 1"
     inkscape:groupmode="layer"
     id="layer1"
     transform="translate(60.530688,-79.099527)">
    <g
       id="g2597">
      <path
         sodipodi:nodetypes="ccsccc"
         inkscape:connector-curvature="0"
         id="path5024-6-7"
         d="m -57.69021,97.780083 c 1.90161,2.902737 5.214953,5.607837 5.214953,5.607837 0.164937,0.44327 -3.828933,-5.811838 -4.688445,-7.679241 -1.162017,-2.524632 -3.01629,-8.519661 -0.729993,-16.229588 -0.780921,0.237681 -1.615458,0.659261 -1.615458,0.659261 -1.482763,1.621622 -1.719493,11.29106 1.818943,17.641731 z"
         style="fill:#ffffff;fill-opacity:1;stroke:none;stroke-width:0.268895px;stroke-linecap:butt;stroke-linejoin:miter;stroke-opacity:1" />
      <path
         sodipodi:nodetypes="csccscc"
         inkscape:connector-curvature="0"
         id="path5022-2-9"
         d="m -57.893695,79.479091 c -1.216561,3.238763 -2.559376,8.874206 0.169769,15.482631 2.120199,5.133908 4.723217,7.819818 5.248669,8.426198 0.691421,0.20301 3.408876,0.39398 3.408876,0.39398 -1.103731,-0.70171 -5.142674,-5.878743 -7.333595,-10.402775 -2.201587,-4.546065 -0.20756,-14.685021 0.266374,-13.970992 z"
         style="fill:#676767;fill-opacity:1;stroke:none;stroke-width:0.268895px;stroke-linecap:butt;stroke-linejoin:miter;stroke-opacity:1" />
      <path
         sodipodi:nodetypes="cccsc"
         inkscape:connector-curvature="0"
         id="path5026-9-2"
         d="m -45.602665,103.7556 c 1.836821,-0.9218 6.349036,-2.68203 8.57141,-7.804026 0.745993,-11.25735 -9.199063,-17.499318 -16.525678,-16.75851 -4.358473,3.063686 -2.712082,11.789493 -1.210468,14.76227 1.574142,3.11635 5.655369,10.002116 9.164736,9.800266 z"
         style="fill:#000000;fill-opacity:1;stroke:none;stroke-width:0.268895px;stroke-linecap:butt;stroke-linejoin:miter;stroke-opacity:1" />
      <path
         sodipodi:nodetypes="csccscc"
         inkscape:connector-curvature="0"
         id="path5020-1-0"
         d="m -56.733817,79.312103 c -1.909065,6.365805 -1.060478,9.710933 -0.72843,11.841527 0.527339,3.383697 5.726444,12.47755 8.240027,12.74656 1.282288,0.10739 2.187546,0.37551 3.619555,-0.14459 -2.642497,0.0195 -7.993451,-6.446194 -9.405013,-11.747784 -1.300154,-4.88316 -1.132157,-9.484603 1.450745,-12.814752 -0.957725,-0.07328 -2.179338,-0.215505 -3.176884,0.119039 z"
         style="fill:#bfbfbf;fill-opacity:1;stroke:none;stroke-width:0.268895px;stroke-linecap:butt;stroke-linejoin:miter;stroke-opacity:1" />
      <ellipse
         ry="1.4430073"
         rx="1.5448668"
         cy="101.36189"
         cx="-49.931683"
         id="path4999-5-7-3"
         style="fill:#ffffff;fill-opacity:1;stroke:none;stroke-width:0.36631989;stroke-linecap:butt;stroke-linejoin:round;stroke-miterlimit:4;stroke-dasharray:none;stroke-opacity:1;paint-order:normal" />
      <circle
         r="4.040421"
         cy="86.269714"
         cx="-50.390057"
         id="path4999-0-7"
         style="fill:#ffffff;fill-opacity:1;stroke:none;stroke-width:0.99130517;stroke-linecap:butt;stroke-linejoin:round;stroke-miterlimit:4;stroke-dasharray:none;stroke-opacity:1;paint-order:normal" />
    </g>
  </g>
</svg>
