<?xml version="1.0" encoding="UTF-8" standalone="no"?>
<svg
   xmlns:dc="http://purl.org/dc/elements/1.1/"
   xmlns:cc="http://creativecommons.org/ns#"
   xmlns:rdf="http://www.w3.org/1999/02/22-rdf-syntax-ns#"
   xmlns:svg="http://www.w3.org/2000/svg"
   xmlns="http://www.w3.org/2000/svg"
   xmlns:sodipodi="http://sodipodi.sourceforge.net/DTD/sodipodi-0.dtd"
   xmlns:inkscape="http://www.inkscape.org/namespaces/inkscape"
   width="210mm"
   height="297mm"
   viewBox="0 0 210 297"
   version="1.1"
   id="svg3783"
   inkscape:version="1.0.2 (e86c8708, 2021-01-15)"
   sodipodi:docname="minigame fish.svg">
  <defs
     id="defs3777" />
  <sodipodi:namedview
     id="base"
     pagecolor="#ffffff"
     bordercolor="#666666"
     borderopacity="1.0"
     inkscape:pageopacity="0.0"
     inkscape:pageshadow="2"
     inkscape:zoom="0.44313568"
     inkscape:cx="253.34743"
     inkscape:cy="556.18631"
     inkscape:document-units="mm"
     inkscape:current-layer="layer1"
     inkscape:document-rotation="0"
     showgrid="false"
     inkscape:window-width="1440"
     inkscape:window-height="735"
     inkscape:window-x="0"
     inkscape:window-y="25"
     inkscape:window-maximized="0" />
  <metadata
     id="metadata3780">
    <rdf:RDF>
      <cc:Work
         rdf:about="">
        <dc:format>image/svg+xml</dc:format>
        <dc:type
           rdf:resource="http://purl.org/dc/dcmitype/StillImage" />
        <dc:title></dc:title>
      </cc:Work>
    </rdf:RDF>
  </metadata>
  <g
     inkscape:label="Layer 1"
     inkscape:groupmode="layer"
     id="layer1">
    <path
       style="display:inline;fill:#e4c559;fill-opacity:1;stroke:none;stroke-width:0;stroke-linecap:round;stroke-miterlimit:4;stroke-dasharray:none;paint-order:fill markers stroke"
       d="m 123.5627,131.02184 c -11.87471,0.0105 -23.09104,7.42645 -28.664229,17.75104 -0.1452,1.66649 -1.69554,1.25364 -3.00124,1.27424 -5.05692,-0.13889 -10.20111,0.30966 -14.90236,2.30996 -10.142242,3.84012 -19.999103,10.19976 -25.33482,19.91911 -3.822259,7.17727 -4.258598,16.50448 0.03393,23.57612 3.401623,5.18052 8.972976,8.46577 14.828154,10.15599 5.774636,1.68791 11.912146,2.40195 17.880036,1.40893 8.8097,-1.05895 17.196749,-4.44684 24.946059,-8.65864 6.26703,-3.65128 12.64562,-8.29908 15.52741,-15.2062 1.21758,-2.94998 0.84958,-6.31562 1.81804,-9.28464 3.77109,-0.78029 7.75812,-0.90663 11.22932,-2.77941 4.42748,-2.21474 9.13522,-5.11053 11.1371,-9.86257 1.09427,-3.76918 0.58281,-7.80292 0.15994,-11.64162 -0.20386,-1.95117 -1.14194,-4.27078 -3.38458,-4.48435 -4.66598,-0.73032 -9.45017,-0.53519 -14.07009,0.42285 -0.95882,0.1836 -2.65928,0.35124 -2.63182,-1.07057 -0.21753,-4.25907 1.13013,-8.73216 -0.38944,-12.85639 -1.30491,-1.27993 -3.52641,-0.85758 -5.18133,-0.97385 z"
       id="path1152" />
    <path
       style="display:inline;fill:#c9f6ff;fill-opacity:1;stroke:none;stroke-width:0;stroke-linecap:round;stroke-miterlimit:4;stroke-dasharray:none;paint-order:fill markers stroke"
       d="m 121.33381,134.89381 c -4.17463,0.25805 -8.38775,1.04474 -12.2169,2.77195 -4.13639,1.93954 -6.64245,6.01151 -8.784,9.8581 -0.922819,1.52577 -1.349719,3.36145 -2.503669,4.73521 -1.1706,0.75312 -2.69161,0.31076 -4.0011,0.42608 -5.13596,-0.28641 -10.00733,1.70537 -14.61656,3.72614 -5.1341,2.33279 -10.27269,4.95067 -14.312117,8.97145 -3.337834,3.2379 -6.806008,6.71676 -8.175764,11.29262 -0.991392,3.07402 -1.480708,6.43382 -0.79416,9.62135 1.353394,4.33259 5.043052,7.61693 9.222343,9.18078 5.067148,2.02961 10.578628,2.90255 16.026748,2.60292 5.98578,-0.11732 11.93776,-1.27925 17.61088,-3.16473 6.177729,-2.09305 12.070259,-5.75504 15.614109,-11.36256 3.0624,-4.4473 3.80771,-9.89979 4.80718,-15.07418 0.0518,-0.8777 0.58485,-1.79833 1.57001,-1.76001 5.10995,-0.26883 10.19251,-1.42215 14.7872,-3.71146 3.58807,-1.79205 7.32429,-3.8498 9.62475,-7.25045 1.03445,-1.57122 1.42329,-3.72123 0.63778,-5.46764 -1.25778,-1.92946 -3.78738,-2.46802 -5.94511,-2.55056 -4.12955,-0.22464 -8.26415,-0.0211 -12.37865,0.33635 -0.77283,-0.0826 -1.91087,0.28125 -2.43665,-0.45593 -0.12073,-1.67494 0.42075,-3.34334 0.45607,-5.02646 0.0768,-2.06743 0.47996,-4.23453 -0.15204,-6.24688 -0.69196,-1.42654 -2.68924,-1.42902 -4.04029,-1.45209 z"
       id="path1176" />
    <path
       style="display:inline;fill:#87dae9;fill-opacity:1;stroke:none;stroke-width:0;stroke-linecap:round;stroke-miterlimit:4;stroke-dasharray:none;paint-order:fill markers stroke"
       d="m 87.921721,153.30388 c -2.83789,0.49164 -5.46169,1.80426 -8.11329,2.88117 -4.72688,2.0962 -9.50165,4.35979 -13.386776,7.83477 -0.501522,0.80711 0.859816,1.11387 1.286716,1.55652 6.08942,4.11616 12.62199,8.22509 16.49341,14.68285 3.05906,4.99652 4.48656,10.78865 4.89204,16.61068 0.39886,0.81142 1.47913,0.0516 2.15929,0.0755 2.28312,-0.55379 4.66555,-0.93929 6.80114,-1.94188 1.35047,-2.0445 2.253319,-4.37319 3.297219,-6.58905 1.26051,-2.71426 1.78658,-5.71232 1.66563,-8.69533 0.055,-3.19464 0.0158,-6.42499 -0.86111,-9.52432 -0.98957,-4.43063 -3.463989,-8.424 -6.765439,-11.50908 -2.09761,-2.01322 -4.41046,-3.84748 -6.93283,-5.29286 -0.17071,-0.0642 -0.35369,-0.0952 -0.536,-0.0889 z"
       id="path1178" />
    <path
       style="display:inline;fill:#87dae9;fill-opacity:1;stroke:none;stroke-width:0;stroke-linecap:round;stroke-miterlimit:4;stroke-dasharray:none;paint-order:fill markers stroke"
       d="m 107.49921,138.69829 c -1.43852,0.67753 -2.50125,1.99507 -3.52478,3.18306 -2.30573,3.01603 -4.173089,6.38098 -5.590139,9.89729 -0.2128,0.95659 0.95825,1.48268 1.37376,2.20501 4.304569,4.91163 8.437649,10.41335 9.601119,16.97507 0.19492,2.4806 0.23359,5.09619 -0.0918,7.56098 -0.75681,4.38523 -2.28208,8.59187 -4.16732,12.62104 -0.10022,0.83438 0.93434,0.58996 1.31107,0.21728 6.13603,-3.71957 10.40939,-10.18156 11.70946,-17.21016 0.54979,-2.2477 0.67632,-4.61797 1.43847,-6.80143 0.73505,-0.98519 2.18569,-0.56497 3.243,-0.80755 2.34426,-0.32276 4.77359,-0.48614 7.00159,-1.31896 0.72203,-0.60609 -0.35646,-1.22011 -0.82305,-1.5399 -5.405,-3.99939 -9.72839,-9.2774 -13.83492,-14.56284 -2.577,-3.32648 -4.8595,-6.86872 -7.25726,-10.3189 -0.10706,-0.0884 -0.25331,-0.12258 -0.38915,-0.10023 z"
       id="path1180" />
    <path
       style="display:inline;fill:#87dae9;fill-opacity:1;stroke:none;stroke-width:0;stroke-linecap:round;stroke-miterlimit:4;stroke-dasharray:none;paint-order:fill markers stroke"
       d="m 135.81125,147.65698 c -1.10327,0.0568 -2.24357,-0.0702 -3.32495,0.16072 -0.58732,0.63379 -0.0955,1.64241 -0.0957,2.41224 0.5146,3.95972 1.972,7.95633 4.98008,10.70757 0.46404,0.92369 1.32302,0.61616 1.93699,0.056 2.69992,-1.78545 5.75312,-3.81616 6.71181,-7.09941 0.45407,-1.70993 0.29369,-3.99269 -1.46934,-4.90432 -2.6087,-1.60745 -5.81807,-1.26501 -8.73895,-1.33272 z"
       id="path1182" />
    <path
       style="display:inline;fill:#bf8d30;fill-opacity:1;stroke:none;stroke-width:0;stroke-linecap:round;stroke-miterlimit:4;stroke-dasharray:none;paint-order:fill markers stroke"
       d="m 146.82017,151.23614 c -0.82825,1.03858 -0.4879,2.66296 -1.20517,3.82936 -1.9957,3.7017 -5.92015,5.80483 -9.50938,7.70165 -4.50468,2.22931 -9.43493,3.65972 -14.47349,3.87831 -0.69765,-0.10969 -1.28674,0.65975 -0.59227,1.1472 1.88624,2.10086 3.46523,4.56888 5.70322,6.3088 4.52995,-0.3104 9.13467,-1.29726 13.15731,-3.52791 3.62269,-2.01467 7.19211,-4.70554 9.03159,-8.51849 1.0697,-2.87687 0.70175,-6.01848 0.72413,-9.02193 -0.63317,-0.81917 -1.68678,-1.35324 -2.62937,-1.81075 z"
       id="path1184" />
  </g>
</svg>
