<?xml version="1.0" encoding="UTF-8" standalone="no"?>
<svg
   xmlns:dc="http://purl.org/dc/elements/1.1/"
   xmlns:cc="http://creativecommons.org/ns#"
   xmlns:rdf="http://www.w3.org/1999/02/22-rdf-syntax-ns#"
   xmlns:svg="http://www.w3.org/2000/svg"
   xmlns="http://www.w3.org/2000/svg"
   xmlns:sodipodi="http://sodipodi.sourceforge.net/DTD/sodipodi-0.dtd"
   xmlns:inkscape="http://www.inkscape.org/namespaces/inkscape"
   width="210mm"
   height="297mm"
   viewBox="0 0 210 297"
   version="1.1"
   id="svg1329"
   inkscape:version="1.0.2 (e86c8708, 2021-01-15)"
   sodipodi:docname="minigame carrot.svg">
  <defs
     id="defs1323" />
  <sodipodi:namedview
     id="base"
     pagecolor="#ffffff"
     bordercolor="#666666"
     borderopacity="1.0"
     inkscape:pageopacity="0.0"
     inkscape:pageshadow="2"
     inkscape:zoom="0.26889045"
     inkscape:cx="400"
     inkscape:cy="560"
     inkscape:document-units="mm"
     inkscape:current-layer="layer1"
     inkscape:document-rotation="0"
     showgrid="false"
     inkscape:window-width="1440"
     inkscape:window-height="735"
     inkscape:window-x="0"
     inkscape:window-y="25"
     inkscape:window-maximized="1" />
  <metadata
     id="metadata1326">
    <rdf:RDF>
      <cc:Work
         rdf:about="">
        <dc:format>image/svg+xml</dc:format>
        <dc:type
           rdf:resource="http://purl.org/dc/dcmitype/StillImage" />
        <dc:title></dc:title>
      </cc:Work>
    </rdf:RDF>
  </metadata>
  <g
     inkscape:label="Layer 1"
     inkscape:groupmode="layer"
     id="layer1">
    <path
       style="display:inline;fill:#f8c34e;fill-opacity:1;stroke:none;stroke-width:0;stroke-linecap:round;stroke-miterlimit:4;stroke-dasharray:none;paint-order:fill markers stroke"
       d="m 103.03035,110.03495 c -5.298487,0.64962 -10.311797,2.69273 -15.397027,4.22444 -12.92487,4.19384 -25.86251,9.14092 -36.794812,17.40485 -8.368273,6.25682 -16.355222,13.18241 -22.940433,21.33007 -1.71738,2.42182 -3.542395,4.94658 -4.337938,7.83556 0.24402,1.37084 2.019421,1.71705 3.00636,2.45878 9.490416,5.06157 20.346508,6.59035 30.888273,7.83695 1.84676,0.0399 3.85975,0.63848 5.62363,-0.0452 0.98179,-1.21775 -0.26597,-2.82646 -0.64534,-4.06077 -1.08599,-2.71222 -2.81257,-5.39099 -5.51397,-6.64916 -0.99692,-0.18148 -0.80908,-1.39089 0.14051,-1.2693 4.15367,-0.47608 7.35992,3.02416 9.17657,6.34813 1.1588,1.73711 1.53424,3.97557 2.87549,5.55735 2.89841,1.3511 6.23568,0.69924 9.32112,0.72638 2.71285,-0.25251 5.67317,-0.23779 8.09991,-1.61382 1.48886,-1.58456 0.42641,-4.00991 -0.26984,-5.73403 -3.11824,-6.66822 -8.32874,-12.0104 -12.80644,-17.72587 -0.49553,-0.46415 -0.13353,-1.33507 0.57933,-1.00135 3.49146,1.12012 6.25438,3.77675 8.85559,6.26071 4.66344,4.81661 7.58407,10.93911 11.06036,16.55857 2.26604,0.7009 4.77519,-0.13367 7.086687,-0.48724 4.25002,-1.01068 8.75002,-1.87745 12.38585,-4.43298 1.50927,-1.41959 0.37967,-3.71681 -0.30904,-5.28167 -4.65703,-9.00918 -10.62015,-17.26337 -16.576527,-25.44064 -0.22912,-0.32757 -0.77078,-1.41728 0.0808,-0.7894 5.603787,3.86607 10.547937,8.65781 15.260637,13.57452 3.7971,3.9016 6.43027,8.72173 9.4158,13.24652 1.11131,1.4672 3.34343,1.17648 4.92456,0.81741 1.3135,-0.69535 0.49957,-2.5374 0.62088,-3.69259 -0.90478,-11.0044 -5.52178,-21.32582 -10.92467,-30.81333 -2.51978,-4.42109 -6.11334,-8.07199 -9.1274,-12.14218 -1.08386,-1.05614 -2.01235,-3.07192 -3.75888,-3.00076 z"
       id="path1097" />
    <path
       style="display:inline;fill:#e4c172;fill-opacity:1;stroke:none;stroke-width:0;stroke-linecap:round;stroke-miterlimit:4;stroke-dasharray:none;paint-order:fill markers stroke"
       d="m 188.73885,147.38339 c -1.1282,0.34983 -1.462,1.77797 -2.18601,2.60801 -2.85123,4.57876 -6.0662,9.43188 -11.07156,11.85806 -4.17632,1.83635 -8.88997,1.55135 -13.3044,1.21218 -5.13309,-0.65674 -10.47943,-1.88177 -14.69456,-5.07751 -2.84015,-2.08107 -4.60946,-5.17125 -6.95885,-7.71388 -1.8425,-1.83339 -4.67829,-1.25245 -7.01544,-1.28005 -2.49409,0.21756 -5.07021,0.19305 -7.48861,0.86858 -0.83336,0.81096 -0.14683,2.15259 -0.14492,3.1658 0.68651,4.22049 0.0977,8.56211 0.58708,12.82201 0.52398,1.20076 1.8958,0.11002 2.76748,0.0403 3.01308,-0.69572 6.11716,-0.25731 9.20566,-0.38144 1.34666,0.006 3.31763,-0.22995 3.81752,1.42015 0.70422,2.86098 7.1e-4,5.90875 0.80798,8.75879 1.07709,1.83835 2.96344,3.05392 4.62693,4.3261 5.20107,3.72612 11.69791,5.02549 17.97541,5.35057 4.66957,0.15406 9.57691,-0.72418 13.3244,-3.6879 4.56618,-3.5753 8.34273,-8.18907 11.01664,-13.33109 2.02142,-3.69862 1.27524,-8.05417 0.89738,-12.04756 -0.43138,-2.81344 -0.64301,-5.69387 -1.37204,-8.44441 -0.14509,-0.29184 -0.45932,-0.49368 -0.79009,-0.46659 z"
       id="path1107" />
    <path
       style="display:inline;fill:#5a7c1d;fill-opacity:1;stroke:none;stroke-width:0;stroke-linecap:round;stroke-miterlimit:4;stroke-dasharray:none;paint-order:fill markers stroke"
       d="m 187.27031,134.04106 c -1.16012,0.44428 -1.42415,1.94277 -2.12732,2.85393 -2.89606,4.92948 -6.13455,9.96056 -10.95795,13.20872 -5.63243,3.60233 -12.8998,3.65813 -19.2314,2.44875 -3.74391,-0.70922 -6.66654,-3.42629 -8.84021,-6.38272 -2.39038,-2.96518 -4.20453,-6.51619 -7.30205,-8.83547 -3.22582,-2.24502 -7.4004,-1.31248 -10.95889,-0.59025 -1.83034,0.52219 -3.85357,0.64694 -5.52364,1.58808 -0.73511,0.93397 0.43061,2.01008 0.56239,2.99415 1.02401,2.804 1.6522,5.74194 2.56289,8.57191 0.76877,1.00547 2.12041,0.0117 3.11687,0.12084 3.21048,-0.24644 6.54351,-0.70475 9.77672,-0.23622 2.0614,0.51087 3.01993,2.69862 4.39439,4.1207 2.51132,3.3333 5.84198,6.08737 9.80789,7.48689 4.74045,1.80333 9.83951,2.66321 14.90984,2.39079 3.00902,0.0825 6.10142,-0.22475 8.7924,-1.67984 5.31764,-2.81106 8.4154,-8.21578 11.69607,-13.01317 0.34607,-0.75846 1.15622,-1.07874 1.53338,-1.76325 0.009,-1.78748 -0.48007,-3.58583 -0.57557,-5.36079 -0.37205,-2.48585 -0.31965,-5.04185 -0.81323,-7.49993 -0.16762,-0.28685 -0.48631,-0.47352 -0.82258,-0.42316 z"
       id="path1109" />
    <path
       style="display:inline;fill:#71ac2a;fill-opacity:1;stroke:none;stroke-width:0;stroke-linecap:round;stroke-miterlimit:4;stroke-dasharray:none;paint-order:fill markers stroke"
       d="m 142.24554,85.65297 c -6.3854,0.228991 -12.64427,3.032624 -17.18171,7.507952 -2.72469,2.745596 -4.60868,6.570186 -4.15303,10.509828 0.1172,5.05769 2.65895,9.6261 3.42538,14.55663 0.19495,2.12553 -2.18068,3.16684 -3.87191,3.62692 -1.99744,0.56358 -4.15427,0.42619 -6.13849,0.0749 -1.16655,0.41506 -0.18256,1.57615 0.22735,2.20277 2.69288,4.59811 5.1443,9.31796 7.20214,14.2377 0.72254,0.97679 1.83119,-0.16575 2.73918,-0.19456 3.39829,-0.87427 6.81541,-1.71535 10.3559,-1.4706 3.30054,-0.137 5.49485,2.7456 7.29952,5.09274 2.7418,3.6477 5.35393,7.82287 9.4433,10.16526 4.25593,2.08551 9.17528,1.88178 13.78609,1.6743 4.73648,-0.4612 9.42847,-2.44957 12.64149,-6.03853 3.73411,-3.52915 6.14802,-8.12259 8.8691,-12.40828 0.49844,-0.601 1.59926,-0.77345 1.31617,-1.80624 0.11868,-7.157 1.03382,-14.56579 -1.35853,-21.47961 -1.31664,-4.38839 -3.21288,-9.16517 -7.45283,-11.49012 -4.20838,-2.245383 -9.08657,-3.232998 -13.83916,-3.008083 -1.8305,0.07519 -3.50103,1.497013 -5.34512,1.068661 -1.6321,-1.140624 -2.17894,-3.192832 -3.25103,-4.793057 -1.56043,-3.024408 -4.13468,-5.506181 -7.33481,-6.72905 -2.32715,-0.964066 -4.86759,-1.360869 -7.37901,-1.299548 z"
       id="path1115" />
    <path
       style="display:inline;fill:#afd485;fill-opacity:1;stroke:none;stroke-width:0;stroke-linecap:round;stroke-miterlimit:4;stroke-dasharray:none;paint-order:fill markers stroke"
       d="m 162.69674,119.95394 c -4.06034,0.19538 -8.49342,0.53517 -11.84212,3.09157 -4.57527,3.63824 -6.13441,10.82237 -2.81711,15.79333 2.44988,3.90396 6.04019,7.11936 10.15971,9.17648 4.82774,2.1545 10.47406,1.89999 15.41861,0.27529 5.74794,-2.11311 9.0469,-8.36457 8.99384,-14.28279 0.11261,-3.88474 -1.11975,-8.10138 -4.4381,-10.42404 -4.43416,-3.14801 -10.20125,-3.64202 -15.47483,-3.62984 z"
       id="path1119" />
    <path
       style="display:inline;fill:#e4c172;fill-opacity:1;stroke:none;stroke-width:0;stroke-linecap:round;stroke-miterlimit:4;stroke-dasharray:none;paint-order:fill markers stroke"
       d="m 125.90861,165.05275 c -10.26717,2.76352 -20.4442,5.90836 -30.885357,7.91405 -18.97328,3.90876 -38.70202,3.93258 -57.653518,-0.2992 -4.825008,-1.05596 -9.557978,-2.80323 -14.109167,-4.86776 -1.502366,-0.63189 -1.563826,1.45234 -1.495003,2.47877 0.113911,7.38127 -0.338267,15.04765 2.113932,22.10138 1.532381,4.65399 6.107479,6.89322 10.304375,8.14046 8.312323,2.53253 16.912411,4.38523 25.611081,4.07299 12.37893,-0.0442 24.72409,-2.03476 36.69611,-5.27468 9.589067,-2.77856 19.101227,-6.29341 27.687367,-11.63348 2.71346,-1.75431 2.09708,-5.55805 2.35336,-8.38986 0.0975,-4.53548 0.26723,-9.07537 0.20963,-13.61078 -0.16199,-0.38179 -0.39024,-0.71529 -0.83276,-0.63188 z"
       id="path1105" />
    <path
       style="display:inline;fill:#d6982d;fill-opacity:1;stroke:none;stroke-width:0;stroke-linecap:round;stroke-miterlimit:4;stroke-dasharray:none;paint-order:fill markers stroke"
       d="m 96.289633,131.37907 c -1.04979,0.18602 -0.61705,1.40781 -0.11105,1.92682 5.852427,8.31233 12.004047,16.49217 16.528127,25.62885 0.46594,1.20436 1.35075,2.75122 0.45948,3.95617 -1.58332,1.29394 -3.57798,2.00224 -5.46834,2.73507 -3.8225,1.15247 -7.741567,2.13713 -11.731287,2.44437 -0.74658,-0.008 -1.80159,0.13094 -2.04659,-0.82183 -3.77938,-6.29926 -7.1861,-13.09228 -12.92225,-17.89165 -2.05439,-1.81805 -4.35549,-3.56119 -7.0432,-4.27213 -0.87713,-0.24337 -1.64598,0.7524 -1.10409,1.51682 1.79174,2.77847 4.12962,5.16441 6.11753,7.80285 2.92706,3.76308 5.98433,7.64024 7.42251,12.25419 0.30492,1.09221 0.51631,2.7606 -0.82701,3.23322 -2.60038,1.13739 -5.5124,0.99742 -8.2744,1.22549 -2.44355,0.002 -4.95336,0.38366 -7.32663,-0.4306 -1.37235,-0.83135 -1.63261,-2.62259 -2.39848,-3.92992 -1.6704,-3.41248 -4.09155,-7.05155 -7.98918,-8.06603 -1.12323,-0.19282 -2.45583,-0.51712 -3.48578,0.10534 -0.74987,0.60995 -0.44583,1.79958 0.44727,2.08463 3.35736,1.5586 4.96189,5.20023 6.14383,8.46739 0.2319,0.47579 0.22739,1.50045 -0.57071,1.34158 -4.72938,0.0425 -9.393891,-0.77913 -14.057466,-1.47753 -8.174262,-1.29242 -16.3351,-3.45696 -23.506553,-7.77364 -0.671489,-0.50031 -1.554145,-0.0165 -1.566658,0.80552 -0.432341,1.97353 -0.92091,3.9697 -1.00853,5.99068 0.497439,0.98597 1.790971,1.21485 2.664415,1.77921 6.708087,3.29953 14.152072,4.66884 21.481722,5.80079 15.94086,2.28929 32.25642,1.93183 48.07106,-1.12624 10.600887,-2.00211 21.042377,-4.77767 31.390267,-7.80634 0.84916,-0.15185 1.40766,-0.90805 1.28755,-1.76708 0.0574,-1.87024 0.30851,-3.78347 0.13557,-5.62983 -0.53001,-0.87067 -1.69287,-0.0242 -2.51666,-0.18343 -1.00417,0.0407 -2.23873,0.0308 -2.76838,-0.99628 -3.29004,-4.86722 -6.21362,-10.08068 -10.47489,-14.21198 -4.46586,-4.5249 -9.07342,-8.99051 -14.360357,-12.55435 -0.18022,-0.0984 -0.38071,-0.18009 -0.59081,-0.16021 z"
       id="path1103" />
  </g>
</svg>
