<svg id="Layer_1" data-name="Layer 1" xmlns="http://www.w3.org/2000/svg" viewBox="0 0 428.85 258.91"><defs><style>.cls-1{fill:#b6457f;}.cls-2{fill:#f498c0;}.cls-3{fill:#eb82b0;}.cls-4{fill:#f8bcd5;}.cls-5{fill:#ed71ab;}.cls-6{fill:#cc5083;}.cls-7{fill:#675aa7;}.cls-8{fill:#e46b9e;}.cls-9{fill:#b35a86;}.cls-10{fill:#f286b6;}.cls-11{fill:#f5a7c9;}.cls-12{fill:#f9c9de;}.cls-13{fill:none;}.cls-14{fill:#82273f;}.cls-15{fill:#a64362;}.cls-16{fill:#be5c76;}</style></defs><path class="cls-1" d="M283.35,237.38c35-12.52,60.91-20.3,87.26-18.14s0-2.64,70.42,11.42a184.67,184.67,0,0,0,19.54-.36,569.28,569.28,0,0,1,29.1-62.85,1.27,1.27,0,0,0-1.43-.06c-8.36,5.46-21.15,6.65-31.1,6.6a68.94,68.94,0,0,1-21.55-3.56c-27-9.08-90-18-129,.63-35.68,17-65.88,12.66-74.91,10.71a2.34,2.34,0,0,0-1.8.36l31.58,60.05A85,85,0,0,0,283.35,237.38Z" transform="translate(-62 -159)"/><path class="cls-2" d="M228.8,184l-2,53.79.19.21a1.53,1.53,0,0,1,1.95-.68,69.7,69.7,0,0,0,32.52,4.84l-31.57-60.05A2.39,2.39,0,0,0,228.8,184Z" transform="translate(-62 -159)"/><path class="cls-2" d="M485.74,225.26a1.19,1.19,0,0,1,1.58.58h0v.06l2.8-57.43a1.21,1.21,0,0,0-.49-1,577.56,577.56,0,0,0-29.11,62.85C469.18,229.68,478.88,228.28,485.74,225.26Z" transform="translate(-62 -159)"/><path class="cls-3" d="M487.43,164.27s-13.1,12.37-80.58-2.22a130.47,130.47,0,0,0-23.29-2.91c-21.2-.7-61.33.67-94.88,17.45,0,0-25.83,12.19-61.56,3a.94.94,0,0,0-1.16.67.31.31,0,0,0,0,.13c-.8,6.92-4.9,45.07,1,57.81l2-.86s-.54-25.2.27-54.94c0,0,14,11.46,55.06.29,38-10.35,23.37-15.63,86.91-17.95a139.1,139.1,0,0,1,31.09,2.36c23.85,4.52,71.1,11.81,85,1.69C487.27,168.82,490.45,168.8,487.43,164.27Z" transform="translate(-62 -159)"/><path class="cls-4" d="M226.9,238.22s-1.89-4.56,0-4.87c0,0,25.81,17.61,85.3-8.34,0,0,52.83-20.25,128.77,2.85,0,0,23.72,1.95,44.33-5l2.13-58.58H489a1.89,1.89,0,0,1,1.9,1.89.41.41,0,0,1,0,.11l-3.51,59.58s-4,13.73-30.85,14.2S268.48,281.48,226.9,238.22Z" transform="translate(-62 -159)"/><path class="cls-5" d="M487.33,226a1.2,1.2,0,0,0-1.54-.68h-.07c-6.84,3-16.54,4.42-25.15,5.06a187.39,187.39,0,0,1-19.54.36c-70.42-14.07-44.07-9.26-70.42-11.42s-52.27,5.62-87.26,18.14a85.2,85.2,0,0,1-21.91,4.81,69.78,69.78,0,0,1-32.52-4.84,1.54,1.54,0,0,0-2,.84,1.51,1.51,0,0,0,.07,1.31c2.5,4.64,4.9,9.46,7.2,14.39q1.44,3.09,2.83,6.23c5.44-6.33,13.73-13.51,21.7-10.64,13.53,4.86,7.05,19.44,5.75,24-1.14,4-.25-2.15-23.59-4.27,2.93,7.1,5.65,14.23,8.15,21.28.93-.11,1.87-.17,2.81-.19,17,0,30.77,16.2,30.77,36.13,0,11.84-4.84,22.34-12.31,28.94a14.73,14.73,0,0,0,7.84,4.3c1.9.37,4,.71,6.18,1,1.66-1.9,3.41-4,5.25-6.33a52.49,52.49,0,0,1,8,7.78c6.12.48,12.8.84,19.81,1.09,30.63-5,106.7-25,153.71-102.51,7.13-15.55,13.37-28.13,16.26-33.83A1.16,1.16,0,0,0,487.33,226ZM269.75,275.71s34.12-10.87,42.81,5.18-9.89,24.63-15,27.84S300.9,305.06,269.75,275.71Zm55.61,67.58c-5.18,14.08-27.07,11-33,10.2a7.68,7.68,0,0,0-1.17-.09c-.2,0-.22,0,0,0,1.33-.24,10.56-3.65,6.67-36.85,0,0,39.42-5.51,27.54,26.74Z" transform="translate(-62 -159)"/><path class="cls-6" d="M282.59,326.43c0-19.93-13.78-36.13-30.77-36.13-.94,0-1.88.06-2.81.16,8.72,24.4,14.77,46.88,17.71,58.44a14.62,14.62,0,0,0,3.56,6.48C277.71,348.77,282.59,338.26,282.59,326.43Z" transform="translate(-62 -159)"/><path class="cls-6" d="M264.42,273.46c1.27-4.54,7.78-19.12-5.75-24-8-2.86-16.23,4.32-21.68,10.65q1.94,4.5,3.89,9.08C264.19,271.3,263.3,277.48,264.42,273.46Z" transform="translate(-62 -159)"/><path class="cls-6" d="M297.57,308.78c5.1-3.24,23.69-11.79,15-27.84s-42.81-5.18-42.81-5.18C300.9,305.06,292.47,312,297.57,308.78Z" transform="translate(-62 -159)"/><path class="cls-7" d="M291.12,353.4C290.9,353.4,290.92,353.44,291.12,353.4Z" transform="translate(-62 -159)"/><path class="cls-6" d="M297.82,316.55c3.89,33.2-5.34,36.59-6.7,36.85a7.72,7.72,0,0,1,1.18.09c6,.78,27.84,3.88,33-10.2C337.24,311,297.82,316.55,297.82,316.55Z" transform="translate(-62 -159)"/><path class="cls-7" d="M258.83,375.84C258.66,375.69,258.65,375.72,258.83,375.84Z" transform="translate(-62 -159)"/><path class="cls-6" d="M289.51,354.35c-1.83,2.35-3.58,4.43-5.24,6.33,4,.56,8.42,1,13.24,1.41A51.38,51.38,0,0,0,289.51,354.35Z" transform="translate(-62 -159)"/><path class="cls-6" d="M317.32,363.2c41.8,1.46,95.65-1,114.12-1.9a7.29,7.29,0,0,0,6.88-6.55c2.05-19.86,13.7-50.68,25.31-77.45,2.49-5.76,5-11.34,7.4-16.59C424,338.2,348,358.21,317.32,363.2Z" transform="translate(-62 -159)"/><path class="cls-7" d="M291.61,351.48Z" transform="translate(-62 -159)"/><path class="cls-7" d="M259.44,373.83C259.27,373.67,259.27,373.71,259.44,373.83Z" transform="translate(-62 -159)"/><path class="cls-6" d="M290,352.41c-1.84,2.34-3.57,4.43-5.22,6.32,4,.56,8.4,1,13.18,1.41A52.43,52.43,0,0,0,290,352.41Z" transform="translate(-62 -159)"/><polygon class="cls-8" points="2.58 237.02 2.58 237.02 2.58 237.02 2.58 237.02"/><path class="cls-8" d="M317.49,390.3c-20.2,5.45-50.89,6.87-87.23-6.06-26.53-9.43-68.33,3-89,10.38a133.06,133.06,0,0,1-30.17,7c-16.75,1.87-39.82,3.81-43.61.77a4.49,4.49,0,0,1-1-1.21C70,408.73,79.25,421.36,100.92,417c28.86-5.78,97.17-34.06,156.29-17.65,46.54,12.93,61.38-1.38,65.5-14.13C321.42,387.83,319.73,389.7,317.49,390.3Z" transform="translate(-62 -159)"/><path class="cls-9" d="M67.5,402.41c3.79,3,26.86,1.1,43.61-.77a133.06,133.06,0,0,0,30.17-7c20.65-7.39,62.45-19.81,89-10.38,36.34,12.93,67,11.51,87.23,6.06,2.24-.61,3.93-2.42,5.22-5,5.57-11.23,3.28-36.7,3.26-36.95-.39,14.65-2.72,31.09-10.91,34.32-15.34,6.06-44,10.1-69.46,0a68.87,68.87,0,0,0-16-3.89c-11.58-1.54-25.61-1.33-40.62.55-4.46.56-9,1.26-13.59,2.11a250.13,250.13,0,0,0-41.48,11.37A85.45,85.45,0,0,1,123.29,396a116.36,116.36,0,0,1-14.84,2.38c-16.58,1.61-40.33,2.47-42.16-5.64-1.53-6.78-2.71-19.49-3.46-29.68,0,0-.87,21.56,1.76,33h0a17.44,17.44,0,0,0,1.89,5.2A4.57,4.57,0,0,0,67.5,402.41Z" transform="translate(-62 -159)"/><path class="cls-10" d="M66.28,392.72c1.82,8.1,25.59,7.27,42.16,5.64A116.36,116.36,0,0,0,123.28,396,144.09,144.09,0,0,0,110,382.53c-12.94-15.65-10.6-28.17-4-37.26-22.13,2.88-35.4,2.74-41,2.42a2.83,2.83,0,0,0-3,2.63v.4c.16,2.83.43,7.27.8,12.3C63.58,373.23,64.75,385.94,66.28,392.72Z" transform="translate(-62 -159)"/><path class="cls-10" d="M221.17,360.11c4.67,6.93,7.33,13.14,8.43,18.63a67.88,67.88,0,0,1,16,3.89c25.45,10.09,54.12,6.06,69.47,0,8.18-3.24,10.51-19.68,10.9-34.33.2-7.5-.11-14.53-.4-19.06a2.82,2.82,0,0,0-3-2.63h0a2.89,2.89,0,0,0-1.08.29c-3.37,1.69-8.31,2.87-13.48,3.7a111,111,0,0,1-32.75.22c-21.76-3-57.87-2-79.64-.93C203.44,336.89,212.12,346.61,221.17,360.11Z" transform="translate(-62 -159)"/><path class="cls-11" d="M110,382.53A144.09,144.09,0,0,1,123.28,396a84.42,84.42,0,0,0,10.65-3.15,249.37,249.37,0,0,1,41.48-11.44c-11.71-13.56-38.75-19.76-38.75-19.76-8.38-5.69-9-13-6.15-20.23-9.15,1.69-17.31,3-24.53,3.89C99.4,354.36,97.06,366.88,110,382.53Z" transform="translate(-62 -159)"/><path class="cls-12" d="M189,379.29c15-1.88,29-2.09,40.62-.55-1.1-5.49-3.76-11.7-8.43-18.63-9.09-13.5-17.73-23.22-25.54-30.22-3,.14-5.74.29-8.12.42a102.78,102.78,0,0,0-18.86,2.84c-2.15.54-4.27,1.06-6.36,1.54C172.12,343,179.37,357.9,189,379.29Z" transform="translate(-62 -159)"/><path class="cls-12" d="M136.66,361.63s27,6.18,38.74,19.76c4.59-.84,9.13-1.55,13.58-2.1-9.64-21.39-16.84-36.35-26.69-44.62q-17.53,4.15-31.78,6.73C127.62,348.64,128.28,355.94,136.66,361.63Z" transform="translate(-62 -159)"/><path class="cls-13" d="M185.83,342.24l.19-.15c-16.23-21.58-32.78-32-46-36.95C146.5,323.09,181.32,340.11,185.83,342.24Z" transform="translate(-62 -159)"/><path class="cls-13" d="M192.51,339c.3-.07.61-.12.89-.16,26.26-40.37,31.83-63.56,32.25-75.36h0C189.12,254.22,190.88,317.4,192.51,339Z" transform="translate(-62 -159)"/><path class="cls-13" d="M198.65,339.68a6.2,6.2,0,0,1,1.82,3.08c18.62-3.77,77.86-17.68,57.19-38.87C235.84,301.83,211,325.88,198.65,339.68Z" transform="translate(-62 -159)"/><path class="cls-14" d="M186,342.1l-.19.15c-4.51-2.14-39.33-19.16-45.79-37.13-15.74-5.89-26.71-4.07-26.71-4.07s-13,32.27,70.67,46.34c-.44.82-3.12,6.51,7,6.06a10,10,0,0,0,1-.09c-.71-2.38-1.14-4.28-1.16-4.4C189.27,346.56,187.65,344.27,186,342.1Z" transform="translate(-62 -159)"/><path class="cls-14" d="M193.4,338.83a8.72,8.72,0,0,0-.89.16c-1.63-21.61-3.41-84.79,33.14-75.52h0c.26-7.32-1.45-10.3-1.45-10.3s-63.22-8.11-45.7,50.52h0c7.16,13.93,10.76,29.65,12.4,38.93C191.75,341.36,192.59,340.1,193.4,338.83Z" transform="translate(-62 -159)"/><path class="cls-14" d="M277.32,309.83c-3.23-3-15.26-5.15-15.26-5.15a27,27,0,0,0-4.38-.79c20.67,21.21-38.58,35.1-57.19,38.87a6.2,6.2,0,0,0-1.82-3.08c-1.39,1.56-2.62,3-3.67,4.24a5,5,0,0,1,1.82,2.54,18.06,18.06,0,0,1,5.37-.76C294.64,336.23,277.32,309.83,277.32,309.83Z" transform="translate(-62 -159)"/><path class="cls-15" d="M218.12,363.44c-5.15-2.42-17,.91-20.6,0-2.24-.56-4.24-5.95-5.45-10,0,0-3.69,13.24,2.79,14.65s17.61-4.45,21.85-1.62,4.37,11.17,9.89,13.94C225.41,379.19,223.29,365.83,218.12,363.44Z" transform="translate(-62 -159)"/><path class="cls-15" d="M242.68,354.66c-15.15-5.45-43.93,0-43.93,0l2.12.53h0s38.27-2.85,45.54,4c0,0,2.56,13.45,7.94,17.54C251,371.83,253.61,358.6,242.68,354.66Z" transform="translate(-62 -159)"/><path class="cls-16" d="M195,343.91c1-1.22,2.28-2.67,3.67-4.24,12.32-13.79,37.19-37.89,59-35.8a27,27,0,0,1,4.38.79s12.09,2.17,15.29,5.17c0,0-7.38-25.14-48-10,0,0,11.81-35.75-5.15-46.65,0,0,1.71,3,1.45,10.3-.42,11.82-6,35-32.25,75.38-.81,1.25-1.64,2.51-2.5,3.8-1.63-9.28-5.23-25-12.4-38.94-9.63-18.68-25.7-34-52.14-26,0,0-13,12.12-13,23.33,0,0,11-1.82,26.69,4.07,13.21,5,29.76,15.4,46,37q2.43,3.25,4.89,6.85c0,.12.45,2,1.16,4.4a.14.14,0,0,0,0,.09c1.21,4,3.2,9.44,5.45,10,3.63.91,15.45-2.42,20.6,0s7.27,15.75,8.48,17,3.33-3.63,0-11.81c-3.23-7.91-5.88-8.45-25.76-13.41l-2.09-.5s28.78-5.45,43.93,0c10.93,3.94,8.29,17.18,11.67,22.08,1.3,1.89,3.5,2.54,7.71.94,0,0,10.3-4.24-3.63-8.78,0,0-.58-21.81-26.19-22.12-12.17-.14-23.21-1.31-30.08-1.1a18.06,18.06,0,0,0-5.37.76A4.76,4.76,0,0,0,195,343.91Z" transform="translate(-62 -159)"/></svg>