<?xml version="1.0" encoding="UTF-8" standalone="no"?>
<!-- Created with Inkscape (http://www.inkscape.org/) -->

<svg
   xmlns:dc="http://purl.org/dc/elements/1.1/"
   xmlns:cc="http://creativecommons.org/ns#"
   xmlns:rdf="http://www.w3.org/1999/02/22-rdf-syntax-ns#"
   xmlns:svg="http://www.w3.org/2000/svg"
   xmlns="http://www.w3.org/2000/svg"
   xmlns:sodipodi="http://sodipodi.sourceforge.net/DTD/sodipodi-0.dtd"
   xmlns:inkscape="http://www.inkscape.org/namespaces/inkscape"
   inkscape:version="0.92.4 (5da689c313, 2019-01-14)"
   sodipodi:docname="SideTailPatch.svg"
   id="svg8"
   version="1.1"
   viewBox="0 0 8.9360534 9.1672643"
   height="9.1672649mm"
   width="8.9360533mm">
  <defs
     id="defs2">
    <inkscape:path-effect
       effect="powerstroke"
       id="path-effect2126"
       is_visible="true"
       offset_points="1,0.13229166"
       sort_points="true"
       interpolator_type="CubicBezierJohan"
       interpolator_beta="0.2"
       start_linecap_type="zerowidth"
       linejoin_type="extrp_arc"
       miter_limit="4"
       end_linecap_type="zerowidth" />
    <marker
       inkscape:stockid="Arrow1Lstart"
       orient="auto"
       refY="0"
       refX="0"
       id="Arrow1Lstart"
       style="overflow:visible"
       inkscape:isstock="true">
      <path
         id="path5352"
         d="M 0,0 5,-5 -12.5,0 5,5 Z"
         style="fill:#000000;fill-opacity:1;fill-rule:evenodd;stroke:#000000;stroke-width:1.00000003pt;stroke-opacity:1"
         transform="matrix(0.8,0,0,0.8,10,0)"
         inkscape:connector-curvature="0" />
    </marker>
  </defs>
  <sodipodi:namedview
     id="base"
     pagecolor="#ffffff"
     bordercolor="#666666"
     borderopacity="1.0"
     inkscape:pageopacity="0.0"
     inkscape:pageshadow="2"
     inkscape:zoom="2.8284271"
     inkscape:cx="10.451124"
     inkscape:cy="6.4029647"
     inkscape:document-units="mm"
     inkscape:current-layer="layer1"
     showgrid="false"
     inkscape:window-width="1920"
     inkscape:window-height="1007"
     inkscape:window-x="0"
     inkscape:window-y="0"
     inkscape:window-maximized="1"
     showguides="false"
     inkscape:snap-others="false" />
  <metadata
     id="metadata5">
    <rdf:RDF>
      <cc:Work
         rdf:about="">
        <dc:format>image/svg+xml</dc:format>
        <dc:type
           rdf:resource="http://purl.org/dc/dcmitype/StillImage" />
        <dc:title></dc:title>
      </cc:Work>
    </rdf:RDF>
  </metadata>
  <g
     inkscape:label="Layer 1"
     inkscape:groupmode="layer"
     id="layer1"
     transform="translate(26.436431,-129.03563)">
    <path
       style="opacity:1;fill:#919191;fill-opacity:1;stroke:none;stroke-width:0.00025;stroke-linecap:butt;stroke-linejoin:round;stroke-miterlimit:4;stroke-dasharray:none;stroke-opacity:1;paint-order:normal"
       d="m -21.626217,138.17327 c -0.660421,-0.0985 -1.490184,-0.31505 -1.794817,-0.4683 -0.282813,-0.14227 -0.566219,-0.36012 -0.852051,-0.65495 -0.454266,-0.46856 -0.832842,-1.0117 -1.589204,-2.28003 -0.319405,-0.5356 -0.343601,-0.58161 -0.401899,-0.76421 -0.02821,-0.0883 -0.06037,-0.17021 -0.07146,-0.18191 -0.01109,-0.0117 -0.02066,-0.0436 -0.0213,-0.0709 -5.29e-4,-0.0273 -0.01365,-0.13402 -0.02898,-0.23718 -0.06969,-0.46912 -0.06716,-0.98328 0.007,-1.42473 0.267832,-1.59413 1.525838,-2.72131 3.338835,-2.99161 0.656497,-0.0979 1.560814,-0.0821 2.285087,0.04 1.760942,0.29668 2.831396,1.20651 3.161448,2.68706 0.0522,0.23416 0.09318,0.55813 0.09318,0.73664 0,0.92632 -0.479068,2.15064 -1.182087,3.021 -0.191854,0.23752 -0.499303,0.55501 -0.684845,0.70721 -0.500252,0.41035 -0.854265,0.48928 -0.997315,0.22236 -0.268779,-0.43982 -0.61714,-1.37741 -0.551492,-1.96406 0.05959,-0.53252 -0.0067,-0.91489 -0.220998,-1.23064 -0.469493,-0.47693 -0.81665,-0.53451 -1.394481,-0.51724 -0.261044,0.008 -0.878436,0.18136 -0.959906,0.34693 -0.05184,0.10536 -0.05293,0.11229 -0.05212,0.33115 7.94e-4,0.19931 0.0059,0.23878 0.04729,0.3641 0.176567,0.53426 0.578554,1.11642 1.248278,1.80776 0.294142,0.30363 0.405175,0.45196 0.524623,0.70084 0.20909,0.43564 0.311214,0.96541 0.300747,1.56016 l -0.0051,0.29017 z"
       id="path2510"
       inkscape:connector-curvature="0"
       sodipodi:nodetypes="cccccccccsccscccscscccccccc" />
  </g>
</svg>
