# Tiled2Unity generated file. Do not modify by hand.
# Wavefront file for 'testroom_mesh_0001.obj'

# Vertices (Count = 112)
v -437 -48 0
v -534 -48 0
v -534 22 0
v -437 22 0
v -485 -72 0
v -582 -72 0
v -582 -2 0
v -485 -2 0
v -534 -96 0
v -631 -96 0
v -631 -26 0
v -534 -26 0
v -582 -120 0
v -679 -120 0
v -679 -50 0
v -582 -50 0
v -631 -144 0
v -728 -144 0
v -728 -74 0
v -631 -74 0
v -679 -168 0
v -776 -168 0
v -776 -98 0
v -679 -98 0
v -728 -192 0
v -825 -192 0
v -825 -122 0
v -728 -122 0
v -776 -216 0
v -873 -216 0
v -873 -146 0
v -776 -146 0
v -389 -72 0
v -486 -72 0
v -486 -2 0
v -389 -2 0
v -437 -96 0
v -534 -96 0
v -534 -26 0
v -437 -26 0
v -485 -120 0
v -582 -120 0
v -582 -50 0
v -485 -50 0
v -534 -144 0
v -631 -144 0
v -631 -74 0
v -534 -74 0
v -582 -168 0
v -679 -168 0
v -679 -98 0
v -582 -98 0
v -631 -192 0
v -728 -192 0
v -728 -122 0
v -631 -122 0
v -679 -216 0
v -776 -216 0
v -776 -146 0
v -679 -146 0
v -728 -240 0
v -825 -240 0
v -825 -170 0
v -728 -170 0
v -340 -96 0
v -437 -96 0
v -437 -26 0
v -340 -26 0
v -389 -120 0
v -486 -120 0
v -486 -50 0
v -389 -50 0
v -292 -120 0
v -389 -120 0
v -389 -50 0
v -292 -50 0
v -340 -144 0
v -437 -144 0
v -437 -74 0
v -340 -74 0
v -243 -144 0
v -340 -144 0
v -340 -74 0
v -243 -74 0
v -292 -168 0
v -389 -168 0
v -389 -98 0
v -292 -98 0
v -195 -168 0
v -292 -168 0
v -292 -98 0
v -195 -98 0
v -243 -192 0
v -340 -192 0
v -340 -122 0
v -243 -122 0
v -146 -192 0
v -243 -192 0
v -243 -122 0
v -146 -122 0
v -195 -216 0
v -292 -216 0
v -292 -146 0
v -195 -146 0
v -98 -216 0
v -195 -216 0
v -195 -146 0
v -98 -146 0
v -146 -240 0
v -243 -240 0
v -243 -170 0
v -146 -170 0

# Texture cooridinates (Count = 4)
vt 0 0
vt 1 0
vt 1 1
vt 0 1

# Normal
vn 0 0 -1

# Mesh description
g testroom_mesh_0001

# Faces
f 1/1/1 2/2/1 3/3/1 4/4/1
f 5/1/1 6/2/1 7/3/1 8/4/1
f 9/1/1 10/2/1 11/3/1 12/4/1
f 13/1/1 14/2/1 15/3/1 16/4/1
f 17/1/1 18/2/1 19/3/1 20/4/1
f 21/1/1 22/2/1 23/3/1 24/4/1
f 25/1/1 26/2/1 27/3/1 28/4/1
f 29/1/1 30/2/1 31/3/1 32/4/1
f 33/1/1 34/2/1 35/3/1 36/4/1
f 37/1/1 38/2/1 39/3/1 40/4/1
f 41/1/1 42/2/1 43/3/1 44/4/1
f 45/1/1 46/2/1 47/3/1 48/4/1
f 49/1/1 50/2/1 51/3/1 52/4/1
f 53/1/1 54/2/1 55/3/1 56/4/1
f 57/1/1 58/2/1 59/3/1 60/4/1
f 61/1/1 62/2/1 63/3/1 64/4/1
f 65/1/1 66/2/1 67/3/1 68/4/1
f 69/1/1 70/2/1 71/3/1 72/4/1
f 73/1/1 74/2/1 75/3/1 76/4/1
f 77/1/1 78/2/1 79/3/1 80/4/1
f 81/1/1 82/2/1 83/3/1 84/4/1
f 85/1/1 86/2/1 87/3/1 88/4/1
f 89/1/1 90/2/1 91/3/1 92/4/1
f 93/1/1 94/2/1 95/3/1 96/4/1
f 97/1/1 98/2/1 99/3/1 100/4/1
f 101/1/1 102/2/1 103/3/1 104/4/1
f 105/1/1 106/2/1 107/3/1 108/4/1
f 109/1/1 110/2/1 111/3/1 112/4/1

