<?xml version="1.0" encoding="UTF-8" standalone="no"?>
<!-- Generator: Adobe Illustrator 24.2.1, SVG Export Plug-In . SVG Version: 6.00 Build 0)  -->

<svg
   xmlns:dc="http://purl.org/dc/elements/1.1/"
   xmlns:cc="http://creativecommons.org/ns#"
   xmlns:rdf="http://www.w3.org/1999/02/22-rdf-syntax-ns#"
   xmlns:svg="http://www.w3.org/2000/svg"
   xmlns="http://www.w3.org/2000/svg"
   xmlns:sodipodi="http://sodipodi.sourceforge.net/DTD/sodipodi-0.dtd"
   xmlns:inkscape="http://www.inkscape.org/namespaces/inkscape"
   version="1.1"
   id="Layer_1"
   x="0px"
   y="0px"
   viewBox="0 0 242.47522 192.61411"
   xml:space="preserve"
   sodipodi:docname="Back.svg"
   width="242.47522"
   height="192.61411"
   inkscape:version="0.92.4 (5da689c313, 2019-01-14)"><metadata
   id="metadata41"><rdf:RDF><cc:Work
       rdf:about=""><dc:format>image/svg+xml</dc:format><dc:type
         rdf:resource="http://purl.org/dc/dcmitype/StillImage" /><dc:title /></cc:Work></rdf:RDF></metadata><defs
   id="defs39" /><sodipodi:namedview
   pagecolor="#ffffff"
   bordercolor="#666666"
   borderopacity="1"
   objecttolerance="10"
   gridtolerance="10"
   guidetolerance="10"
   inkscape:pageopacity="0"
   inkscape:pageshadow="2"
   inkscape:window-width="1920"
   inkscape:window-height="1007"
   id="namedview37"
   showgrid="false"
   inkscape:zoom="3.0903185"
   inkscape:cx="44.282403"
   inkscape:cy="56.317747"
   inkscape:window-x="0"
   inkscape:window-y="0"
   inkscape:window-maximized="1"
   inkscape:current-layer="Layer_1" />
<style
   type="text/css"
   id="style2">
	.st0{fill:#B3B3B3;}
	.st1{fill:#E6E6E6;}
</style>

<g
   id="g16"
   transform="translate(-78.530216,-140.61589)"
   style="fill:#919191;fill-opacity:1">
	<path
   class="st1"
   d="m 313.65,250.57 c 3.15,-11.12 9.37,-37.83 6.71,-53.29 -3.15,-18.32 -13.08,-36.37 -41.19,-46.02 -31.61,-10.91 -73.22,-10.7 -79.44,-10.63 -6.15,-0.07 -47.76,-0.28 -79.37,10.63 -28.11,9.72 -38.11,27.69 -41.19,46.02 -2.66,15.46 3.64,42.17 6.71,53.29 3.15,11.12 2.38,20.21 1.47,24.62 -0.98,4.34 -3.99,11.61 -1.54,20.42 3.85,13.99 32.52,35.88 113.15,37.62 0,0 0.56,0 0.84,0 0.28,0 0.84,0 0.84,0 80.7,-1.68 109.31,-23.64 113.15,-37.62 2.45,-8.81 -0.63,-16.08 -1.54,-20.42 -0.98,-4.41 -1.75,-13.57 1.4,-24.62 z"
   id="path6"
   inkscape:connector-curvature="0"
   style="fill:#919191;fill-opacity:1" />
	<g
   id="g14"
   style="fill:#919191;fill-opacity:1">
		<path
   class="st0"
   d="m 90.98,257.78 c -0.84,-1.89 -2.94,-4.76 -5.38,-8.39 0.14,0.42 0.21,0.77 0.35,1.19 3.15,11.12 2.38,20.21 1.47,24.62 3.56,-5.12 7.19,-9.03 3.56,-17.42 z"
   id="path8"
   inkscape:connector-curvature="0"
   style="fill:#919191;fill-opacity:1" />
		<path
   class="st0"
   d="m 119.16,177.56 c 22.66,-1.47 51.54,19.51 59.79,22.66 7.41,2.87 18.46,3.71 20.49,3.85 2.03,-0.14 13.08,-0.98 20.49,-3.85 8.18,-3.15 37.13,-24.13 59.79,-22.66 18.32,1.19 32.52,5.66 40.07,16.5 -3.78,-17.13 -14.13,-33.64 -40.56,-42.73 -31.61,-10.91 -73.22,-10.7 -79.44,-10.63 -6.22,-0.14 -47.83,-0.35 -79.44,10.56 -25.74,8.88 -36.3,24.76 -40.28,41.4 7.83,-9.85 21.54,-13.98 39.09,-15.1 z"
   id="path10"
   inkscape:connector-curvature="0"
   style="fill:#919191;fill-opacity:1" />
		<path
   class="st0"
   d="m 314.49,247.57 c -3.01,4.55 -5.66,8.04 -6.57,10.21 -3.71,8.32 0,12.31 3.64,17.34 0.35,0.49 0.7,0.98 1.12,1.54 -0.14,-0.56 -0.28,-1.05 -0.35,-1.54 -0.98,-4.34 -1.68,-13.5 1.47,-24.62 0.13,-0.84 0.41,-1.82 0.69,-2.93 z"
   id="path12"
   inkscape:connector-curvature="0"
   style="fill:#919191;fill-opacity:1" />
	</g>
</g>



</svg>