<?xml version="1.0" encoding="UTF-8" standalone="no"?>
<!-- Generator: Adobe Illustrator 24.2.1, SVG Export Plug-In . SVG Version: 6.00 Build 0)  -->

<svg
   xmlns:dc="http://purl.org/dc/elements/1.1/"
   xmlns:cc="http://creativecommons.org/ns#"
   xmlns:rdf="http://www.w3.org/1999/02/22-rdf-syntax-ns#"
   xmlns:svg="http://www.w3.org/2000/svg"
   xmlns="http://www.w3.org/2000/svg"
   xmlns:sodipodi="http://sodipodi.sourceforge.net/DTD/sodipodi-0.dtd"
   xmlns:inkscape="http://www.inkscape.org/namespaces/inkscape"
   version="1.1"
   id="Layer_1"
   x="0px"
   y="0px"
   viewBox="0 0 213.6317 225.59727"
   xml:space="preserve"
   sodipodi:docname="DiagDown.svg"
   width="213.6317"
   height="225.59726"
   inkscape:version="0.92.4 (5da689c313, 2019-01-14)"><metadata
   id="metadata41"><rdf:RDF><cc:Work
       rdf:about=""><dc:format>image/svg+xml</dc:format><dc:type
         rdf:resource="http://purl.org/dc/dcmitype/StillImage" /><dc:title /></cc:Work></rdf:RDF></metadata><defs
   id="defs39" /><sodipodi:namedview
   pagecolor="#ffffff"
   bordercolor="#666666"
   borderopacity="1"
   objecttolerance="10"
   gridtolerance="10"
   guidetolerance="10"
   inkscape:pageopacity="0"
   inkscape:pageshadow="2"
   inkscape:window-width="1920"
   inkscape:window-height="1007"
   id="namedview37"
   showgrid="false"
   inkscape:zoom="3.0903185"
   inkscape:cx="86.00314"
   inkscape:cy="99.169417"
   inkscape:window-x="0"
   inkscape:window-y="0"
   inkscape:window-maximized="1"
   inkscape:current-layer="g34" />
<style
   type="text/css"
   id="style2">
	.st0{fill:#B3B3B3;}
	.st1{fill:#E6E6E6;}
</style>




<g
   id="g34"
   transform="translate(-526.0231,-124.07274)">
	<path
   class="st0"
   d="m 577.15,129.4 c 14.39,-8.62 49.15,-6.95 77.38,6.26 28.37,13.21 71.89,42.62 80.51,83.36 8.62,40.74 4.45,74.04 -6.6,89.34 -11.05,15.3 -37.4,37.4 -66.26,40.95 -24.26,2.99 -57.5,-17.1 -77.87,-34.14 -13.14,-10.92 -24.82,-21.48 -39.56,-33.93 -21.41,-18.08 -19.88,-44.43 -17.24,-63.27 2.92,-20.01 22.18,-72.09 49.64,-88.57 z"
   id="path26"
   inkscape:connector-curvature="0"
   style="fill:#919191;fill-opacity:1" />
	<g
   id="g32"
   style="fill:#bfbfbf;fill-opacity:1">
		<path
   class="st1"
   d="m 671.22,324.91 c -1.95,-5.21 -6.12,-7.93 -2.02,-13.28 3.68,-4.87 26.35,-21.48 12.58,-62.64 -15.37,-46.03 -84.47,-33.09 -95.25,-35.25 -7.79,-1.53 -15.64,-4.52 -19.05,-19.12 -3.41,-14.53 -7.37,-22.11 -13.14,-25.17 -5.7,-3.06 -11.4,3.34 -11.47,3.41 -8.48,17.45 -13.91,35.18 -15.3,45.19 -2.64,18.84 -4.17,45.19 17.24,63.27 14.67,12.45 26.42,22.94 39.56,33.93 18.98,15.85 49.08,34.42 72.72,34.42 15.87,-3.21 17.26,-16.21 14.13,-24.76 z"
   id="path28"
   inkscape:connector-curvature="0"
   style="fill:#bfbfbf;fill-opacity:1" />
		
	</g>
</g>
</svg>