<?xml version="1.0" encoding="UTF-8" standalone="no"?>
<!-- Generator: Adobe Illustrator 24.2.1, SVG Export Plug-In . SVG Version: 6.00 Build 0)  -->

<svg
   xmlns:dc="http://purl.org/dc/elements/1.1/"
   xmlns:cc="http://creativecommons.org/ns#"
   xmlns:rdf="http://www.w3.org/1999/02/22-rdf-syntax-ns#"
   xmlns:svg="http://www.w3.org/2000/svg"
   xmlns="http://www.w3.org/2000/svg"
   xmlns:sodipodi="http://sodipodi.sourceforge.net/DTD/sodipodi-0.dtd"
   xmlns:inkscape="http://www.inkscape.org/namespaces/inkscape"
   version="1.1"
   id="Layer_1"
   x="0px"
   y="0px"
   viewBox="0 0 223.952 229.85062"
   xml:space="preserve"
   sodipodi:docname="Side.svg"
   width="223.952"
   height="229.85062"
   inkscape:version="0.92.4 (5da689c313, 2019-01-14)"><metadata
   id="metadata41"><rdf:RDF><cc:Work
       rdf:about=""><dc:format>image/svg+xml</dc:format><dc:type
         rdf:resource="http://purl.org/dc/dcmitype/StillImage" /><dc:title /></cc:Work></rdf:RDF></metadata><defs
   id="defs39" /><sodipodi:namedview
   pagecolor="#ffffff"
   bordercolor="#666666"
   borderopacity="1"
   objecttolerance="10"
   gridtolerance="10"
   guidetolerance="10"
   inkscape:pageopacity="0"
   inkscape:pageshadow="2"
   inkscape:window-width="1920"
   inkscape:window-height="1007"
   id="namedview37"
   showgrid="false"
   inkscape:zoom="2.1851852"
   inkscape:cx="6.9770522"
   inkscape:cy="102.77778"
   inkscape:window-x="0"
   inkscape:window-y="0"
   inkscape:window-maximized="1"
   inkscape:current-layer="Layer_1" />
<style
   type="text/css"
   id="style2">
	.st0{fill:#B3B3B3;}
	.st1{fill:#E6E6E6;}
</style>


<g
   id="g22"
   transform="translate(-118.62251,-545.45939)">
	<path
   class="st0"
   d="m 253.15,545.83 c 0,0 -23.46,-2.79 -49.03,6.94 -22.48,8.6 -41.04,23.76 -49.03,41.04 -8.22,17.58 -9.96,31 -11.92,46.39 -1.89,14.79 -8.15,45.11 -5.43,73.55 2.34,24.52 15.77,61.56 67.59,61.56 53.26,0 90.22,-21.27 113.68,-45.79 28.44,-29.8 25.95,-77.17 19.09,-100.33 -8.01,-27.46 -34.41,-78.83 -84.95,-83.36 z"
   id="path18"
   inkscape:connector-curvature="0"
   style="fill:#919191;fill-opacity:1" />
	<path
   class="st1"
   d="m 222.9,766.56 c 0.3,-3.7 -4,-7.02 -3.62,-11.99 0.53,-6.79 1.96,-10.64 13.35,-29.65 11.47,-19.01 7.54,-47.53 -7.69,-62.76 -20.82,-20.82 -48.58,-14.71 -62.39,-15.99 -10.41,-0.98 -16.52,-6.86 -18.86,-9.73 -0.15,1.21 -0.3,2.49 -0.45,3.7 -1.89,14.79 -8.15,45.11 -5.43,73.55 2.34,24.52 15.77,61.56 67.59,61.56 4,0 7.92,-0.15 11.77,-0.38 3.09,-2.57 5.5,-5.37 5.73,-8.31 z"
   id="path20"
   inkscape:connector-curvature="0"
   style="fill:#bfbfbf;fill-opacity:1" />
</g>
<path
   class="st1"
   d="m 23.557493,116.33061 c -8.22,5.51 -19.9199999,12.15 -22.92999989,17.28 -3.02000001,5.13 4.74999999,30.48 25.71999989,45.19 0,0 5.51,-9.58 4.38,-34.55 -1.14,-24.98 -7.17,-27.92 -7.17,-27.92 z"
   id="path24"
   inkscape:connector-curvature="0"
   style="fill:#bfbfbf;fill-opacity:1" />

</svg>