# Tiled2Unity generated file. Do not modify by hand.
# Wavefront file for 'test_map_mesh_0012.obj'

# Vertices (Count = 292)
v -2183 -2064 0
v -2280 -2064 0
v -2280 -1994 0
v -2183 -1994 0
v -1747 -1848 0
v -1844 -1848 0
v -1844 -1778 0
v -1747 -1778 0
v -1650 -1800 0
v -1747 -1800 0
v -1747 -1730 0
v -1650 -1730 0
v -1504 -1728 0
v -1601 -1728 0
v -1601 -1658 0
v -1504 -1658 0
v -1407 -1680 0
v -1504 -1680 0
v -1504 -1610 0
v -1407 -1610 0
v -2280 -2064 0
v -2377 -2064 0
v -2377 -1994 0
v -2280 -1994 0
v -2135 -1992 0
v -2232 -1992 0
v -2232 -1922 0
v -2135 -1922 0
v -1844 -1848 0
v -1941 -1848 0
v -1941 -1778 0
v -1844 -1778 0
v -1795 -1824 0
v -1892 -1824 0
v -1892 -1754 0
v -1795 -1754 0
v -1601 -1728 0
v -1698 -1728 0
v -1698 -1658 0
v -1601 -1658 0
v -1504 -1680 0
v -1601 -1680 0
v -1601 -1610 0
v -1504 -1610 0
v -1456 -1656 0
v -1553 -1656 0
v -1553 -1586 0
v -1456 -1586 0
v -2232 -1992 0
v -2329 -1992 0
v -2329 -1922 0
v -2232 -1922 0
v -1892 -1824 0
v -1989 -1824 0
v -1989 -1754 0
v -1892 -1754 0
v -1844 -1800 0
v -1941 -1800 0
v -1941 -1730 0
v -1844 -1730 0
v -1698 -1728 0
v -1795 -1728 0
v -1795 -1658 0
v -1698 -1658 0
v -1650 -1704 0
v -1747 -1704 0
v -1747 -1634 0
v -1650 -1634 0
v -1456 -1608 0
v -1553 -1608 0
v -1553 -1538 0
v -1456 -1538 0
v -2135 -1896 0
v -2232 -1896 0
v -2232 -1826 0
v -2135 -1826 0
v -1456 -1560 0
v -1553 -1560 0
v -1553 -1490 0
v -1456 -1490 0
v -2571 -2064 0
v -2668 -2064 0
v -2668 -1994 0
v -2571 -1994 0
v -2183 -1872 0
v -2280 -1872 0
v -2280 -1802 0
v -2183 -1802 0
v -2038 -1800 0
v -2135 -1800 0
v -2135 -1730 0
v -2038 -1730 0
v -1989 -1776 0
v -2086 -1776 0
v -2086 -1706 0
v -1989 -1706 0
v -1844 -1704 0
v -1941 -1704 0
v -1941 -1634 0
v -1844 -1634 0
v -1747 -1608 0
v -1844 -1608 0
v -1844 -1538 0
v -1747 -1538 0
v -2668 -2016 0
v -2765 -2016 0
v -2765 -1946 0
v -2668 -1946 0
v -2038 -1704 0
v -2135 -1704 0
v -2135 -1634 0
v -2038 -1634 0
v -1844 -1608 0
v -1941 -1608 0
v -1941 -1538 0
v -1844 -1538 0
v -971 -1176 0
v -1068 -1176 0
v -1068 -1106 0
v -971 -1106 0
v -922 -1152 0
v -1019 -1152 0
v -1019 -1082 0
v -922 -1082 0
v -1310 -1296 0
v -1407 -1296 0
v -1407 -1226 0
v -1310 -1226 0
v -1310 -1248 0
v -1407 -1248 0
v -1407 -1178 0
v -1310 -1178 0
v -2668 -1824 0
v -2765 -1824 0
v -2765 -1754 0
v -2668 -1754 0
v -1213 -1104 0
v -1310 -1104 0
v -1310 -1034 0
v -1213 -1034 0
v -2280 -1584 0
v -2377 -1584 0
v -2377 -1514 0
v -2280 -1514 0
v -2619 -1704 0
v -2716 -1704 0
v -2716 -1634 0
v -2619 -1634 0
v -2377 -1584 0
v -2474 -1584 0
v -2474 -1514 0
v -2377 -1514 0
v -1601 -1200 0
v -1698 -1200 0
v -1698 -1130 0
v -1601 -1130 0
v -1504 -1152 0
v -1601 -1152 0
v -1601 -1082 0
v -1504 -1082 0
v -2910 -1800 0
v -3007 -1800 0
v -3007 -1730 0
v -2910 -1730 0
v -3056 -1824 0
v -3153 -1824 0
v -3153 -1754 0
v -3056 -1754 0
v -2813 -1704 0
v -2910 -1704 0
v -2910 -1634 0
v -2813 -1634 0
v -2765 -1680 0
v -2862 -1680 0
v -2862 -1610 0
v -2765 -1610 0
v -2232 -1416 0
v -2329 -1416 0
v -2329 -1346 0
v -2232 -1346 0
v -2135 -1368 0
v -2232 -1368 0
v -2232 -1298 0
v -2135 -1298 0
v -2086 -1344 0
v -2183 -1344 0
v -2183 -1274 0
v -2086 -1274 0
v -1262 -936 0
v -1359 -936 0
v -1359 -866 0
v -1262 -866 0
v -2571 -1536 0
v -2668 -1536 0
v -2668 -1466 0
v -2571 -1466 0
v -2474 -1488 0
v -2571 -1488 0
v -2571 -1418 0
v -2474 -1418 0
v -2425 -1464 0
v -2522 -1464 0
v -2522 -1394 0
v -2425 -1394 0
v -3153 -1776 0
v -3250 -1776 0
v -3250 -1706 0
v -3153 -1706 0
v -2086 -1248 0
v -2183 -1248 0
v -2183 -1178 0
v -2086 -1178 0
v -2280 -1248 0
v -2377 -1248 0
v -2377 -1178 0
v -2280 -1178 0
v -2619 -1368 0
v -2716 -1368 0
v -2716 -1298 0
v -2619 -1298 0
v -2086 -1104 0
v -2183 -1104 0
v -2183 -1034 0
v -2086 -1034 0
v -1941 -936 0
v -2038 -936 0
v -2038 -866 0
v -1941 -866 0
v -3541 -1680 0
v -3638 -1680 0
v -3638 -1610 0
v -3541 -1610 0
v -3638 -1584 0
v -3735 -1584 0
v -3735 -1514 0
v -3638 -1514 0
v -2910 -1176 0
v -3007 -1176 0
v -3007 -1106 0
v -2910 -1106 0
v -2716 -1080 0
v -2813 -1080 0
v -2813 -1010 0
v -2716 -1010 0
v -2377 -912 0
v -2474 -912 0
v -2474 -842 0
v -2377 -842 0
v -3686 -1512 0
v -3783 -1512 0
v -3783 -1442 0
v -3686 -1442 0
v -3347 -1344 0
v -3444 -1344 0
v -3444 -1274 0
v -3347 -1274 0
v -3056 -1200 0
v -3153 -1200 0
v -3153 -1130 0
v -3056 -1130 0
v -2716 -1032 0
v -2813 -1032 0
v -2813 -962 0
v -2716 -962 0
v -2280 -768 0
v -2377 -768 0
v -2377 -698 0
v -2280 -698 0
v -2522 -840 0
v -2619 -840 0
v -2619 -770 0
v -2522 -770 0
v -3347 -1200 0
v -3444 -1200 0
v -3444 -1130 0
v -3347 -1130 0
v -3250 -1056 0
v -3347 -1056 0
v -3347 -986 0
v -3250 -986 0
v -3492 -1080 0
v -3589 -1080 0
v -3589 -1010 0
v -3492 -1010 0
v -3347 -1008 0
v -3444 -1008 0
v -3444 -938 0
v -3347 -938 0
v -3250 -960 0
v -3347 -960 0
v -3347 -890 0
v -3250 -890 0

# Texture cooridinates (Count = 4)
vt 0 0
vt 1 0
vt 1 1
vt 0 1

# Normal
vn 0 0 -1

# Mesh description
g test_map_mesh_0012

# Faces
f 1/1/1 2/2/1 3/3/1 4/4/1
f 5/1/1 6/2/1 7/3/1 8/4/1
f 9/1/1 10/2/1 11/3/1 12/4/1
f 13/1/1 14/2/1 15/3/1 16/4/1
f 17/1/1 18/2/1 19/3/1 20/4/1
f 21/1/1 22/2/1 23/3/1 24/4/1
f 25/1/1 26/2/1 27/3/1 28/4/1
f 29/1/1 30/2/1 31/3/1 32/4/1
f 33/1/1 34/2/1 35/3/1 36/4/1
f 37/1/1 38/2/1 39/3/1 40/4/1
f 41/1/1 42/2/1 43/3/1 44/4/1
f 45/1/1 46/2/1 47/3/1 48/4/1
f 49/1/1 50/2/1 51/3/1 52/4/1
f 53/1/1 54/2/1 55/3/1 56/4/1
f 57/1/1 58/2/1 59/3/1 60/4/1
f 61/1/1 62/2/1 63/3/1 64/4/1
f 65/1/1 66/2/1 67/3/1 68/4/1
f 69/1/1 70/2/1 71/3/1 72/4/1
f 73/1/1 74/2/1 75/3/1 76/4/1
f 77/1/1 78/2/1 79/3/1 80/4/1
f 81/1/1 82/2/1 83/3/1 84/4/1
f 85/1/1 86/2/1 87/3/1 88/4/1
f 89/1/1 90/2/1 91/3/1 92/4/1
f 93/1/1 94/2/1 95/3/1 96/4/1
f 97/1/1 98/2/1 99/3/1 100/4/1
f 101/1/1 102/2/1 103/3/1 104/4/1
f 105/1/1 106/2/1 107/3/1 108/4/1
f 109/1/1 110/2/1 111/3/1 112/4/1
f 113/1/1 114/2/1 115/3/1 116/4/1
f 117/1/1 118/2/1 119/3/1 120/4/1
f 121/1/1 122/2/1 123/3/1 124/4/1
f 125/1/1 126/2/1 127/3/1 128/4/1
f 129/1/1 130/2/1 131/3/1 132/4/1
f 133/1/1 134/2/1 135/3/1 136/4/1
f 137/1/1 138/2/1 139/3/1 140/4/1
f 141/1/1 142/2/1 143/3/1 144/4/1
f 145/1/1 146/2/1 147/3/1 148/4/1
f 149/1/1 150/2/1 151/3/1 152/4/1
f 153/1/1 154/2/1 155/3/1 156/4/1
f 157/1/1 158/2/1 159/3/1 160/4/1
f 161/1/1 162/2/1 163/3/1 164/4/1
f 165/1/1 166/2/1 167/3/1 168/4/1
f 169/1/1 170/2/1 171/3/1 172/4/1
f 173/1/1 174/2/1 175/3/1 176/4/1
f 177/1/1 178/2/1 179/3/1 180/4/1
f 181/1/1 182/2/1 183/3/1 184/4/1
f 185/1/1 186/2/1 187/3/1 188/4/1
f 189/1/1 190/2/1 191/3/1 192/4/1
f 193/1/1 194/2/1 195/3/1 196/4/1
f 197/1/1 198/2/1 199/3/1 200/4/1
f 201/1/1 202/2/1 203/3/1 204/4/1
f 205/1/1 206/2/1 207/3/1 208/4/1
f 209/1/1 210/2/1 211/3/1 212/4/1
f 213/1/1 214/2/1 215/3/1 216/4/1
f 217/1/1 218/2/1 219/3/1 220/4/1
f 221/1/1 222/2/1 223/3/1 224/4/1
f 225/1/1 226/2/1 227/3/1 228/4/1
f 229/1/1 230/2/1 231/3/1 232/4/1
f 233/1/1 234/2/1 235/3/1 236/4/1
f 237/1/1 238/2/1 239/3/1 240/4/1
f 241/1/1 242/2/1 243/3/1 244/4/1
f 245/1/1 246/2/1 247/3/1 248/4/1
f 249/1/1 250/2/1 251/3/1 252/4/1
f 253/1/1 254/2/1 255/3/1 256/4/1
f 257/1/1 258/2/1 259/3/1 260/4/1
f 261/1/1 262/2/1 263/3/1 264/4/1
f 265/1/1 266/2/1 267/3/1 268/4/1
f 269/1/1 270/2/1 271/3/1 272/4/1
f 273/1/1 274/2/1 275/3/1 276/4/1
f 277/1/1 278/2/1 279/3/1 280/4/1
f 281/1/1 282/2/1 283/3/1 284/4/1
f 285/1/1 286/2/1 287/3/1 288/4/1
f 289/1/1 290/2/1 291/3/1 292/4/1

