<?xml version="1.0" encoding="UTF-8" standalone="no"?>
<svg xmlns:xlink="http://www.w3.org/1999/xlink" height="196.4px" width="130.8px" xmlns="http://www.w3.org/2000/svg">
  <g transform="matrix(4.0, 0.0, 0.0, 4.0, 69.0, 98.0)">
    <path d="M-16.8 -9.1 Q-16.95 -12.95 -16.6 -15.5 -15.3 -25.45 -6.35 -24.4 3.65 -23.5 8.95 -20.3 14.3 -17.05 15.25 -11.25 12.1 -15.15 6.25 -15.6 0.0 -16.1 -6.45 -12.4 L-11.0 -10.1 Q-13.55 -9.1 -16.8 -9.1 M13.95 1.95 L13.05 5.65 Q12.85 6.4 13.4 9.25 L13.7 11.25 Q13.2 9.45 11.9 7.35 11.5 6.8 12.05 5.75 L13.55 2.9 13.95 1.95" fill="#9f2487" fill-rule="evenodd" stroke="none"/>
    <path d="M-16.8 -9.1 Q-13.55 -9.1 -11.0 -10.1 L-6.45 -12.4 Q0.0 -16.1 6.25 -15.6 12.1 -15.15 15.25 -11.25 L15.3 -11.2 Q15.95 -3.3 13.95 1.95 L13.55 2.9 12.05 5.75 Q11.5 6.8 11.9 7.35 13.2 9.45 13.7 11.25 14.1 12.85 13.9 14.2 13.5 17.05 10.05 19.5 2.75 24.6 -16.1 24.6 -16.8 11.5 -17.25 -9.1 L-16.8 -9.1" fill="#eba5dd" fill-rule="evenodd" stroke="none"/>
  </g>
</svg>
