<?xml version="1.0" encoding="UTF-8" standalone="no"?>
<svg xmlns:xlink="http://www.w3.org/1999/xlink" height="93.2px" width="93.4px" xmlns="http://www.w3.org/2000/svg">
  <g transform="matrix(4.0, 0.0, 0.0, 4.0, 54.0, 44.0)">
    <path d="M0.95 12.3 L-3.2 11.65 Q-5.6 10.9 -6.35 10.05 -3.85 4.6 -0.35 -0.75 3.6 -6.65 4.85 -6.0 8.6 0.05 6.7 6.25 4.95 11.95 0.95 12.3" fill="#ffffff" fill-rule="evenodd" stroke="none"/>
    <path d="M-10.0 7.6 Q-12.95 4.65 -13.4 2.1 -9.0 -7.6 -2.8 -8.6 3.65 -7.95 4.4 0.0 4.25 6.4 -0.8 8.4 -5.3 10.2 -10.0 7.6" fill="#000000" fill-rule="evenodd" stroke="none"/>
    <path d="M-1.9 6.85 Q-1.8 5.2 -0.2 5.15 0.5 5.2 0.85 5.8 1.2 6.35 1.05 7.05 0.7 8.4 -0.55 8.2 -1.75 8.05 -1.9 6.85 M-2.25 -3.25 Q-1.25 -2.15 -1.25 -0.65 -1.25 0.85 -2.25 1.95 -3.35 3.2 -5.1 3.2 -6.9 3.2 -7.95 2.05 -8.95 1.0 -8.95 -0.65 -8.95 -2.3 -7.9 -3.35 -6.85 -4.5 -5.1 -4.5 -3.4 -4.5 -2.25 -3.25" fill="#ffffff" fill-rule="evenodd" stroke="none"/>
    <path d="M9.2 -3.85 Q7.8 -2.4 4.2 -4.45 -2.45 -8.2 -7.45 -4.8 -10.4 -2.75 -13.5 2.9 -13.3 -2.8 -9.25 -6.3 L-5.95 -8.7 Q-4.15 -10.0 -3.5 -11.0 -3.25 -10.25 -3.4 -9.55 -3.6 -8.75 -4.25 -8.5 L-1.25 -9.1 Q0.15 -9.55 2.0 -10.95 2.1 -9.95 1.7 -9.2 L0.8 -8.3 Q2.4 -8.05 6.8 -5.15 8.1 -4.3 8.65 -4.45 9.4 -4.6 9.55 -6.4 10.3 -5.05 9.2 -3.85" fill="#59154d" fill-rule="evenodd" stroke="none"/>
  </g>
</svg>
