<?xml version="1.0" encoding="UTF-8" standalone="no"?>
<svg xmlns:xlink="http://www.w3.org/1999/xlink" height="70.0px" width="93.4px" xmlns="http://www.w3.org/2000/svg">
  <g transform="matrix(4.0, 0.0, 0.0, 4.0, 53.0, 31.0)">
    <path d="M5.1 -4.0 Q8.85 0.55 6.95 5.2 5.2 9.45 1.2 9.75 L-2.95 9.25 Q-5.35 8.7 -6.1 8.05 -3.6 3.95 -0.1 -0.05 3.85 -4.5 5.1 -4.0" fill="#ffffff" fill-rule="evenodd" stroke="none"/>
    <path d="M-9.9 6.3 Q-6.05 8.0 -2.2 7.95 1.6 7.9 4.2 4.85 6.75 1.75 4.7 -1.95 2.6 -5.65 -2.55 -5.95 -0.25 -5.0 0.25 -2.9 0.75 -1.0 -0.35 1.3 -2.45 5.85 -9.9 6.3 -8.05 7.5 -5.75 8.2 -2.6 9.2 0.05 8.75 4.8 7.9 6.25 4.05 7.65 0.3 4.9 -3.25 3.85 -4.55 1.35 -5.4 L-2.55 -5.95 1.35 -5.4 Q3.85 -4.55 4.9 -3.25 7.65 0.3 6.25 4.05 4.8 7.9 0.05 8.75 -2.6 9.2 -5.75 8.2 -8.05 7.5 -9.9 6.3 -2.45 5.85 -0.35 1.3 0.75 -1.0 0.25 -2.9 -0.25 -5.0 -2.55 -5.95 2.6 -5.65 4.7 -1.95 6.75 1.75 4.2 4.85 1.6 7.9 -2.2 7.95 -6.05 8.0 -9.9 6.3" fill="#1466b8" fill-rule="evenodd" stroke="none"/>
    <path d="M-9.75 6.2 Q-12.8 3.9 -13.15 2.1 -8.75 -5.2 -2.55 -5.95 3.9 -5.45 4.65 0.5 4.25 6.05 -1.7 7.05 -6.3 7.85 -9.75 6.2" fill="#000000" fill-rule="evenodd" stroke="none"/>
    <path d="M-4.85 -2.85 Q-2.75 -2.85 -1.65 -1.5 -1.0 -0.7 -1.0 0.0 -1.0 1.0 -1.65 1.75 -2.6 2.9 -4.85 2.9 -7.1 2.9 -8.05 1.75 -8.7 1.0 -8.7 0.0 -8.7 -0.95 -8.05 -1.7 -7.05 -2.85 -4.85 -2.85 M-0.35 6.65 Q-1.5 6.55 -1.65 5.65 -1.55 4.4 0.05 4.35 0.75 4.4 1.1 4.85 1.45 5.25 1.3 5.8 0.9 6.8 -0.3 6.65 L-0.35 6.65" fill="#ffffff" fill-rule="evenodd" stroke="none"/>
    <path d="M9.45 -2.4 Q8.05 -1.3 4.45 -2.85 -5.8 -7.65 -13.25 2.7 -12.9 -1.8 -8.85 -4.4 L-3.25 -7.75 Q-3.0 -7.2 -3.15 -6.65 -3.35 -6.05 -4.0 -5.85 L-1.0 -6.3 Q0.4 -6.65 2.25 -7.7 2.35 -6.95 1.95 -6.4 L1.05 -5.7 Q2.65 -5.55 7.05 -3.35 8.35 -2.7 8.9 -2.85 9.65 -2.95 9.8 -4.3 10.55 -3.3 9.45 -2.4" fill="#59154d" fill-rule="evenodd" stroke="none"/>
  </g>
</svg>
