<?xml version="1.0" encoding="UTF-8" standalone="no"?>
<svg xmlns:xlink="http://www.w3.org/1999/xlink" height="70.0px" width="93.4px" xmlns="http://www.w3.org/2000/svg">
  <g transform="matrix(4.0, 0.0, 0.0, 4.0, 39.2, 33.0)">
    <path d="M-1.05 9.25 Q-5.05 8.95 -6.8 4.7 -8.7 0.05 -4.95 -4.5 -3.7 -5.0 0.25 -0.55 3.75 3.45 6.25 7.55 5.5 8.2 3.1 8.75 L-1.05 9.25" fill="#ffffff" fill-rule="evenodd" stroke="none"/>
    <path d="M9.7 5.9 L7.05 7.3 Q3.35 8.85 0.15 8.3 -4.6 7.4 -6.05 3.55 -7.45 -0.2 -4.7 -3.75 -2.85 -6.2 1.1 -6.5 L2.5 -6.4 Q-2.1 -6.2 -4.25 -2.7 -6.5 0.9 -3.75 4.6 -1.75 7.3 3.0 7.4 6.6 7.45 9.7 5.9" fill="#1466b8" fill-rule="evenodd" stroke="none"/>
    <path d="M2.5 -6.4 Q1.35 -6.05 0.5 -4.15 -0.45 -1.95 0.3 0.4 2.0 5.85 9.7 5.9 6.6 7.45 3.0 7.4 -1.75 7.3 -3.75 4.6 -6.5 0.9 -4.25 -2.7 -2.1 -6.2 2.5 -6.4" fill="#479aeb" fill-rule="evenodd" stroke="none"/>
    <path d="M12.0 3.75 Q10.85 5.25 9.95 5.7 4.2 7.85 -0.2 5.9 -4.4 4.05 -4.45 0.0 -3.7 -5.95 2.7 -6.4 8.95 -5.65 13.3 1.6 13.05 2.4 12.0 3.75" fill="#000000" fill-rule="evenodd" stroke="none"/>
    <path d="M8.9 -0.5 Q8.9 0.45 8.05 1.3 6.95 2.4 5.05 2.4 3.15 2.4 2.05 1.25 1.2 0.4 1.2 -0.5 1.2 -1.45 2.0 -2.25 3.05 -3.35 5.05 -3.35 6.9 -3.35 8.0 -2.3 8.9 -1.4 8.9 -0.5 M1.85 5.15 Q1.7 6.05 0.5 6.15 -0.7 6.3 -1.1 5.3 -1.3 4.75 -0.9 4.35 -0.55 3.95 0.1 3.85 1.7 3.95 1.85 5.15" fill="#ffffff" fill-rule="evenodd" stroke="none"/>
    <path d="M4.3 -6.35 Q3.7 -6.55 3.5 -7.15 3.3 -7.7 3.55 -8.25 4.2 -7.45 5.9 -6.6 L9.1 -4.95 Q13.1 -2.5 13.55 2.2 10.6 -2.0 7.4 -3.65 2.3 -6.25 -4.15 -3.35 -7.7 -1.8 -9.1 -2.9 -10.25 -3.8 -9.5 -4.8 -9.3 -3.45 -8.6 -3.35 -8.05 -3.2 -6.7 -3.85 -2.3 -6.05 -0.7 -6.2 -1.3 -6.4 -1.65 -6.9 -2.05 -7.45 -1.9 -8.2 -0.1 -7.15 1.3 -6.8 L4.3 -6.35" fill="#59154d" fill-rule="evenodd" stroke="none"/>
  </g>
</svg>
