<?xml version="1.0" encoding="UTF-8" standalone="no"?>
<svg xmlns:xlink="http://www.w3.org/1999/xlink" height="32.8px" width="93.2px" xmlns="http://www.w3.org/2000/svg">
  <g transform="matrix(4.0, 0.0, 0.0, 4.0, 51.6, 21.4)">
    <path d="M0.35 -4.5 Q0.15 -4.9 0.4 -5.35 L6.15 -2.55 Q10.05 -0.65 10.4 2.85 4.35 -1.4 -3.4 -0.9 L-8.55 -0.4 Q-10.95 -0.25 -12.1 -1.05 -13.4 -1.85 -12.65 -2.65 -12.45 -1.55 -11.75 -1.5 L-9.85 -1.9 Q-5.45 -3.6 -3.85 -3.75 L-4.8 -4.3 Q-5.2 -4.7 -5.05 -5.3 -3.25 -4.5 -1.85 -4.2 L1.15 -3.85 Q0.55 -4.0 0.35 -4.5" fill="#59154d" fill-rule="evenodd" stroke="none"/>
  </g>
</svg>
