<?xml version="1.0" encoding="UTF-8" standalone="no"?>
<svg xmlns:xlink="http://www.w3.org/1999/xlink" height="37.0px" width="29.6px" xmlns="http://www.w3.org/2000/svg">
  <g transform="matrix(4.0, 0.0, 0.0, 4.0, 14.8, 14.2)">
    <path d="M-2.5 4.7 L-2.55 4.65 -2.5 4.65 -2.5 4.7" fill="#684d0f" fill-rule="evenodd" stroke="none"/>
    <path d="M-2.5 -2.55 Q-1.5 -3.55 -0.05 -3.55 1.5 -3.55 2.55 -2.5 3.5 -1.5 3.65 0.0 L3.7 2.5 Q3.5 3.75 2.6 4.65 1.5 5.7 0.0 5.7 -1.4 5.7 -2.5 4.7 L-2.5 4.65 -2.5 -2.55" fill="#eba5dd" fill-rule="evenodd" stroke="none"/>
    <path d="M-2.55 4.65 Q-3.55 3.65 -3.6 2.5 L-3.7 0.0 Q-3.55 -1.65 -2.5 -2.55 L-2.5 4.65 -2.55 4.65" fill="#de6dc8" fill-rule="evenodd" stroke="none"/>
  </g>
</svg>
