<?xml version="1.0" encoding="UTF-8" standalone="no"?>
<svg xmlns:xlink="http://www.w3.org/1999/xlink" height="17.6px" width="26.0px" xmlns="http://www.w3.org/2000/svg">
  <g transform="matrix(4.0, 0.0, 0.0, 4.0, 14.0, 7.2)">
    <path d="M1.25 2.2 L1.25 2.25 0.9 2.45 0.9 2.4 Q0.75 0.5 0.9 0.05 L1.25 2.2 M-1.1 2.45 L-1.55 2.25 -1.55 2.2 -1.35 -0.05 -1.1 2.45" fill="#333333" fill-rule="evenodd" stroke="none"/>
    <path d="M-1.55 2.2 L-2.3 1.7 Q-3.95 0.4 -3.35 -1.8 0.3 -0.85 2.95 -1.75 3.15 0.4 1.95 1.65 L1.25 2.2 0.9 0.05 Q0.75 0.5 0.9 2.4 L-0.05 2.6 -1.1 2.45 -1.35 -0.05 -1.55 2.2" fill="#997033" fill-rule="evenodd" stroke="none"/>
  </g>
</svg>
