<?xml version="1.0" encoding="UTF-8" standalone="no"?>
<svg xmlns:xlink="http://www.w3.org/1999/xlink" height="43.4px" width="26.2px" xmlns="http://www.w3.org/2000/svg">
  <g transform="matrix(4.0, 0.0, 0.0, 4.0, 13.0, 21.6)">
    <path d="M-1.4 5.15 Q0.6 5.25 1.45 3.6 2.1 2.3 1.9 -0.9 L1.9 -4.7 1.95 -4.7 Q2.75 -3.95 2.95 -2.55 3.4 -0.25 3.25 2.8 3.2 3.65 2.55 4.35 1.7 5.35 0.3 5.45 L-1.4 5.15" fill="#de6dc8" fill-rule="evenodd" stroke="none"/>
    <path d="M1.9 -4.7 L1.9 -0.9 Q2.1 2.3 1.45 3.6 0.6 5.25 -1.4 5.15 -3.35 4.45 -3.25 2.55 L-3.0 -3.4 -2.45 -4.4 Q-1.65 -5.3 -0.35 -5.4 0.9 -5.5 1.9 -4.7" fill="#eba5dd" fill-rule="evenodd" stroke="none"/>
  </g>
</svg>
