<?xml version="1.0" encoding="UTF-8" standalone="no"?>
<svg xmlns:xlink="http://www.w3.org/1999/xlink" height="17.4px" width="25.8px" xmlns="http://www.w3.org/2000/svg">
  <g transform="matrix(4.0, 0.0, 0.0, 4.0, 12.4, 7.2)">
    <path d="M1.6 2.15 L1.25 2.35 1.25 2.3 Q1.1 0.5 1.25 0.05 L1.6 2.15 M-0.75 2.45 L-1.2 2.35 -1.2 2.3 -1.0 -0.05 -0.75 2.45" fill="#333333" fill-rule="evenodd" stroke="none"/>
    <path d="M-1.2 2.3 L-2.25 1.55 Q-3.45 0.3 -3.0 -1.8 0.65 -0.85 3.3 -1.75 3.55 0.4 2.25 1.65 L1.6 2.15 1.25 0.05 Q1.1 0.5 1.25 2.3 L-0.05 2.55 -0.75 2.45 -1.0 -0.05 -1.2 2.3" fill="#997033" fill-rule="evenodd" stroke="none"/>
  </g>
</svg>
