<?xml version="1.0" encoding="UTF-8" standalone="no"?>
<svg
   xmlns:dc="http://purl.org/dc/elements/1.1/"
   xmlns:cc="http://creativecommons.org/ns#"
   xmlns:rdf="http://www.w3.org/1999/02/22-rdf-syntax-ns#"
   xmlns:svg="http://www.w3.org/2000/svg"
   xmlns="http://www.w3.org/2000/svg"
   id="svg16"
   version="1.1"
   width="24.6px"
   height="55.8px">
  <metadata
     id="metadata22">
    <rdf:RDF>
      <cc:Work
         rdf:about="">
        <dc:format>image/svg+xml</dc:format>
        <dc:type
           rdf:resource="http://purl.org/dc/dcmitype/StillImage" />
        <dc:title></dc:title>
      </cc:Work>
    </rdf:RDF>
  </metadata>
  <defs
     id="defs20" />
  <g
     id="g14"
     transform="matrix(4.0, 0.0, 0.0, 4.0, 12.2, 27.8)">
    <path
       style="fill:#cccccc;fill-opacity:1"
       id="path10"
       stroke="none"
       fill-rule="evenodd"
       fill="#de6dc8"
       d="M-1.8 6.45 Q-2.9 5.65 -3.05 4.1 L-2.25 -4.95 Q-2.05 -6.9 0.0 -6.95 0.9 -6.95 1.65 -6.3 -0.7 -6.85 -1.25 -4.15 L-1.65 1.3 -1.8 6.45" />
    <path
       style="fill:#e6e6e6;fill-opacity:1"
       id="path12"
       stroke="none"
       fill-rule="evenodd"
       fill="#eba5dd"
       d="M1.65 -6.3 Q2.2 -5.7 2.3 -4.9 L3.1 3.95 Q3.1 4.95 2.5 5.8 1.7 6.95 0.05 7.0 -0.7 7.0 -1.8 6.45 L-1.65 1.3 -1.25 -4.15 Q-0.7 -6.85 1.65 -6.3" />
  </g>
</svg>
