<?xml version="1.0" encoding="UTF-8" standalone="no"?>
<svg xmlns:xlink="http://www.w3.org/1999/xlink" height="82.8px" width="68.0px" xmlns="http://www.w3.org/2000/svg">
  <g transform="matrix(4.0, 0.0, 0.0, 4.0, 34.0, 63.6)">
    <path d="M7.8 -6.25 L8.5 -2.4 Q8.65 0.4 7.3 1.9 4.1 3.5 0.05 3.5 -4.35 3.5 -7.3 1.9 -8.7 0.35 -8.45 -2.5 L-7.7 -6.25 Q0.35 -4.95 7.8 -6.25" fill="#eba5dd" fill-rule="evenodd" stroke="none"/>
    <path d="M7.3 1.9 Q6.05 3.3 3.9 4.1 2.0 4.8 0.05 4.8 L-3.45 4.35 Q-6.05 3.6 -7.3 1.9 -4.35 3.5 0.05 3.5 4.1 3.5 7.3 1.9 M-7.7 -6.25 L-6.7 -9.35 Q-5.1 -13.7 -3.7 -15.1 -3.3 -15.45 -2.1 -15.7 L0.1 -15.9 Q2.85 -15.9 3.75 -15.1 5.15 -13.7 6.75 -9.35 L7.8 -6.25 Q0.35 -4.95 -7.7 -6.25" fill="#de6dc8" fill-rule="evenodd" stroke="none"/>
  </g>
</svg>
