<?xml version="1.0" encoding="UTF-8" standalone="no"?>
<svg xmlns:xlink="http://www.w3.org/1999/xlink" height="200.6px" width="153.4px" xmlns="http://www.w3.org/2000/svg">
  <g transform="matrix(4.0, 0.0, 0.0, 4.0, 76.8, 100.2)">
    <path d="M-19.1 -15.4 Q-18.4 -19.75 -15.85 -21.85 -13.65 -23.65 -9.15 -24.35 0.0 -25.75 9.3 -24.35 14.1 -23.65 16.2 -21.75 18.35 -19.85 19.0 -15.65 14.55 -14.75 8.45 -10.95 -0.2 -6.3 -7.95 -10.95 -14.3 -14.75 -19.1 -15.4" fill="#9f2487" fill-rule="evenodd" stroke="none"/>
    <path d="M-19.1 -15.4 Q-14.3 -14.75 -7.95 -10.95 -0.2 -6.3 8.45 -10.95 14.55 -14.75 19.0 -15.65 19.6 -13.15 17.7 0.35 15.4 16.2 15.3 18.6 15.1 23.05 7.35 24.5 -0.45 25.9 -10.65 23.9 -14.7 22.5 -15.05 18.6 -15.1 15.4 -17.45 0.85 -19.55 -12.3 -19.1 -15.4" fill="#eba5dd" fill-rule="evenodd" stroke="none"/>
  </g>
</svg>
