<?xml version="1.0" encoding="UTF-8" standalone="no"?>
<svg xmlns:xlink="http://www.w3.org/1999/xlink" height="197.6px" width="131.2px" xmlns="http://www.w3.org/2000/svg">
  <g transform="matrix(4.0, 0.0, 0.0, 4.0, 62.0, 99.2)">
    <path d="M-15.2 -11.3 Q-12.65 -14.4 -7.65 -15.35 -2.0 -16.4 3.45 -13.85 9.95 -10.75 11.55 -10.2 14.1 -9.3 16.85 -9.25 L17.3 -9.25 16.6 24.6 Q-2.75 24.6 -10.05 19.5 -13.5 17.05 -13.9 14.2 -14.2 12.4 -13.35 10.25 L-11.9 7.35 Q-11.5 6.8 -12.05 5.75 L-13.55 2.85 -13.7 2.4 Q-15.15 -1.1 -15.4 -5.75 -15.6 -8.1 -15.35 -10.15 L-15.3 -11.2 -15.2 -11.3" fill="#eba5dd" fill-rule="evenodd" stroke="none"/>
    <path d="M-15.2 -11.3 Q-14.8 -13.5 -13.9 -15.25 -9.55 -23.45 6.3 -24.8 8.7 -24.95 12.5 -22.45 17.0 -19.5 16.95 -15.8 L16.85 -9.25 Q14.1 -9.3 11.55 -10.2 9.95 -10.75 3.45 -13.85 -2.0 -16.4 -7.65 -15.35 -12.65 -14.4 -15.2 -11.3 M-13.35 10.25 L-13.35 10.2 Q-12.8 6.3 -13.7 2.4 L-13.55 2.85 -12.05 5.75 Q-11.5 6.8 -11.9 7.35 L-13.35 10.25" fill="#9f2487" fill-rule="evenodd" stroke="none"/>
  </g>
</svg>
