<?xml version="1.0" encoding="UTF-8" standalone="no"?>
<svg xmlns:xlink="http://www.w3.org/1999/xlink" height="170.2px" width="116.0px" xmlns="http://www.w3.org/2000/svg">
  <g transform="matrix(4.0, 0.0, 0.0, 4.0, 72.0, 14.8)">
    <path d="M6.85 3.0 Q4.35 4.2 3.65 3.7 -1.4 0.85 -3.6 6.35 -4.35 8.35 -5.05 14.4 -7.7 5.1 -4.45 1.5 -1.25 -2.1 3.7 -1.45 8.6 -0.85 9.75 1.1 9.15 1.9 6.85 3.0" fill="#ca999a" fill-rule="evenodd" stroke="none"/>
    <path d="M8.75 -1.9 Q10.8 -2.05 10.9 -1.45 11.25 0.25 10.1 1.1 9.25 1.8 8.9 1.6 2.25 -2.3 -1.05 -0.15 -3.8 1.7 -4.7 8.3 -5.2 11.95 -5.35 22.35 -5.5 32.4 -6.25 37.4 -6.3 39.4 -8.35 38.65 -10.3 37.95 -12.7 35.35 -19.0 28.7 -17.8 22.65 -14.85 7.8 -7.95 0.65 -1.6 -5.9 4.35 -2.6 6.05 -1.65 8.75 -1.9" fill="#997033" fill-rule="evenodd" stroke="none"/>
  </g>
</svg>
