<?xml version="1.0" encoding="UTF-8" standalone="no"?>
<svg xmlns:xlink="http://www.w3.org/1999/xlink" height="27.2px" width="52.8px" xmlns="http://www.w3.org/2000/svg">
  <g transform="matrix(4.0, 0.0, 0.0, 4.0, 26.6, -3.8)">
    <path d="M5.65 5.3 Q5.4 6.55 4.65 7.0 3.55 7.8 2.45 7.75 1.3 7.75 -0.05 6.8 -2.35 8.45 -4.6 7.0 -5.45 6.5 -5.65 5.45 -5.9 4.35 -5.3 3.1 -6.0 3.3 -6.65 4.45 -6.55 2.45 -5.25 2.0 -4.1 1.55 -3.1 2.4 L-3.85 2.45 -4.75 2.75 Q-5.2 5.85 -3.05 6.4 L-1.35 6.2 Q-0.55 5.7 -0.4 4.75 L-0.4 0.95 0.4 0.95 0.4 4.75 Q0.55 5.9 1.35 6.4 2.15 6.9 3.05 6.6 5.2 5.85 4.8 2.8 L4.1 2.5 3.25 2.25 Q4.35 1.25 5.5 2.05 6.65 2.8 6.55 4.15 L5.5 3.2 Q5.8 4.2 5.65 5.3" fill="#281b13" fill-rule="evenodd" stroke="none"/>
  </g>
</svg>
