<?xml version="1.0" encoding="UTF-8" standalone="no"?>
<svg xmlns:xlink="http://www.w3.org/1999/xlink" height="32.8px" width="93.0px" xmlns="http://www.w3.org/2000/svg">
  <g transform="matrix(4.0, 0.0, 0.0, 4.0, 42.2, 19.4)">
    <path d="M11.9 -0.55 Q10.75 0.2 8.3 0.05 L3.25 -0.45 Q-4.4 -0.95 -10.55 3.35 -10.3 -0.2 -6.25 -2.05 -0.95 -4.45 -0.6 -4.85 -0.35 -4.4 -0.55 -4.0 -0.75 -3.5 -1.35 -3.35 L1.65 -3.7 Q3.05 -4.0 4.85 -4.8 5.0 -4.2 4.6 -3.8 L3.65 -3.25 Q5.25 -3.1 9.65 -1.4 11.0 -0.9 11.55 -1.0 12.25 -1.05 12.45 -2.15 13.2 -1.35 11.9 -0.55" fill="#59154d" fill-rule="evenodd" stroke="none"/>
  </g>
</svg>
