<?xml version="1.0" encoding="UTF-8" standalone="no"?>
<svg xmlns:xlink="http://www.w3.org/1999/xlink" height="93.2px" width="93.4px" xmlns="http://www.w3.org/2000/svg">
  <g transform="matrix(4.0, 0.0, 0.0, 4.0, 39.6, 44.0)">
    <path d="M-5.05 -6.0 Q-3.8 -6.65 0.15 -0.75 3.65 4.6 6.15 10.05 5.4 10.9 3.0 11.65 0.45 12.45 -1.15 12.3 -5.15 11.95 -6.9 6.25 -8.8 0.05 -5.05 -6.0" fill="#ffffff" fill-rule="evenodd" stroke="none"/>
    <path d="M12.05 4.85 Q11.0 6.75 9.85 7.6 4.55 10.3 0.2 8.15 -4.3 5.9 -4.55 0.0 -3.8 -7.95 2.6 -8.55 8.85 -7.55 13.2 2.1 L12.05 4.85" fill="#000000" fill-rule="evenodd" stroke="none"/>
    <path d="M7.7 -3.5 Q8.8 -2.5 8.8 -0.65 8.8 1.1 7.5 2.2 6.35 3.2 4.95 3.2 3.65 3.2 2.4 2.0 1.1 0.75 1.1 -0.65 1.1 -2.25 2.0 -3.3 3.05 -4.5 4.95 -4.5 6.7 -4.5 7.7 -3.5 M0.4 8.2 Q-0.8 8.4 -1.2 7.05 -1.55 5.4 0.0 5.15 1.55 4.9 1.75 6.85 1.6 8.05 0.4 8.2" fill="#ffffff" fill-rule="evenodd" stroke="none"/>
    <path d="M4.2 -8.5 Q3.6 -8.75 3.4 -9.55 3.2 -10.25 3.45 -11.0 4.25 -9.9 6.05 -8.65 L9.25 -6.3 Q13.1 -3.0 13.45 2.9 9.85 -3.8 5.65 -5.7 1.2 -7.65 -4.25 -4.45 -7.8 -2.4 -9.2 -3.85 -10.35 -5.05 -9.6 -6.4 -9.4 -4.6 -8.7 -4.45 -8.15 -4.3 -6.8 -5.15 -2.4 -8.05 -0.8 -8.3 -1.4 -8.55 -1.75 -9.2 -2.15 -9.95 -2.0 -10.95 -0.2 -9.55 1.2 -9.1 L4.2 -8.5" fill="#59154d" fill-rule="evenodd" stroke="none"/>
  </g>
</svg>
