<?xml version="1.0" encoding="UTF-8" standalone="no"?>
<svg xmlns:xlink="http://www.w3.org/1999/xlink" height="36.8px" width="48.0px" xmlns="http://www.w3.org/2000/svg">
  <g transform="matrix(4.0, 0.0, 0.0, 4.0, 24.0, -3.2)">
    <path d="M2.65 8.0 Q3.7 6.35 4.15 3.7 L2.7 3.95 1.05 3.55 -0.05 2.95 Q-0.15 3.2 -1.0 3.55 L-2.75 4.0 -4.15 3.75 Q-3.7 6.4 -2.6 8.0 -1.6 9.35 0.0 9.35 1.6 9.35 2.65 8.0 M2.85 2.2 Q3.75 1.35 4.75 1.8 5.9 2.25 6.0 4.2 L4.8 2.8 Q3.75 10.0 -0.05 10.0 -3.7 10.0 -4.85 2.85 L-6.0 4.2 Q-5.9 2.25 -4.75 1.8 -3.7 1.35 -2.8 2.2 L-4.5 2.5 Q-3.95 3.8 -2.2 3.35 -1.05 3.15 -0.35 2.5 L-0.35 0.8 0.35 0.8 0.35 2.6 2.15 3.35 Q3.9 3.8 4.5 2.6 3.9 2.15 2.85 2.2" fill="#281b13" fill-rule="evenodd" stroke="none"/>
    <path d="M-2.6 8.0 Q-3.7 6.4 -4.15 3.75 L-2.75 4.0 -1.0 3.55 Q-0.15 3.2 -0.05 2.95 L1.05 3.55 2.7 3.95 4.15 3.7 Q3.7 6.35 2.65 8.0 -0.2 6.85 -2.6 8.0" fill="#910000" fill-rule="evenodd" stroke="none"/>
    <path d="M-2.6 8.0 Q-0.2 6.85 2.65 8.0 1.6 9.35 0.0 9.35 -1.6 9.35 -2.6 8.0" fill="#ff9999" fill-rule="evenodd" stroke="none"/>
  </g>
</svg>
