<?xml version="1.0" encoding="UTF-8" standalone="no"?>
<svg xmlns:xlink="http://www.w3.org/1999/xlink" height="20.8px" width="34.2px" xmlns="http://www.w3.org/2000/svg">
  <g transform="matrix(4.0, 0.0, 0.0, 4.0, 17.2, 10.4)">
    <path d="M-4.3 -1.85 Q-3.0 -0.75 -0.35 -1.05 2.25 -1.35 2.95 -2.6 4.7 -0.85 4.05 1.0 3.25 2.95 -0.2 2.55 -3.6 2.15 -4.05 0.5 L-4.3 -1.85" fill="#eba5dd" fill-rule="evenodd" stroke="none"/>
    <path d="M3.5 -1.95 Q4.15 -1.2 4.25 -0.1 4.45 1.7 2.4 2.35 L0.0 2.55 -2.55 2.0 Q0.7 -1.6 3.5 -1.95" fill="#997033" fill-rule="evenodd" stroke="none"/>
    <path d="M1.75 2.55 L1.4 2.6 1.15 0.6 1.75 2.55 M3.7 1.7 L3.45 1.9 3.05 -0.1 3.7 1.7" fill="#333333" fill-rule="evenodd" stroke="none"/>
  </g>
</svg>
