<?xml version="1.0" encoding="UTF-8" standalone="no"?>
<svg xmlns:xlink="http://www.w3.org/1999/xlink" height="43.4px" width="26.2px" xmlns="http://www.w3.org/2000/svg">
  <g transform="matrix(4.0, 0.0, 0.0, 4.0, 13.0, 21.6)">
    <path d="M-1.9 -4.7 Q-0.9 -5.5 0.4 -5.4 1.7 -5.3 2.5 -4.4 L3.05 -3.4 3.3 2.55 Q3.4 4.45 1.45 5.15 -0.55 5.25 -1.4 3.6 -2.1 2.3 -1.85 -0.9 L-1.9 -4.7" fill="#eba5dd" fill-rule="evenodd" stroke="none"/>
    <path d="M-1.9 -4.7 L-1.85 -0.9 Q-2.1 2.3 -1.4 3.6 -0.55 5.25 1.45 5.15 L-0.25 5.45 Q-1.65 5.35 -2.5 4.35 -3.15 3.65 -3.2 2.8 -3.35 -0.25 -2.9 -2.55 -2.7 -3.95 -1.9 -4.7" fill="#de6dc8" fill-rule="evenodd" stroke="none"/>
  </g>
</svg>
