<?xml version="1.0" encoding="UTF-8" standalone="no"?>
<svg xmlns:xlink="http://www.w3.org/1999/xlink" height="55.8px" width="24.6px" xmlns="http://www.w3.org/2000/svg">
  <g transform="matrix(4.0, 0.0, 0.0, 4.0, 12.2, 27.8)">
    <path d="M-1.8 6.45 Q-2.9 5.65 -3.05 4.1 L-2.25 -4.95 Q-2.05 -6.9 0.0 -6.95 0.9 -6.95 1.65 -6.3 -0.7 -6.85 -1.25 -4.15 L-1.65 1.3 -1.8 6.45" fill="#de6dc8" fill-rule="evenodd" stroke="none"/>
    <path d="M1.65 -6.3 Q2.2 -5.7 2.3 -4.9 L3.1 3.95 Q3.1 4.95 2.5 5.8 1.7 6.95 0.05 7.0 -0.7 7.0 -1.8 6.45 L-1.65 1.3 -1.25 -4.15 Q-0.7 -6.85 1.65 -6.3" fill="#eba5dd" fill-rule="evenodd" stroke="none"/>
  </g>
</svg>
