<?xml version="1.0" encoding="UTF-8" standalone="no"?>
<!-- Created with Inkscape (http://www.inkscape.org/) -->

<svg
   xmlns:dc="http://purl.org/dc/elements/1.1/"
   xmlns:cc="http://creativecommons.org/ns#"
   xmlns:rdf="http://www.w3.org/1999/02/22-rdf-syntax-ns#"
   xmlns:svg="http://www.w3.org/2000/svg"
   xmlns="http://www.w3.org/2000/svg"
   xmlns:sodipodi="http://sodipodi.sourceforge.net/DTD/sodipodi-0.dtd"
   xmlns:inkscape="http://www.inkscape.org/namespaces/inkscape"
   width="3.4083078mm"
   height="2.8419337mm"
   viewBox="0 0 3.4083078 2.8419337"
   version="1.1"
   id="svg1560"
   inkscape:version="0.92.4 (5da689c313, 2019-01-14)"
   sodipodi:docname="FLeftPaw.svg">
  <defs
     id="defs1554" />
  <sodipodi:namedview
     id="base"
     pagecolor="#ffffff"
     bordercolor="#666666"
     borderopacity="1.0"
     inkscape:pageopacity="0.0"
     inkscape:pageshadow="2"
     inkscape:zoom="22.627417"
     inkscape:cx="5.8256751"
     inkscape:cy="8.6857329"
     inkscape:document-units="mm"
     inkscape:current-layer="layer1"
     showgrid="false"
     inkscape:window-width="956"
     inkscape:window-height="1007"
     inkscape:window-x="960"
     inkscape:window-y="0"
     inkscape:window-maximized="0" />
  <metadata
     id="metadata1557">
    <rdf:RDF>
      <cc:Work
         rdf:about="">
        <dc:format>image/svg+xml</dc:format>
        <dc:type
           rdf:resource="http://purl.org/dc/dcmitype/StillImage" />
        <dc:title></dc:title>
      </cc:Work>
    </rdf:RDF>
  </metadata>
  <g
     inkscape:label="Layer 1"
     inkscape:groupmode="layer"
     id="layer1"
     transform="translate(-1.2745622,-2.5029224)">
    <g
       transform="matrix(0.52662962,0.01028967,-0.01028967,0.52662962,2.9121183,4.002465)"
       style="display:inline;opacity:1"
       id="use1130">
      <path
         d="M 1.6,2.15 1.25,2.35 V 2.3 Q 1.1,0.5 1.25,0.05 L 1.6,2.15 M -0.75,2.45 -1.2,2.35 V 2.3 l 0.2,-2.35 0.25,2.5"
         id="path1148"
         inkscape:connector-curvature="0"
         style="fill:#333333;fill-rule:evenodd;stroke:none" />
      <path
         d="M -1.2,2.3 -2.25,1.55 C -3.05,0.71666667 -3.3,-0.4 -3,-1.8 0.04830826,-3.9442317 3.1150507,-2.2183236 3.3,-1.75 3.4666667,-0.31666667 3.1166667,0.81666667 2.25,1.65 L 1.6,2.15 1.25,0.05 c -0.1,0.3 -0.1,1.05 0,2.25 L -0.05,2.55 -0.75,2.45 -1,-0.05 -1.2,2.3"
         id="path1150"
         inkscape:connector-curvature="0"
         style="fill:#767676;fill-opacity:1;fill-rule:evenodd;stroke:none"
         sodipodi:nodetypes="cccccccccccc" />
    </g>
  </g>
</svg>
