# Tiled2Unity generated file. Do not modify by hand.
# Wavefront file for 'test_map_mesh_0005.obj'

# Vertices (Count = 52)
v -1504 -1392 0
v -1601 -1392 0
v -1601 -1322 0
v -1504 -1322 0
v -2038 -1512 0
v -2135 -1512 0
v -2135 -1442 0
v -2038 -1442 0
v -2232 -1560 0
v -2329 -1560 0
v -2329 -1490 0
v -2232 -1490 0
v -2329 -1560 0
v -2426 -1560 0
v -2426 -1490 0
v -2329 -1490 0
v -2571 -816 0
v -2668 -816 0
v -2668 -746 0
v -2571 -746 0
v -2668 -816 0
v -2765 -816 0
v -2765 -746 0
v -2668 -746 0
v -2765 -816 0
v -2862 -816 0
v -2862 -746 0
v -2765 -746 0
v -2862 -816 0
v -2959 -816 0
v -2959 -746 0
v -2862 -746 0
v -3104 -888 0
v -3201 -888 0
v -3201 -818 0
v -3104 -818 0
v -2038 -360 0
v -2135 -360 0
v -2135 -290 0
v -2038 -290 0
v -2183 -336 0
v -2280 -336 0
v -2280 -266 0
v -2183 -266 0
v -2280 -336 0
v -2377 -336 0
v -2377 -266 0
v -2280 -266 0
v -2377 -336 0
v -2474 -336 0
v -2474 -266 0
v -2377 -266 0

# Texture cooridinates (Count = 4)
vt 0 0
vt 1 0
vt 1 1
vt 0 1

# Normal
vn 0 0 -1

# Mesh description
g test_map_mesh_0005

# Faces
f 1/1/1 2/2/1 3/3/1 4/4/1
f 5/1/1 6/2/1 7/3/1 8/4/1
f 9/1/1 10/2/1 11/3/1 12/4/1
f 13/1/1 14/2/1 15/3/1 16/4/1
f 17/1/1 18/2/1 19/3/1 20/4/1
f 21/1/1 22/2/1 23/3/1 24/4/1
f 25/1/1 26/2/1 27/3/1 28/4/1
f 29/1/1 30/2/1 31/3/1 32/4/1
f 33/1/1 34/2/1 35/3/1 36/4/1
f 37/1/1 38/2/1 39/3/1 40/4/1
f 41/1/1 42/2/1 43/3/1 44/4/1
f 45/1/1 46/2/1 47/3/1 48/4/1
f 49/1/1 50/2/1 51/3/1 52/4/1

