# Tiled2Unity generated file. Do not modify by hand.
# Wavefront file for 'test_map_mesh_0021.obj'

# Vertices (Count = 100)
v -874 -1560 0
v -971 -1560 0
v -971 -1490 0
v -874 -1490 0
v -777 -1512 0
v -874 -1512 0
v -874 -1442 0
v -777 -1442 0
v -971 -1560 0
v -1068 -1560 0
v -1068 -1490 0
v -971 -1490 0
v -777 -1464 0
v -874 -1464 0
v -874 -1394 0
v -777 -1394 0
v -1310 -1680 0
v -1407 -1680 0
v -1407 -1610 0
v -1310 -1610 0
v -1213 -1632 0
v -1310 -1632 0
v -1310 -1562 0
v -1213 -1562 0
v -777 -1416 0
v -874 -1416 0
v -874 -1346 0
v -777 -1346 0
v -1359 -1656 0
v -1456 -1656 0
v -1456 -1586 0
v -1359 -1586 0
v -1213 -1584 0
v -1310 -1584 0
v -1310 -1514 0
v -1213 -1514 0
v -728 -1344 0
v -825 -1344 0
v -825 -1274 0
v -728 -1274 0
v -1213 -1536 0
v -1310 -1536 0
v -1310 -1466 0
v -1213 -1466 0
v -1165 -1512 0
v -1262 -1512 0
v -1262 -1442 0
v -1165 -1442 0
v -971 -1416 0
v -1068 -1416 0
v -1068 -1346 0
v -971 -1346 0
v -728 -1296 0
v -825 -1296 0
v -825 -1226 0
v -728 -1226 0
v -1116 -1440 0
v -1213 -1440 0
v -1213 -1370 0
v -1116 -1370 0
v -874 -1320 0
v -971 -1320 0
v -971 -1250 0
v -874 -1250 0
v -728 -1248 0
v -825 -1248 0
v -825 -1178 0
v -728 -1178 0
v -1165 -1416 0
v -1262 -1416 0
v -1262 -1346 0
v -1165 -1346 0
v -1068 -1368 0
v -1165 -1368 0
v -1165 -1298 0
v -1068 -1298 0
v -874 -1272 0
v -971 -1272 0
v -971 -1202 0
v -874 -1202 0
v -1310 -1392 0
v -1407 -1392 0
v -1407 -1322 0
v -1310 -1322 0
v -1456 -1368 0
v -1553 -1368 0
v -1553 -1298 0
v -1456 -1298 0
v -1553 -1320 0
v -1650 -1320 0
v -1650 -1250 0
v -1553 -1250 0
v -1844 -1416 0
v -1941 -1416 0
v -1941 -1346 0
v -1844 -1346 0
v -1601 -1248 0
v -1698 -1248 0
v -1698 -1178 0
v -1601 -1178 0

# Texture cooridinates (Count = 4)
vt 0 0
vt 1 0
vt 1 1
vt 0 1

# Normal
vn 0 0 -1

# Mesh description
g test_map_mesh_0021

# Faces
f 1/1/1 2/2/1 3/3/1 4/4/1
f 5/1/1 6/2/1 7/3/1 8/4/1
f 9/1/1 10/2/1 11/3/1 12/4/1
f 13/1/1 14/2/1 15/3/1 16/4/1
f 17/1/1 18/2/1 19/3/1 20/4/1
f 21/1/1 22/2/1 23/3/1 24/4/1
f 25/1/1 26/2/1 27/3/1 28/4/1
f 29/1/1 30/2/1 31/3/1 32/4/1
f 33/1/1 34/2/1 35/3/1 36/4/1
f 37/1/1 38/2/1 39/3/1 40/4/1
f 41/1/1 42/2/1 43/3/1 44/4/1
f 45/1/1 46/2/1 47/3/1 48/4/1
f 49/1/1 50/2/1 51/3/1 52/4/1
f 53/1/1 54/2/1 55/3/1 56/4/1
f 57/1/1 58/2/1 59/3/1 60/4/1
f 61/1/1 62/2/1 63/3/1 64/4/1
f 65/1/1 66/2/1 67/3/1 68/4/1
f 69/1/1 70/2/1 71/3/1 72/4/1
f 73/1/1 74/2/1 75/3/1 76/4/1
f 77/1/1 78/2/1 79/3/1 80/4/1
f 81/1/1 82/2/1 83/3/1 84/4/1
f 85/1/1 86/2/1 87/3/1 88/4/1
f 89/1/1 90/2/1 91/3/1 92/4/1
f 93/1/1 94/2/1 95/3/1 96/4/1
f 97/1/1 98/2/1 99/3/1 100/4/1

