# Tiled2Unity generated file. Do not modify by hand.
# Wavefront file for 'test_map_mesh_0011.obj'

# Vertices (Count = 548)
v -2038 -1992 0
v -2135 -1992 0
v -2135 -1922 0
v -2038 -1922 0
v -1698 -1824 0
v -1795 -1824 0
v -1795 -1754 0
v -1698 -1754 0
v -1553 -1752 0
v -1650 -1752 0
v -1650 -1682 0
v -1553 -1682 0
v -2232 -2040 0
v -2329 -2040 0
v -2329 -1970 0
v -2232 -1970 0
v -2183 -2016 0
v -2280 -2016 0
v -2280 -1946 0
v -2183 -1946 0
v -2038 -1944 0
v -2135 -1944 0
v -2135 -1874 0
v -2038 -1874 0
v -1941 -1896 0
v -2038 -1896 0
v -2038 -1826 0
v -1941 -1826 0
v -2425 -2088 0
v -2522 -2088 0
v -2522 -2018 0
v -2425 -2018 0
v -2377 -2064 0
v -2474 -2064 0
v -2474 -1994 0
v -2377 -1994 0
v -1359 -1560 0
v -1456 -1560 0
v -1456 -1490 0
v -1359 -1490 0
v -2474 -2064 0
v -2571 -2064 0
v -2571 -1994 0
v -2474 -1994 0
v -1407 -1536 0
v -1504 -1536 0
v -1504 -1466 0
v -1407 -1466 0
v -2619 -2088 0
v -2716 -2088 0
v -2716 -2018 0
v -2619 -2018 0
v -1407 -1488 0
v -1504 -1488 0
v -1504 -1418 0
v -1407 -1418 0
v -2619 -2040 0
v -2716 -2040 0
v -2716 -1970 0
v -2619 -1970 0
v -1456 -1464 0
v -1553 -1464 0
v -1553 -1394 0
v -1456 -1394 0
v -1068 -1272 0
v -1165 -1272 0
v -1165 -1202 0
v -1068 -1202 0
v -971 -1224 0
v -1068 -1224 0
v -1068 -1154 0
v -971 -1154 0
v -874 -1176 0
v -971 -1176 0
v -971 -1106 0
v -874 -1106 0
v -1213 -1296 0
v -1310 -1296 0
v -1310 -1226 0
v -1213 -1226 0
v -1165 -1272 0
v -1262 -1272 0
v -1262 -1202 0
v -1165 -1202 0
v -2668 -1968 0
v -2765 -1968 0
v -2765 -1898 0
v -2668 -1898 0
v -2668 -1920 0
v -2765 -1920 0
v -2765 -1850 0
v -2668 -1850 0
v -1795 -1488 0
v -1892 -1488 0
v -1892 -1418 0
v -1795 -1418 0
v -1359 -1272 0
v -1456 -1272 0
v -1456 -1202 0
v -1359 -1202 0
v -2716 -1896 0
v -2813 -1896 0
v -2813 -1826 0
v -2716 -1826 0
v -1892 -1488 0
v -1989 -1488 0
v -1989 -1418 0
v -1892 -1418 0
v -1795 -1440 0
v -1892 -1440 0
v -1892 -1370 0
v -1795 -1370 0
v -1456 -1272 0
v -1553 -1272 0
v -1553 -1202 0
v -1456 -1202 0
v -1407 -1248 0
v -1504 -1248 0
v -1504 -1178 0
v -1407 -1178 0
v -922 -1008 0
v -1019 -1008 0
v -1019 -938 0
v -922 -938 0
v -2232 -1608 0
v -2329 -1608 0
v -2329 -1538 0
v -2232 -1538 0
v -2183 -1584 0
v -2280 -1584 0
v -2280 -1514 0
v -2183 -1514 0
v -1504 -1248 0
v -1601 -1248 0
v -1601 -1178 0
v -1504 -1178 0
v -2619 -1752 0
v -2716 -1752 0
v -2716 -1682 0
v -2619 -1682 0
v -1553 -1224 0
v -1650 -1224 0
v -1650 -1154 0
v -1553 -1154 0
v -2959 -1872 0
v -3056 -1872 0
v -3056 -1802 0
v -2959 -1802 0
v -2910 -1848 0
v -3007 -1848 0
v -3007 -1778 0
v -2910 -1778 0
v -2862 -1824 0
v -2959 -1824 0
v -2959 -1754 0
v -2862 -1754 0
v -2571 -1680 0
v -2668 -1680 0
v -2668 -1610 0
v -2571 -1610 0
v -2474 -1632 0
v -2571 -1632 0
v -2571 -1562 0
v -2474 -1562 0
v -1650 -1224 0
v -1747 -1224 0
v -1747 -1154 0
v -1650 -1154 0
v -1019 -912 0
v -1116 -912 0
v -1116 -842 0
v -1019 -842 0
v -3007 -1848 0
v -3104 -1848 0
v -3104 -1778 0
v -3007 -1778 0
v -1698 -1200 0
v -1795 -1200 0
v -1795 -1130 0
v -1698 -1130 0
v -1650 -1176 0
v -1747 -1176 0
v -1747 -1106 0
v -1650 -1106 0
v -1068 -888 0
v -1165 -888 0
v -1165 -818 0
v -1068 -818 0
v -2959 -1776 0
v -3056 -1776 0
v -3056 -1706 0
v -2959 -1706 0
v -2862 -1728 0
v -2959 -1728 0
v -2959 -1658 0
v -2862 -1658 0
v -2280 -1440 0
v -2377 -1440 0
v -2377 -1370 0
v -2280 -1370 0
v -2183 -1392 0
v -2280 -1392 0
v -2280 -1322 0
v -2183 -1322 0
v -2038 -1320 0
v -2135 -1320 0
v -2135 -1250 0
v -2038 -1250 0
v -1116 -864 0
v -1213 -864 0
v -1213 -794 0
v -1116 -794 0
v -2813 -1656 0
v -2910 -1656 0
v -2910 -1586 0
v -2813 -1586 0
v -2765 -1632 0
v -2862 -1632 0
v -2862 -1562 0
v -2765 -1562 0
v -2716 -1608 0
v -2813 -1608 0
v -2813 -1538 0
v -2716 -1538 0
v -2668 -1584 0
v -2765 -1584 0
v -2765 -1514 0
v -2668 -1514 0
v -2377 -1440 0
v -2474 -1440 0
v -2474 -1370 0
v -2377 -1370 0
v -1165 -840 0
v -1262 -840 0
v -1262 -770 0
v -1165 -770 0
v -2862 -1632 0
v -2959 -1632 0
v -2959 -1562 0
v -2862 -1562 0
v -2813 -1608 0
v -2910 -1608 0
v -2910 -1538 0
v -2813 -1538 0
v -2716 -1560 0
v -2813 -1560 0
v -2813 -1490 0
v -2716 -1490 0
v -2522 -1464 0
v -2619 -1464 0
v -2619 -1394 0
v -2522 -1394 0
v -2280 -1344 0
v -2377 -1344 0
v -2377 -1274 0
v -2280 -1274 0
v -2183 -1296 0
v -2280 -1296 0
v -2280 -1226 0
v -2183 -1226 0
v -1844 -1128 0
v -1941 -1128 0
v -1941 -1058 0
v -1844 -1058 0
v -1213 -816 0
v -1310 -816 0
v -1310 -746 0
v -1213 -746 0
v -2910 -1608 0
v -3007 -1608 0
v -3007 -1538 0
v -2910 -1538 0
v -2862 -1584 0
v -2959 -1584 0
v -2959 -1514 0
v -2862 -1514 0
v -2474 -1392 0
v -2571 -1392 0
v -2571 -1322 0
v -2474 -1322 0
v -2377 -1344 0
v -2474 -1344 0
v -2474 -1274 0
v -2377 -1274 0
v -2038 -1176 0
v -2135 -1176 0
v -2135 -1106 0
v -2038 -1106 0
v -1892 -1104 0
v -1989 -1104 0
v -1989 -1034 0
v -1892 -1034 0
v -2619 -1416 0
v -2716 -1416 0
v -2716 -1346 0
v -2619 -1346 0
v -2183 -1200 0
v -2280 -1200 0
v -2280 -1130 0
v -2183 -1130 0
v -1310 -768 0
v -1407 -768 0
v -1407 -698 0
v -1310 -698 0
v -3250 -1680 0
v -3347 -1680 0
v -3347 -1610 0
v -3250 -1610 0
v -2571 -1344 0
v -2668 -1344 0
v -2668 -1274 0
v -2571 -1274 0
v -2280 -1200 0
v -2377 -1200 0
v -2377 -1130 0
v -2280 -1130 0
v -1941 -1032 0
v -2038 -1032 0
v -2038 -962 0
v -1941 -962 0
v -1359 -744 0
v -1456 -744 0
v -1456 -674 0
v -1359 -674 0
v -3347 -1680 0
v -3444 -1680 0
v -3444 -1610 0
v -3347 -1610 0
v -3298 -1656 0
v -3395 -1656 0
v -3395 -1586 0
v -3298 -1586 0
v -2813 -1416 0
v -2910 -1416 0
v -2910 -1346 0
v -2813 -1346 0
v -2522 -1272 0
v -2619 -1272 0
v -2619 -1202 0
v -2522 -1202 0
v -2232 -1128 0
v -2329 -1128 0
v -2329 -1058 0
v -2232 -1058 0
v -3444 -1680 0
v -3541 -1680 0
v -3541 -1610 0
v -3444 -1610 0
v -3347 -1632 0
v -3444 -1632 0
v -3444 -1562 0
v -3347 -1562 0
v -2862 -1392 0
v -2959 -1392 0
v -2959 -1322 0
v -2862 -1322 0
v -2668 -1296 0
v -2765 -1296 0
v -2765 -1226 0
v -2668 -1226 0
v -2232 -1080 0
v -2329 -1080 0
v -2329 -1010 0
v -2232 -1010 0
v -1456 -696 0
v -1553 -696 0
v -1553 -626 0
v -1456 -626 0
v -3589 -1656 0
v -3686 -1656 0
v -3686 -1586 0
v -3589 -1586 0
v -1553 -648 0
v -1650 -648 0
v -1650 -578 0
v -1553 -578 0
v -1601 -624 0
v -1698 -624 0
v -1698 -554 0
v -1601 -554 0
v -2377 -960 0
v -2474 -960 0
v -2474 -890 0
v -2377 -890 0
v -3298 -1368 0
v -3395 -1368 0
v -3395 -1298 0
v -3298 -1298 0
v -3250 -1344 0
v -3347 -1344 0
v -3347 -1274 0
v -3250 -1274 0
v -1698 -576 0
v -1795 -576 0
v -1795 -506 0
v -1698 -506 0
v -3153 -1248 0
v -3250 -1248 0
v -3250 -1178 0
v -3153 -1178 0
v -2280 -816 0
v -2377 -816 0
v -2377 -746 0
v -2280 -746 0
v -3298 -1272 0
v -3395 -1272 0
v -3395 -1202 0
v -3298 -1202 0
v -2571 -912 0
v -2668 -912 0
v -2668 -842 0
v -2571 -842 0
v -3783 -1464 0
v -3880 -1464 0
v -3880 -1394 0
v -3783 -1394 0
v -3153 -1152 0
v -3250 -1152 0
v -3250 -1082 0
v -3153 -1082 0
v -3007 -1080 0
v -3104 -1080 0
v -3104 -1010 0
v -3007 -1010 0
v -2377 -768 0
v -2474 -768 0
v -2474 -698 0
v -2377 -698 0
v -1844 -504 0
v -1941 -504 0
v -1941 -434 0
v -1844 -434 0
v -3104 -1080 0
v -3201 -1080 0
v -3201 -1010 0
v -3104 -1010 0
v -2862 -960 0
v -2959 -960 0
v -2959 -890 0
v -2862 -890 0
v -2765 -912 0
v -2862 -912 0
v -2862 -842 0
v -2765 -842 0
v -1892 -480 0
v -1989 -480 0
v -1989 -410 0
v -1892 -410 0
v -3832 -1392 0
v -3929 -1392 0
v -3929 -1322 0
v -3832 -1322 0
v -3395 -1176 0
v -3492 -1176 0
v -3492 -1106 0
v -3395 -1106 0
v -3250 -1104 0
v -3347 -1104 0
v -3347 -1034 0
v -3250 -1034 0
v -3007 -984 0
v -3104 -984 0
v -3104 -914 0
v -3007 -914 0
v -2474 -720 0
v -2571 -720 0
v -2571 -650 0
v -2474 -650 0
v -1941 -456 0
v -2038 -456 0
v -2038 -386 0
v -1941 -386 0
v -3880 -1368 0
v -3977 -1368 0
v -3977 -1298 0
v -3880 -1298 0
v -2959 -912 0
v -3056 -912 0
v -3056 -842 0
v -2959 -842 0
v -2813 -840 0
v -2910 -840 0
v -2910 -770 0
v -2813 -770 0
v -2522 -696 0
v -2619 -696 0
v -2619 -626 0
v -2522 -626 0
v -3880 -1320 0
v -3977 -1320 0
v -3977 -1250 0
v -3880 -1250 0
v -3783 -1272 0
v -3880 -1272 0
v -3880 -1202 0
v -3783 -1202 0
v -3056 -912 0
v -3153 -912 0
v -3153 -842 0
v -3056 -842 0
v -2571 -672 0
v -2668 -672 0
v -2668 -602 0
v -2571 -602 0
v -2522 -648 0
v -2619 -648 0
v -2619 -578 0
v -2522 -578 0
v -3589 -1128 0
v -3686 -1128 0
v -3686 -1058 0
v -3589 -1058 0
v -3541 -1104 0
v -3638 -1104 0
v -3638 -1034 0
v -3541 -1034 0
v -3444 -1056 0
v -3541 -1056 0
v -3541 -986 0
v -3444 -986 0
v -3395 -1032 0
v -3492 -1032 0
v -3492 -962 0
v -3395 -962 0
v -3298 -984 0
v -3395 -984 0
v -3395 -914 0
v -3298 -914 0
v -3201 -936 0
v -3298 -936 0
v -3298 -866 0
v -3201 -866 0
v -3153 -912 0
v -3250 -912 0
v -3250 -842 0
v -3153 -842 0
v -2571 -624 0
v -2668 -624 0
v -2668 -554 0
v -2571 -554 0
v -2571 -528 0
v -2668 -528 0
v -2668 -458 0
v -2571 -458 0
v -2522 -456 0
v -2619 -456 0
v -2619 -386 0
v -2522 -386 0

# Texture cooridinates (Count = 4)
vt 0 0
vt 1 0
vt 1 1
vt 0 1

# Normal
vn 0 0 -1

# Mesh description
g test_map_mesh_0011

# Faces
f 1/1/1 2/2/1 3/3/1 4/4/1
f 5/1/1 6/2/1 7/3/1 8/4/1
f 9/1/1 10/2/1 11/3/1 12/4/1
f 13/1/1 14/2/1 15/3/1 16/4/1
f 17/1/1 18/2/1 19/3/1 20/4/1
f 21/1/1 22/2/1 23/3/1 24/4/1
f 25/1/1 26/2/1 27/3/1 28/4/1
f 29/1/1 30/2/1 31/3/1 32/4/1
f 33/1/1 34/2/1 35/3/1 36/4/1
f 37/1/1 38/2/1 39/3/1 40/4/1
f 41/1/1 42/2/1 43/3/1 44/4/1
f 45/1/1 46/2/1 47/3/1 48/4/1
f 49/1/1 50/2/1 51/3/1 52/4/1
f 53/1/1 54/2/1 55/3/1 56/4/1
f 57/1/1 58/2/1 59/3/1 60/4/1
f 61/1/1 62/2/1 63/3/1 64/4/1
f 65/1/1 66/2/1 67/3/1 68/4/1
f 69/1/1 70/2/1 71/3/1 72/4/1
f 73/1/1 74/2/1 75/3/1 76/4/1
f 77/1/1 78/2/1 79/3/1 80/4/1
f 81/1/1 82/2/1 83/3/1 84/4/1
f 85/1/1 86/2/1 87/3/1 88/4/1
f 89/1/1 90/2/1 91/3/1 92/4/1
f 93/1/1 94/2/1 95/3/1 96/4/1
f 97/1/1 98/2/1 99/3/1 100/4/1
f 101/1/1 102/2/1 103/3/1 104/4/1
f 105/1/1 106/2/1 107/3/1 108/4/1
f 109/1/1 110/2/1 111/3/1 112/4/1
f 113/1/1 114/2/1 115/3/1 116/4/1
f 117/1/1 118/2/1 119/3/1 120/4/1
f 121/1/1 122/2/1 123/3/1 124/4/1
f 125/1/1 126/2/1 127/3/1 128/4/1
f 129/1/1 130/2/1 131/3/1 132/4/1
f 133/1/1 134/2/1 135/3/1 136/4/1
f 137/1/1 138/2/1 139/3/1 140/4/1
f 141/1/1 142/2/1 143/3/1 144/4/1
f 145/1/1 146/2/1 147/3/1 148/4/1
f 149/1/1 150/2/1 151/3/1 152/4/1
f 153/1/1 154/2/1 155/3/1 156/4/1
f 157/1/1 158/2/1 159/3/1 160/4/1
f 161/1/1 162/2/1 163/3/1 164/4/1
f 165/1/1 166/2/1 167/3/1 168/4/1
f 169/1/1 170/2/1 171/3/1 172/4/1
f 173/1/1 174/2/1 175/3/1 176/4/1
f 177/1/1 178/2/1 179/3/1 180/4/1
f 181/1/1 182/2/1 183/3/1 184/4/1
f 185/1/1 186/2/1 187/3/1 188/4/1
f 189/1/1 190/2/1 191/3/1 192/4/1
f 193/1/1 194/2/1 195/3/1 196/4/1
f 197/1/1 198/2/1 199/3/1 200/4/1
f 201/1/1 202/2/1 203/3/1 204/4/1
f 205/1/1 206/2/1 207/3/1 208/4/1
f 209/1/1 210/2/1 211/3/1 212/4/1
f 213/1/1 214/2/1 215/3/1 216/4/1
f 217/1/1 218/2/1 219/3/1 220/4/1
f 221/1/1 222/2/1 223/3/1 224/4/1
f 225/1/1 226/2/1 227/3/1 228/4/1
f 229/1/1 230/2/1 231/3/1 232/4/1
f 233/1/1 234/2/1 235/3/1 236/4/1
f 237/1/1 238/2/1 239/3/1 240/4/1
f 241/1/1 242/2/1 243/3/1 244/4/1
f 245/1/1 246/2/1 247/3/1 248/4/1
f 249/1/1 250/2/1 251/3/1 252/4/1
f 253/1/1 254/2/1 255/3/1 256/4/1
f 257/1/1 258/2/1 259/3/1 260/4/1
f 261/1/1 262/2/1 263/3/1 264/4/1
f 265/1/1 266/2/1 267/3/1 268/4/1
f 269/1/1 270/2/1 271/3/1 272/4/1
f 273/1/1 274/2/1 275/3/1 276/4/1
f 277/1/1 278/2/1 279/3/1 280/4/1
f 281/1/1 282/2/1 283/3/1 284/4/1
f 285/1/1 286/2/1 287/3/1 288/4/1
f 289/1/1 290/2/1 291/3/1 292/4/1
f 293/1/1 294/2/1 295/3/1 296/4/1
f 297/1/1 298/2/1 299/3/1 300/4/1
f 301/1/1 302/2/1 303/3/1 304/4/1
f 305/1/1 306/2/1 307/3/1 308/4/1
f 309/1/1 310/2/1 311/3/1 312/4/1
f 313/1/1 314/2/1 315/3/1 316/4/1
f 317/1/1 318/2/1 319/3/1 320/4/1
f 321/1/1 322/2/1 323/3/1 324/4/1
f 325/1/1 326/2/1 327/3/1 328/4/1
f 329/1/1 330/2/1 331/3/1 332/4/1
f 333/1/1 334/2/1 335/3/1 336/4/1
f 337/1/1 338/2/1 339/3/1 340/4/1
f 341/1/1 342/2/1 343/3/1 344/4/1
f 345/1/1 346/2/1 347/3/1 348/4/1
f 349/1/1 350/2/1 351/3/1 352/4/1
f 353/1/1 354/2/1 355/3/1 356/4/1
f 357/1/1 358/2/1 359/3/1 360/4/1
f 361/1/1 362/2/1 363/3/1 364/4/1
f 365/1/1 366/2/1 367/3/1 368/4/1
f 369/1/1 370/2/1 371/3/1 372/4/1
f 373/1/1 374/2/1 375/3/1 376/4/1
f 377/1/1 378/2/1 379/3/1 380/4/1
f 381/1/1 382/2/1 383/3/1 384/4/1
f 385/1/1 386/2/1 387/3/1 388/4/1
f 389/1/1 390/2/1 391/3/1 392/4/1
f 393/1/1 394/2/1 395/3/1 396/4/1
f 397/1/1 398/2/1 399/3/1 400/4/1
f 401/1/1 402/2/1 403/3/1 404/4/1
f 405/1/1 406/2/1 407/3/1 408/4/1
f 409/1/1 410/2/1 411/3/1 412/4/1
f 413/1/1 414/2/1 415/3/1 416/4/1
f 417/1/1 418/2/1 419/3/1 420/4/1
f 421/1/1 422/2/1 423/3/1 424/4/1
f 425/1/1 426/2/1 427/3/1 428/4/1
f 429/1/1 430/2/1 431/3/1 432/4/1
f 433/1/1 434/2/1 435/3/1 436/4/1
f 437/1/1 438/2/1 439/3/1 440/4/1
f 441/1/1 442/2/1 443/3/1 444/4/1
f 445/1/1 446/2/1 447/3/1 448/4/1
f 449/1/1 450/2/1 451/3/1 452/4/1
f 453/1/1 454/2/1 455/3/1 456/4/1
f 457/1/1 458/2/1 459/3/1 460/4/1
f 461/1/1 462/2/1 463/3/1 464/4/1
f 465/1/1 466/2/1 467/3/1 468/4/1
f 469/1/1 470/2/1 471/3/1 472/4/1
f 473/1/1 474/2/1 475/3/1 476/4/1
f 477/1/1 478/2/1 479/3/1 480/4/1
f 481/1/1 482/2/1 483/3/1 484/4/1
f 485/1/1 486/2/1 487/3/1 488/4/1
f 489/1/1 490/2/1 491/3/1 492/4/1
f 493/1/1 494/2/1 495/3/1 496/4/1
f 497/1/1 498/2/1 499/3/1 500/4/1
f 501/1/1 502/2/1 503/3/1 504/4/1
f 505/1/1 506/2/1 507/3/1 508/4/1
f 509/1/1 510/2/1 511/3/1 512/4/1
f 513/1/1 514/2/1 515/3/1 516/4/1
f 517/1/1 518/2/1 519/3/1 520/4/1
f 521/1/1 522/2/1 523/3/1 524/4/1
f 525/1/1 526/2/1 527/3/1 528/4/1
f 529/1/1 530/2/1 531/3/1 532/4/1
f 533/1/1 534/2/1 535/3/1 536/4/1
f 537/1/1 538/2/1 539/3/1 540/4/1
f 541/1/1 542/2/1 543/3/1 544/4/1
f 545/1/1 546/2/1 547/3/1 548/4/1

