# Tiled2Unity generated file. Do not modify by hand.
# Wavefront file for 'test_map_mesh_0003.obj'

# Vertices (Count = 304)
v -1844 -2136 0
v -1941 -2136 0
v -1941 -2066 0
v -1844 -2066 0
v -1795 -2112 0
v -1892 -2112 0
v -1892 -2042 0
v -1795 -2042 0
v -1747 -2088 0
v -1844 -2088 0
v -1844 -2018 0
v -1747 -2018 0
v -1844 -2088 0
v -1941 -2088 0
v -1941 -2018 0
v -1844 -2018 0
v -1795 -2064 0
v -1892 -2064 0
v -1892 -1994 0
v -1795 -1994 0
v -2280 -2256 0
v -2377 -2256 0
v -2377 -2186 0
v -2280 -2186 0
v -1747 -1992 0
v -1844 -1992 0
v -1844 -1922 0
v -1747 -1922 0
v -1504 -1872 0
v -1601 -1872 0
v -1601 -1802 0
v -1504 -1802 0
v -2135 -2136 0
v -2232 -2136 0
v -2232 -2066 0
v -2135 -2066 0
v -2086 -2112 0
v -2183 -2112 0
v -2183 -2042 0
v -2086 -2042 0
v -1650 -1896 0
v -1747 -1896 0
v -1747 -1826 0
v -1650 -1826 0
v -1601 -1872 0
v -1698 -1872 0
v -1698 -1802 0
v -1601 -1802 0
v -1553 -1848 0
v -1650 -1848 0
v -1650 -1778 0
v -1553 -1778 0
v -2280 -2160 0
v -2377 -2160 0
v -2377 -2090 0
v -2280 -2090 0
v -2232 -2136 0
v -2329 -2136 0
v -2329 -2066 0
v -2232 -2066 0
v -2086 -2064 0
v -2183 -2064 0
v -2183 -1994 0
v -2086 -1994 0
v -2038 -2040 0
v -2135 -2040 0
v -2135 -1970 0
v -2038 -1970 0
v -2425 -2184 0
v -2522 -2184 0
v -2522 -2114 0
v -2425 -2114 0
v -2377 -2160 0
v -2474 -2160 0
v -2474 -2090 0
v -2377 -2090 0
v -2474 -2160 0
v -2571 -2160 0
v -2571 -2090 0
v -2474 -2090 0
v -2425 -2136 0
v -2522 -2136 0
v -2522 -2066 0
v -2425 -2066 0
v -583 -1176 0
v -680 -1176 0
v -680 -1106 0
v -583 -1106 0
v -2716 -2088 0
v -2813 -2088 0
v -2813 -2018 0
v -2716 -2018 0
v -777 -984 0
v -874 -984 0
v -874 -914 0
v -777 -914 0
v -2862 -1968 0
v -2959 -1968 0
v -2959 -1898 0
v -2862 -1898 0
v -2038 -1464 0
v -2135 -1464 0
v -2135 -1394 0
v -2038 -1394 0
v -1844 -1368 0
v -1941 -1368 0
v -1941 -1298 0
v -1844 -1298 0
v -3153 -1968 0
v -3250 -1968 0
v -3250 -1898 0
v -3153 -1898 0
v -2280 -1536 0
v -2377 -1536 0
v -2377 -1466 0
v -2280 -1466 0
v -1747 -1272 0
v -1844 -1272 0
v -1844 -1202 0
v -1747 -1202 0
v -3153 -1920 0
v -3250 -1920 0
v -3250 -1850 0
v -3153 -1850 0
v -2329 -1512 0
v -2426 -1512 0
v -2426 -1442 0
v -2329 -1442 0
v -2232 -1464 0
v -2329 -1464 0
v -2329 -1394 0
v -2232 -1394 0
v -2183 -1440 0
v -2280 -1440 0
v -2280 -1370 0
v -2183 -1370 0
v -2038 -1368 0
v -2135 -1368 0
v -2135 -1298 0
v -2038 -1298 0
v -922 -816 0
v -1019 -816 0
v -1019 -746 0
v -922 -746 0
v -2668 -1632 0
v -2765 -1632 0
v -2765 -1562 0
v -2668 -1562 0
v -2522 -1560 0
v -2619 -1560 0
v -2619 -1490 0
v -2522 -1490 0
v -1795 -1200 0
v -1892 -1200 0
v -1892 -1130 0
v -1795 -1130 0
v -1892 -1152 0
v -1989 -1152 0
v -1989 -1082 0
v -1892 -1082 0
v -3395 -1848 0
v -3492 -1848 0
v -3492 -1778 0
v -3395 -1778 0
v -3298 -1800 0
v -3395 -1800 0
v -3395 -1730 0
v -3298 -1730 0
v -3444 -1824 0
v -3541 -1824 0
v -3541 -1754 0
v -3444 -1754 0
v -3347 -1776 0
v -3444 -1776 0
v -3444 -1706 0
v -3347 -1706 0
v -1165 -696 0
v -1262 -696 0
v -1262 -626 0
v -1165 -626 0
v -2038 -1080 0
v -2135 -1080 0
v -2135 -1010 0
v -2038 -1010 0
v -2135 -1032 0
v -2232 -1032 0
v -2232 -962 0
v -2135 -962 0
v -1359 -648 0
v -1456 -648 0
v -1456 -578 0
v -1359 -578 0
v -2232 -984 0
v -2329 -984 0
v -2329 -914 0
v -2232 -914 0
v -2280 -960 0
v -2377 -960 0
v -2377 -890 0
v -2280 -890 0
v -1407 -528 0
v -1504 -528 0
v -1504 -458 0
v -1407 -458 0
v -2329 -888 0
v -2426 -888 0
v -2426 -818 0
v -2329 -818 0
v -2377 -864 0
v -2474 -864 0
v -2474 -794 0
v -2377 -794 0
v -2619 -744 0
v -2716 -744 0
v -2716 -674 0
v -2619 -674 0
v -2668 -720 0
v -2765 -720 0
v -2765 -650 0
v -2668 -650 0
v -1989 -336 0
v -2086 -336 0
v -2086 -266 0
v -1989 -266 0
v -3686 -1128 0
v -3783 -1128 0
v -3783 -1058 0
v -3686 -1058 0
v -3444 -1008 0
v -3541 -1008 0
v -3541 -938 0
v -3444 -938 0
v -3444 -960 0
v -3541 -960 0
v -3541 -890 0
v -3444 -890 0
v -3201 -840 0
v -3298 -840 0
v -3298 -770 0
v -3201 -770 0
v -3104 -792 0
v -3201 -792 0
v -3201 -722 0
v -3104 -722 0
v -2765 -624 0
v -2862 -624 0
v -2862 -554 0
v -2765 -554 0
v -3735 -1056 0
v -3832 -1056 0
v -3832 -986 0
v -3735 -986 0
v -3056 -720 0
v -3153 -720 0
v -3153 -650 0
v -3056 -650 0
v -3686 -984 0
v -3783 -984 0
v -3783 -914 0
v -3686 -914 0
v -3007 -648 0
v -3104 -648 0
v -3104 -578 0
v -3007 -578 0
v -2959 -624 0
v -3056 -624 0
v -3056 -554 0
v -2959 -554 0
v -2716 -504 0
v -2813 -504 0
v -2813 -434 0
v -2716 -434 0
v -3153 -672 0
v -3250 -672 0
v -3250 -602 0
v -3153 -602 0
v -3395 -744 0
v -3492 -744 0
v -3492 -674 0
v -3395 -674 0
v -2813 -456 0
v -2910 -456 0
v -2910 -386 0
v -2813 -386 0
v -2959 -480 0
v -3056 -480 0
v -3056 -410 0
v -2959 -410 0
v -3347 -576 0
v -3444 -576 0
v -3444 -506 0
v -3347 -506 0
v -3298 -552 0
v -3395 -552 0
v -3395 -482 0
v -3298 -482 0
v -3347 -528 0
v -3444 -528 0
v -3444 -458 0
v -3347 -458 0
v -3298 -504 0
v -3395 -504 0
v -3395 -434 0
v -3298 -434 0

# Texture cooridinates (Count = 4)
vt 0 0
vt 1 0
vt 1 1
vt 0 1

# Normal
vn 0 0 -1

# Mesh description
g test_map_mesh_0003

# Faces
f 1/1/1 2/2/1 3/3/1 4/4/1
f 5/1/1 6/2/1 7/3/1 8/4/1
f 9/1/1 10/2/1 11/3/1 12/4/1
f 13/1/1 14/2/1 15/3/1 16/4/1
f 17/1/1 18/2/1 19/3/1 20/4/1
f 21/1/1 22/2/1 23/3/1 24/4/1
f 25/1/1 26/2/1 27/3/1 28/4/1
f 29/1/1 30/2/1 31/3/1 32/4/1
f 33/1/1 34/2/1 35/3/1 36/4/1
f 37/1/1 38/2/1 39/3/1 40/4/1
f 41/1/1 42/2/1 43/3/1 44/4/1
f 45/1/1 46/2/1 47/3/1 48/4/1
f 49/1/1 50/2/1 51/3/1 52/4/1
f 53/1/1 54/2/1 55/3/1 56/4/1
f 57/1/1 58/2/1 59/3/1 60/4/1
f 61/1/1 62/2/1 63/3/1 64/4/1
f 65/1/1 66/2/1 67/3/1 68/4/1
f 69/1/1 70/2/1 71/3/1 72/4/1
f 73/1/1 74/2/1 75/3/1 76/4/1
f 77/1/1 78/2/1 79/3/1 80/4/1
f 81/1/1 82/2/1 83/3/1 84/4/1
f 85/1/1 86/2/1 87/3/1 88/4/1
f 89/1/1 90/2/1 91/3/1 92/4/1
f 93/1/1 94/2/1 95/3/1 96/4/1
f 97/1/1 98/2/1 99/3/1 100/4/1
f 101/1/1 102/2/1 103/3/1 104/4/1
f 105/1/1 106/2/1 107/3/1 108/4/1
f 109/1/1 110/2/1 111/3/1 112/4/1
f 113/1/1 114/2/1 115/3/1 116/4/1
f 117/1/1 118/2/1 119/3/1 120/4/1
f 121/1/1 122/2/1 123/3/1 124/4/1
f 125/1/1 126/2/1 127/3/1 128/4/1
f 129/1/1 130/2/1 131/3/1 132/4/1
f 133/1/1 134/2/1 135/3/1 136/4/1
f 137/1/1 138/2/1 139/3/1 140/4/1
f 141/1/1 142/2/1 143/3/1 144/4/1
f 145/1/1 146/2/1 147/3/1 148/4/1
f 149/1/1 150/2/1 151/3/1 152/4/1
f 153/1/1 154/2/1 155/3/1 156/4/1
f 157/1/1 158/2/1 159/3/1 160/4/1
f 161/1/1 162/2/1 163/3/1 164/4/1
f 165/1/1 166/2/1 167/3/1 168/4/1
f 169/1/1 170/2/1 171/3/1 172/4/1
f 173/1/1 174/2/1 175/3/1 176/4/1
f 177/1/1 178/2/1 179/3/1 180/4/1
f 181/1/1 182/2/1 183/3/1 184/4/1
f 185/1/1 186/2/1 187/3/1 188/4/1
f 189/1/1 190/2/1 191/3/1 192/4/1
f 193/1/1 194/2/1 195/3/1 196/4/1
f 197/1/1 198/2/1 199/3/1 200/4/1
f 201/1/1 202/2/1 203/3/1 204/4/1
f 205/1/1 206/2/1 207/3/1 208/4/1
f 209/1/1 210/2/1 211/3/1 212/4/1
f 213/1/1 214/2/1 215/3/1 216/4/1
f 217/1/1 218/2/1 219/3/1 220/4/1
f 221/1/1 222/2/1 223/3/1 224/4/1
f 225/1/1 226/2/1 227/3/1 228/4/1
f 229/1/1 230/2/1 231/3/1 232/4/1
f 233/1/1 234/2/1 235/3/1 236/4/1
f 237/1/1 238/2/1 239/3/1 240/4/1
f 241/1/1 242/2/1 243/3/1 244/4/1
f 245/1/1 246/2/1 247/3/1 248/4/1
f 249/1/1 250/2/1 251/3/1 252/4/1
f 253/1/1 254/2/1 255/3/1 256/4/1
f 257/1/1 258/2/1 259/3/1 260/4/1
f 261/1/1 262/2/1 263/3/1 264/4/1
f 265/1/1 266/2/1 267/3/1 268/4/1
f 269/1/1 270/2/1 271/3/1 272/4/1
f 273/1/1 274/2/1 275/3/1 276/4/1
f 277/1/1 278/2/1 279/3/1 280/4/1
f 281/1/1 282/2/1 283/3/1 284/4/1
f 285/1/1 286/2/1 287/3/1 288/4/1
f 289/1/1 290/2/1 291/3/1 292/4/1
f 293/1/1 294/2/1 295/3/1 296/4/1
f 297/1/1 298/2/1 299/3/1 300/4/1
f 301/1/1 302/2/1 303/3/1 304/4/1

