# Tiled2Unity generated file. Do not modify by hand.
# Wavefront file for 'test_map_mesh_0007.obj'

# Vertices (Count = 776)
v -1989 -1968 0
v -2086 -1968 0
v -2086 -1898 0
v -1989 -1898 0
v -1795 -1872 0
v -1892 -1872 0
v -1892 -1802 0
v -1795 -1802 0
v -2086 -1968 0
v -2183 -1968 0
v -2183 -1898 0
v -2086 -1898 0
v -1989 -1920 0
v -2086 -1920 0
v -2086 -1850 0
v -1989 -1850 0
v -1650 -1752 0
v -1747 -1752 0
v -1747 -1682 0
v -1650 -1682 0
v -1407 -1632 0
v -1504 -1632 0
v -1504 -1562 0
v -1407 -1562 0
v -1504 -1632 0
v -1601 -1632 0
v -1601 -1562 0
v -1504 -1562 0
v -1407 -1584 0
v -1504 -1584 0
v -1504 -1514 0
v -1407 -1514 0
v -2329 -1992 0
v -2426 -1992 0
v -2426 -1922 0
v -2329 -1922 0
v -2183 -1920 0
v -2280 -1920 0
v -2280 -1850 0
v -2183 -1850 0
v -1844 -1752 0
v -1941 -1752 0
v -1941 -1682 0
v -1844 -1682 0
v -1650 -1656 0
v -1747 -1656 0
v -1747 -1586 0
v -1650 -1586 0
v -1601 -1632 0
v -1698 -1632 0
v -1698 -1562 0
v -1601 -1562 0
v -1892 -1728 0
v -1989 -1728 0
v -1989 -1658 0
v -1892 -1658 0
v -1795 -1680 0
v -1892 -1680 0
v -1892 -1610 0
v -1795 -1610 0
v -1747 -1656 0
v -1844 -1656 0
v -1844 -1586 0
v -1747 -1586 0
v -1698 -1632 0
v -1795 -1632 0
v -1795 -1562 0
v -1698 -1562 0
v -1601 -1584 0
v -1698 -1584 0
v -1698 -1514 0
v -1601 -1514 0
v -2522 -1992 0
v -2619 -1992 0
v -2619 -1922 0
v -2522 -1922 0
v -2474 -1968 0
v -2571 -1968 0
v -2571 -1898 0
v -2474 -1898 0
v -2280 -1872 0
v -2377 -1872 0
v -2377 -1802 0
v -2280 -1802 0
v -2232 -1848 0
v -2329 -1848 0
v -2329 -1778 0
v -2232 -1778 0
v -1650 -1560 0
v -1747 -1560 0
v -1747 -1490 0
v -1650 -1490 0
v -1407 -1440 0
v -1504 -1440 0
v -1504 -1370 0
v -1407 -1370 0
v -1019 -1248 0
v -1116 -1248 0
v -1116 -1178 0
v -1019 -1178 0
v -2474 -1920 0
v -2571 -1920 0
v -2571 -1850 0
v -2474 -1850 0
v -2425 -1896 0
v -2522 -1896 0
v -2522 -1826 0
v -2425 -1826 0
v -2377 -1872 0
v -2474 -1872 0
v -2474 -1802 0
v -2377 -1802 0
v -2329 -1848 0
v -2426 -1848 0
v -2426 -1778 0
v -2329 -1778 0
v -1747 -1560 0
v -1844 -1560 0
v -1844 -1490 0
v -1747 -1490 0
v -1504 -1440 0
v -1601 -1440 0
v -1601 -1370 0
v -1504 -1370 0
v -2183 -1728 0
v -2280 -1728 0
v -2280 -1658 0
v -2183 -1658 0
v -2086 -1680 0
v -2183 -1680 0
v -2183 -1610 0
v -2086 -1610 0
v -2038 -1656 0
v -2135 -1656 0
v -2135 -1586 0
v -2038 -1586 0
v -1068 -1176 0
v -1165 -1176 0
v -1165 -1106 0
v -1068 -1106 0
v -2329 -1752 0
v -2426 -1752 0
v -2426 -1682 0
v -2329 -1682 0
v -2280 -1728 0
v -2377 -1728 0
v -2377 -1658 0
v -2280 -1658 0
v -2183 -1680 0
v -2280 -1680 0
v -2280 -1610 0
v -2183 -1610 0
v -2619 -1848 0
v -2716 -1848 0
v -2716 -1778 0
v -2619 -1778 0
v -2522 -1800 0
v -2619 -1800 0
v -2619 -1730 0
v -2522 -1730 0
v -2377 -1728 0
v -2474 -1728 0
v -2474 -1658 0
v -2377 -1658 0
v -2086 -1584 0
v -2183 -1584 0
v -2183 -1514 0
v -2086 -1514 0
v -1989 -1536 0
v -2086 -1536 0
v -2086 -1466 0
v -1989 -1466 0
v -1941 -1512 0
v -2038 -1512 0
v -2038 -1442 0
v -1941 -1442 0
v -1844 -1464 0
v -1941 -1464 0
v -1941 -1394 0
v -1844 -1394 0
v -2619 -1800 0
v -2716 -1800 0
v -2716 -1730 0
v -2619 -1730 0
v -2377 -1680 0
v -2474 -1680 0
v -2474 -1610 0
v -2377 -1610 0
v -2329 -1656 0
v -2426 -1656 0
v -2426 -1586 0
v -2329 -1586 0
v -2086 -1536 0
v -2183 -1536 0
v -2183 -1466 0
v -2086 -1466 0
v -1456 -1224 0
v -1553 -1224 0
v -1553 -1154 0
v -1456 -1154 0
v -1359 -1176 0
v -1456 -1176 0
v -1456 -1106 0
v -1359 -1106 0
v -1116 -1056 0
v -1213 -1056 0
v -1213 -986 0
v -1116 -986 0
v -2571 -1728 0
v -2668 -1728 0
v -2668 -1658 0
v -2571 -1658 0
v -2474 -1680 0
v -2571 -1680 0
v -2571 -1610 0
v -2474 -1610 0
v -1553 -1176 0
v -1650 -1176 0
v -1650 -1106 0
v -1553 -1106 0
v -1407 -1104 0
v -1504 -1104 0
v -1504 -1034 0
v -1407 -1034 0
v -1262 -1032 0
v -1359 -1032 0
v -1359 -962 0
v -1262 -962 0
v -2862 -1776 0
v -2959 -1776 0
v -2959 -1706 0
v -2862 -1706 0
v -2813 -1752 0
v -2910 -1752 0
v -2910 -1682 0
v -2813 -1682 0
v -1359 -1032 0
v -1456 -1032 0
v -1456 -962 0
v -1359 -962 0
v -2910 -1752 0
v -3007 -1752 0
v -3007 -1682 0
v -2910 -1682 0
v -1407 -1008 0
v -1504 -1008 0
v -1504 -938 0
v -1407 -938 0
v -2232 -1368 0
v -2329 -1368 0
v -2329 -1298 0
v -2232 -1298 0
v -3104 -1752 0
v -3201 -1752 0
v -3201 -1682 0
v -3104 -1682 0
v -3056 -1728 0
v -3153 -1728 0
v -3153 -1658 0
v -3056 -1658 0
v -2668 -1536 0
v -2765 -1536 0
v -2765 -1466 0
v -2668 -1466 0
v -2619 -1512 0
v -2716 -1512 0
v -2716 -1442 0
v -2619 -1442 0
v -2571 -1488 0
v -2668 -1488 0
v -2668 -1418 0
v -2571 -1418 0
v -2135 -1272 0
v -2232 -1272 0
v -2232 -1202 0
v -2135 -1202 0
v -1989 -1200 0
v -2086 -1200 0
v -2086 -1130 0
v -1989 -1130 0
v -1165 -792 0
v -1262 -792 0
v -1262 -722 0
v -1165 -722 0
v -3201 -1752 0
v -3298 -1752 0
v -3298 -1682 0
v -3201 -1682 0
v -3153 -1728 0
v -3250 -1728 0
v -3250 -1658 0
v -3153 -1658 0
v -1747 -1032 0
v -1844 -1032 0
v -1844 -962 0
v -1747 -962 0
v -3104 -1656 0
v -3201 -1656 0
v -3201 -1586 0
v -3104 -1586 0
v -3007 -1608 0
v -3104 -1608 0
v -3104 -1538 0
v -3007 -1538 0
v -2765 -1488 0
v -2862 -1488 0
v -2862 -1418 0
v -2765 -1418 0
v -2329 -1272 0
v -2426 -1272 0
v -2426 -1202 0
v -2329 -1202 0
v -2232 -1224 0
v -2329 -1224 0
v -2329 -1154 0
v -2232 -1154 0
v -2086 -1152 0
v -2183 -1152 0
v -2183 -1082 0
v -2086 -1082 0
v -3298 -1704 0
v -3395 -1704 0
v -3395 -1634 0
v -3298 -1634 0
v -3153 -1632 0
v -3250 -1632 0
v -3250 -1562 0
v -3153 -1562 0
v -3104 -1608 0
v -3201 -1608 0
v -3201 -1538 0
v -3104 -1538 0
v -3056 -1584 0
v -3153 -1584 0
v -3153 -1514 0
v -3056 -1514 0
v -2910 -1512 0
v -3007 -1512 0
v -3007 -1442 0
v -2910 -1442 0
v -2522 -1320 0
v -2619 -1320 0
v -2619 -1250 0
v -2522 -1250 0
v -2474 -1296 0
v -2571 -1296 0
v -2571 -1226 0
v -2474 -1226 0
v -2425 -1272 0
v -2522 -1272 0
v -2522 -1202 0
v -2425 -1202 0
v -1310 -720 0
v -1407 -720 0
v -1407 -650 0
v -1310 -650 0
v -3395 -1704 0
v -3492 -1704 0
v -3492 -1634 0
v -3395 -1634 0
v -3201 -1608 0
v -3298 -1608 0
v -3298 -1538 0
v -3201 -1538 0
v -3104 -1560 0
v -3201 -1560 0
v -3201 -1490 0
v -3104 -1490 0
v -2862 -1440 0
v -2959 -1440 0
v -2959 -1370 0
v -2862 -1370 0
v -2716 -1368 0
v -2813 -1368 0
v -2813 -1298 0
v -2716 -1298 0
v -2668 -1344 0
v -2765 -1344 0
v -2765 -1274 0
v -2668 -1274 0
v -2329 -1176 0
v -2426 -1176 0
v -2426 -1106 0
v -2329 -1106 0
v -2135 -1080 0
v -2232 -1080 0
v -2232 -1010 0
v -2135 -1010 0
v -1989 -1008 0
v -2086 -1008 0
v -2086 -938 0
v -1989 -938 0
v -1407 -720 0
v -1504 -720 0
v -1504 -650 0
v -1407 -650 0
v -1359 -696 0
v -1456 -696 0
v -1456 -626 0
v -1359 -626 0
v -3250 -1584 0
v -3347 -1584 0
v -3347 -1514 0
v -3250 -1514 0
v -3201 -1560 0
v -3298 -1560 0
v -3298 -1490 0
v -3201 -1490 0
v -2813 -1368 0
v -2910 -1368 0
v -2910 -1298 0
v -2813 -1298 0
v -2765 -1344 0
v -2862 -1344 0
v -2862 -1274 0
v -2765 -1274 0
v -2377 -1152 0
v -2474 -1152 0
v -2474 -1082 0
v -2377 -1082 0
v -2183 -1056 0
v -2280 -1056 0
v -2280 -986 0
v -2183 -986 0
v -1407 -672 0
v -1504 -672 0
v -1504 -602 0
v -1407 -602 0
v -2086 -960 0
v -2183 -960 0
v -2183 -890 0
v -2086 -890 0
v -1504 -672 0
v -1601 -672 0
v -1601 -602 0
v -1504 -602 0
v -1456 -648 0
v -1553 -648 0
v -1553 -578 0
v -1456 -578 0
v -1650 -600 0
v -1747 -600 0
v -1747 -530 0
v -1650 -530 0
v -1601 -576 0
v -1698 -576 0
v -1698 -506 0
v -1601 -506 0
v -3638 -1536 0
v -3735 -1536 0
v -3735 -1466 0
v -3638 -1466 0
v -3395 -1416 0
v -3492 -1416 0
v -3492 -1346 0
v -3395 -1346 0
v -3347 -1392 0
v -3444 -1392 0
v -3444 -1322 0
v -3347 -1322 0
v -3153 -1296 0
v -3250 -1296 0
v -3250 -1226 0
v -3153 -1226 0
v -2959 -1200 0
v -3056 -1200 0
v -3056 -1130 0
v -2959 -1130 0
v -2813 -1128 0
v -2910 -1128 0
v -2910 -1058 0
v -2813 -1058 0
v -2425 -936 0
v -2522 -936 0
v -2522 -866 0
v -2425 -866 0
v -2232 -840 0
v -2329 -840 0
v -2329 -770 0
v -2232 -770 0
v -1650 -552 0
v -1747 -552 0
v -1747 -482 0
v -1650 -482 0
v -3638 -1488 0
v -3735 -1488 0
v -3735 -1418 0
v -3638 -1418 0
v -3395 -1368 0
v -3492 -1368 0
v -3492 -1298 0
v -3395 -1298 0
v -3104 -1224 0
v -3201 -1224 0
v -3201 -1154 0
v -3104 -1154 0
v -3007 -1176 0
v -3104 -1176 0
v -3104 -1106 0
v -3007 -1106 0
v -2232 -792 0
v -2329 -792 0
v -2329 -722 0
v -2232 -722 0
v -1698 -528 0
v -1795 -528 0
v -1795 -458 0
v -1698 -458 0
v -3686 -1464 0
v -3783 -1464 0
v -3783 -1394 0
v -3686 -1394 0
v -3589 -1416 0
v -3686 -1416 0
v -3686 -1346 0
v -3589 -1346 0
v -2474 -864 0
v -2571 -864 0
v -2571 -794 0
v -2474 -794 0
v -1795 -528 0
v -1892 -528 0
v -1892 -458 0
v -1795 -458 0
v -1747 -504 0
v -1844 -504 0
v -1844 -434 0
v -1747 -434 0
v -3735 -1440 0
v -3832 -1440 0
v -3832 -1370 0
v -3735 -1370 0
v -3104 -1128 0
v -3201 -1128 0
v -3201 -1058 0
v -3104 -1058 0
v -2813 -984 0
v -2910 -984 0
v -2910 -914 0
v -2813 -914 0
v -2765 -960 0
v -2862 -960 0
v -2862 -890 0
v -2765 -890 0
v -2619 -888 0
v -2716 -888 0
v -2716 -818 0
v -2619 -818 0
v -3686 -1368 0
v -3783 -1368 0
v -3783 -1298 0
v -3686 -1298 0
v -3638 -1344 0
v -3735 -1344 0
v -3735 -1274 0
v -3638 -1274 0
v -3589 -1320 0
v -3686 -1320 0
v -3686 -1250 0
v -3589 -1250 0
v -3541 -1296 0
v -3638 -1296 0
v -3638 -1226 0
v -3541 -1226 0
v -3492 -1272 0
v -3589 -1272 0
v -3589 -1202 0
v -3492 -1202 0
v -3444 -1248 0
v -3541 -1248 0
v -3541 -1178 0
v -3444 -1178 0
v -3395 -1224 0
v -3492 -1224 0
v -3492 -1154 0
v -3395 -1154 0
v -3298 -1176 0
v -3395 -1176 0
v -3395 -1106 0
v -3298 -1106 0
v -3250 -1152 0
v -3347 -1152 0
v -3347 -1082 0
v -3250 -1082 0
v -3201 -1128 0
v -3298 -1128 0
v -3298 -1058 0
v -3201 -1058 0
v -3153 -1104 0
v -3250 -1104 0
v -3250 -1034 0
v -3153 -1034 0
v -2910 -984 0
v -3007 -984 0
v -3007 -914 0
v -2910 -914 0
v -2813 -936 0
v -2910 -936 0
v -2910 -866 0
v -2813 -866 0
v -2716 -888 0
v -2813 -888 0
v -2813 -818 0
v -2716 -818 0
v -2668 -864 0
v -2765 -864 0
v -2765 -794 0
v -2668 -794 0
v -2425 -744 0
v -2522 -744 0
v -2522 -674 0
v -2425 -674 0
v -3735 -1344 0
v -3832 -1344 0
v -3832 -1274 0
v -3735 -1274 0
v -3589 -1272 0
v -3686 -1272 0
v -3686 -1202 0
v -3589 -1202 0
v -3492 -1224 0
v -3589 -1224 0
v -3589 -1154 0
v -3492 -1154 0
v -3444 -1200 0
v -3541 -1200 0
v -3541 -1130 0
v -3444 -1130 0
v -3298 -1128 0
v -3395 -1128 0
v -3395 -1058 0
v -3298 -1058 0
v -3201 -1080 0
v -3298 -1080 0
v -3298 -1010 0
v -3201 -1010 0
v -3153 -1056 0
v -3250 -1056 0
v -3250 -986 0
v -3153 -986 0
v -3104 -1032 0
v -3201 -1032 0
v -3201 -962 0
v -3104 -962 0
v -3056 -1008 0
v -3153 -1008 0
v -3153 -938 0
v -3056 -938 0
v -2959 -960 0
v -3056 -960 0
v -3056 -890 0
v -2959 -890 0
v -2910 -936 0
v -3007 -936 0
v -3007 -866 0
v -2910 -866 0
v -3735 -1296 0
v -3832 -1296 0
v -3832 -1226 0
v -3735 -1226 0
v -3686 -1272 0
v -3783 -1272 0
v -3783 -1202 0
v -3686 -1202 0
v -3104 -984 0
v -3201 -984 0
v -3201 -914 0
v -3104 -914 0
v -3056 -960 0
v -3153 -960 0
v -3153 -890 0
v -3056 -890 0
v -3007 -936 0
v -3104 -936 0
v -3104 -866 0
v -3007 -866 0
v -2910 -888 0
v -3007 -888 0
v -3007 -818 0
v -2910 -818 0
v -2862 -864 0
v -2959 -864 0
v -2959 -794 0
v -2862 -794 0
v -3735 -1248 0
v -3832 -1248 0
v -3832 -1178 0
v -3735 -1178 0
v -3686 -1224 0
v -3783 -1224 0
v -3783 -1154 0
v -3686 -1154 0
v -3638 -1200 0
v -3735 -1200 0
v -3735 -1130 0
v -3638 -1130 0
v -3589 -1176 0
v -3686 -1176 0
v -3686 -1106 0
v -3589 -1106 0
v -3541 -1152 0
v -3638 -1152 0
v -3638 -1082 0
v -3541 -1082 0
v -3492 -1128 0
v -3589 -1128 0
v -3589 -1058 0
v -3492 -1058 0
v -3444 -1104 0
v -3541 -1104 0
v -3541 -1034 0
v -3444 -1034 0
v -3395 -1080 0
v -3492 -1080 0
v -3492 -1010 0
v -3395 -1010 0
v -3347 -1056 0
v -3444 -1056 0
v -3444 -986 0
v -3347 -986 0
v -3298 -1032 0
v -3395 -1032 0
v -3395 -962 0
v -3298 -962 0
v -3250 -1008 0
v -3347 -1008 0
v -3347 -938 0
v -3250 -938 0
v -3201 -984 0
v -3298 -984 0
v -3298 -914 0
v -3201 -914 0
v -2377 -576 0
v -2474 -576 0
v -2474 -506 0
v -2377 -506 0
v -2280 -528 0
v -2377 -528 0
v -2377 -458 0
v -2280 -458 0
v -2183 -480 0
v -2280 -480 0
v -2280 -410 0
v -2183 -410 0
v -2038 -408 0
v -2135 -408 0
v -2135 -338 0
v -2038 -338 0
v -2135 -408 0
v -2232 -408 0
v -2232 -338 0
v -2135 -338 0
v -2425 -504 0
v -2522 -504 0
v -2522 -434 0
v -2425 -434 0
v -2135 -360 0
v -2232 -360 0
v -2232 -290 0
v -2135 -290 0
v -2377 -432 0
v -2474 -432 0
v -2474 -362 0
v -2377 -362 0
v -2232 -360 0
v -2329 -360 0
v -2329 -290 0
v -2232 -290 0
v -2571 -432 0
v -2668 -432 0
v -2668 -362 0
v -2571 -362 0
v -2522 -408 0
v -2619 -408 0
v -2619 -338 0
v -2522 -338 0

# Texture cooridinates (Count = 4)
vt 0 0
vt 1 0
vt 1 1
vt 0 1

# Normal
vn 0 0 -1

# Mesh description
g test_map_mesh_0007

# Faces
f 1/1/1 2/2/1 3/3/1 4/4/1
f 5/1/1 6/2/1 7/3/1 8/4/1
f 9/1/1 10/2/1 11/3/1 12/4/1
f 13/1/1 14/2/1 15/3/1 16/4/1
f 17/1/1 18/2/1 19/3/1 20/4/1
f 21/1/1 22/2/1 23/3/1 24/4/1
f 25/1/1 26/2/1 27/3/1 28/4/1
f 29/1/1 30/2/1 31/3/1 32/4/1
f 33/1/1 34/2/1 35/3/1 36/4/1
f 37/1/1 38/2/1 39/3/1 40/4/1
f 41/1/1 42/2/1 43/3/1 44/4/1
f 45/1/1 46/2/1 47/3/1 48/4/1
f 49/1/1 50/2/1 51/3/1 52/4/1
f 53/1/1 54/2/1 55/3/1 56/4/1
f 57/1/1 58/2/1 59/3/1 60/4/1
f 61/1/1 62/2/1 63/3/1 64/4/1
f 65/1/1 66/2/1 67/3/1 68/4/1
f 69/1/1 70/2/1 71/3/1 72/4/1
f 73/1/1 74/2/1 75/3/1 76/4/1
f 77/1/1 78/2/1 79/3/1 80/4/1
f 81/1/1 82/2/1 83/3/1 84/4/1
f 85/1/1 86/2/1 87/3/1 88/4/1
f 89/1/1 90/2/1 91/3/1 92/4/1
f 93/1/1 94/2/1 95/3/1 96/4/1
f 97/1/1 98/2/1 99/3/1 100/4/1
f 101/1/1 102/2/1 103/3/1 104/4/1
f 105/1/1 106/2/1 107/3/1 108/4/1
f 109/1/1 110/2/1 111/3/1 112/4/1
f 113/1/1 114/2/1 115/3/1 116/4/1
f 117/1/1 118/2/1 119/3/1 120/4/1
f 121/1/1 122/2/1 123/3/1 124/4/1
f 125/1/1 126/2/1 127/3/1 128/4/1
f 129/1/1 130/2/1 131/3/1 132/4/1
f 133/1/1 134/2/1 135/3/1 136/4/1
f 137/1/1 138/2/1 139/3/1 140/4/1
f 141/1/1 142/2/1 143/3/1 144/4/1
f 145/1/1 146/2/1 147/3/1 148/4/1
f 149/1/1 150/2/1 151/3/1 152/4/1
f 153/1/1 154/2/1 155/3/1 156/4/1
f 157/1/1 158/2/1 159/3/1 160/4/1
f 161/1/1 162/2/1 163/3/1 164/4/1
f 165/1/1 166/2/1 167/3/1 168/4/1
f 169/1/1 170/2/1 171/3/1 172/4/1
f 173/1/1 174/2/1 175/3/1 176/4/1
f 177/1/1 178/2/1 179/3/1 180/4/1
f 181/1/1 182/2/1 183/3/1 184/4/1
f 185/1/1 186/2/1 187/3/1 188/4/1
f 189/1/1 190/2/1 191/3/1 192/4/1
f 193/1/1 194/2/1 195/3/1 196/4/1
f 197/1/1 198/2/1 199/3/1 200/4/1
f 201/1/1 202/2/1 203/3/1 204/4/1
f 205/1/1 206/2/1 207/3/1 208/4/1
f 209/1/1 210/2/1 211/3/1 212/4/1
f 213/1/1 214/2/1 215/3/1 216/4/1
f 217/1/1 218/2/1 219/3/1 220/4/1
f 221/1/1 222/2/1 223/3/1 224/4/1
f 225/1/1 226/2/1 227/3/1 228/4/1
f 229/1/1 230/2/1 231/3/1 232/4/1
f 233/1/1 234/2/1 235/3/1 236/4/1
f 237/1/1 238/2/1 239/3/1 240/4/1
f 241/1/1 242/2/1 243/3/1 244/4/1
f 245/1/1 246/2/1 247/3/1 248/4/1
f 249/1/1 250/2/1 251/3/1 252/4/1
f 253/1/1 254/2/1 255/3/1 256/4/1
f 257/1/1 258/2/1 259/3/1 260/4/1
f 261/1/1 262/2/1 263/3/1 264/4/1
f 265/1/1 266/2/1 267/3/1 268/4/1
f 269/1/1 270/2/1 271/3/1 272/4/1
f 273/1/1 274/2/1 275/3/1 276/4/1
f 277/1/1 278/2/1 279/3/1 280/4/1
f 281/1/1 282/2/1 283/3/1 284/4/1
f 285/1/1 286/2/1 287/3/1 288/4/1
f 289/1/1 290/2/1 291/3/1 292/4/1
f 293/1/1 294/2/1 295/3/1 296/4/1
f 297/1/1 298/2/1 299/3/1 300/4/1
f 301/1/1 302/2/1 303/3/1 304/4/1
f 305/1/1 306/2/1 307/3/1 308/4/1
f 309/1/1 310/2/1 311/3/1 312/4/1
f 313/1/1 314/2/1 315/3/1 316/4/1
f 317/1/1 318/2/1 319/3/1 320/4/1
f 321/1/1 322/2/1 323/3/1 324/4/1
f 325/1/1 326/2/1 327/3/1 328/4/1
f 329/1/1 330/2/1 331/3/1 332/4/1
f 333/1/1 334/2/1 335/3/1 336/4/1
f 337/1/1 338/2/1 339/3/1 340/4/1
f 341/1/1 342/2/1 343/3/1 344/4/1
f 345/1/1 346/2/1 347/3/1 348/4/1
f 349/1/1 350/2/1 351/3/1 352/4/1
f 353/1/1 354/2/1 355/3/1 356/4/1
f 357/1/1 358/2/1 359/3/1 360/4/1
f 361/1/1 362/2/1 363/3/1 364/4/1
f 365/1/1 366/2/1 367/3/1 368/4/1
f 369/1/1 370/2/1 371/3/1 372/4/1
f 373/1/1 374/2/1 375/3/1 376/4/1
f 377/1/1 378/2/1 379/3/1 380/4/1
f 381/1/1 382/2/1 383/3/1 384/4/1
f 385/1/1 386/2/1 387/3/1 388/4/1
f 389/1/1 390/2/1 391/3/1 392/4/1
f 393/1/1 394/2/1 395/3/1 396/4/1
f 397/1/1 398/2/1 399/3/1 400/4/1
f 401/1/1 402/2/1 403/3/1 404/4/1
f 405/1/1 406/2/1 407/3/1 408/4/1
f 409/1/1 410/2/1 411/3/1 412/4/1
f 413/1/1 414/2/1 415/3/1 416/4/1
f 417/1/1 418/2/1 419/3/1 420/4/1
f 421/1/1 422/2/1 423/3/1 424/4/1
f 425/1/1 426/2/1 427/3/1 428/4/1
f 429/1/1 430/2/1 431/3/1 432/4/1
f 433/1/1 434/2/1 435/3/1 436/4/1
f 437/1/1 438/2/1 439/3/1 440/4/1
f 441/1/1 442/2/1 443/3/1 444/4/1
f 445/1/1 446/2/1 447/3/1 448/4/1
f 449/1/1 450/2/1 451/3/1 452/4/1
f 453/1/1 454/2/1 455/3/1 456/4/1
f 457/1/1 458/2/1 459/3/1 460/4/1
f 461/1/1 462/2/1 463/3/1 464/4/1
f 465/1/1 466/2/1 467/3/1 468/4/1
f 469/1/1 470/2/1 471/3/1 472/4/1
f 473/1/1 474/2/1 475/3/1 476/4/1
f 477/1/1 478/2/1 479/3/1 480/4/1
f 481/1/1 482/2/1 483/3/1 484/4/1
f 485/1/1 486/2/1 487/3/1 488/4/1
f 489/1/1 490/2/1 491/3/1 492/4/1
f 493/1/1 494/2/1 495/3/1 496/4/1
f 497/1/1 498/2/1 499/3/1 500/4/1
f 501/1/1 502/2/1 503/3/1 504/4/1
f 505/1/1 506/2/1 507/3/1 508/4/1
f 509/1/1 510/2/1 511/3/1 512/4/1
f 513/1/1 514/2/1 515/3/1 516/4/1
f 517/1/1 518/2/1 519/3/1 520/4/1
f 521/1/1 522/2/1 523/3/1 524/4/1
f 525/1/1 526/2/1 527/3/1 528/4/1
f 529/1/1 530/2/1 531/3/1 532/4/1
f 533/1/1 534/2/1 535/3/1 536/4/1
f 537/1/1 538/2/1 539/3/1 540/4/1
f 541/1/1 542/2/1 543/3/1 544/4/1
f 545/1/1 546/2/1 547/3/1 548/4/1
f 549/1/1 550/2/1 551/3/1 552/4/1
f 553/1/1 554/2/1 555/3/1 556/4/1
f 557/1/1 558/2/1 559/3/1 560/4/1
f 561/1/1 562/2/1 563/3/1 564/4/1
f 565/1/1 566/2/1 567/3/1 568/4/1
f 569/1/1 570/2/1 571/3/1 572/4/1
f 573/1/1 574/2/1 575/3/1 576/4/1
f 577/1/1 578/2/1 579/3/1 580/4/1
f 581/1/1 582/2/1 583/3/1 584/4/1
f 585/1/1 586/2/1 587/3/1 588/4/1
f 589/1/1 590/2/1 591/3/1 592/4/1
f 593/1/1 594/2/1 595/3/1 596/4/1
f 597/1/1 598/2/1 599/3/1 600/4/1
f 601/1/1 602/2/1 603/3/1 604/4/1
f 605/1/1 606/2/1 607/3/1 608/4/1
f 609/1/1 610/2/1 611/3/1 612/4/1
f 613/1/1 614/2/1 615/3/1 616/4/1
f 617/1/1 618/2/1 619/3/1 620/4/1
f 621/1/1 622/2/1 623/3/1 624/4/1
f 625/1/1 626/2/1 627/3/1 628/4/1
f 629/1/1 630/2/1 631/3/1 632/4/1
f 633/1/1 634/2/1 635/3/1 636/4/1
f 637/1/1 638/2/1 639/3/1 640/4/1
f 641/1/1 642/2/1 643/3/1 644/4/1
f 645/1/1 646/2/1 647/3/1 648/4/1
f 649/1/1 650/2/1 651/3/1 652/4/1
f 653/1/1 654/2/1 655/3/1 656/4/1
f 657/1/1 658/2/1 659/3/1 660/4/1
f 661/1/1 662/2/1 663/3/1 664/4/1
f 665/1/1 666/2/1 667/3/1 668/4/1
f 669/1/1 670/2/1 671/3/1 672/4/1
f 673/1/1 674/2/1 675/3/1 676/4/1
f 677/1/1 678/2/1 679/3/1 680/4/1
f 681/1/1 682/2/1 683/3/1 684/4/1
f 685/1/1 686/2/1 687/3/1 688/4/1
f 689/1/1 690/2/1 691/3/1 692/4/1
f 693/1/1 694/2/1 695/3/1 696/4/1
f 697/1/1 698/2/1 699/3/1 700/4/1
f 701/1/1 702/2/1 703/3/1 704/4/1
f 705/1/1 706/2/1 707/3/1 708/4/1
f 709/1/1 710/2/1 711/3/1 712/4/1
f 713/1/1 714/2/1 715/3/1 716/4/1
f 717/1/1 718/2/1 719/3/1 720/4/1
f 721/1/1 722/2/1 723/3/1 724/4/1
f 725/1/1 726/2/1 727/3/1 728/4/1
f 729/1/1 730/2/1 731/3/1 732/4/1
f 733/1/1 734/2/1 735/3/1 736/4/1
f 737/1/1 738/2/1 739/3/1 740/4/1
f 741/1/1 742/2/1 743/3/1 744/4/1
f 745/1/1 746/2/1 747/3/1 748/4/1
f 749/1/1 750/2/1 751/3/1 752/4/1
f 753/1/1 754/2/1 755/3/1 756/4/1
f 757/1/1 758/2/1 759/3/1 760/4/1
f 761/1/1 762/2/1 763/3/1 764/4/1
f 765/1/1 766/2/1 767/3/1 768/4/1
f 769/1/1 770/2/1 771/3/1 772/4/1
f 773/1/1 774/2/1 775/3/1 776/4/1

