# Tiled2Unity generated file. Do not modify by hand.
# Wavefront file for 'test_map_mesh_0020.obj'

# Vertices (Count = 12)
v -1892 -1440 0
v -1989 -1440 0
v -1989 -1370 0
v -1892 -1370 0
v -1795 -1344 0
v -1892 -1344 0
v -1892 -1274 0
v -1795 -1274 0
v -1698 -1248 0
v -1795 -1248 0
v -1795 -1178 0
v -1698 -1178 0

# Texture cooridinates (Count = 4)
vt 0 0
vt 1 0
vt 1 1
vt 0 1

# Normal
vn 0 0 -1

# Mesh description
g test_map_mesh_0020

# Faces
f 1/1/1 2/2/1 3/3/1 4/4/1
f 5/1/1 6/2/1 7/3/1 8/4/1
f 9/1/1 10/2/1 11/3/1 12/4/1

