# Tiled2Unity generated file. Do not modify by hand.
# Wavefront file for 'test_map_mesh_0016.obj'

# Vertices (Count = 244)
v -1504 -960 0
v -1601 -960 0
v -1601 -890 0
v -1504 -890 0
v -1456 -936 0
v -1553 -936 0
v -1553 -866 0
v -1456 -866 0
v -1650 -984 0
v -1747 -984 0
v -1747 -914 0
v -1650 -914 0
v -1553 -936 0
v -1650 -936 0
v -1650 -866 0
v -1553 -866 0
v -1407 -864 0
v -1504 -864 0
v -1504 -794 0
v -1407 -794 0
v -1359 -840 0
v -1456 -840 0
v -1456 -770 0
v -1359 -770 0
v -1650 -936 0
v -1747 -936 0
v -1747 -866 0
v -1650 -866 0
v -1747 -936 0
v -1844 -936 0
v -1844 -866 0
v -1747 -866 0
v -1601 -864 0
v -1698 -864 0
v -1698 -794 0
v -1601 -794 0
v -1553 -840 0
v -1650 -840 0
v -1650 -770 0
v -1553 -770 0
v -1456 -792 0
v -1553 -792 0
v -1553 -722 0
v -1456 -722 0
v -1795 -912 0
v -1892 -912 0
v -1892 -842 0
v -1795 -842 0
v -1601 -816 0
v -1698 -816 0
v -1698 -746 0
v -1601 -746 0
v -1553 -792 0
v -1650 -792 0
v -1650 -722 0
v -1553 -722 0
v -1795 -864 0
v -1892 -864 0
v -1892 -794 0
v -1795 -794 0
v -1747 -840 0
v -1844 -840 0
v -1844 -770 0
v -1747 -770 0
v -1650 -792 0
v -1747 -792 0
v -1747 -722 0
v -1650 -722 0
v -1892 -864 0
v -1989 -864 0
v -1989 -794 0
v -1892 -794 0
v -1844 -840 0
v -1941 -840 0
v -1941 -770 0
v -1844 -770 0
v -1601 -720 0
v -1698 -720 0
v -1698 -650 0
v -1601 -650 0
v -3347 -1536 0
v -3444 -1536 0
v -3444 -1466 0
v -3347 -1466 0
v -2619 -1176 0
v -2716 -1176 0
v -2716 -1106 0
v -2619 -1106 0
v -2329 -1032 0
v -2426 -1032 0
v -2426 -962 0
v -2329 -962 0
v -1989 -864 0
v -2086 -864 0
v -2086 -794 0
v -1989 -794 0
v -1941 -840 0
v -2038 -840 0
v -2038 -770 0
v -1941 -770 0
v -1892 -816 0
v -1989 -816 0
v -1989 -746 0
v -1892 -746 0
v -1795 -768 0
v -1892 -768 0
v -1892 -698 0
v -1795 -698 0
v -1747 -744 0
v -1844 -744 0
v -1844 -674 0
v -1747 -674 0
v -1698 -720 0
v -1795 -720 0
v -1795 -650 0
v -1698 -650 0
v -3541 -1584 0
v -3638 -1584 0
v -3638 -1514 0
v -3541 -1514 0
v -3395 -1512 0
v -3492 -1512 0
v -3492 -1442 0
v -3395 -1442 0
v -3298 -1464 0
v -3395 -1464 0
v -3395 -1394 0
v -3298 -1394 0
v -3104 -1368 0
v -3201 -1368 0
v -3201 -1298 0
v -3104 -1298 0
v -3056 -1344 0
v -3153 -1344 0
v -3153 -1274 0
v -3056 -1274 0
v -3007 -1320 0
v -3104 -1320 0
v -3104 -1250 0
v -3007 -1250 0
v -2862 -1248 0
v -2959 -1248 0
v -2959 -1178 0
v -2862 -1178 0
v -2522 -1080 0
v -2619 -1080 0
v -2619 -1010 0
v -2522 -1010 0
v -2086 -864 0
v -2183 -864 0
v -2183 -794 0
v -2086 -794 0
v -1941 -792 0
v -2038 -792 0
v -2038 -722 0
v -1941 -722 0
v -1844 -744 0
v -1941 -744 0
v -1941 -674 0
v -1844 -674 0
v -1795 -720 0
v -1892 -720 0
v -1892 -650 0
v -1795 -650 0
v -1747 -696 0
v -1844 -696 0
v -1844 -626 0
v -1747 -626 0
v -2038 -792 0
v -2135 -792 0
v -2135 -722 0
v -2038 -722 0
v -1989 -768 0
v -2086 -768 0
v -2086 -698 0
v -1989 -698 0
v -1941 -744 0
v -2038 -744 0
v -2038 -674 0
v -1941 -674 0
v -1844 -696 0
v -1941 -696 0
v -1941 -626 0
v -1844 -626 0
v -2086 -768 0
v -2183 -768 0
v -2183 -698 0
v -2086 -698 0
v -2038 -744 0
v -2135 -744 0
v -2135 -674 0
v -2038 -674 0
v -1989 -720 0
v -2086 -720 0
v -2086 -650 0
v -1989 -650 0
v -2135 -744 0
v -2232 -744 0
v -2232 -674 0
v -2135 -674 0
v -1941 -648 0
v -2038 -648 0
v -2038 -578 0
v -1941 -578 0
v -1892 -624 0
v -1989 -624 0
v -1989 -554 0
v -1892 -554 0
v -1844 -600 0
v -1941 -600 0
v -1941 -530 0
v -1844 -530 0
v -2135 -696 0
v -2232 -696 0
v -2232 -626 0
v -2135 -626 0
v -1989 -624 0
v -2086 -624 0
v -2086 -554 0
v -1989 -554 0
v -2183 -672 0
v -2280 -672 0
v -2280 -602 0
v -2183 -602 0
v -2086 -624 0
v -2183 -624 0
v -2183 -554 0
v -2086 -554 0
v -1989 -576 0
v -2086 -576 0
v -2086 -506 0
v -1989 -506 0
v -1941 -552 0
v -2038 -552 0
v -2038 -482 0
v -1941 -482 0
v -2183 -576 0
v -2280 -576 0
v -2280 -506 0
v -2183 -506 0
v -2086 -528 0
v -2183 -528 0
v -2183 -458 0
v -2086 -458 0

# Texture cooridinates (Count = 4)
vt 0 0
vt 1 0
vt 1 1
vt 0 1

# Normal
vn 0 0 -1

# Mesh description
g test_map_mesh_0016

# Faces
f 1/1/1 2/2/1 3/3/1 4/4/1
f 5/1/1 6/2/1 7/3/1 8/4/1
f 9/1/1 10/2/1 11/3/1 12/4/1
f 13/1/1 14/2/1 15/3/1 16/4/1
f 17/1/1 18/2/1 19/3/1 20/4/1
f 21/1/1 22/2/1 23/3/1 24/4/1
f 25/1/1 26/2/1 27/3/1 28/4/1
f 29/1/1 30/2/1 31/3/1 32/4/1
f 33/1/1 34/2/1 35/3/1 36/4/1
f 37/1/1 38/2/1 39/3/1 40/4/1
f 41/1/1 42/2/1 43/3/1 44/4/1
f 45/1/1 46/2/1 47/3/1 48/4/1
f 49/1/1 50/2/1 51/3/1 52/4/1
f 53/1/1 54/2/1 55/3/1 56/4/1
f 57/1/1 58/2/1 59/3/1 60/4/1
f 61/1/1 62/2/1 63/3/1 64/4/1
f 65/1/1 66/2/1 67/3/1 68/4/1
f 69/1/1 70/2/1 71/3/1 72/4/1
f 73/1/1 74/2/1 75/3/1 76/4/1
f 77/1/1 78/2/1 79/3/1 80/4/1
f 81/1/1 82/2/1 83/3/1 84/4/1
f 85/1/1 86/2/1 87/3/1 88/4/1
f 89/1/1 90/2/1 91/3/1 92/4/1
f 93/1/1 94/2/1 95/3/1 96/4/1
f 97/1/1 98/2/1 99/3/1 100/4/1
f 101/1/1 102/2/1 103/3/1 104/4/1
f 105/1/1 106/2/1 107/3/1 108/4/1
f 109/1/1 110/2/1 111/3/1 112/4/1
f 113/1/1 114/2/1 115/3/1 116/4/1
f 117/1/1 118/2/1 119/3/1 120/4/1
f 121/1/1 122/2/1 123/3/1 124/4/1
f 125/1/1 126/2/1 127/3/1 128/4/1
f 129/1/1 130/2/1 131/3/1 132/4/1
f 133/1/1 134/2/1 135/3/1 136/4/1
f 137/1/1 138/2/1 139/3/1 140/4/1
f 141/1/1 142/2/1 143/3/1 144/4/1
f 145/1/1 146/2/1 147/3/1 148/4/1
f 149/1/1 150/2/1 151/3/1 152/4/1
f 153/1/1 154/2/1 155/3/1 156/4/1
f 157/1/1 158/2/1 159/3/1 160/4/1
f 161/1/1 162/2/1 163/3/1 164/4/1
f 165/1/1 166/2/1 167/3/1 168/4/1
f 169/1/1 170/2/1 171/3/1 172/4/1
f 173/1/1 174/2/1 175/3/1 176/4/1
f 177/1/1 178/2/1 179/3/1 180/4/1
f 181/1/1 182/2/1 183/3/1 184/4/1
f 185/1/1 186/2/1 187/3/1 188/4/1
f 189/1/1 190/2/1 191/3/1 192/4/1
f 193/1/1 194/2/1 195/3/1 196/4/1
f 197/1/1 198/2/1 199/3/1 200/4/1
f 201/1/1 202/2/1 203/3/1 204/4/1
f 205/1/1 206/2/1 207/3/1 208/4/1
f 209/1/1 210/2/1 211/3/1 212/4/1
f 213/1/1 214/2/1 215/3/1 216/4/1
f 217/1/1 218/2/1 219/3/1 220/4/1
f 221/1/1 222/2/1 223/3/1 224/4/1
f 225/1/1 226/2/1 227/3/1 228/4/1
f 229/1/1 230/2/1 231/3/1 232/4/1
f 233/1/1 234/2/1 235/3/1 236/4/1
f 237/1/1 238/2/1 239/3/1 240/4/1
f 241/1/1 242/2/1 243/3/1 244/4/1

