# Tiled2Unity generated file. Do not modify by hand.
# Wavefront file for 'test_map_mesh_0024.obj'

# Vertices (Count = 16)
v -728 -1488 0
v -825 -1488 0
v -825 -1418 0
v -728 -1418 0
v -680 -1416 0
v -777 -1416 0
v -777 -1346 0
v -680 -1346 0
v -680 -1320 0
v -777 -1320 0
v -777 -1250 0
v -680 -1250 0
v -680 -1272 0
v -777 -1272 0
v -777 -1202 0
v -680 -1202 0

# Texture cooridinates (Count = 4)
vt 0 0
vt 1 0
vt 1 1
vt 0 1

# Normal
vn 0 0 -1

# Mesh description
g test_map_mesh_0024

# Faces
f 1/1/1 2/2/1 3/3/1 4/4/1
f 5/1/1 6/2/1 7/3/1 8/4/1
f 9/1/1 10/2/1 11/3/1 12/4/1
f 13/1/1 14/2/1 15/3/1 16/4/1

