<?xml version="1.0" encoding="UTF-8" standalone="no"?>
<svg
   xmlns:dc="http://purl.org/dc/elements/1.1/"
   xmlns:cc="http://creativecommons.org/ns#"
   xmlns:rdf="http://www.w3.org/1999/02/22-rdf-syntax-ns#"
   xmlns:svg="http://www.w3.org/2000/svg"
   xmlns="http://www.w3.org/2000/svg"
   xmlns:sodipodi="http://sodipodi.sourceforge.net/DTD/sodipodi-0.dtd"
   xmlns:inkscape="http://www.inkscape.org/namespaces/inkscape"
   height="17.4px"
   width="25.8px"
   version="1.1"
   id="svg8"
   sodipodi:docname="95.svg"
   inkscape:version="0.92.4 (5da689c313, 2019-01-14)">
  <metadata
     id="metadata14">
    <rdf:RDF>
      <cc:Work
         rdf:about="">
        <dc:format>image/svg+xml</dc:format>
        <dc:type
           rdf:resource="http://purl.org/dc/dcmitype/StillImage" />
      </cc:Work>
    </rdf:RDF>
  </metadata>
  <defs
     id="defs12" />
  <sodipodi:namedview
     pagecolor="#ffffff"
     bordercolor="#666666"
     borderopacity="1"
     objecttolerance="10"
     gridtolerance="10"
     guidetolerance="10"
     inkscape:pageopacity="0"
     inkscape:pageshadow="2"
     inkscape:window-width="1600"
     inkscape:window-height="835"
     id="namedview10"
     showgrid="false"
     inkscape:zoom="11.511628"
     inkscape:cx="12.9"
     inkscape:cy="8.6999998"
     inkscape:window-x="0"
     inkscape:window-y="0"
     inkscape:window-maximized="1"
     inkscape:current-layer="g6" />
  <g
     transform="matrix(4.0, 0.0, 0.0, 4.0, 12.4, 7.2)"
     id="g6">
    <path
       d="M1.6 2.15 L1.25 2.35 1.25 2.3 Q1.1 0.5 1.25 0.05 L1.6 2.15 M-0.75 2.45 L-1.2 2.35 -1.2 2.3 -1.0 -0.05 -0.75 2.45"
       fill="#333333"
       fill-rule="evenodd"
       stroke="none"
       id="path2" />
    <path
       d="M-1.2 2.3 L-2.25 1.55 Q-3.45 0.3 -3.0 -1.8 0.65 -0.85 3.3 -1.75 3.55 0.4 2.25 1.65 L1.6 2.15 1.25 0.05 Q1.1 0.5 1.25 2.3 L-0.05 2.55 -0.75 2.45 -1.0 -0.05 -1.2 2.3"
       fill="#997033"
       fill-rule="evenodd"
       stroke="none"
       id="path4"
       style="fill:#4d4d4d;fill-opacity:1" />
  </g>
</svg>
