<?xml version="1.0" encoding="UTF-8" standalone="no"?>
<svg
   xmlns:dc="http://purl.org/dc/elements/1.1/"
   xmlns:cc="http://creativecommons.org/ns#"
   xmlns:rdf="http://www.w3.org/1999/02/22-rdf-syntax-ns#"
   xmlns:svg="http://www.w3.org/2000/svg"
   xmlns="http://www.w3.org/2000/svg"
   xmlns:sodipodi="http://sodipodi.sourceforge.net/DTD/sodipodi-0.dtd"
   xmlns:inkscape="http://www.inkscape.org/namespaces/inkscape"
   height="17.6px"
   width="26.0px"
   version="1.1"
   id="svg8"
   sodipodi:docname="RPaw.svg"
   inkscape:version="0.92.4 (5da689c313, 2019-01-14)">
  <metadata
     id="metadata14">
    <rdf:RDF>
      <cc:Work
         rdf:about="">
        <dc:format>image/svg+xml</dc:format>
        <dc:type
           rdf:resource="http://purl.org/dc/dcmitype/StillImage" />
      </cc:Work>
    </rdf:RDF>
  </metadata>
  <defs
     id="defs12" />
  <sodipodi:namedview
     pagecolor="#ffffff"
     bordercolor="#666666"
     borderopacity="1"
     objecttolerance="10"
     gridtolerance="10"
     guidetolerance="10"
     inkscape:pageopacity="0"
     inkscape:pageshadow="2"
     inkscape:window-width="1920"
     inkscape:window-height="1007"
     id="namedview10"
     showgrid="false"
     inkscape:zoom="11.423077"
     inkscape:cx="0.2188553"
     inkscape:cy="8.8000002"
     inkscape:window-x="0"
     inkscape:window-y="0"
     inkscape:window-maximized="1"
     inkscape:current-layer="g6" />
  <g
     transform="matrix(4.0, 0.0, 0.0, 4.0, 14.0, 7.2)"
     id="g6">
    <path
       d="M1.25 2.2 L1.25 2.25 0.9 2.45 0.9 2.4 Q0.75 0.5 0.9 0.05 L1.25 2.2 M-1.1 2.45 L-1.55 2.25 -1.55 2.2 -1.35 -0.05 -1.1 2.45"
       fill="#333333"
       fill-rule="evenodd"
       stroke="none"
       id="path2" />
    <path
       d="M-1.55 2.2 L-2.3 1.7 Q-3.95 0.4 -3.35 -1.8 0.3 -0.85 2.95 -1.75 3.15 0.4 1.95 1.65 L1.25 2.2 0.9 0.05 Q0.75 0.5 0.9 2.4 L-0.05 2.6 -1.1 2.45 -1.35 -0.05 -1.55 2.2"
       fill="#997033"
       fill-rule="evenodd"
       stroke="none"
       id="path4"
       style="fill:#bfbfbf;fill-opacity:1" />
  </g>
</svg>
