<?xml version="1.0" encoding="UTF-8" standalone="no"?>
<svg
   xmlns:dc="http://purl.org/dc/elements/1.1/"
   xmlns:cc="http://creativecommons.org/ns#"
   xmlns:rdf="http://www.w3.org/1999/02/22-rdf-syntax-ns#"
   xmlns:svg="http://www.w3.org/2000/svg"
   xmlns="http://www.w3.org/2000/svg"
   xmlns:sodipodi="http://sodipodi.sourceforge.net/DTD/sodipodi-0.dtd"
   xmlns:inkscape="http://www.inkscape.org/namespaces/inkscape"
   height="8.6999998"
   width="12.9261"
   version="1.1"
   id="svg8"
   sodipodi:docname="LPaw.svg"
   inkscape:version="0.92.4 (5da689c313, 2019-01-14)">
  <metadata
     id="metadata14">
    <rdf:RDF>
      <cc:Work
         rdf:about="">
        <dc:format>image/svg+xml</dc:format>
        <dc:type
           rdf:resource="http://purl.org/dc/dcmitype/StillImage" />
      </cc:Work>
    </rdf:RDF>
  </metadata>
  <defs
     id="defs12" />
  <sodipodi:namedview
     pagecolor="#ffffff"
     bordercolor="#666666"
     borderopacity="1"
     objecttolerance="10"
     gridtolerance="10"
     guidetolerance="10"
     inkscape:pageopacity="0"
     inkscape:pageshadow="2"
     inkscape:window-width="1920"
     inkscape:window-height="1007"
     id="namedview10"
     showgrid="false"
     inkscape:zoom="23.023256"
     inkscape:cx="-5.0037924"
     inkscape:cy="-0.92991062"
     inkscape:window-x="0"
     inkscape:window-y="0"
     inkscape:window-maximized="1"
     inkscape:current-layer="g6" />
  <g
     transform="matrix(2,0,0,2,6.2454545,3.6)"
     id="g6">
    <path
       d="M 1.6,2.15 1.25,2.35 V 2.3 Q 1.1,0.5 1.25,0.05 L 1.6,2.15 M -0.75,2.45 -1.2,2.35 V 2.3 l 0.2,-2.35 0.25,2.5"
       id="path2"
       inkscape:connector-curvature="0"
       style="fill:#333333;fill-rule:evenodd;stroke:none" />
    <path
       d="M -1.2,2.3 -2.25,1.55 Q -3.45,0.3 -3,-1.8 0.65,-0.85 3.3,-1.75 3.55,0.4 2.25,1.65 L 1.6,2.15 1.25,0.05 Q 1.1,0.5 1.25,2.3 L -0.05,2.55 -0.75,2.45 -1,-0.05 -1.2,2.3"
       id="path4"
       style="fill:#bfbfbf;fill-opacity:1;fill-rule:evenodd;stroke:none"
       inkscape:connector-curvature="0" />
  </g>
</svg>
