<?xml version="1.0" encoding="UTF-8" standalone="no"?>
<svg
   xmlns:dc="http://purl.org/dc/elements/1.1/"
   xmlns:cc="http://creativecommons.org/ns#"
   xmlns:rdf="http://www.w3.org/1999/02/22-rdf-syntax-ns#"
   xmlns:svg="http://www.w3.org/2000/svg"
   xmlns="http://www.w3.org/2000/svg"
   xmlns:sodipodi="http://sodipodi.sourceforge.net/DTD/sodipodi-0.dtd"
   xmlns:inkscape="http://www.inkscape.org/namespaces/inkscape"
   height="8.8000002"
   width="12.977143"
   version="1.1"
   id="svg8"
   sodipodi:docname="RPaw.svg"
   inkscape:version="0.92.4 (5da689c313, 2019-01-14)">
  <metadata
     id="metadata14">
    <rdf:RDF>
      <cc:Work
         rdf:about="">
        <dc:format>image/svg+xml</dc:format>
        <dc:type
           rdf:resource="http://purl.org/dc/dcmitype/StillImage" />
      </cc:Work>
    </rdf:RDF>
  </metadata>
  <defs
     id="defs12" />
  <sodipodi:namedview
     pagecolor="#ffffff"
     bordercolor="#666666"
     borderopacity="1"
     objecttolerance="10"
     gridtolerance="10"
     guidetolerance="10"
     inkscape:pageopacity="0"
     inkscape:pageshadow="2"
     inkscape:window-width="1920"
     inkscape:window-height="1007"
     id="namedview10"
     showgrid="false"
     inkscape:zoom="11.423077"
     inkscape:cx="-21.993468"
     inkscape:cy="3.5999998"
     inkscape:window-x="0"
     inkscape:window-y="0"
     inkscape:window-maximized="1"
     inkscape:current-layer="g6" />
  <g
     transform="matrix(2,0,0,2,7.02,3.6)"
     id="g6">
    <path
       d="M 1.25,2.2 V 2.25 L 0.9,2.45 V 2.4 Q 0.75,0.5 0.9,0.05 L 1.25,2.2 M -1.1,2.45 -1.55,2.25 V 2.2 l 0.2,-2.25 0.25,2.5"
       id="path2"
       inkscape:connector-curvature="0"
       style="fill:#333333;fill-rule:evenodd;stroke:none" />
    <path
       d="M -1.55,2.2 -2.3,1.7 q -1.65,-1.3 -1.05,-3.5 3.65,0.95 6.3,0.05 0.2,2.15 -1,3.4 L 1.25,2.2 0.9,0.05 Q 0.75,0.5 0.9,2.4 L -0.05,2.6 -1.1,2.45 -1.35,-0.05 -1.55,2.2"
       id="path4"
       style="fill:#bfbfbf;fill-opacity:1;fill-rule:evenodd;stroke:none"
       inkscape:connector-curvature="0" />
  </g>
</svg>
