<?xml version="1.0" encoding="UTF-8" standalone="no"?>
<svg
   xmlns:dc="http://purl.org/dc/elements/1.1/"
   xmlns:cc="http://creativecommons.org/ns#"
   xmlns:rdf="http://www.w3.org/1999/02/22-rdf-syntax-ns#"
   xmlns:svg="http://www.w3.org/2000/svg"
   xmlns="http://www.w3.org/2000/svg"
   xmlns:sodipodi="http://sodipodi.sourceforge.net/DTD/sodipodi-0.dtd"
   xmlns:inkscape="http://www.inkscape.org/namespaces/inkscape"
   height="37.0px"
   width="29.6px"
   version="1.1"
   id="svg10"
   sodipodi:docname="67.svg"
   inkscape:version="0.92.4 (5da689c313, 2019-01-14)">
  <metadata
     id="metadata16">
    <rdf:RDF>
      <cc:Work
         rdf:about="">
        <dc:format>image/svg+xml</dc:format>
        <dc:type
           rdf:resource="http://purl.org/dc/dcmitype/StillImage" />
      </cc:Work>
    </rdf:RDF>
  </metadata>
  <defs
     id="defs14" />
  <sodipodi:namedview
     pagecolor="#ffffff"
     bordercolor="#666666"
     borderopacity="1"
     objecttolerance="10"
     gridtolerance="10"
     guidetolerance="10"
     inkscape:pageopacity="0"
     inkscape:pageshadow="2"
     inkscape:window-width="1600"
     inkscape:window-height="835"
     id="namedview12"
     showgrid="false"
     inkscape:zoom="6.3783784"
     inkscape:cx="-8.0114405"
     inkscape:cy="18.5"
     inkscape:window-x="0"
     inkscape:window-y="0"
     inkscape:window-maximized="1"
     inkscape:current-layer="g8" />
  <g
     transform="matrix(4.0, 0.0, 0.0, 4.0, 14.8, 14.2)"
     id="g8">
    <path
       d="M-2.5 4.7 L-2.55 4.65 -2.5 4.65 -2.5 4.7"
       fill="#684d0f"
       fill-rule="evenodd"
       stroke="none"
       id="path2" />
    <path
       d="M-2.5 -2.55 Q-1.5 -3.55 -0.05 -3.55 1.5 -3.55 2.55 -2.5 3.5 -1.5 3.65 0.0 L3.7 2.5 Q3.5 3.75 2.6 4.65 1.5 5.7 0.0 5.7 -1.4 5.7 -2.5 4.7 L-2.5 4.65 -2.5 -2.55"
       fill="#eba5dd"
       fill-rule="evenodd"
       stroke="none"
       id="path4"
       style="fill:#e6e6e6;fill-opacity:1" />
    <path
       d="M-2.55 4.65 Q-3.55 3.65 -3.6 2.5 L-3.7 0.0 Q-3.55 -1.65 -2.5 -2.55 L-2.5 4.65 -2.55 4.65"
       fill="#de6dc8"
       fill-rule="evenodd"
       stroke="none"
       id="path6"
       style="fill:#cccccc;fill-opacity:1" />
  </g>
</svg>
