<?xml version="1.0" encoding="UTF-8" standalone="no"?>
<!-- Generator: Adobe Illustrator 24.2.1, SVG Export Plug-In . SVG Version: 6.00 Build 0)  -->

<svg
   xmlns:dc="http://purl.org/dc/elements/1.1/"
   xmlns:cc="http://creativecommons.org/ns#"
   xmlns:rdf="http://www.w3.org/1999/02/22-rdf-syntax-ns#"
   xmlns:svg="http://www.w3.org/2000/svg"
   xmlns="http://www.w3.org/2000/svg"
   xmlns:sodipodi="http://sodipodi.sourceforge.net/DTD/sodipodi-0.dtd"
   xmlns:inkscape="http://www.inkscape.org/namespaces/inkscape"
   version="1.1"
   id="Layer_1"
   x="0px"
   y="0px"
   viewBox="0 0 29.938719 74.393341"
   xml:space="preserve"
   sodipodi:docname="DiagDownLeft.svg"
   width="29.938719"
   height="74.393341"
   inkscape:version="0.92.4 (5da689c313, 2019-01-14)"><metadata
   id="metadata121"><rdf:RDF><cc:Work
       rdf:about=""><dc:format>image/svg+xml</dc:format><dc:type
         rdf:resource="http://purl.org/dc/dcmitype/StillImage" /><dc:title /></cc:Work></rdf:RDF></metadata><defs
   id="defs119" /><sodipodi:namedview
   pagecolor="#ffffff"
   bordercolor="#666666"
   borderopacity="1"
   objecttolerance="10"
   gridtolerance="10"
   guidetolerance="10"
   inkscape:pageopacity="0"
   inkscape:pageshadow="2"
   inkscape:window-width="1920"
   inkscape:window-height="1007"
   id="namedview117"
   showgrid="false"
   inkscape:zoom="4.3703704"
   inkscape:cx="-0.13846431"
   inkscape:cy="42.38183"
   inkscape:window-x="0"
   inkscape:window-y="0"
   inkscape:window-maximized="1"
   inkscape:current-layer="g18" />
<style
   type="text/css"
   id="style2">
	.st0{fill:#FFFFFF;}
	.st1{fill:#808080;}
	.st2{fill:#999999;}
	.st3{fill:#666666;}
	.st4{enable-background:new    ;}
	.st5{clip-path:url(#SVGID_2_);}
	.st6{clip-path:url(#SVGID_4_);}
</style>
<g
   id="g18"
   transform="translate(-326.06067,-35.058303)">
	<path
   class="st0"
   d="m 353.03,97.99 c 0,0 7.54,-30.04 -1.41,-47.8 -8.95,-17.77 -14.4,-16 -15.52,-13.73 -3.05,6.12 -7.68,16.86 -9.55,34.39 -2.57,24.09 5.45,38.44 13.16,38.6 7.72,0.15 12.25,-10.01 13.32,-11.46 z"
   id="path4"
   inkscape:connector-curvature="0"
   style="fill:#ffffff" />
	<path
   class="st1"
   d="m 351.62,50.19 c -5.22,-10.37 -9.25,-14.08 -11.93,-14.93 -3.56,6.13 -6.45,13.49 -8.32,21.74 -4.67,20.64 -1.58,40.93 6.82,52.22 0.51,0.13 1.01,0.21 1.52,0.22 7.71,0.15 12.25,-10.01 13.32,-11.45 0,0 7.54,-30.04 -1.41,-47.8 z"
   id="path6"
   inkscape:connector-curvature="0"
   style="fill:#555555;fill-opacity:1" />
	<path
   class="st2"
   d="m 351.62,50.19 c -4.47,-8.88 -8.07,-12.88 -10.69,-14.38 -3.62,5.89 -6.54,13.05 -8.37,21.13 -4.77,21.09 -0.62,41.93 9.31,52.25 6.4,-1.51 10.2,-9.89 11.16,-11.19 0,-0.01 7.54,-30.05 -1.41,-47.81 z"
   id="path8"
   inkscape:connector-curvature="0"
   style="fill:#bfbfbf;fill-opacity:1" />
	<path
   d="m 351.62,50.19 c -3.82,-7.59 -7,-11.6 -9.48,-13.55 -3.43,5.56 -6.18,12.3 -7.9,19.89 -4.77,21.09 -0.03,41.99 10.68,51.38 4.57,-2.87 7.31,-8.83 8.11,-9.92 0,0 7.54,-30.04 -1.41,-47.8 z"
   id="path10"
   inkscape:connector-curvature="0" />
	
		<ellipse
   transform="matrix(0.00553948,-1,1,0.00553948,274.6932,414.2031)"
   class="st0"
   cx="345.60001"
   cy="68.989998"
   rx="15.14"
   ry="5.8800001"
   id="ellipse12"
   style="fill:#ffffff" />
	
		<ellipse
   transform="matrix(0.00551496,-1,1,0.00551496,247.9759,419.5861)"
   class="st0"
   cx="334.94"
   cy="85.120003"
   rx="5.8800001"
   ry="2.3199999"
   id="ellipse14"
   style="fill:#ffffff" />
	
</g>









</svg>