<?xml version="1.0" encoding="UTF-8" standalone="no"?>
<!-- Generator: Adobe Illustrator 24.2.1, SVG Export Plug-In . SVG Version: 6.00 Build 0)  -->

<svg
   xmlns:dc="http://purl.org/dc/elements/1.1/"
   xmlns:cc="http://creativecommons.org/ns#"
   xmlns:rdf="http://www.w3.org/1999/02/22-rdf-syntax-ns#"
   xmlns:svg="http://www.w3.org/2000/svg"
   xmlns="http://www.w3.org/2000/svg"
   xmlns:sodipodi="http://sodipodi.sourceforge.net/DTD/sodipodi-0.dtd"
   xmlns:inkscape="http://www.inkscape.org/namespaces/inkscape"
   version="1.1"
   id="Layer_1"
   x="0px"
   y="0px"
   viewBox="0 0 80.637244 40.741917"
   xml:space="preserve"
   sodipodi:docname="DiagDownRightClosed.svg"
   width="80.637245"
   height="40.741917"
   inkscape:version="0.92.4 (5da689c313, 2019-01-14)"><metadata
   id="metadata121"><rdf:RDF><cc:Work
       rdf:about=""><dc:format>image/svg+xml</dc:format><dc:type
         rdf:resource="http://purl.org/dc/dcmitype/StillImage" /><dc:title></dc:title></cc:Work></rdf:RDF></metadata><defs
   id="defs119" /><sodipodi:namedview
   pagecolor="#ffffff"
   bordercolor="#666666"
   borderopacity="1"
   objecttolerance="10"
   gridtolerance="10"
   guidetolerance="10"
   inkscape:pageopacity="0"
   inkscape:pageshadow="2"
   inkscape:window-width="1600"
   inkscape:window-height="835"
   id="namedview117"
   showgrid="false"
   inkscape:zoom="1.0925926"
   inkscape:cx="-20.615441"
   inkscape:cy="95.702323"
   inkscape:window-x="0"
   inkscape:window-y="0"
   inkscape:window-maximized="1"
   inkscape:current-layer="Layer_1" />
<style
   type="text/css"
   id="style2">
	.st0{fill:#FFFFFF;}
	.st1{fill:#808080;}
	.st2{fill:#999999;}
	.st3{fill:#666666;}
	.st4{enable-background:new    ;}
	.st5{clip-path:url(#SVGID_2_);}
	.st6{clip-path:url(#SVGID_4_);}
</style>


<path
   class="st3"
   d="m 0.01513834,38.42 c 0,0 -0.81,-17.47 9.41999996,-25.39 C 16.155138,7.83 23.525138,6.58 31.635138,0 c 0,0 2.79,5.7 -1.29,8.77 0,0 12.28,3 20.039992,-2.83 0,0 3.45,5.03 -2.3,8.53 0,0 4.83,2.75 13.5,10.86 8.44,7.9 12.31,12.03 14.49,12.06 2.18,0.03 3.45,-2.61 2.9,-5.3 0,0 4.26,6.19 -0.86,8.35 -6.18,2.61 -21.15,-12.4 -31.05,-18.17 C 37.615138,16.76 26.945138,12.43 15.055138,20.45 5.1251383,27.15 0.01513834,38.42 0.01513834,38.42 Z"
   id="path22"
   inkscape:connector-curvature="0"
   style="fill:#666666" />







</svg>