<?xml version="1.0" encoding="UTF-8" standalone="no"?>
<!-- Generator: Adobe Illustrator 24.2.1, SVG Export Plug-In . SVG Version: 6.00 Build 0)  -->

<svg
   xmlns:dc="http://purl.org/dc/elements/1.1/"
   xmlns:cc="http://creativecommons.org/ns#"
   xmlns:rdf="http://www.w3.org/1999/02/22-rdf-syntax-ns#"
   xmlns:svg="http://www.w3.org/2000/svg"
   xmlns="http://www.w3.org/2000/svg"
   xmlns:sodipodi="http://sodipodi.sourceforge.net/DTD/sodipodi-0.dtd"
   xmlns:inkscape="http://www.inkscape.org/namespaces/inkscape"
   version="1.1"
   id="Layer_1"
   x="0px"
   y="0px"
   viewBox="0 0 73.557158 76.314003"
   xml:space="preserve"
   sodipodi:docname="DiagDownRight.svg"
   width="73.557159"
   height="76.314003"
   inkscape:version="0.92.4 (5da689c313, 2019-01-14)"><metadata
   id="metadata121"><rdf:RDF><cc:Work
       rdf:about=""><dc:format>image/svg+xml</dc:format><dc:type
         rdf:resource="http://purl.org/dc/dcmitype/StillImage" /><dc:title /></cc:Work></rdf:RDF></metadata><defs
   id="defs119" /><sodipodi:namedview
   pagecolor="#ffffff"
   bordercolor="#666666"
   borderopacity="1"
   objecttolerance="10"
   gridtolerance="10"
   guidetolerance="10"
   inkscape:pageopacity="0"
   inkscape:pageshadow="2"
   inkscape:window-width="1920"
   inkscape:window-height="1007"
   id="namedview117"
   showgrid="false"
   inkscape:zoom="8.7407408"
   inkscape:cx="22.691825"
   inkscape:cy="44.208792"
   inkscape:window-x="0"
   inkscape:window-y="0"
   inkscape:window-maximized="1"
   inkscape:current-layer="g38" />
<style
   type="text/css"
   id="style2">
	.st0{fill:#FFFFFF;}
	.st1{fill:#808080;}
	.st2{fill:#999999;}
	.st3{fill:#666666;}
	.st4{enable-background:new    ;}
	.st5{clip-path:url(#SVGID_2_);}
	.st6{clip-path:url(#SVGID_4_);}
</style>



<g
   id="g38"
   transform="translate(-386.22829,-102.78144)">
	<path
   class="st0"
   d="m 386.28,127.04 c -0.89,6.59 9.77,24.94 27.31,37.2 12.45,8.7 32.86,24.17 42.03,7.34 7.92,-14.54 3.95,-41.74 -6.88,-50.78 -10.83,-9.04 -21.21,-19.58 -30.9,-17.81 -9.69,1.77 -28.94,4.59 -31.56,24.05 z"
   id="path24"
   inkscape:connector-curvature="0"
   style="fill:#ffffff" />
	<path
   class="st1"
   d="m 455.1,156.38 c 3.29,-13.07 -1.3,-26.08 -7.8,-36.82 -10.3,-8.75 -20.19,-18.28 -29.45,-16.58 -9.69,1.78 -28.94,4.6 -31.56,24.06 -0.83,6.14 8.37,22.48 23.81,34.59 18.22,11.36 39.6,16.16 45,-5.25 z"
   id="path26"
   inkscape:connector-curvature="0"
   style="fill:#555555;fill-opacity:1" />
	<path
   class="st2"
   d="m 441.49,114.6 c -8.22,-6.98 -16.14,-12.99 -23.64,-11.62 -9.69,1.78 -28.94,4.6 -31.56,24.06 -0.56,4.16 3.48,12.99 10.93,22.02 18.14,15.61 47.61,28.64 53.9,3.68 3.47,-13.77 -2.38,-27.45 -9.63,-38.14 z"
   id="path28"
   inkscape:connector-curvature="0"
   style="fill:#bfbfbf;fill-opacity:1" />
	<path
   d="m 447.57,150.32 c 3.81,-15.13 -4.16,-30.15 -12.39,-40.83 -5.97,-4.49 -11.77,-7.53 -17.33,-6.51 -9.69,1.78 -28.94,4.6 -31.56,24.06 -0.48,3.54 2.41,10.49 7.88,18.06 17.07,15.62 47.16,29.98 53.4,5.22 z"
   id="path30"
   inkscape:connector-curvature="0" />
	
	
		<ellipse
   transform="matrix(0.8126,-0.5829,0.5829,0.8126,4.4213,265.376)"
   class="st0"
   cx="414.82999"
   cy="125.81"
   rx="12.55"
   ry="17.33"
   id="ellipse34"
   style="fill:#ffffff" />
	
		<ellipse
   transform="matrix(0.8126,-0.5829,0.5829,0.8126,-10.4342,282.1749)"
   class="st0"
   cx="433.51999"
   cy="157.31"
   rx="5.0100002"
   ry="6.9099998"
   id="ellipse36"
   style="fill:#ffffff" />
</g>






</svg>