<?xml version="1.0" encoding="UTF-8" standalone="no"?>
<!-- Generator: Adobe Illustrator 24.2.1, SVG Export Plug-In . SVG Version: 6.00 Build 0)  -->

<svg
   xmlns:dc="http://purl.org/dc/elements/1.1/"
   xmlns:cc="http://creativecommons.org/ns#"
   xmlns:rdf="http://www.w3.org/1999/02/22-rdf-syntax-ns#"
   xmlns:svg="http://www.w3.org/2000/svg"
   xmlns="http://www.w3.org/2000/svg"
   xmlns:sodipodi="http://sodipodi.sourceforge.net/DTD/sodipodi-0.dtd"
   xmlns:inkscape="http://www.inkscape.org/namespaces/inkscape"
   version="1.1"
   id="Layer_1"
   x="0px"
   y="0px"
   viewBox="0 0 24.752933 75.800003"
   xml:space="preserve"
   sodipodi:docname="DiagDownLeftClosed.svg"
   width="24.752934"
   height="75.800003"
   inkscape:version="0.92.4 (5da689c313, 2019-01-14)"><metadata
   id="metadata121"><rdf:RDF><cc:Work
       rdf:about=""><dc:format>image/svg+xml</dc:format><dc:type
         rdf:resource="http://purl.org/dc/dcmitype/StillImage" /><dc:title></dc:title></cc:Work></rdf:RDF></metadata><defs
   id="defs119" /><sodipodi:namedview
   pagecolor="#ffffff"
   bordercolor="#666666"
   borderopacity="1"
   objecttolerance="10"
   gridtolerance="10"
   guidetolerance="10"
   inkscape:pageopacity="0"
   inkscape:pageshadow="2"
   inkscape:window-width="1600"
   inkscape:window-height="835"
   id="namedview117"
   showgrid="false"
   inkscape:zoom="1.0925926"
   inkscape:cx="34.191219"
   inkscape:cy="62.88041"
   inkscape:window-x="0"
   inkscape:window-y="0"
   inkscape:window-maximized="1"
   inkscape:current-layer="Layer_1" />
<style
   type="text/css"
   id="style2">
	.st0{fill:#FFFFFF;}
	.st1{fill:#808080;}
	.st2{fill:#999999;}
	.st3{fill:#666666;}
	.st4{enable-background:new    ;}
	.st5{clip-path:url(#SVGID_2_);}
	.st6{clip-path:url(#SVGID_4_);}
</style>

<path
   class="st3"
   d="m 21.591798,75.8 c 0,0 4.15,-14.17 2.94,-36.07 -0.76,-13.77 -3.92,-19.57 -3.2,-31.13 0,0 -2.02,3.92 -2.35,7.57 0,0 -4.74,-6.81 -4.91,-16.17 0,0 -1.9,4.21 -1.47,9.77 0,0 -1.56,-1.57 -5.66,-0.79 -6.49000005,1.23 -5.9,-2.45 -4.98,-7.4 0,0 -3.3,4.96 -1.34000005,10.33 2.24000005,6.16 8.80000005,2.86 13.33000005,7.85 4.52,5 9.42,17.82 7.64,56.04 z"
   id="path20"
   inkscape:connector-curvature="0"
   style="fill:#666666" />








</svg>