<?xml version="1.0" encoding="UTF-8" standalone="no"?>
<!-- Generator: Adobe Illustrator 24.2.1, SVG Export Plug-In . SVG Version: 6.00 Build 0)  -->

<svg
   xmlns:dc="http://purl.org/dc/elements/1.1/"
   xmlns:cc="http://creativecommons.org/ns#"
   xmlns:rdf="http://www.w3.org/1999/02/22-rdf-syntax-ns#"
   xmlns:svg="http://www.w3.org/2000/svg"
   xmlns="http://www.w3.org/2000/svg"
   xmlns:xlink="http://www.w3.org/1999/xlink"
   xmlns:sodipodi="http://sodipodi.sourceforge.net/DTD/sodipodi-0.dtd"
   xmlns:inkscape="http://www.inkscape.org/namespaces/inkscape"
   version="1.1"
   id="Layer_1"
   x="0px"
   y="0px"
   viewBox="0 0 87.788017 52.27"
   xml:space="preserve"
   sodipodi:docname="FrontRightClosed.svg"
   width="87.788017"
   height="52.27"
   inkscape:version="0.92.4 (5da689c313, 2019-01-14)"><metadata
   id="metadata121"><rdf:RDF><cc:Work
       rdf:about=""><dc:format>image/svg+xml</dc:format><dc:type
         rdf:resource="http://purl.org/dc/dcmitype/StillImage" /><dc:title></dc:title></cc:Work></rdf:RDF></metadata><defs
   id="defs119" /><sodipodi:namedview
   pagecolor="#ffffff"
   bordercolor="#666666"
   borderopacity="1"
   objecttolerance="10"
   gridtolerance="10"
   guidetolerance="10"
   inkscape:pageopacity="0"
   inkscape:pageshadow="2"
   inkscape:window-width="1600"
   inkscape:window-height="835"
   id="namedview117"
   showgrid="false"
   inkscape:zoom="1.0925926"
   inkscape:cx="-63.837898"
   inkscape:cy="32.265083"
   inkscape:window-x="0"
   inkscape:window-y="0"
   inkscape:window-maximized="1"
   inkscape:current-layer="Layer_1" />
<style
   type="text/css"
   id="style2">
	.st0{fill:#FFFFFF;}
	.st1{fill:#808080;}
	.st2{fill:#999999;}
	.st3{fill:#666666;}
	.st4{enable-background:new    ;}
	.st5{clip-path:url(#SVGID_2_);}
	.st6{clip-path:url(#SVGID_4_);}
</style>







<path
   class="st3"
   d="m 0.09049404,52.27 c 0,0 -1.42000004,-11.25 6.98999996,-24.67 8.1,-12.93 23.82,-16.63 30.05,-27.6 0,0 2.32,5.29 -1.39,9.26 0,0 12.73,-0.09 21.9,-8.69 0,0 1.23,5.67 -3.78,9.64 0,0 7.09,1.13 17.17,8.41 7.85,5.67 16.38,9.73 15.53,-0.85 0,0 3.5,6.52 -1.32,10.21 -4.82,3.69 -12.16,0.33 -17.48,-2.74 -5.9,-3.41 -17.05,-9.75 -29.67,-7.94 -18.44,2.65 -34.5,22.96 -37.99999996,34.97 z"
   id="path84"
   inkscape:connector-curvature="0"
   style="fill:#666666" />

<g
   id="g114"
   transform="translate(-176.72951,-177.69)">
	<g
   class="st4"
   id="g112"
   style="enable-background:new">
		<defs
   id="defs103">
			<polygon
   id="SVGID_3_"
   class="st4"
   points="756.93,74.51 753.83,154.86 677.03,124.12 680.13,43.77 "
   style="enable-background:new" />
		</defs>
		<clipPath
   id="SVGID_4_">
			<use
   xlink:href="#SVGID_3_"
   style="overflow:visible"
   id="use105"
   x="0"
   y="0"
   width="100%"
   height="100%" />
		</clipPath>
		<g
   class="st6"
   clip-path="url(#SVGID_4_)"
   id="g110">
			<path
   class="st3"
   d="m 720.23,59.82 c -7.48,5.32 -20.9,-0.13 -30.33,5.74 -9.78,6.09 -11.21,15.69 -11.21,15.69 5.25,-7.19 21.27,-14.27 36.01,-8.37 0.79,0.32 1.58,0.67 2.36,1.06 7.15,3.59 12.89,9.78 17.08,15.21 0.73,0.95 1.42,1.88 2.05,2.76 1.07,1.49 2.01,2.87 2.8,4.04 0.15,0.22 0.3,0.44 0.46,0.67 0.95,1.38 2.01,2.83 3.12,4.2 2.22,2.72 4.7,5.14 7.16,6.12 0.88,0.35 1.76,0.52 2.62,0.46 4.7,-0.33 3.39,-7.32 3.39,-7.32 -0.67,3.4 -1.97,4.32 -3.6,3.67 -2.57,-1.03 -5.97,-5.98 -9.02,-11.26 -6.41,-11.08 -11.82,-15.74 -11.82,-15.74 4.91,-0.45 5.22,-5.57 5.22,-5.57 -4.82,0.98 -9.88,-0.34 -13.64,-1.85 -3.49,-1.4 -5.86,-2.95 -5.86,-2.95 3.86,-1.16 3.21,-6.56 3.21,-6.56"
   id="path108"
   inkscape:connector-curvature="0"
   style="fill:#666666" />
		</g>
	</g>
</g>
</svg>