<?xml version="1.0" encoding="UTF-8" standalone="no"?>
<!-- Generator: Adobe Illustrator 24.2.1, SVG Export Plug-In . SVG Version: 6.00 Build 0)  -->

<svg
   xmlns:dc="http://purl.org/dc/elements/1.1/"
   xmlns:cc="http://creativecommons.org/ns#"
   xmlns:rdf="http://www.w3.org/1999/02/22-rdf-syntax-ns#"
   xmlns:svg="http://www.w3.org/2000/svg"
   xmlns="http://www.w3.org/2000/svg"
   xmlns:sodipodi="http://sodipodi.sourceforge.net/DTD/sodipodi-0.dtd"
   xmlns:inkscape="http://www.inkscape.org/namespaces/inkscape"
   version="1.1"
   id="Layer_1"
   x="0px"
   y="0px"
   viewBox="0 0 78.795059 74.25589"
   xml:space="preserve"
   sodipodi:docname="FrontRightsvg.svg"
   width="78.795059"
   height="74.25589"
   inkscape:version="0.92.4 (5da689c313, 2019-01-14)"><metadata
   id="metadata121"><rdf:RDF><cc:Work
       rdf:about=""><dc:format>image/svg+xml</dc:format><dc:type
         rdf:resource="http://purl.org/dc/dcmitype/StillImage" /><dc:title /></cc:Work></rdf:RDF></metadata><defs
   id="defs119" /><sodipodi:namedview
   pagecolor="#ffffff"
   bordercolor="#666666"
   borderopacity="1"
   objecttolerance="10"
   gridtolerance="10"
   guidetolerance="10"
   inkscape:pageopacity="0"
   inkscape:pageshadow="2"
   inkscape:window-width="1920"
   inkscape:window-height="1007"
   id="namedview117"
   showgrid="false"
   inkscape:zoom="4.3703704"
   inkscape:cx="13.960205"
   inkscape:cy="54.345751"
   inkscape:window-x="0"
   inkscape:window-y="0"
   inkscape:window-maximized="1"
   inkscape:current-layer="g100" />
<style
   type="text/css"
   id="style2">
	.st0{fill:#FFFFFF;}
	.st1{fill:#808080;}
	.st2{fill:#999999;}
	.st3{fill:#666666;}
	.st4{enable-background:new    ;}
	.st5{clip-path:url(#SVGID_2_);}
	.st6{clip-path:url(#SVGID_4_);}
</style>








<g
   id="g100"
   transform="translate(-186.33,-54.402461)">
	<path
   class="st0"
   d="m 255.08,63.69 c 3.67,2.92 10.96,10.21 9.95,32.13 -0.6,13.1 -8.02,30.34 -21.93,32.47 -15.37,2.35 -43.16,-6.19 -56.77,-35.87 0,0 1.83,-21.15 18.71,-31 15.89,-9.25 34.35,-10.2 50.04,2.27 z"
   id="path86"
   inkscape:connector-curvature="0"
   style="fill:#ffffff" />
	<path
   class="st1"
   d="m 186.57,90.76 c 0.83,-5.17 4.46,-21.15 18.49,-29.34 14.26,-8.32 30.6,-9.89 45.15,-1.1 6.73,6.76 10.9,16.08 10.9,26.38 0,20.64 -16.73,37.38 -37.38,37.38 -2.72,0 -5.37,-0.3 -7.93,-0.85 -10.81,-5.23 -21.57,-14.58 -28.76,-29.38 -0.2,-1.02 -0.36,-2.04 -0.47,-3.09 z"
   id="path88"
   inkscape:connector-curvature="0"
   style="fill:#555555;fill-opacity:1" />
	<path
   class="st2"
   d="m 186.71,89.9 c 1.07,-5.9 5.02,-20.7 18.34,-28.47 12.35,-7.21 26.26,-9.34 39.22,-4.08 7.94,6.5 13.01,16.38 13.01,27.45 0,19.59 -15.88,35.47 -35.47,35.47 -6.85,0 -13.24,-1.95 -18.66,-5.31 -5.61,-4.78 -10.78,-10.96 -14.93,-18.77 -0.68,-2.02 -1.19,-4.12 -1.51,-6.29 z"
   id="path90"
   inkscape:connector-curvature="0"
   style="fill:#bfbfbf;fill-opacity:1" />
	<path
   d="m 197.33,109.29 c -4.17,-4.64 -7.93,-10.22 -10.98,-16.87 0,0 1.83,-21.15 18.71,-31 11.67,-6.81 24.72,-9.09 37.06,-4.89 7.28,6.35 11.9,15.68 11.9,26.1 0,19.12 -15.5,34.62 -34.62,34.62 -8.4,0 -16.08,-2.99 -22.07,-7.96 z"
   id="path92"
   inkscape:connector-curvature="0" />
	
	<circle
   class="st0"
   cx="217.78999"
   cy="79.529999"
   r="14.37"
   id="circle96"
   style="fill:#ffffff" />
	<circle
   class="st0"
   cx="236.17999"
   cy="107.65"
   r="6.0300002"
   id="circle98"
   style="fill:#ffffff" />
</g>

</svg>