<?xml version="1.0" encoding="UTF-8" standalone="no"?>
<!-- Generator: Adobe Illustrator 24.2.1, SVG Export Plug-In . SVG Version: 6.00 Build 0)  -->

<svg
   xmlns:dc="http://purl.org/dc/elements/1.1/"
   xmlns:cc="http://creativecommons.org/ns#"
   xmlns:rdf="http://www.w3.org/1999/02/22-rdf-syntax-ns#"
   xmlns:svg="http://www.w3.org/2000/svg"
   xmlns="http://www.w3.org/2000/svg"
   xmlns:xlink="http://www.w3.org/1999/xlink"
   xmlns:sodipodi="http://sodipodi.sourceforge.net/DTD/sodipodi-0.dtd"
   xmlns:inkscape="http://www.inkscape.org/namespaces/inkscape"
   version="1.1"
   id="Layer_1"
   x="0px"
   y="0px"
   viewBox="0 0 65.139922 70.649438"
   xml:space="preserve"
   sodipodi:docname="SideRight.svg"
   width="65.139923"
   height="70.649437"
   inkscape:version="0.92.4 (5da689c313, 2019-01-14)"><metadata
   id="metadata121"><rdf:RDF><cc:Work
       rdf:about=""><dc:format>image/svg+xml</dc:format><dc:type
         rdf:resource="http://purl.org/dc/dcmitype/StillImage" /><dc:title /></cc:Work></rdf:RDF></metadata><defs
   id="defs119" /><sodipodi:namedview
   pagecolor="#ffffff"
   bordercolor="#666666"
   borderopacity="1"
   objecttolerance="10"
   gridtolerance="10"
   guidetolerance="10"
   inkscape:pageopacity="0"
   inkscape:pageshadow="2"
   inkscape:window-width="1920"
   inkscape:window-height="1007"
   id="namedview117"
   showgrid="false"
   inkscape:zoom="8.7407409"
   inkscape:cx="13.443923"
   inkscape:cy="52.92103"
   inkscape:window-x="0"
   inkscape:window-y="0"
   inkscape:window-maximized="1"
   inkscape:current-layer="g60" />
<style
   type="text/css"
   id="style2">
	.st0{fill:#FFFFFF;}
	.st1{fill:#808080;}
	.st2{fill:#999999;}
	.st3{fill:#666666;}
	.st4{enable-background:new    ;}
	.st5{clip-path:url(#SVGID_2_);}
	.st6{clip-path:url(#SVGID_4_);}
</style>




<g
   id="g64"
   transform="translate(-566.32,-59.864108)">
	<g
   class="st4"
   id="g62"
   style="enable-background:new">
		<defs
   id="defs41">
			<polygon
   id="SVGID_1_"
   class="st4"
   points="564.67,113.3 567.76,32.95 644.56,63.69 641.46,144.04 "
   style="enable-background:new" />
		</defs>
		<clipPath
   id="SVGID_2_">
			<use
   xlink:href="#SVGID_1_"
   style="overflow:visible"
   id="use43"
   x="0"
   y="0"
   width="100%"
   height="100%" />
		</clipPath>
		<g
   class="st5"
   clip-path="url(#SVGID_2_)"
   id="g60">
			<path
   class="st0"
   d="m 566.41,71.08 c 0.03,0.18 0.05,0.37 0.08,0.55 -0.03,-0.18 -0.05,-0.36 -0.08,-0.55 m 60.67,14.71 c 1.87,6.85 2.13,13.77 0.36,19.87 -4.01,13.86 -17.14,19 -31.16,13.38 -2.41,-0.96 -4.84,-2.24 -7.25,-3.85 -2.18,-1.45 -4.23,-3.09 -6.16,-4.88 -3.98,-5.26 -7.69,-11.44 -10.63,-18.41 -0.02,-0.04 -0.03,-0.07 -0.04,-0.11 -0.07,-0.17 -0.14,-0.34 -0.21,-0.51 -0.04,-0.09 -0.08,-0.19 -0.12,-0.28 -0.04,-0.11 -0.09,-0.22 -0.13,-0.33 -0.05,-0.13 -0.11,-0.26 -0.16,-0.4 -0.03,-0.07 -0.06,-0.14 -0.08,-0.21 -0.07,-0.17 -0.13,-0.33 -0.2,-0.5 0,-0.01 -0.01,-0.01 -0.01,-0.02 0,0 0,-0.01 -0.01,-0.01 -2.14,-5.5 -3.8,-11.46 -4.77,-17.82 4.52,29.89 24.42,50.86 37.07,57.1 0.43,0.21 0.86,0.4 1.28,0.57 11.04,4.42 20.31,-4.86 23.65,-14.47 3.99,-11.47 3.27,-19.59 1.69,-24.93 -1.12,-1.36 -2.17,-2.81 -3.12,-4.19"
   id="path46"
   inkscape:connector-curvature="0"
   style="fill:#ffffff" />
			<path
   class="st1"
   d="m 571.98,91.29 c 0.07,0.17 0.14,0.34 0.21,0.51 -0.07,-0.17 -0.14,-0.34 -0.21,-0.51 m -0.26,-0.61 c 0.04,0.11 0.09,0.22 0.13,0.33 -0.04,-0.12 -0.08,-0.22 -0.13,-0.33 m -0.24,-0.61 c 0.03,0.07 0.06,0.14 0.08,0.21 -0.02,-0.07 -0.05,-0.14 -0.08,-0.21 m -0.2,-0.52 c 0,0.01 0.01,0.01 0.01,0.02 0,0 -0.01,-0.01 -0.01,-0.02 0,0.01 0,0.01 0,0 m 52.54,-8.47 c 2.36,7.2 2.86,14.6 1,21.05 -3.8,13.16 -16.26,18.03 -29.58,12.7 -2.28,-0.91 -4.58,-2.12 -6.87,-3.64 -5.48,-3.65 -10.15,-8.57 -13.73,-14.1 -0.85,-1.68 -1.65,-3.41 -2.41,-5.19 2.95,6.97 6.65,13.15 10.63,18.41 1.92,1.79 3.97,3.43 6.16,4.88 2.42,1.6 4.85,2.88 7.25,3.85 14.03,5.62 27.15,0.48 31.16,-13.38 1.77,-6.1 1.51,-13.03 -0.36,-19.87 -0.15,-0.22 -0.31,-0.45 -0.46,-0.67 -0.78,-1.17 -1.72,-2.54 -2.79,-4.04"
   id="path48"
   inkscape:connector-curvature="0"
   style="fill:#555555;fill-opacity:1" />
			<path
   class="st2"
   d="m 621.76,78.32 c 2.26,6.97 2.73,14.13 0.93,20.36 -2.37,8.21 -8.19,13.11 -15.47,14.23 -0.88,1.6 -2.74,2.13 -4.7,1.34 -0.39,-0.15 -0.77,-0.36 -1.16,-0.62 -0.33,-0.22 -0.65,-0.47 -0.94,-0.74 -2.14,-0.32 -4.35,-0.91 -6.59,-1.81 -2.23,-0.89 -4.47,-2.07 -6.71,-3.56 -6.72,-4.46 -12.17,-10.89 -15.83,-17.97 0,0.01 0.01,0.01 0.01,0.02 0.06,0.17 0.13,0.33 0.2,0.5 0.03,0.07 0.06,0.14 0.08,0.21 0.05,0.13 0.11,0.26 0.16,0.4 0.04,0.11 0.09,0.22 0.13,0.33 0.04,0.09 0.08,0.19 0.12,0.28 0.07,0.17 0.14,0.34 0.21,0.51 0.01,0.04 0.03,0.07 0.04,0.11 0.76,1.78 1.56,3.52 2.41,5.19 3.58,5.52 8.25,10.45 13.73,14.1 2.29,1.52 4.59,2.73 6.87,3.64 13.32,5.33 25.78,0.45 29.58,-12.7 1.86,-6.45 1.36,-13.85 -1,-21.05 -0.65,-0.89 -1.33,-1.82 -2.07,-2.77"
   id="path50"
   inkscape:connector-curvature="0"
   style="fill:#bfbfbf;fill-opacity:1" />
			<path
   d="m 593.94,89.78 c -0.92,-0.37 -1.86,-0.86 -2.79,-1.48 -6.35,-4.21 -10.04,-12.7 -8.23,-18.95 1.54,-5.33 6.58,-7.31 11.98,-5.15 0.93,0.37 1.87,0.87 2.8,1.49 6.35,4.21 10.04,12.69 8.23,18.95 -1.56,5.33 -6.6,7.3 -11.99,5.14 m 8.39,-27.72 c -14.74,-5.9 -30.76,1.18 -36.01,8.37 0.03,0.22 0.06,0.44 0.09,0.65 0.03,0.18 0.05,0.37 0.08,0.55 0,0.03 0.01,0.06 0.01,0.09 0.96,6.37 2.63,12.32 4.77,17.82 0,0 0,0.01 0.01,0.01 0,0 0,0 0,0 3.66,7.08 9.11,13.52 15.83,17.97 2.24,1.48 4.49,2.67 6.71,3.56 2.23,0.89 4.44,1.49 6.59,1.81 -2.07,-1.91 -3.17,-4.91 -2.51,-7.21 0.65,-2.23 2.76,-3.07 5.02,-2.16 0.39,0.16 0.78,0.36 1.18,0.63 2.66,1.76 4.2,5.33 3.45,7.95 -0.09,0.3 -0.2,0.57 -0.34,0.81 7.28,-1.12 13.1,-6.02 15.47,-14.23 1.81,-6.23 1.33,-13.39 -0.93,-20.36 -4.19,-5.42 -9.93,-11.62 -17.08,-15.21 -0.76,-0.38 -1.55,-0.74 -2.34,-1.05"
   id="path52"
   inkscape:connector-curvature="0" />
			
			<path
   class="st0"
   d="m 594.89,64.21 c -5.39,-2.16 -10.44,-0.18 -11.98,5.15 -1.8,6.24 1.88,14.73 8.23,18.95 0.93,0.62 1.86,1.11 2.79,1.48 5.39,2.16 10.44,0.19 11.99,-5.14 1.8,-6.26 -1.88,-14.73 -8.23,-18.95 -0.93,-0.62 -1.87,-1.12 -2.8,-1.49"
   id="path56"
   inkscape:connector-curvature="0"
   style="fill:#ffffff" />
			<path
   class="st0"
   d="m 602.93,103.53 c -2.26,-0.9 -4.37,-0.07 -5.02,2.16 -0.66,2.29 0.44,5.3 2.51,7.21 0.3,0.27 0.61,0.52 0.94,0.74 0.39,0.26 0.78,0.46 1.16,0.62 1.97,0.79 3.82,0.26 4.7,-1.34 0.14,-0.25 0.25,-0.52 0.34,-0.81 0.75,-2.62 -0.79,-6.19 -3.45,-7.95 -0.4,-0.27 -0.79,-0.48 -1.18,-0.63"
   id="path58"
   inkscape:connector-curvature="0"
   style="fill:#ffffff" />
		</g>
	</g>
</g>





</svg>