<?xml version="1.0" encoding="UTF-8" standalone="no"?>
<!-- Generator: Adobe Illustrator 24.2.1, SVG Export Plug-In . SVG Version: 6.00 Build 0)  -->

<svg
   xmlns:dc="http://purl.org/dc/elements/1.1/"
   xmlns:cc="http://creativecommons.org/ns#"
   xmlns:rdf="http://www.w3.org/1999/02/22-rdf-syntax-ns#"
   xmlns:svg="http://www.w3.org/2000/svg"
   xmlns="http://www.w3.org/2000/svg"
   xmlns:sodipodi="http://sodipodi.sourceforge.net/DTD/sodipodi-0.dtd"
   xmlns:inkscape="http://www.inkscape.org/namespaces/inkscape"
   version="1.1"
   id="Layer_1"
   x="0px"
   y="0px"
   viewBox="0 0 106.87914 155.68336"
   xml:space="preserve"
   sodipodi:docname="BackRight.svg"
   width="106.87914"
   height="155.68336"
   inkscape:version="0.92.4 (5da689c313, 2019-01-14)"><metadata
   id="metadata75"><rdf:RDF><cc:Work
       rdf:about=""><dc:format>image/svg+xml</dc:format><dc:type
         rdf:resource="http://purl.org/dc/dcmitype/StillImage" /><dc:title /></cc:Work></rdf:RDF></metadata><defs
   id="defs73" /><sodipodi:namedview
   pagecolor="#ffffff"
   bordercolor="#666666"
   borderopacity="1"
   objecttolerance="10"
   gridtolerance="10"
   guidetolerance="10"
   inkscape:pageopacity="0"
   inkscape:pageshadow="2"
   inkscape:window-width="1920"
   inkscape:window-height="1007"
   id="namedview71"
   showgrid="false"
   inkscape:zoom="3.0903186"
   inkscape:cx="51.922315"
   inkscape:cy="95.447091"
   inkscape:window-x="0"
   inkscape:window-y="0"
   inkscape:window-maximized="1"
   inkscape:current-layer="g8" />
<style
   type="text/css"
   id="style2">
	.st0{fill:#4D4D4D;}
	.st1{fill:#1A1A1A;}
</style>
<g
   id="g16"
   transform="translate(-455.86856,-47.759569)">
	<g
   id="g8">
		<path
   class="st0"
   d="m 552.98,69.55 c -4.14,2.55 -10.91,5.47 -15.29,5.67 -4.38,0.2 -11.74,-5.37 -16.42,-3.48 -5.79,2.34 -13.1,6.29 -16.42,26.17 -5.17,31.04 -3.38,99.9 -7.36,104.28 -3.98,4.38 -15.73,-3.12 -27.26,-16.32 -17.91,-20.5 -16.77,-33.93 -9,-63.78 9.14,-35.14 36.18,-74.22 58.95,-74.33 14.13,-0.07 18.69,8.41 40.99,7.56 2.63,-0.1 3.19,7.21 -8.19,14.23 z"
   id="path4"
   inkscape:connector-curvature="0"
   style="fill:#919191;fill-opacity:1" />
		<path
   class="st1"
   d="m 547.87,62.61 c -8.76,-2.19 -15.05,-6.09 -26.49,-3.13 -9.39,2.43 -29.65,19.33 -40,45.2 -10.06,25.14 -11.79,53.08 -10.15,68.16 0.77,7.05 3.48,15.39 8.37,22.46 8.02,6.97 15.01,10.07 17.9,6.89 3.98,-4.38 2.19,-73.23 7.36,-104.28 3.31,-19.88 10.63,-23.83 16.42,-26.17 4.68,-1.89 12.04,3.68 16.42,3.48 4.38,-0.2 11.14,-3.12 15.29,-5.67 4.68,-2.88 7.31,-5.81 8.64,-8.25 v 0 c -0.01,-0.01 -5.01,3.5 -13.76,1.31 z"
   id="path6"
   inkscape:connector-curvature="0"
   style="fill:#ca999a;fill-opacity:1" />
	</g>
	
</g>




</svg>