<?xml version="1.0" encoding="UTF-8" standalone="no"?>
<!-- Generator: Adobe Illustrator 24.2.1, SVG Export Plug-In . SVG Version: 6.00 Build 0)  -->

<svg
   xmlns:dc="http://purl.org/dc/elements/1.1/"
   xmlns:cc="http://creativecommons.org/ns#"
   xmlns:rdf="http://www.w3.org/1999/02/22-rdf-syntax-ns#"
   xmlns:svg="http://www.w3.org/2000/svg"
   xmlns="http://www.w3.org/2000/svg"
   xmlns:sodipodi="http://sodipodi.sourceforge.net/DTD/sodipodi-0.dtd"
   xmlns:inkscape="http://www.inkscape.org/namespaces/inkscape"
   version="1.1"
   id="Layer_1"
   x="0px"
   y="0px"
   viewBox="0 0 95.497472 179.51276"
   xml:space="preserve"
   sodipodi:docname="DiagUpRight.svg"
   width="95.497475"
   height="179.51276"
   inkscape:version="0.92.4 (5da689c313, 2019-01-14)"><metadata
   id="metadata75"><rdf:RDF><cc:Work
       rdf:about=""><dc:format>image/svg+xml</dc:format><dc:type
         rdf:resource="http://purl.org/dc/dcmitype/StillImage" /><dc:title /></cc:Work></rdf:RDF></metadata><defs
   id="defs73" /><sodipodi:namedview
   pagecolor="#ffffff"
   bordercolor="#666666"
   borderopacity="1"
   objecttolerance="10"
   gridtolerance="10"
   guidetolerance="10"
   inkscape:pageopacity="0"
   inkscape:pageshadow="2"
   inkscape:window-width="1920"
   inkscape:window-height="1007"
   id="namedview71"
   showgrid="false"
   inkscape:zoom="3.0903185"
   inkscape:cx="-0.14667196"
   inkscape:cy="81.862082"
   inkscape:window-x="0"
   inkscape:window-y="0"
   inkscape:window-maximized="1"
   inkscape:current-layer="g60" />
<style
   type="text/css"
   id="style2">
	.st0{fill:#4D4D4D;}
	.st1{fill:#1A1A1A;}
</style>




<g
   id="g68"
   transform="translate(-521.62479,-331.41203)">
	<g
   id="g60">
		<path
   class="st0"
   d="m 616.82,339.84 c -0.5,-2.69 -7.72,-7.24 -13.8,-8.26 -10.78,-1.8 -37.64,10.89 -55.57,36.97 -13.13,19.1 -22.29,43.58 -25.27,68.46 -1.55,12.89 0.47,28.37 2.09,48.11 1.26,15.28 2.19,24.03 4.08,25.52 3.64,2.88 35.93,-16.28 46.57,-48.56 5.97,-18.11 -1.59,-53.33 9.95,-77.61 6.65,-14 17.74,-18.59 24.68,-24.28 5.03,-4.14 8.67,-12.79 7.27,-20.35 z"
   id="path56"
   inkscape:connector-curvature="0"
   style="fill:#919191;fill-opacity:1" />
		<path
   class="st1"
   d="m 616.97,345.68 c -1.49,0.23 -15.09,3.78 -28.13,14.31 -13.88,11.19 -27.46,30.89 -32.84,49.4 -2.75,9.48 -4.48,31.49 -1.64,50.15 1.82,11.95 10.03,27.43 -9.01,42.97 0,0 0,0 0,0 10.73,-8.27 23.57,-22.27 29.56,-40.43 5.97,-18.11 -1.59,-53.33 9.95,-77.61 6.65,-14 17.74,-18.59 24.68,-24.28 3.77,-3.1 6.75,-8.71 7.43,-14.51 z"
   id="path58"
   inkscape:connector-curvature="0"
   style="fill:#ca999a;fill-opacity:1" />
	</g>
	
</g>
</svg>