<?xml version="1.0" encoding="UTF-8" standalone="no"?>
<!-- Generator: Adobe Illustrator 24.2.1, SVG Export Plug-In . SVG Version: 6.00 Build 0)  -->

<svg
   xmlns:dc="http://purl.org/dc/elements/1.1/"
   xmlns:cc="http://creativecommons.org/ns#"
   xmlns:rdf="http://www.w3.org/1999/02/22-rdf-syntax-ns#"
   xmlns:svg="http://www.w3.org/2000/svg"
   xmlns="http://www.w3.org/2000/svg"
   xmlns:sodipodi="http://sodipodi.sourceforge.net/DTD/sodipodi-0.dtd"
   xmlns:inkscape="http://www.inkscape.org/namespaces/inkscape"
   version="1.1"
   id="Layer_1"
   x="0px"
   y="0px"
   viewBox="0 0 95.870483 179.1127"
   xml:space="preserve"
   sodipodi:docname="DiagDownRight.svg"
   width="95.870483"
   height="179.1127"
   inkscape:version="0.92.4 (5da689c313, 2019-01-14)"><metadata
   id="metadata75"><rdf:RDF><cc:Work
       rdf:about=""><dc:format>image/svg+xml</dc:format><dc:type
         rdf:resource="http://purl.org/dc/dcmitype/StillImage" /><dc:title /></cc:Work></rdf:RDF></metadata><defs
   id="defs73" /><sodipodi:namedview
   pagecolor="#ffffff"
   bordercolor="#666666"
   borderopacity="1"
   objecttolerance="10"
   gridtolerance="10"
   guidetolerance="10"
   inkscape:pageopacity="0"
   inkscape:pageshadow="2"
   inkscape:window-width="1920"
   inkscape:window-height="1007"
   id="namedview71"
   showgrid="false"
   inkscape:zoom="3.0903186"
   inkscape:cx="-55.276832"
   inkscape:cy="106.65071"
   inkscape:window-x="0"
   inkscape:window-y="0"
   inkscape:window-maximized="1"
   inkscape:current-layer="g40" />
<style
   type="text/css"
   id="style2">
	.st0{fill:#4D4D4D;}
	.st1{fill:#1A1A1A;}
</style>


<g
   id="g48"
   transform="translate(-268.95634,-353.52564)">
	<g
   id="g40">
		<path
   class="st0"
   d="m 285.39,353.64 c -4.24,-0.91 -14.03,3.78 -15.82,8.06 -1.78,4.24 0.8,13.63 1.59,14.73 0.8,1.09 7.46,4.58 20.7,17.61 13.23,13.03 13.5,19.65 16.72,45.27 5.97,47.56 4.58,87.36 7.76,92.14 3.06,4.59 17.92,-4.19 35.62,-25.07 17.71,-20.89 13.93,-45.17 7.56,-68.65 -6.37,-23.49 -26.47,-73.84 -74.13,-84.09 z"
   id="path36"
   inkscape:connector-curvature="0"
   style="fill:#919191;fill-opacity:1" />
		<path
   class="st1"
   d="m 269.1,368.08 c 0.4,3.83 1.57,7.67 2.06,8.35 0.8,1.09 7.46,4.58 20.7,17.61 8.37,8.24 11.55,13.93 13.57,23.47 0.1,-9.03 -1.35,-21.59 -8.6,-31.33 -12.07,-16.23 -26.29,-17.96 -27.73,-18.1 z"
   id="path38"
   inkscape:connector-curvature="0"
   style="fill:#ca999a;fill-opacity:1" />
	</g>
	
</g>


</svg>