<?xml version="1.0" encoding="UTF-8" standalone="no"?>
<!-- Generator: Adobe Illustrator 24.2.1, SVG Export Plug-In . SVG Version: 6.00 Build 0)  -->

<svg
   xmlns:dc="http://purl.org/dc/elements/1.1/"
   xmlns:cc="http://creativecommons.org/ns#"
   xmlns:rdf="http://www.w3.org/1999/02/22-rdf-syntax-ns#"
   xmlns:svg="http://www.w3.org/2000/svg"
   xmlns="http://www.w3.org/2000/svg"
   xmlns:sodipodi="http://sodipodi.sourceforge.net/DTD/sodipodi-0.dtd"
   xmlns:inkscape="http://www.inkscape.org/namespaces/inkscape"
   version="1.1"
   id="Layer_1"
   x="0px"
   y="0px"
   viewBox="0 0 68.42894 108.45525"
   xml:space="preserve"
   sodipodi:docname="DiagDownLeft.svg"
   width="68.42894"
   height="108.45525"
   inkscape:version="0.92.4 (5da689c313, 2019-01-14)"><metadata
   id="metadata75"><rdf:RDF><cc:Work
       rdf:about=""><dc:format>image/svg+xml</dc:format><dc:type
         rdf:resource="http://purl.org/dc/dcmitype/StillImage" /><dc:title /></cc:Work></rdf:RDF></metadata><defs
   id="defs73" /><sodipodi:namedview
   pagecolor="#ffffff"
   bordercolor="#666666"
   borderopacity="1"
   objecttolerance="10"
   gridtolerance="10"
   guidetolerance="10"
   inkscape:pageopacity="0"
   inkscape:pageshadow="2"
   inkscape:window-width="1920"
   inkscape:window-height="1007"
   id="namedview71"
   showgrid="false"
   inkscape:zoom="2.1851852"
   inkscape:cx="-15.622248"
   inkscape:cy="-14.87708"
   inkscape:window-x="0"
   inkscape:window-y="0"
   inkscape:window-maximized="1"
   inkscape:current-layer="g46" />
<style
   type="text/css"
   id="style2">
	.st0{fill:#4D4D4D;}
	.st1{fill:#1A1A1A;}
</style>


<g
   id="g48"
   transform="translate(-83.070792,-285.39018)">
	
	<g
   id="g46">
		<path
   class="st0"
   d="m 150.57,291.65 c -3.98,-7.41 -27.86,-7.56 -37.41,-3.98 -9.55,3.58 -13.13,16.32 -20.7,41.79 -7.57,25.47 -11.36,47.62 -8.36,58.7 1.99,7.35 17.51,8.4 21.89,-1.79 5.98,-13.92 22.22,-35.99 33.83,-54.92 9.16,-14.92 13.79,-34.13 10.75,-39.8 z"
   id="path42"
   inkscape:connector-curvature="0"
   style="fill:#919191;fill-opacity:1" />
		<path
   class="st1"
   d="m 151.49,296.63 c -0.16,-0.03 -11.86,-2.23 -23,8.76 -12.54,12.36 -16.52,40.42 -3.42,48.9 5.04,-7.64 10.25,-15.48 14.76,-22.84 7.3,-11.9 11.71,-26.52 11.66,-34.82 z"
   id="path44"
   inkscape:connector-curvature="0"
   style="fill:#ca999a;fill-opacity:1" />
	</g>
</g>


</svg>