<?xml version="1.0" encoding="UTF-8" standalone="no"?>
<!-- Generator: Adobe Illustrator 24.2.1, SVG Export Plug-In . SVG Version: 6.00 Build 0)  -->

<svg
   xmlns:dc="http://purl.org/dc/elements/1.1/"
   xmlns:cc="http://creativecommons.org/ns#"
   xmlns:rdf="http://www.w3.org/1999/02/22-rdf-syntax-ns#"
   xmlns:svg="http://www.w3.org/2000/svg"
   xmlns="http://www.w3.org/2000/svg"
   xmlns:sodipodi="http://sodipodi.sourceforge.net/DTD/sodipodi-0.dtd"
   xmlns:inkscape="http://www.inkscape.org/namespaces/inkscape"
   version="1.1"
   id="Layer_1"
   x="0px"
   y="0px"
   viewBox="0 0 68.432203 108.28622"
   xml:space="preserve"
   sodipodi:docname="DiagUpLeft.svg"
   width="68.432205"
   height="108.28622"
   inkscape:version="0.92.4 (5da689c313, 2019-01-14)"><metadata
   id="metadata75"><rdf:RDF><cc:Work
       rdf:about=""><dc:format>image/svg+xml</dc:format><dc:type
         rdf:resource="http://purl.org/dc/dcmitype/StillImage" /><dc:title /></cc:Work></rdf:RDF></metadata><defs
   id="defs73" /><sodipodi:namedview
   pagecolor="#ffffff"
   bordercolor="#666666"
   borderopacity="1"
   objecttolerance="10"
   gridtolerance="10"
   guidetolerance="10"
   inkscape:pageopacity="0"
   inkscape:pageshadow="2"
   inkscape:window-width="1920"
   inkscape:window-height="1007"
   id="namedview71"
   showgrid="false"
   inkscape:zoom="4.3703704"
   inkscape:cx="-18.818502"
   inkscape:cy="38.841119"
   inkscape:window-x="0"
   inkscape:window-y="0"
   inkscape:window-maximized="1"
   inkscape:current-layer="g66" />
<style
   type="text/css"
   id="style2">
	.st0{fill:#4D4D4D;}
	.st1{fill:#1A1A1A;}
</style>




<g
   id="g68"
   transform="translate(-735.92828,-263.20133)">
	
	<g
   id="g66">
		<path
   class="st0"
   d="m 736.15,271.93 c -1.18,3.69 2.09,23.43 16.12,45.23 20.96,32.56 26.72,47.31 32.39,52.08 5.67,4.78 19.66,1.49 19.7,-5.67 0.1,-16.91 -15.32,-85.37 -27.28,-95.56 -10.26,-8.74 -38.25,-4.44 -40.93,3.92 z"
   id="path62"
   inkscape:connector-curvature="0"
   style="fill:#919191;fill-opacity:1" />
		<path
   class="st1"
   d="m 736.57,279.82 c 1.55,8.51 6.11,22.44 15.7,37.34 19.89,30.9 26.09,45.74 31.52,51.26 2.56,1.42 7.48,-0.31 8.03,-3.06 1.64,-8.21 -7.88,-49.53 -21.68,-68.06 -10.11,-13.58 -28.09,-17.69 -33.57,-17.48 z"
   id="path64"
   inkscape:connector-curvature="0"
   style="fill:#ca999a;fill-opacity:1" />
	</g>
</g>
</svg>