<?xml version="1.0" encoding="UTF-8" standalone="no"?>
<!-- Generator: Adobe Illustrator 24.2.1, SVG Export Plug-In . SVG Version: 6.00 Build 0)  -->

<svg
   xmlns:dc="http://purl.org/dc/elements/1.1/"
   xmlns:cc="http://creativecommons.org/ns#"
   xmlns:rdf="http://www.w3.org/1999/02/22-rdf-syntax-ns#"
   xmlns:svg="http://www.w3.org/2000/svg"
   xmlns="http://www.w3.org/2000/svg"
   xmlns:sodipodi="http://sodipodi.sourceforge.net/DTD/sodipodi-0.dtd"
   xmlns:inkscape="http://www.inkscape.org/namespaces/inkscape"
   version="1.1"
   id="Layer_1"
   x="0px"
   y="0px"
   viewBox="0 0 106.87914 155.68336"
   xml:space="preserve"
   sodipodi:docname="FrontRight.svg"
   width="106.87914"
   height="155.68336"
   inkscape:version="0.92.4 (5da689c313, 2019-01-14)"><metadata
   id="metadata75"><rdf:RDF><cc:Work
       rdf:about=""><dc:format>image/svg+xml</dc:format><dc:type
         rdf:resource="http://purl.org/dc/dcmitype/StillImage" /><dc:title /></cc:Work></rdf:RDF></metadata><defs
   id="defs73" /><sodipodi:namedview
   pagecolor="#ffffff"
   bordercolor="#666666"
   borderopacity="1"
   objecttolerance="10"
   gridtolerance="10"
   guidetolerance="10"
   inkscape:pageopacity="0"
   inkscape:pageshadow="2"
   inkscape:window-width="1920"
   inkscape:window-height="1007"
   id="namedview71"
   showgrid="false"
   inkscape:zoom="2.1851852"
   inkscape:cx="8.6226801"
   inkscape:cy="61.898154"
   inkscape:window-x="0"
   inkscape:window-y="0"
   inkscape:window-maximized="1"
   inkscape:current-layer="g32" />
<style
   type="text/css"
   id="style2">
	.st0{fill:#4D4D4D;}
	.st1{fill:#1A1A1A;}
</style>

<g
   id="g34"
   transform="translate(-285.02229,-45.089569)">
	
	<g
   id="g32">
		<g
   id="g28">
			<path
   class="st0"
   d="m 294.79,66.88 c 4.14,2.55 10.91,5.47 15.29,5.67 4.38,0.2 11.74,-5.37 16.42,-3.48 5.79,2.34 13.1,6.29 16.42,26.17 5.17,31.04 3.38,99.9 7.36,104.28 3.98,4.38 15.73,-3.12 27.26,-16.32 17.91,-20.5 16.77,-33.93 9,-63.78 C 377.4,84.28 350.36,45.2 327.59,45.09 313.46,45.02 308.9,53.5 286.6,52.65 c -2.63,-0.09 -3.19,7.22 8.19,14.23 z"
   id="path26"
   inkscape:connector-curvature="0"
   style="fill:#919191;fill-opacity:1" />
		</g>
		<path
   class="st1"
   d="m 322.91,56.83 c 11.99,1.48 17.87,20.33 19.09,33.83 -3.61,-15.91 -10.2,-19.44 -15.51,-21.59 -4.68,-1.89 -12.04,3.68 -16.42,3.48 -4.38,-0.2 -11.14,-3.12 -15.29,-5.67 -0.3,-0.19 -0.57,-0.38 -0.85,-0.56 3.5,-2.67 15.74,-11.12 28.98,-9.49 z"
   id="path30"
   inkscape:connector-curvature="0"
   style="fill:#ca999a;fill-opacity:1" />
	</g>
</g>



</svg>