<?xml version="1.0" encoding="UTF-8" standalone="no"?>
<!-- Generator: Adobe Illustrator 24.2.1, SVG Export Plug-In . SVG Version: 6.00 Build 0)  -->

<svg
   xmlns:dc="http://purl.org/dc/elements/1.1/"
   xmlns:cc="http://creativecommons.org/ns#"
   xmlns:rdf="http://www.w3.org/1999/02/22-rdf-syntax-ns#"
   xmlns:svg="http://www.w3.org/2000/svg"
   xmlns="http://www.w3.org/2000/svg"
   xmlns:sodipodi="http://sodipodi.sourceforge.net/DTD/sodipodi-0.dtd"
   xmlns:inkscape="http://www.inkscape.org/namespaces/inkscape"
   version="1.1"
   id="Layer_1"
   x="0px"
   y="0px"
   viewBox="0 0 25.99 20.822369"
   xml:space="preserve"
   sodipodi:docname="DiagDownMouth.svg"
   width="25.99"
   height="20.822369"
   inkscape:version="0.92.4 (5da689c313, 2019-01-14)"><metadata
   id="metadata15"><rdf:RDF><cc:Work
       rdf:about=""><dc:format>image/svg+xml</dc:format><dc:type
         rdf:resource="http://purl.org/dc/dcmitype/StillImage" /><dc:title></dc:title></cc:Work></rdf:RDF></metadata><defs
   id="defs13" /><sodipodi:namedview
   pagecolor="#ffffff"
   bordercolor="#666666"
   borderopacity="1"
   objecttolerance="10"
   gridtolerance="10"
   guidetolerance="10"
   inkscape:pageopacity="0"
   inkscape:pageshadow="2"
   inkscape:window-width="1600"
   inkscape:window-height="835"
   id="namedview11"
   showgrid="false"
   inkscape:zoom="3.0903185"
   inkscape:cx="33.145824"
   inkscape:cy="0.54415246"
   inkscape:window-x="0"
   inkscape:window-y="0"
   inkscape:window-maximized="1"
   inkscape:current-layer="g8" />
<style
   type="text/css"
   id="style2">
	.st0{fill:#1E1E1E;}
</style>
<g
   id="g8"
   transform="translate(-406.01,-321.87)">
	
	<path
   class="st0"
   d="m 413.87,322.94 c 0,0 -0.94,6.28 0.18,10.54 1.11,4.19 8.06,7.72 10.97,7.65 2.91,-0.07 3.86,-1.92 3.91,-3.08 l -2.07,-1.58 c 0,0 4.1,-0.47 5.14,3.19 l -1.61,-0.91 c 0,0 -0.73,3.84 -5.25,3.94 -3.58,0.08 -6.89,-1.88 -9.13,-3.91 -2.24,-2.03 -2.94,-3.87 -2.94,-3.87 0,0 -2.94,0.09 -4.4,-1.95 -1.46,-2.04 -1.73,-4.31 -1.42,-8.67 l -1.24,-0.42 c 0,0 1.57,-0.61 2.68,-0.18 0.86,0.33 1.2,1.32 1.2,1.32 l -1.4,-0.38 c 0,0 -0.63,3.06 0.25,5.56 0.79,2.26 2.44,3.43 3.65,3.23 0,0 -0.91,-4.63 0.5,-11.55"
   id="path6"
   inkscape:connector-curvature="0"
   style="fill:#1e1e1e" />
</g>
</svg>