<?xml version="1.0" encoding="UTF-8" standalone="no"?>
<!-- Generator: Adobe Illustrator 24.2.1, SVG Export Plug-In . SVG Version: 6.00 Build 0)  -->

<svg
   xmlns:dc="http://purl.org/dc/elements/1.1/"
   xmlns:cc="http://creativecommons.org/ns#"
   xmlns:rdf="http://www.w3.org/1999/02/22-rdf-syntax-ns#"
   xmlns:svg="http://www.w3.org/2000/svg"
   xmlns="http://www.w3.org/2000/svg"
   xmlns:sodipodi="http://sodipodi.sourceforge.net/DTD/sodipodi-0.dtd"
   xmlns:inkscape="http://www.inkscape.org/namespaces/inkscape"
   version="1.1"
   id="Layer_1"
   x="0px"
   y="0px"
   viewBox="0 0 46.569691 22.480017"
   xml:space="preserve"
   sodipodi:docname="FrontMouth.svg"
   width="46.569691"
   height="22.480017"
   inkscape:version="0.92.4 (5da689c313, 2019-01-14)"><metadata
   id="metadata15"><rdf:RDF><cc:Work
       rdf:about=""><dc:format>image/svg+xml</dc:format><dc:type
         rdf:resource="http://purl.org/dc/dcmitype/StillImage" /><dc:title></dc:title></cc:Work></rdf:RDF></metadata><defs
   id="defs13" /><sodipodi:namedview
   pagecolor="#ffffff"
   bordercolor="#666666"
   borderopacity="1"
   objecttolerance="10"
   gridtolerance="10"
   guidetolerance="10"
   inkscape:pageopacity="0"
   inkscape:pageshadow="2"
   inkscape:window-width="1600"
   inkscape:window-height="835"
   id="namedview11"
   showgrid="false"
   inkscape:zoom="6.180637"
   inkscape:cx="21.767505"
   inkscape:cy="28.481471"
   inkscape:window-x="0"
   inkscape:window-y="0"
   inkscape:window-maximized="1"
   inkscape:current-layer="g8" />
<style
   type="text/css"
   id="style2">
	.st0{fill:#1E1E1E;}
</style>
<g
   id="g8"
   transform="translate(-408.71515,-347.09998)">
	<path
   class="st0"
   d="m 455.28,354.84 c 0.13,-3.16 -2.37,-7.75 -5.81,-7.74 -3.99,0.01 -4.74,2.47 -4.74,2.47 1.41,-0.03 3.61,0.5 4.74,1.36 0,0 0.76,6.29 0,9.29 -0.38,1.49 -2.81,6.13 -8.73,6.06 -5.92,-0.07 -7.4,-5.18 -7.4,-5.18 v -13.19 l -1.34,-0.54 -1.34,0.54 v 13.19 c 0,0 -1.48,5.12 -7.4,5.18 -5.92,0.07 -8.35,-4.56 -8.73,-6.06 -0.76,-3 0,-9.29 0,-9.29 1.13,-0.86 3.33,-1.39 4.74,-1.36 0,0 -0.75,-2.47 -4.74,-2.47 -3.44,-0.01 -5.94,4.58 -5.81,7.74 0,0 1.48,-1.5 2.69,-2.26 0,0 -0.74,3.88 0.27,9.06 1.01,5.18 5.79,7.94 11.44,7.94 5.65,0 8.27,-3.23 8.88,-3.84 0.61,0.61 3.22,3.84 8.88,3.84 5.65,0 10.43,-2.76 11.44,-7.94 1.01,-5.18 0.27,-9.06 0.27,-9.06 1.21,0.77 2.69,2.26 2.69,2.26 z"
   id="path4"
   inkscape:connector-curvature="0"
   style="fill:#1e1e1e" />
	
</g>
</svg>