<?xml version="1.0" encoding="UTF-8" standalone="no"?>
<!-- Generator: Adobe Illustrator 24.2.1, SVG Export Plug-In . SVG Version: 6.00 Build 0)  -->

<svg
   xmlns:dc="http://purl.org/dc/elements/1.1/"
   xmlns:cc="http://creativecommons.org/ns#"
   xmlns:rdf="http://www.w3.org/1999/02/22-rdf-syntax-ns#"
   xmlns:svg="http://www.w3.org/2000/svg"
   xmlns="http://www.w3.org/2000/svg"
   xmlns:sodipodi="http://sodipodi.sourceforge.net/DTD/sodipodi-0.dtd"
   xmlns:inkscape="http://www.inkscape.org/namespaces/inkscape"
   version="1.1"
   id="Layer_1"
   x="0px"
   y="0px"
   viewBox="0 0 24.48 22.205011"
   xml:space="preserve"
   sodipodi:docname="SideMouth.svg"
   width="24.48"
   height="22.205011"
   inkscape:version="0.92.4 (5da689c313, 2019-01-14)"><metadata
   id="metadata15"><rdf:RDF><cc:Work
       rdf:about=""><dc:format>image/svg+xml</dc:format><dc:type
         rdf:resource="http://purl.org/dc/dcmitype/StillImage" /><dc:title></dc:title></cc:Work></rdf:RDF></metadata><defs
   id="defs13" /><sodipodi:namedview
   pagecolor="#ffffff"
   bordercolor="#666666"
   borderopacity="1"
   objecttolerance="10"
   gridtolerance="10"
   guidetolerance="10"
   inkscape:pageopacity="0"
   inkscape:pageshadow="2"
   inkscape:window-width="1600"
   inkscape:window-height="835"
   id="namedview11"
   showgrid="false"
   inkscape:zoom="6.180637"
   inkscape:cx="-1.8211715"
   inkscape:cy="10.203874"
   inkscape:window-x="0"
   inkscape:window-y="0"
   inkscape:window-maximized="1"
   inkscape:current-layer="g8" />
<style
   type="text/css"
   id="style2">
	.st0{fill:#1E1E1E;}
</style>
<g
   id="g8"
   transform="translate(-424.93,-273.49)">
	<path
   d="m 445.78,283.76 c -1.66,0.1 -2.34,2.74 -2.34,2.74 l 2.64,-0.68 c 1.9,4.05 -1.07,7.81 -5.37,8.11 -4.3,0.29 -6.94,-1.86 -6.94,-1.86 -5.05,-7.94 -7.78,-18.58 -7.78,-18.58 h -1.06 c 1.02,5.54 4.03,13.29 9.21,20.99 3.38,1.6 7.18,1.65 10.77,-0.03 5.08,-2.38 3.13,-9.02 3.13,-9.02 l 1.37,-0.39 c -0.89,-0.89 -1.97,-1.38 -3.63,-1.28 z"
   id="path4"
   inkscape:connector-curvature="0" />
	
</g>
</svg>