<?xml version="1.0" encoding="UTF-8" standalone="no"?>
<!-- Created with Inkscape (http://www.inkscape.org/) -->

<svg
   xmlns:dc="http://purl.org/dc/elements/1.1/"
   xmlns:cc="http://creativecommons.org/ns#"
   xmlns:rdf="http://www.w3.org/1999/02/22-rdf-syntax-ns#"
   xmlns:svg="http://www.w3.org/2000/svg"
   xmlns="http://www.w3.org/2000/svg"
   xmlns:sodipodi="http://sodipodi.sourceforge.net/DTD/sodipodi-0.dtd"
   xmlns:inkscape="http://www.inkscape.org/namespaces/inkscape"
   width="4.551826mm"
   height="2.8050737mm"
   viewBox="0 0 4.551826 2.8050737"
   version="1.1"
   id="svg2731"
   inkscape:version="0.92.4 (5da689c313, 2019-01-14)"
   sodipodi:docname="FLeftFoot.svg">
  <defs
     id="defs2725" />
  <sodipodi:namedview
     id="base"
     pagecolor="#ffffff"
     bordercolor="#666666"
     borderopacity="1.0"
     inkscape:pageopacity="0.0"
     inkscape:pageshadow="2"
     inkscape:zoom="22.4"
     inkscape:cx="8.2742667"
     inkscape:cy="3.4571509"
     inkscape:document-units="mm"
     inkscape:current-layer="layer1"
     showgrid="false"
     inkscape:window-width="956"
     inkscape:window-height="1007"
     inkscape:window-x="960"
     inkscape:window-y="0"
     inkscape:window-maximized="0" />
  <metadata
     id="metadata2728">
    <rdf:RDF>
      <cc:Work
         rdf:about="">
        <dc:format>image/svg+xml</dc:format>
        <dc:type
           rdf:resource="http://purl.org/dc/dcmitype/StillImage" />
        <dc:title></dc:title>
      </cc:Work>
    </rdf:RDF>
  </metadata>
  <g
     inkscape:label="Layer 1"
     inkscape:groupmode="layer"
     id="layer1"
     transform="translate(-6.0395594,-2.2879443)">
    <g
       style="display:inline;opacity:1"
       inkscape:label="LeftLeg3"
       id="LeftLeg3"
       transform="matrix(0.53223583,0,0,0.53419375,8.2761595,3.6768481)">
      <g
         id="use1184">
        <path
           id="path1192"
           d="m 1.2,-1 q 2.3,0 3.15,-0.85 L 4.1,0.5 Q 3.45,2.4 0.05,2.6 -3.35,2.8 -4,1 -4.65,-0.85 -2.9,-2.6 -1.45,-1 1.2,-1"
           inkscape:connector-curvature="0"
           style="fill:#bfbfbf;fill-opacity:1;fill-rule:evenodd;stroke:none" />
        <path
           id="path1194"
           d="M -4.2,0 Q -4.15,-1.05 -3.45,-1.95 -0.65,-1.6 2.6,2 -0.9,3.25 -3.2,2.1 -4.25,1.3 -4.2,0"
           inkscape:connector-curvature="0"
           style="fill:#767676;fill-opacity:1;fill-rule:evenodd;stroke:none" />
        <path
           id="path1196"
           d="M -3.65,1.7 -3,-0.1 -3.4,1.9 -3.65,1.7 M -1.1,0.6 q 0.1,0.65 -0.25,2 L -1.7,2.55 -1.1,0.6"
           inkscape:connector-curvature="0"
           style="fill:#333333;fill-rule:evenodd;stroke:none" />
      </g>
    </g>
  </g>
</svg>
