<?xml version="1.0" encoding="UTF-8" standalone="no"?>
<!-- Created with Inkscape (http://www.inkscape.org/) -->

<svg
   xmlns:dc="http://purl.org/dc/elements/1.1/"
   xmlns:cc="http://creativecommons.org/ns#"
   xmlns:rdf="http://www.w3.org/1999/02/22-rdf-syntax-ns#"
   xmlns:svg="http://www.w3.org/2000/svg"
   xmlns="http://www.w3.org/2000/svg"
   xmlns:sodipodi="http://sodipodi.sourceforge.net/DTD/sodipodi-0.dtd"
   xmlns:inkscape="http://www.inkscape.org/namespaces/inkscape"
   width="4.657814mm"
   height="2.8346708mm"
   viewBox="0 0 4.657814 2.8346707"
   version="1.1"
   id="svg2731"
   inkscape:version="0.92.4 (5da689c313, 2019-01-14)"
   sodipodi:docname="FLRightFoot.svg">
  <defs
     id="defs2725" />
  <sodipodi:namedview
     id="base"
     pagecolor="#ffffff"
     bordercolor="#666666"
     borderopacity="1.0"
     inkscape:pageopacity="0.0"
     inkscape:pageshadow="2"
     inkscape:zoom="22.4"
     inkscape:cx="12.118452"
     inkscape:cy="5.7333804"
     inkscape:document-units="mm"
     inkscape:current-layer="layer1"
     showgrid="false"
     inkscape:window-width="956"
     inkscape:window-height="1007"
     inkscape:window-x="960"
     inkscape:window-y="0"
     inkscape:window-maximized="0" />
  <metadata
     id="metadata2728">
    <rdf:RDF>
      <cc:Work
         rdf:about="">
        <dc:format>image/svg+xml</dc:format>
        <dc:type
           rdf:resource="http://purl.org/dc/dcmitype/StillImage" />
        <dc:title></dc:title>
      </cc:Work>
    </rdf:RDF>
  </metadata>
  <g
     inkscape:label="Layer 1"
     inkscape:groupmode="layer"
     id="layer1"
     transform="translate(-5.5657928,-2.7306704)">
    <g
       style="display:inline;opacity:1"
       inkscape:label="RightLeg3"
       transform="matrix(0.54323967,0,0,0.54323967,7.9051809,4.1430935)"
       id="RightLeg3-2">
      <path
         d="m 4.2677778,-1.85 q -1.3,1.1 -3.95000002,0.8 -2.59999998,-0.3 -3.29999998,-1.55 -1.75,1.75 -1.1,3.6 0.8,1.95 4.24999998,1.55 Q 3.5677778,2.15 4.0177778,0.5 l 0.25,-2.35"
         id="path2-9"
         style="fill:#bfbfbf;fill-opacity:1;fill-rule:evenodd;stroke:none"
         inkscape:connector-curvature="0" />
      <path
         d="m -3.5322222,-1.95 c -0.4333333,0.5 -0.6833333,1.11666667 -0.75,1.85 -0.1440128,1.1839807 0.3462131,2.0044848 1.7416409,2.4809598 0.5528002,0.2185648 1.3143103,0.2544019 2.35356032,0.2232198 C 0.83313347,2.534514 1.3622812,2.3778178 2.2003323,2.1058152 0.03366561,-0.29418483 -1.6655555,-1.7166667 -3.5322222,-1.95"
         id="path4-3"
         style="fill:#767676;fill-opacity:1;fill-rule:evenodd;stroke:none"
         inkscape:connector-curvature="0"
         sodipodi:nodetypes="cccccc" />
      <path
         sodipodi:nodetypes="ccccccccc"
         d="m -2.1556875,2.4939802 0.2348482,0.046888 C -2.1963559,1.7959651 -2.062155,1.0547813 -2.0256313,0.31056439 -2.1857121,1.0088362 -2.3760773,1.7006186 -2.4264499,2.4223994 m -1.4115875,-0.8157657 0.2033169,0.1875511 -0.073141,-0.95497778 0.1090122,-1.14461294 C -3.7490531,0.24712242 -3.937477,0.77671866 -3.993648,1.3856667"
         id="path6-6"
         inkscape:connector-curvature="0"
         style="fill:#000000;fill-opacity:1;fill-rule:evenodd;stroke:none" />
    </g>
  </g>
</svg>
