<?xml version="1.0" encoding="UTF-8" standalone="no"?>
<!-- Created with Inkscape (http://www.inkscape.org/) -->

<svg
   xmlns:dc="http://purl.org/dc/elements/1.1/"
   xmlns:cc="http://creativecommons.org/ns#"
   xmlns:rdf="http://www.w3.org/1999/02/22-rdf-syntax-ns#"
   xmlns:svg="http://www.w3.org/2000/svg"
   xmlns="http://www.w3.org/2000/svg"
   xmlns:sodipodi="http://sodipodi.sourceforge.net/DTD/sodipodi-0.dtd"
   xmlns:inkscape="http://www.inkscape.org/namespaces/inkscape"
   width="4.5337825mm"
   height="2.7612367mm"
   viewBox="0 0 4.5337825 2.7612366"
   version="1.1"
   id="svg2731"
   inkscape:version="0.92.4 (5da689c313, 2019-01-14)"
   sodipodi:docname="FRightFoot.svg">
  <defs
     id="defs2725" />
  <sodipodi:namedview
     id="base"
     pagecolor="#ffffff"
     bordercolor="#666666"
     borderopacity="1.0"
     inkscape:pageopacity="0.0"
     inkscape:pageshadow="2"
     inkscape:zoom="22.4"
     inkscape:cx="9.7894976"
     inkscape:cy="6.0015221"
     inkscape:document-units="mm"
     inkscape:current-layer="layer1"
     showgrid="false"
     inkscape:window-width="956"
     inkscape:window-height="1007"
     inkscape:window-x="960"
     inkscape:window-y="0"
     inkscape:window-maximized="0" />
  <metadata
     id="metadata2728">
    <rdf:RDF>
      <cc:Work
         rdf:about="">
        <dc:format>image/svg+xml</dc:format>
        <dc:type
           rdf:resource="http://purl.org/dc/dcmitype/StillImage" />
        <dc:title></dc:title>
      </cc:Work>
    </rdf:RDF>
  </metadata>
  <g
     inkscape:label="Layer 1"
     inkscape:groupmode="layer"
     id="layer1"
     transform="translate(-6.1819953,-2.8750504)">
    <g
       style="display:inline;opacity:1"
       inkscape:label="RightLeg3"
       id="RightLeg3"
       transform="matrix(0.52916667,0,0,0.52916667,8.457412,4.2508837)">
      <g
         id="use1230">
        <path
           d="m -4.3,-1.85 q 1.3,1.1 3.95,0.8 2.6,-0.3 3.3,-1.55 Q 4.7,-0.85 4.05,1 3.25,2.95 -0.2,2.55 -3.6,2.15 -4.05,0.5 L -4.3,-1.85"
           id="path1238"
           inkscape:connector-curvature="0"
           style="fill:#bfbfbf;fill-opacity:1;fill-rule:evenodd;stroke:none" />
        <path
           d="M 3.5,-1.95 Q 4.15,-1.2 4.25,-0.1 4.45,1.7 2.4,2.35 L 0,2.55 -2.55,2 Q 0.7,-1.6 3.5,-1.95"
           id="path1240"
           inkscape:connector-curvature="0"
           style="fill:#767676;fill-opacity:1;fill-rule:evenodd;stroke:none" />
        <path
           d="M 1.75,2.55 1.4,2.6 1.15,0.6 1.75,2.55 M 3.7,1.7 3.45,1.9 3.05,-0.1 3.7,1.7"
           id="path1242"
           inkscape:connector-curvature="0"
           style="fill:#333333;fill-rule:evenodd;stroke:none" />
      </g>
    </g>
  </g>
</svg>
